<svg viewBox="0 0 330 200" xmlns="http://www.w3.org/2000/svg"><g><g><g><g><g><line x1="70" y1="178" x2="65" y2="178" style="visibility: inherit;" fill="rgb(0, 0, 0)" stroke="rgb(204, 204, 204)" stroke-width="1px"></line><line x1="70" y1="158.22222222222223" x2="65" y2="158.22222222222223" style="visibility: inherit;" fill="rgb(0, 0, 0)" stroke="rgb(204, 204, 204)" stroke-width="1px"></line><line x1="70" y1="138.44444444444446" x2="65" y2="138.44444444444446" style="visibility: inherit;" fill="rgb(0, 0, 0)" stroke="rgb(204, 204, 204)" stroke-width="1px"></line><line x1="70" y1="118.66666666666667" x2="65" y2="118.66666666666667" style="visibility: inherit;" fill="rgb(0, 0, 0)" stroke="rgb(204, 204, 204)" stroke-width="1px"></line><line x1="70" y1="98.88888888888889" x2="65" y2="98.88888888888889" style="visibility: inherit;" fill="rgb(0, 0, 0)" stroke="rgb(204, 204, 204)" stroke-width="1px"></line><line x1="70" y1="79.1111111111111" x2="65" y2="79.1111111111111" style="visibility: inherit;" fill="rgb(0, 0, 0)" stroke="rgb(204, 204, 204)" stroke-width="1px"></line><line x1="70" y1="59.333333333333314" x2="65" y2="59.333333333333314" style="visibility: inherit;" fill="rgb(0, 0, 0)" stroke="rgb(204, 204, 204)" stroke-width="1px"></line><line x1="70" y1="39.55555555555557" x2="65" y2="39.55555555555557" style="visibility: inherit;" fill="rgb(0, 0, 0)" stroke="rgb(204, 204, 204)" stroke-width="1px"></line><line x1="70" y1="19.77777777777777" x2="65" y2="19.77777777777777" style="visibility: inherit;" fill="rgb(0, 0, 0)" stroke="rgb(204, 204, 204)" stroke-width="1px"></line><line x1="70" y1="0" x2="65" y2="0" style="visibility: inherit;" fill="rgb(0, 0, 0)" stroke="rgb(204, 204, 204)" stroke-width="1px"></line></g><g transform="translate(60, 0)"><text x="0" y="178" dx="0em" dy="0.3em" style="text-anchor: end; visibility: hidden; font-family: &quot;Helvetica Neue&quot;, sans-serif; font-size: 12px; font-weight: 200;" fill="rgb(50, 49, 63)" stroke="none" stroke-width="1px">-5e-3</text><text x="0" y="158.22222222222223" dx="0em" dy="0.3em" style="text-anchor: end; visibility: inherit; font-family: &quot;Helvetica Neue&quot;, sans-serif; font-size: 12px; font-weight: 200;" fill="rgb(50, 49, 63)" stroke="none" stroke-width="1px">0</text><text x="0" y="138.44444444444446" dx="0em" dy="0.3em" style="text-anchor: end; visibility: hidden; font-family: &quot;Helvetica Neue&quot;, sans-serif; font-size: 12px; font-weight: 200;" fill="rgb(50, 49, 63)" stroke="none" stroke-width="1px">5e-3</text><text x="0" y="118.66666666666667" dx="0em" dy="0.3em" style="text-anchor: end; visibility: inherit; font-family: &quot;Helvetica Neue&quot;, sans-serif; font-size: 12px; font-weight: 200;" fill="rgb(50, 49, 63)" stroke="none" stroke-width="1px">0.01</text><text x="0" y="98.88888888888889" dx="0em" dy="0.3em" style="text-anchor: end; visibility: hidden; font-family: &quot;Helvetica Neue&quot;, sans-serif; font-size: 12px; font-weight: 200;" fill="rgb(50, 49, 63)" stroke="none" stroke-width="1px">0.015</text><text x="0" y="79.1111111111111" dx="0em" dy="0.3em" style="text-anchor: end; visibility: inherit; font-family: &quot;Helvetica Neue&quot;, sans-serif; font-size: 12px; font-weight: 200;" fill="rgb(50, 49, 63)" stroke="none" stroke-width="1px">0.02</text><text x="0" y="59.333333333333314" dx="0em" dy="0.3em" style="text-anchor: end; visibility: hidden; font-family: &quot;Helvetica Neue&quot;, sans-serif; font-size: 12px; font-weight: 200;" fill="rgb(50, 49, 63)" stroke="none" stroke-width="1px">0.025</text><text x="0" y="39.55555555555557" dx="0em" dy="0.3em" style="text-anchor: end; visibility: inherit; font-family: &quot;Helvetica Neue&quot;, sans-serif; font-size: 12px; font-weight: 200;" fill="rgb(50, 49, 63)" stroke="none" stroke-width="1px">0.03</text><text x="0" y="19.77777777777777" dx="0em" dy="0.3em" style="text-anchor: end; visibility: hidden; font-family: &quot;Helvetica Neue&quot;, sans-serif; font-size: 12px; font-weight: 200;" fill="rgb(50, 49, 63)" stroke="none" stroke-width="1px">0.035</text><text x="0" y="0" dx="0em" dy="0.3em" style="text-anchor: end; visibility: hidden; font-family: &quot;Helvetica Neue&quot;, sans-serif; font-size: 12px; font-weight: 200;" fill="rgb(50, 49, 63)" stroke="none" stroke-width="1px">0.04</text></g><line x1="70" y1="0" x2="70" y2="178" fill="rgb(0, 0, 0)" stroke="rgb(204, 204, 204)" stroke-width="1px"></line></g></g><g transform="translate(70, 0)" clip-path="url(#clip_0)"><clipPath id="clip_0"><rect width="260" height="178"></rect></clipPath><g><g><g><line x1="0" y1="0" x2="0" y2="178" fill="rgb(0, 0, 0)" stroke="rgb(60, 60, 60)" stroke-width="1px" opacity="0.25"></line><line x1="21.666666666666664" y1="0" x2="21.666666666666664" y2="178" fill="rgb(0, 0, 0)" stroke="rgb(60, 60, 60)" stroke-width="1px" opacity="0.25"></line><line x1="43.33333333333333" y1="0" x2="43.33333333333333" y2="178" fill="rgb(0, 0, 0)" stroke="rgb(60, 60, 60)" stroke-width="1px" opacity="0.25"></line><line x1="65" y1="0" x2="65" y2="178" fill="rgb(0, 0, 0)" stroke="rgb(60, 60, 60)" stroke-width="1px" opacity="0.25"></line><line x1="86.66666666666666" y1="0" x2="86.66666666666666" y2="178" fill="rgb(0, 0, 0)" stroke="rgb(60, 60, 60)" stroke-width="1px" opacity="0.25"></line><line x1="108.33333333333334" y1="0" x2="108.33333333333334" y2="178" fill="rgb(0, 0, 0)" stroke="rgb(60, 60, 60)" stroke-width="1px" opacity="0.25"></line><line x1="130" y1="0" x2="130" y2="178" fill="rgb(0, 0, 0)" stroke="rgb(60, 60, 60)" stroke-width="1px" opacity="0.25"></line><line x1="151.66666666666669" y1="0" x2="151.66666666666669" y2="178" fill="rgb(0, 0, 0)" stroke="rgb(60, 60, 60)" stroke-width="1px" opacity="0.25"></line><line x1="173.33333333333331" y1="0" x2="173.33333333333331" y2="178" fill="rgb(0, 0, 0)" stroke="rgb(60, 60, 60)" stroke-width="1px" opacity="0.25"></line><line x1="195" y1="0" x2="195" y2="178" fill="rgb(0, 0, 0)" stroke="rgb(60, 60, 60)" stroke-width="1px" opacity="0.25"></line><line x1="216.66666666666669" y1="0" x2="216.66666666666669" y2="178" fill="rgb(0, 0, 0)" stroke="rgb(60, 60, 60)" stroke-width="1px" opacity="0.25"></line><line x1="238.33333333333331" y1="0" x2="238.33333333333331" y2="178" fill="rgb(0, 0, 0)" stroke="rgb(60, 60, 60)" stroke-width="1px" opacity="0.25"></line><line x1="260" y1="0" x2="260" y2="178" fill="rgb(0, 0, 0)" stroke="rgb(60, 60, 60)" stroke-width="1px" opacity="0.25"></line></g><g><line x1="0" y1="178" x2="260" y2="178" fill="rgb(0, 0, 0)" stroke="rgb(60, 60, 60)" stroke-width="1px" opacity="0.25"></line><line x1="0" y1="158.22222222222223" x2="260" y2="158.22222222222223" fill="rgb(0, 0, 0)" stroke="rgb(60, 60, 60)" stroke-width="1px" opacity="0.25"></line><line x1="0" y1="138.44444444444446" x2="260" y2="138.44444444444446" fill="rgb(0, 0, 0)" stroke="rgb(60, 60, 60)" stroke-width="1px" opacity="0.25"></line><line x1="0" y1="118.66666666666667" x2="260" y2="118.66666666666667" fill="rgb(0, 0, 0)" stroke="rgb(60, 60, 60)" stroke-width="1px" opacity="0.25"></line><line x1="0" y1="98.88888888888889" x2="260" y2="98.88888888888889" fill="rgb(0, 0, 0)" stroke="rgb(60, 60, 60)" stroke-width="1px" opacity="0.25"></line><line x1="0" y1="79.1111111111111" x2="260" y2="79.1111111111111" fill="rgb(0, 0, 0)" stroke="rgb(60, 60, 60)" stroke-width="1px" opacity="0.25"></line><line x1="0" y1="59.333333333333314" x2="260" y2="59.333333333333314" fill="rgb(0, 0, 0)" stroke="rgb(60, 60, 60)" stroke-width="1px" opacity="0.25"></line><line x1="0" y1="39.55555555555557" x2="260" y2="39.55555555555557" fill="rgb(0, 0, 0)" stroke="rgb(60, 60, 60)" stroke-width="1px" opacity="0.25"></line><line x1="0" y1="19.77777777777777" x2="260" y2="19.77777777777777" fill="rgb(0, 0, 0)" stroke="rgb(60, 60, 60)" stroke-width="1px" opacity="0.25"></line><line x1="0" y1="0" x2="260" y2="0" fill="rgb(0, 0, 0)" stroke="rgb(60, 60, 60)" stroke-width="1px" opacity="0.25"></line></g></g></g><g><g><line x1="0" y1="158.22222222222223" x2="260" y2="158.22222222222223" fill="rgb(0, 0, 0)" stroke="rgb(153, 153, 153)" stroke-width="1.5px"></line></g></g><g><g><line x1="21.666666666666664" y1="0" x2="21.666666666666664" y2="178" fill="rgb(0, 0, 0)" stroke="rgb(153, 153, 153)" stroke-width="1.5px"></line></g></g><g><g><g><g><g><path stroke="rgb(0, 119, 187)" stroke-width="2px" d="M22.732666666666667,158.22222222222223L23.828999999999997,158.22222222222223L24.947,158.22222222222223L26.078,158.22222222222223L27.248,158.22222222222223L28.439666666666668,158.22222222222223L29.627,158.22222222222223L30.827333333333332,158.22222222222223L32.02333333333333,158.22222222222223L33.241,158.22222222222223L34.45,158.22222222222223L35.59833333333333,158.22222222222223L36.742333333333335,158.22222222222223L37.894999999999996,158.22222222222223L39.026,158.22079532053638L40.183,158.0687406382867L41.32266666666667,158.024590892061L42.471,156.90305384491248L43.628,157.24831287641828L44.772,157.34306324426382L45.88133333333333,157.55210290460099L47.00366666666667,157.72060685561684L48.126,157.8069352373969L49.26133333333333,157.9069713725676L50.39233333333333,156.6223219822577L51.52333333333333,156.90267358654688L52.62833333333333,155.78335202440945L53.733333333333334,156.05705922886773L54.82533333333333,156.68136807611342L55.904333333333334,157.1266909480469L57.03533333333333,157.40475963202448L58.123,157.59359202303202L59.245333333333335,157.4062116773509L60.57133333333333,156.84508039391258L61.92766666666667,156.93070687173423L63.297,156.94079579019674L64.779,154.99238123510096L66.26100000000001,147.67257702991242L67.73,141.1169280353052L69.35933333333332,138.80608457523653L71.019,135.44710511412035L72.71333333333334,134.3186665074353L74.42066666666666,132.23015170742906L76.11500000000001,132.35874426473208L77.79633333333334,130.54612354197832L79.49933333333334,129.62027197271223L81.20666666666668,130.02781683245996L82.91833333333334,127.10249681746659L84.62566666666667,125.18849402539988L86.34166666666667,122.72464716294962L88.04033333333334,116.2903713030752L89.74333333333334,113.89867507081708L91.44633333333334,110.70414986664403L93.14500000000001,103.46579876587371L94.848,101.95687507976487L96.54666666666667,96.97622164801491L98.24533333333333,92.70758497621325L99.93100000000001,91.38887124831453L101.62966666666668,87.87924787327452L103.32833333333333,85.4448119581334L104.494,82.76142918890072L105.638,81.81662120444818L106.79933333333334,80.46490489931776L107.94333333333334,78.562471975297L109.10900000000001,74.54932870189053L110.27466666666666,76.93429411305517L111.44466666666666,74.53624680173549L112.61466666666666,75.03315850344555L113.76733333333333,73.34915077835592L114.93299999999999,71.78223987374143L116.09866666666667,68.3935850106232L117.25133333333333,66.71050432286219L118.39533333333333,65.74405738789012L119.548,68.22406896418636L120.68766666666667,69.28190746914383L121.84033333333333,71.61327201418221L122.97999999999999,69.04712965805032L124.13266666666667,67.84106841413168L125.28966666666666,68.94974603547142L126.83666666666667,68.1981599916342L128.401,62.84971879240749L129.96966666666668,61.62021935481377L131.56433333333334,59.90543651690132L133.159,57.21777593233662L134.74066666666667,55.324995092939105L136.33966666666666,53.71470369876377L137.9343333333333,53.46135562825654L139.52466666666666,54.400939504766924L140.85066666666665,53.195241866621856L142.28066666666666,52.20274027428228L143.72366666666665,52.44482641123889L145.17533333333333,52.494157577219426L146.63133333333332,52.47982817655662L148.08733333333333,49.24880301605188L149.52166666666665,48.234111080300664L150.96033333333332,48.71289230122437L152.40766666666664,49.800187261191354L153.85933333333332,51.51482102094289L155.311,50.87554669986237L156.754,48.88145853812921L158.20566666666667,48.85952210915639L159.64,49.6274200157676L161.083,49.70290042498257L162.539,48.94562144102889L164.00366666666667,46.524519795035076L165.45966666666666,42.56965409485903L166.92433333333332,41.91454181202917L168.37599999999998,42.91556528072704L169.845,45.369363511482305L171.30533333333335,47.051308499564016L172.77433333333332,50.38723450121664L174.24766666666667,52.21199646997343L175.71666666666664,54.08697725538423L177.16833333333332,52.52716704092143L178.724,48.08615591935552L180.35766666666666,48.55587131580543L182.03033333333335,48.59130993370604L183.69433333333333,48.072821595189964L185.315,45.07812766132392L186.953,40.685693748453104L188.591,42.16739317308412L190.25933333333333,44.27808615962218L191.93633333333332,47.846262255387984L193.61766666666668,47.47062859141241L195.29466666666667,47.27390064342774L196.95,45.06410287365736L198.63566666666668,46.794131010185964L200.31699999999998,45.20747963997866L202.01566666666668,45.990907243524106L203.70999999999998,44.10173693687571L205.37833333333336,44.336404822775705L207.077,45.64091372696282L208.76700000000002,44.3505435538261L210.46133333333333,42.69613348420958L212.147,41.44735826870098L213.824,41.87487122704812L215.527,44.90710051259086L216.70566666666667,44.31198581867636L217.81933333333333,45.38837564517593L218.95466666666667,45.33804390692876L220.077,45.668873347786615L221.20366666666666,44.949984500365844L222.326,46.709532745406335L223.46133333333336,45.45316064890824L224.588,45.80142195053753L225.69733333333332,46.157693565459454L226.82833333333332,47.49466384668773L227.955,51.62580257616264L229.06866666666667,53.269215557272474L230.19966666666664,53.70583135529979L231.33066666666667,55.09161784884327L232.453,53.09068912559982L233.57533333333333,53.3514096407811L234.69333333333333,53.35351366562247L235.82433333333333,50.70005574758723L236.96833333333333,48.60682056055208L238.095,47.99468975879199L239.20000000000002,47.39409959409639L240.318,47.20121493251955" style="fill: none;" fill="none"></path></g></g></g></g><g opacity="0.2"><g><g><g><path stroke="rgb(0, 119, 187)" stroke-width="2px" d="M22.732666666666667,158.22222222222223L23.828999999999997,158.22222222222223L24.947,158.22222222222223L26.078,158.22222222222223L27.248,158.22222222222223L28.439666666666668,158.22222222222223L29.627,158.22222222222223L30.827333333333332,158.22222222222223L32.02333333333333,158.22222222222223L33.241,158.22222222222223L34.45,158.22222222222223L35.59833333333333,158.22222222222223L36.742333333333335,158.22222222222223L37.894999999999996,158.22222222222223L39.026,158.21731446308897L40.183,157.6968985138616L41.32266666666667,157.9164365983387L42.471,154.15220684123534L43.628,158.09589043130916L44.772,157.57581148591512L45.88133333333333,158.06582334652518L47.00366666666667,158.1348403083943L48.126,158.01920396037167L49.26133333333333,158.1529846221933L50.39233333333333,153.46269806495144L51.52333333333333,157.59226014886775L52.62833333333333,153.02997633256018L53.733333333333334,156.73036836486102L54.82533333333333,158.2171881294849L55.904333333333334,158.22222222222223L57.03533333333333,158.0888417094506L58.123,158.0581470236842L59.245333333333335,156.94522550986665L60.57133333333333,155.46459879270859L61.92766666666667,157.14136384722465L63.297,156.96561646192438L64.779,150.1988991966678L66.26100000000001,129.66439852035708L67.73,124.98870837357308L69.35933333333332,133.12093940211668L71.019,127.18332809044254L72.71333333333334,131.5424756018652L74.42066666666666,127.09197478327485L76.11500000000001,132.67510851803752L77.79633333333334,126.08670159512096L79.49933333333334,127.34248538563648L81.20666666666668,131.03046164496078L82.91833333333334,119.90560303297306L84.62566666666667,120.47965015139843L86.34166666666667,116.6630726903677L88.04033333333334,100.46071747276518L89.74333333333334,108.0146059576008L91.44633333333334,102.84495479696326L93.14500000000001,85.65795253713924L94.848,98.24460957778824L96.54666666666667,84.72278024752933L98.24533333333333,82.20585259464052L99.93100000000001,88.14456170797348L101.62966666666668,79.24484575125906L103.32833333333333,79.4555941985713L104.494,76.15975048144657L105.638,79.49219741092787L106.79933333333334,77.13940215773052L107.94333333333334,73.8820920156108L109.10900000000001,64.67616307404305L110.27466666666666,82.80180417166815L111.44466666666666,68.63655255238214L112.61466666666666,76.2556644545661L113.76733333333333,69.20614215400482L114.93299999999999,67.92731373839906L116.09866666666667,60.056790520747484L117.25133333333333,62.56977640257941L118.39533333333333,63.366397281487764L119.548,74.3254123230775L120.68766666666667,71.88440981176163L121.84033333333333,77.34891281525293L122.97999999999999,62.733886698881776L124.13266666666667,64.87390736076567L125.28966666666666,71.67732315924431L126.83666666666667,66.34910228517319L128.401,49.69144303931131L129.96966666666668,58.59539547893736L131.56433333333334,55.686714725361924L133.159,50.60557290249402L134.74066666666667,50.6683612631427L136.33966666666666,49.75305255254111L137.9343333333333,52.838066776593536L139.52466666666666,56.71251091029907L140.85066666666665,50.22897535893652L142.28066666666666,49.760980301433136L143.72366666666665,53.040408568249816L145.17533333333333,52.615522487296005L146.63133333333332,52.444574875964065L148.08733333333333,41.29981032013893L149.52166666666665,45.73775825566716L150.96033333333332,49.89079350564214L152.40766666666664,52.47515859868791L153.85933333333332,55.73317604925896L155.311,49.30279914869203L156.754,43.97558766272334L158.20566666666667,48.80555393960742L159.64,51.51660829120213L161.083,49.88859790232448L162.539,47.08255791995259L164.00366666666667,40.56810709502963L165.45966666666666,32.83986339304181L166.92433333333332,40.30282958679729L168.37599999999998,45.378290838665436L169.845,51.40621659821933L171.30533333333335,51.189242362976074L172.77433333333332,58.594305045074876L174.24766666666667,56.70128975643051L175.71666666666664,58.699819256861986L177.16833333333332,48.68971007731227L178.724,37.16034655107393L180.35766666666666,49.71146870983972L182.03033333333335,48.678496291240066L183.69433333333333,46.79723263780278L185.315,37.71055884824861L186.953,29.879394398795256L188.591,45.81268137693405L190.25933333333333,49.470829112662216L191.93633333333332,56.62471624877716L193.61766666666668,46.54649179180464L195.29466666666667,46.789909048212905L196.95,39.62754157847829L198.63566666666668,51.05035940143797L200.31699999999998,41.30398786067963L202.01566666666668,47.918301797575424L203.70999999999998,39.45398576723207L205.37833333333336,44.91373654206595L207.077,48.850276463561585L208.76700000000002,41.17596503098807L210.46133333333333,38.62594123681387L212.147,38.37511197725934L213.824,42.926641861597716L215.527,52.3670140835974L216.70566666666667,42.847880118423035L217.81933333333333,48.03651809030109L218.95466666666667,45.21421738134492L220.077,46.482782456609925L221.20366666666666,43.181368685430954L222.326,51.03838673233986L223.46133333333336,42.36222445302539L224.588,46.65821705593004L225.69733333333332,47.034195704592605L226.82833333333332,50.783888310194016L227.955,61.78926152653163L229.06866666666667,57.31235268380905L230.19966666666664,54.77999686532549L231.33066666666667,58.500940329498704L232.453,48.1679890486929L233.57533333333333,53.992836236953735L234.69333333333333,53.358690003554045L235.82433333333333,44.17199837830333L236.96833333333333,43.457027418745895L238.095,46.488720900482605L239.20000000000002,45.91652309894562L240.318,46.72667861978215" style="fill: none;" fill="none"></path></g></g></g></g></g></g><g transform="translate(70, 178)" clip-path="url(#clip_1)"><clipPath id="clip_1"><rect width="260" height="22"></rect></clipPath><g><g><line x1="0" y1="0" x2="0" y2="5" style="visibility: inherit;" fill="rgb(0, 0, 0)" stroke="rgb(204, 204, 204)" stroke-width="1px"></line><line x1="21.666666666666664" y1="0" x2="21.666666666666664" y2="5" style="visibility: inherit;" fill="rgb(0, 0, 0)" stroke="rgb(204, 204, 204)" stroke-width="1px"></line><line x1="43.33333333333333" y1="0" x2="43.33333333333333" y2="5" style="visibility: inherit;" fill="rgb(0, 0, 0)" stroke="rgb(204, 204, 204)" stroke-width="1px"></line><line x1="65" y1="0" x2="65" y2="5" style="visibility: inherit;" fill="rgb(0, 0, 0)" stroke="rgb(204, 204, 204)" stroke-width="1px"></line><line x1="86.66666666666666" y1="0" x2="86.66666666666666" y2="5" style="visibility: inherit;" fill="rgb(0, 0, 0)" stroke="rgb(204, 204, 204)" stroke-width="1px"></line><line x1="108.33333333333334" y1="0" x2="108.33333333333334" y2="5" style="visibility: inherit;" fill="rgb(0, 0, 0)" stroke="rgb(204, 204, 204)" stroke-width="1px"></line><line x1="130" y1="0" x2="130" y2="5" style="visibility: inherit;" fill="rgb(0, 0, 0)" stroke="rgb(204, 204, 204)" stroke-width="1px"></line><line x1="151.66666666666669" y1="0" x2="151.66666666666669" y2="5" style="visibility: inherit;" fill="rgb(0, 0, 0)" stroke="rgb(204, 204, 204)" stroke-width="1px"></line><line x1="173.33333333333331" y1="0" x2="173.33333333333331" y2="5" style="visibility: inherit;" fill="rgb(0, 0, 0)" stroke="rgb(204, 204, 204)" stroke-width="1px"></line><line x1="195" y1="0" x2="195" y2="5" style="visibility: inherit;" fill="rgb(0, 0, 0)" stroke="rgb(204, 204, 204)" stroke-width="1px"></line><line x1="216.66666666666669" y1="0" x2="216.66666666666669" y2="5" style="visibility: inherit;" fill="rgb(0, 0, 0)" stroke="rgb(204, 204, 204)" stroke-width="1px"></line><line x1="238.33333333333331" y1="0" x2="238.33333333333331" y2="5" style="visibility: inherit;" fill="rgb(0, 0, 0)" stroke="rgb(204, 204, 204)" stroke-width="1px"></line><line x1="260" y1="0" x2="260" y2="5" style="visibility: inherit;" fill="rgb(0, 0, 0)" stroke="rgb(204, 204, 204)" stroke-width="1px"></line></g><g transform="translate(0, 8)"><text x="0" y="0" dx="0em" dy="0.95em" style="text-anchor: middle; visibility: hidden; font-family: &quot;Helvetica Neue&quot;, sans-serif; font-size: 12px; font-weight: 200;" fill="rgb(50, 49, 63)" stroke="none" stroke-width="1px">-5k</text><text x="21.666666666666664" y="0" dx="0em" dy="0.95em" style="text-anchor: middle; visibility: inherit; font-family: &quot;Helvetica Neue&quot;, sans-serif; font-size: 12px; font-weight: 200;" fill="rgb(50, 49, 63)" stroke="none" stroke-width="1px">0</text><text x="43.33333333333333" y="0" dx="0em" dy="0.95em" style="text-anchor: middle; visibility: hidden; font-family: &quot;Helvetica Neue&quot;, sans-serif; font-size: 12px; font-weight: 200;" fill="rgb(50, 49, 63)" stroke="none" stroke-width="1px">5k</text><text x="65" y="0" dx="0em" dy="0.95em" style="text-anchor: middle; visibility: inherit; font-family: &quot;Helvetica Neue&quot;, sans-serif; font-size: 12px; font-weight: 200;" fill="rgb(50, 49, 63)" stroke="none" stroke-width="1px">10k</text><text x="86.66666666666666" y="0" dx="0em" dy="0.95em" style="text-anchor: middle; visibility: hidden; font-family: &quot;Helvetica Neue&quot;, sans-serif; font-size: 12px; font-weight: 200;" fill="rgb(50, 49, 63)" stroke="none" stroke-width="1px">15k</text><text x="108.33333333333334" y="0" dx="0em" dy="0.95em" style="text-anchor: middle; visibility: inherit; font-family: &quot;Helvetica Neue&quot;, sans-serif; font-size: 12px; font-weight: 200;" fill="rgb(50, 49, 63)" stroke="none" stroke-width="1px">20k</text><text x="130" y="0" dx="0em" dy="0.95em" style="text-anchor: middle; visibility: hidden; font-family: &quot;Helvetica Neue&quot;, sans-serif; font-size: 12px; font-weight: 200;" fill="rgb(50, 49, 63)" stroke="none" stroke-width="1px">25k</text><text x="151.66666666666669" y="0" dx="0em" dy="0.95em" style="text-anchor: middle; visibility: inherit; font-family: &quot;Helvetica Neue&quot;, sans-serif; font-size: 12px; font-weight: 200;" fill="rgb(50, 49, 63)" stroke="none" stroke-width="1px">30k</text><text x="173.33333333333331" y="0" dx="0em" dy="0.95em" style="text-anchor: middle; visibility: hidden; font-family: &quot;Helvetica Neue&quot;, sans-serif; font-size: 12px; font-weight: 200;" fill="rgb(50, 49, 63)" stroke="none" stroke-width="1px">35k</text><text x="195" y="0" dx="0em" dy="0.95em" style="text-anchor: middle; visibility: inherit; font-family: &quot;Helvetica Neue&quot;, sans-serif; font-size: 12px; font-weight: 200;" fill="rgb(50, 49, 63)" stroke="none" stroke-width="1px">40k</text><text x="216.66666666666669" y="0" dx="0em" dy="0.95em" style="text-anchor: middle; visibility: hidden; font-family: &quot;Helvetica Neue&quot;, sans-serif; font-size: 12px; font-weight: 200;" fill="rgb(50, 49, 63)" stroke="none" stroke-width="1px">45k</text><text x="238.33333333333331" y="0" dx="0em" dy="0.95em" style="text-anchor: middle; visibility: inherit; font-family: &quot;Helvetica Neue&quot;, sans-serif; font-size: 12px; font-weight: 200;" fill="rgb(50, 49, 63)" stroke="none" stroke-width="1px">50k</text><text x="260" y="0" dx="0em" dy="0.95em" style="text-anchor: middle; visibility: hidden; font-family: &quot;Helvetica Neue&quot;, sans-serif; font-size: 12px; font-weight: 200;" fill="rgb(50, 49, 63)" stroke="none" stroke-width="1px">55k</text></g><line x1="0" y1="0" x2="260" y2="0" fill="rgb(0, 0, 0)" stroke="rgb(204, 204, 204)" stroke-width="1px"></line></g></g></g></g></svg>