<svg viewBox="0 0 330 200" xmlns="http://www.w3.org/2000/svg"><g><g><g><g><g><line x1="70" y1="178" x2="65" y2="178" style="visibility: inherit;" fill="rgb(0, 0, 0)" stroke="rgb(204, 204, 204)" stroke-width="1px"></line><line x1="70" y1="158.22222222222223" x2="65" y2="158.22222222222223" style="visibility: inherit;" fill="rgb(0, 0, 0)" stroke="rgb(204, 204, 204)" stroke-width="1px"></line><line x1="70" y1="138.44444444444446" x2="65" y2="138.44444444444446" style="visibility: inherit;" fill="rgb(0, 0, 0)" stroke="rgb(204, 204, 204)" stroke-width="1px"></line><line x1="70" y1="118.66666666666667" x2="65" y2="118.66666666666667" style="visibility: inherit;" fill="rgb(0, 0, 0)" stroke="rgb(204, 204, 204)" stroke-width="1px"></line><line x1="70" y1="98.88888888888889" x2="65" y2="98.88888888888889" style="visibility: inherit;" fill="rgb(0, 0, 0)" stroke="rgb(204, 204, 204)" stroke-width="1px"></line><line x1="70" y1="79.1111111111111" x2="65" y2="79.1111111111111" style="visibility: inherit;" fill="rgb(0, 0, 0)" stroke="rgb(204, 204, 204)" stroke-width="1px"></line><line x1="70" y1="59.333333333333314" x2="65" y2="59.333333333333314" style="visibility: inherit;" fill="rgb(0, 0, 0)" stroke="rgb(204, 204, 204)" stroke-width="1px"></line><line x1="70" y1="39.55555555555557" x2="65" y2="39.55555555555557" style="visibility: inherit;" fill="rgb(0, 0, 0)" stroke="rgb(204, 204, 204)" stroke-width="1px"></line><line x1="70" y1="19.77777777777777" x2="65" y2="19.77777777777777" style="visibility: inherit;" fill="rgb(0, 0, 0)" stroke="rgb(204, 204, 204)" stroke-width="1px"></line><line x1="70" y1="0" x2="65" y2="0" style="visibility: inherit;" fill="rgb(0, 0, 0)" stroke="rgb(204, 204, 204)" stroke-width="1px"></line></g><g transform="translate(60, 0)"><text x="0" y="178" dx="0em" dy="0.3em" style="text-anchor: end; visibility: hidden; font-family: &quot;Helvetica Neue&quot;, sans-serif; font-size: 12px; font-weight: 200;" fill="rgb(50, 49, 63)" stroke="none" stroke-width="1px">-0.01</text><text x="0" y="158.22222222222223" dx="0em" dy="0.3em" style="text-anchor: end; visibility: inherit; font-family: &quot;Helvetica Neue&quot;, sans-serif; font-size: 12px; font-weight: 200;" fill="rgb(50, 49, 63)" stroke="none" stroke-width="1px">0</text><text x="0" y="138.44444444444446" dx="0em" dy="0.3em" style="text-anchor: end; visibility: hidden; font-family: &quot;Helvetica Neue&quot;, sans-serif; font-size: 12px; font-weight: 200;" fill="rgb(50, 49, 63)" stroke="none" stroke-width="1px">0.01</text><text x="0" y="118.66666666666667" dx="0em" dy="0.3em" style="text-anchor: end; visibility: inherit; font-family: &quot;Helvetica Neue&quot;, sans-serif; font-size: 12px; font-weight: 200;" fill="rgb(50, 49, 63)" stroke="none" stroke-width="1px">0.02</text><text x="0" y="98.88888888888889" dx="0em" dy="0.3em" style="text-anchor: end; visibility: hidden; font-family: &quot;Helvetica Neue&quot;, sans-serif; font-size: 12px; font-weight: 200;" fill="rgb(50, 49, 63)" stroke="none" stroke-width="1px">0.03</text><text x="0" y="79.1111111111111" dx="0em" dy="0.3em" style="text-anchor: end; visibility: inherit; font-family: &quot;Helvetica Neue&quot;, sans-serif; font-size: 12px; font-weight: 200;" fill="rgb(50, 49, 63)" stroke="none" stroke-width="1px">0.04</text><text x="0" y="59.333333333333314" dx="0em" dy="0.3em" style="text-anchor: end; visibility: hidden; font-family: &quot;Helvetica Neue&quot;, sans-serif; font-size: 12px; font-weight: 200;" fill="rgb(50, 49, 63)" stroke="none" stroke-width="1px">0.05</text><text x="0" y="39.55555555555557" dx="0em" dy="0.3em" style="text-anchor: end; visibility: inherit; font-family: &quot;Helvetica Neue&quot;, sans-serif; font-size: 12px; font-weight: 200;" fill="rgb(50, 49, 63)" stroke="none" stroke-width="1px">0.06</text><text x="0" y="19.77777777777777" dx="0em" dy="0.3em" style="text-anchor: end; visibility: hidden; font-family: &quot;Helvetica Neue&quot;, sans-serif; font-size: 12px; font-weight: 200;" fill="rgb(50, 49, 63)" stroke="none" stroke-width="1px">0.07</text><text x="0" y="0" dx="0em" dy="0.3em" style="text-anchor: end; visibility: hidden; font-family: &quot;Helvetica Neue&quot;, sans-serif; font-size: 12px; font-weight: 200;" fill="rgb(50, 49, 63)" stroke="none" stroke-width="1px">0.08</text></g><line x1="70" y1="0" x2="70" y2="178" fill="rgb(0, 0, 0)" stroke="rgb(204, 204, 204)" stroke-width="1px"></line></g></g><g transform="translate(70, 0)" clip-path="url(#clip_0)"><clipPath id="clip_0"><rect width="260" height="178"></rect></clipPath><g><g><g><line x1="0" y1="0" x2="0" y2="178" fill="rgb(0, 0, 0)" stroke="rgb(60, 60, 60)" stroke-width="1px" opacity="0.25"></line><line x1="21.666666666666664" y1="0" x2="21.666666666666664" y2="178" fill="rgb(0, 0, 0)" stroke="rgb(60, 60, 60)" stroke-width="1px" opacity="0.25"></line><line x1="43.33333333333333" y1="0" x2="43.33333333333333" y2="178" fill="rgb(0, 0, 0)" stroke="rgb(60, 60, 60)" stroke-width="1px" opacity="0.25"></line><line x1="65" y1="0" x2="65" y2="178" fill="rgb(0, 0, 0)" stroke="rgb(60, 60, 60)" stroke-width="1px" opacity="0.25"></line><line x1="86.66666666666666" y1="0" x2="86.66666666666666" y2="178" fill="rgb(0, 0, 0)" stroke="rgb(60, 60, 60)" stroke-width="1px" opacity="0.25"></line><line x1="108.33333333333334" y1="0" x2="108.33333333333334" y2="178" fill="rgb(0, 0, 0)" stroke="rgb(60, 60, 60)" stroke-width="1px" opacity="0.25"></line><line x1="130" y1="0" x2="130" y2="178" fill="rgb(0, 0, 0)" stroke="rgb(60, 60, 60)" stroke-width="1px" opacity="0.25"></line><line x1="151.66666666666669" y1="0" x2="151.66666666666669" y2="178" fill="rgb(0, 0, 0)" stroke="rgb(60, 60, 60)" stroke-width="1px" opacity="0.25"></line><line x1="173.33333333333331" y1="0" x2="173.33333333333331" y2="178" fill="rgb(0, 0, 0)" stroke="rgb(60, 60, 60)" stroke-width="1px" opacity="0.25"></line><line x1="195" y1="0" x2="195" y2="178" fill="rgb(0, 0, 0)" stroke="rgb(60, 60, 60)" stroke-width="1px" opacity="0.25"></line><line x1="216.66666666666669" y1="0" x2="216.66666666666669" y2="178" fill="rgb(0, 0, 0)" stroke="rgb(60, 60, 60)" stroke-width="1px" opacity="0.25"></line><line x1="238.33333333333331" y1="0" x2="238.33333333333331" y2="178" fill="rgb(0, 0, 0)" stroke="rgb(60, 60, 60)" stroke-width="1px" opacity="0.25"></line><line x1="260" y1="0" x2="260" y2="178" fill="rgb(0, 0, 0)" stroke="rgb(60, 60, 60)" stroke-width="1px" opacity="0.25"></line></g><g><line x1="0" y1="178" x2="260" y2="178" fill="rgb(0, 0, 0)" stroke="rgb(60, 60, 60)" stroke-width="1px" opacity="0.25"></line><line x1="0" y1="158.22222222222223" x2="260" y2="158.22222222222223" fill="rgb(0, 0, 0)" stroke="rgb(60, 60, 60)" stroke-width="1px" opacity="0.25"></line><line x1="0" y1="138.44444444444446" x2="260" y2="138.44444444444446" fill="rgb(0, 0, 0)" stroke="rgb(60, 60, 60)" stroke-width="1px" opacity="0.25"></line><line x1="0" y1="118.66666666666667" x2="260" y2="118.66666666666667" fill="rgb(0, 0, 0)" stroke="rgb(60, 60, 60)" stroke-width="1px" opacity="0.25"></line><line x1="0" y1="98.88888888888889" x2="260" y2="98.88888888888889" fill="rgb(0, 0, 0)" stroke="rgb(60, 60, 60)" stroke-width="1px" opacity="0.25"></line><line x1="0" y1="79.1111111111111" x2="260" y2="79.1111111111111" fill="rgb(0, 0, 0)" stroke="rgb(60, 60, 60)" stroke-width="1px" opacity="0.25"></line><line x1="0" y1="59.333333333333314" x2="260" y2="59.333333333333314" fill="rgb(0, 0, 0)" stroke="rgb(60, 60, 60)" stroke-width="1px" opacity="0.25"></line><line x1="0" y1="39.55555555555557" x2="260" y2="39.55555555555557" fill="rgb(0, 0, 0)" stroke="rgb(60, 60, 60)" stroke-width="1px" opacity="0.25"></line><line x1="0" y1="19.77777777777777" x2="260" y2="19.77777777777777" fill="rgb(0, 0, 0)" stroke="rgb(60, 60, 60)" stroke-width="1px" opacity="0.25"></line><line x1="0" y1="0" x2="260" y2="0" fill="rgb(0, 0, 0)" stroke="rgb(60, 60, 60)" stroke-width="1px" opacity="0.25"></line></g></g></g><g><g><line x1="0" y1="158.22222222222223" x2="260" y2="158.22222222222223" fill="rgb(0, 0, 0)" stroke="rgb(153, 153, 153)" stroke-width="1.5px"></line></g></g><g><g><line x1="21.666666666666664" y1="0" x2="21.666666666666664" y2="178" fill="rgb(0, 0, 0)" stroke="rgb(153, 153, 153)" stroke-width="1.5px"></line></g></g><g><g><g><g><g><path stroke="rgb(0, 119, 187)" stroke-width="2px" d="M22.732666666666667,158.22222222222223L23.828999999999997,158.22222222222223L24.947,158.22222222222223L26.078,158.22222222222223L27.248,158.22222222222223L28.439666666666668,158.22222222222223L29.627,158.22222222222223L30.827333333333332,158.22222222222223L32.02333333333333,158.22222222222223L33.241,158.22222222222223L34.45,158.22222222222223L35.59833333333333,158.1532686228497L36.742333333333335,158.1734355136511L37.894999999999996,158.1876548370925L39.026,158.09538710996017L40.183,156.41903551741066L41.32266666666667,152.96321200156706L42.471,153.39916075307326L43.628,153.3012132941828L44.772,152.722571010337L45.88133333333333,153.63464878280544L47.00366666666667,153.63830448321227L48.126,153.9461349991919L49.26133333333333,152.03626604035043L50.39233333333333,150.9760789012475L51.52333333333333,149.2129101533094L52.62833333333333,141.41887441382158L53.733333333333334,142.68158231378018L54.82533333333333,147.07134517229724L55.904333333333334,150.294064600343L57.03533333333333,151.12756280772047L58.123,149.2869284473418L59.245333333333335,145.36010673059812L60.57133333333333,142.03343900780663L61.92766666666667,142.37261910808354L63.297,142.07134975027208L64.779,137.49926201233183L66.26100000000001,130.55017014320018L67.73,121.5522172748293L69.35933333333332,116.58917287819315L71.019,109.70971817073439L72.71333333333334,107.80703188216464L74.42066666666666,103.20430865377551L76.11500000000001,102.85808316797828L77.79633333333334,101.90145040576876L79.49933333333334,103.66380461409003L81.20666666666668,105.89373789816909L82.91833333333334,104.03668643955312L84.62566666666667,104.19257472205459L86.34166666666667,102.62375025851551L88.04033333333334,95.10484045801415L89.74333333333334,93.23606341641802L91.44633333333334,89.27002681281655L93.14500000000001,80.3772773804686L94.848,79.14502097324782L96.54666666666667,77.65184306546956L98.24533333333333,75.24184210667455L99.93100000000001,74.53693714060857L101.62966666666668,71.78269139178823L103.32833333333333,69.8999295313601L104.494,68.75698918343191L105.638,68.96140269475717L106.79933333333334,68.59821865224848L107.94333333333334,67.79757227292367L109.10900000000001,63.18325830065797L110.27466666666666,63.65012857180079L111.44466666666666,61.38707396177368L112.61466666666666,62.3468448132281L113.76733333333333,59.95962307270719L114.93299999999999,58.40561836146652L116.09866666666667,54.00920216894717L117.25133333333333,53.58005318668705L118.39533333333333,52.52909648992616L119.548,54.6064715900213L120.68766666666667,55.913978646354764L121.84033333333333,57.073219973101885L122.97999999999999,54.632118407272074L124.13266666666667,52.320172192717905L125.28966666666666,54.160517393909004L126.83666666666667,52.398653668718836L128.401,46.99994095387669L129.96966666666668,45.876649925843196L131.56433333333334,44.339864146455454L133.159,43.2549153692224L134.74066666666667,41.583588072950135L136.33966666666666,41.44159411434168L137.9343333333333,42.493284541568954L139.52466666666666,43.324249211644L140.85066666666665,41.66678491115931L142.28066666666666,41.836679258763155L143.72366666666665,42.68716373890365L145.17533333333333,41.814143662977415L146.63133333333332,40.85660628129543L148.08733333333333,36.936673876710614L149.52166666666665,37.678428372126774L150.96033333333332,37.473930918135466L152.40766666666664,38.33933423834702L153.85933333333332,38.79907622933078L155.311,39.05961252752718L156.754,36.216843537315924L158.20566666666667,36.104899557247165L159.64,37.67877165606288L161.083,38.059668859864985L162.539,37.14393603443034L164.00366666666667,36.552949294715546L165.45966666666666,32.355099960856876L166.92433333333332,31.517003578063708L168.37599999999998,34.077031858376415L169.845,36.150663858660664L171.30533333333335,38.48333640907089L172.77433333333332,41.72752990856304L174.24766666666667,44.00024888116175L175.71666666666664,44.045900578351336L177.16833333333332,41.7206692841996L178.724,37.66043001242798L180.35766666666666,38.95426044951813L182.03033333333335,38.992738085640696L183.69433333333333,38.39137716712037L185.315,34.59678171759384L186.953,32.934359232214604L188.591,34.000657026017876L190.25933333333333,35.18102294266501L191.93633333333332,36.927895607678664L193.61766666666668,35.26981202593785L195.29466666666667,36.84771469969306L196.95,33.2696360228484L198.63566666666668,35.09428006447115L200.31699999999998,33.73650543572643L202.01566666666668,33.754269166664926L203.70999999999998,32.037925917019095L205.37833333333336,32.72687063849236L207.077,34.50496463083215L208.76700000000002,31.867445009833148L210.46133333333333,30.892097274962367L212.147,29.93512074952443L213.824,29.525918508500922L215.527,31.95787746855217L216.70566666666667,30.395479317095436L217.81933333333333,31.6346000996451L218.95466666666667,31.7358806001306L220.077,32.052908798789105L221.20366666666666,28.689387984497017L222.326,29.18262716686479L223.46133333333336,28.557882516170253L224.588,27.925689518693815L225.69733333333332,27.883018788211842L226.82833333333332,29.110112675859824L227.955,34.18172990030831L229.06866666666667,36.61651083337563L230.19966666666664,36.4830627801619L231.33066666666667,36.99840682111949L232.453,34.26899879563777L233.57533333333333,35.34869833442434L234.69333333333333,35.82666159763457L235.82433333333333,32.05363600024452L236.96833333333333,29.70232429752548L238.095,29.10768294428462L239.20000000000002,27.87896400188717L240.318,27.980778284614303" style="fill: none;" fill="none"></path></g></g></g></g><g opacity="0.2"><g><g><g><path stroke="rgb(0, 119, 187)" stroke-width="2px" d="M22.732666666666667,158.22222222222223L23.828999999999997,158.22222222222223L24.947,158.22222222222223L26.078,158.22222222222223L27.248,158.22222222222223L28.439666666666668,158.22222222222223L29.627,158.22222222222223L30.827333333333332,158.22222222222223L32.02333333333333,158.22222222222223L33.241,158.22222222222223L34.45,158.22222222222223L35.59833333333333,157.98761038905812L36.742333333333335,158.22222222222223L37.894999999999996,158.22222222222223L39.026,157.87030446528095L40.183,152.3196014964746L41.32266666666667,144.49742944248848L42.471,154.46843289159654L43.628,153.0607617487096L44.772,151.30117310790553L45.88133333333333,155.8761038042398L47.00366666666667,153.64729129564432L48.126,154.7030447103704L49.26133333333333,147.33943255990744L50.39233333333333,148.36852491274476L51.52333333333333,144.87600800229444L52.62833333333333,122.24662823147244L53.733333333333334,145.78779490623208L54.82533333333333,157.87030446528095L55.904333333333334,158.22222222222223L57.03533333333333,153.17806765809655L58.123,144.7587016324202L59.245333333333335,135.69948577798075L60.57133333333333,133.84925159894757L61.92766666666667,143.20706489971943L63.297,141.33016942855386L64.779,126.25102924141618L66.26100000000001,113.45401793056064L67.73,99.41543715033266L69.35933333333332,104.37907367282443L71.019,92.78485143515799L72.71333333333334,103.12603254450691L74.42066666666666,91.8806607292758L76.11500000000001,102.00629695587688L77.79633333333334,99.54793591631783L79.49933333333334,107.9995609174172L81.20666666666668,111.37983589702182L82.91833333333334,99.46795480284426L84.62566666666667,104.57609223160479L86.34166666666667,98.76411658359898L88.04033333333334,76.60676205489371L89.74333333333334,88.63848404089609L91.44633333333334,79.51275356279479L93.14500000000001,58.499267839723146L94.848,76.1134144100878L96.54666666666667,73.97831543617777L98.24533333333333,69.31273943185806L99.93100000000001,72.8027245832814L101.62966666666668,65.00667505131827L103.32833333333333,65.26794447832636L104.494,65.9451186425156L105.638,69.4643023709456L106.79933333333334,67.70471050673059L107.94333333333334,65.82781595653957L109.10900000000001,51.831087943580414L110.27466666666666,64.79872636662589L111.44466666666666,55.81948978371089L112.61466666666666,64.70808036790953L113.76733333333333,54.08656197455194L114.93299999999999,54.58244414130846L116.09866666666667,43.19310558504529L117.25133333333333,52.52425759368474L118.39533333333333,49.94352482424844L119.548,59.71724562512503L120.68766666666667,59.13071745965216L121.84033333333333,59.925194309817414L122.97999999999999,48.6265017522706L124.13266666666667,46.632304516103545L125.28966666666666,58.688148667414964L126.83666666666667,48.06410311990314L128.401,33.71798683537378L129.96966666666668,43.11312078767352L131.56433333333334,40.55905207329326L133.159,40.585716128349304L134.74066666666667,37.47177593575586L136.33966666666666,41.092259496450424L137.9343333333333,45.08066133658093L139.52466666666666,45.36859481864505L140.85066666666665,37.589078621731886L142.28066666666666,42.254654626051604L143.72366666666665,44.77953213122157L145.17533333333333,39.66633302635617L146.63133333333332,38.500865525669525L148.08733333333333,27.292826334635436L149.52166666666665,39.503298428323546L150.96033333333332,36.97082472509808L152.40766666666664,40.468406074576905L153.85933333333332,39.930136975314895L155.311,39.70058591167134L156.754,29.223041627142152L158.20566666666667,35.82949412531323L159.64,41.55082377460269L161.083,38.996755060222426L162.539,34.89104316631955L164.00366666666667,35.0989992188083L165.45966666666666,22.02751907375125L166.92433333333332,29.455112477143615L168.37599999999998,40.37523292170633L169.845,41.25222909119395L171.30533333333335,44.22219517495898L172.77433333333332,49.708919452296385L174.24766666666667,49.591609398523985L175.71666666666664,44.158213231298646L177.16833333333332,36.00011755360498L178.724,27.671398447619566L180.35766666666666,42.137351940075575L182.03033333333335,39.08740105893878L183.69433333333333,36.91190445754262L185.315,25.261289106475004L186.953,28.844454778565307L188.591,36.6239709754785L190.25933333333333,38.08496815628476L191.93633333333332,41.22556503613791L193.61766666666668,31.19058217604956L195.29466666666667,40.72968286938138L196.95,24.466819624106108L198.63566666666668,39.58328322569531L200.31699999999998,30.39609795808792L202.01566666666668,33.79797163274554L203.70999999999998,27.81536518865161L205.37833333333336,34.42181768682269L207.077,38.87944500645003L208.76700000000002,25.378599160247376L210.46133333333333,28.49253935284085L212.147,27.580759816699555L213.824,28.519196040100525L215.527,37.941001415252686L216.70566666666667,26.551655491193145L217.81933333333333,34.683094481627165L218.95466666666667,31.985051658418456L220.077,32.83286398649216L221.20366666666666,20.41442847251892L222.326,30.39609795808792L223.46133333333336,27.020880970689973L224.588,26.370363493760436L225.69733333333332,27.778039932250977L226.82833333333332,32.1290183994505L227.955,46.65896120336322L229.06866666666667,42.6065774195724L230.19966666666664,36.154752863778015L231.33066666666667,38.26626015371747L232.453,27.554088393847167L233.57533333333333,38.004983358912995L234.69333333333333,37.00255045625897L235.82433333333333,22.77120970355142L236.96833333333333,23.917609347237487L238.095,27.644741760359892L239.20000000000002,24.8560603062312L240.318,28.231262558036377" style="fill: none;" fill="none"></path></g></g></g></g></g></g><g transform="translate(70, 178)" clip-path="url(#clip_1)"><clipPath id="clip_1"><rect width="260" height="22"></rect></clipPath><g><g><line x1="0" y1="0" x2="0" y2="5" style="visibility: inherit;" fill="rgb(0, 0, 0)" stroke="rgb(204, 204, 204)" stroke-width="1px"></line><line x1="21.666666666666664" y1="0" x2="21.666666666666664" y2="5" style="visibility: inherit;" fill="rgb(0, 0, 0)" stroke="rgb(204, 204, 204)" stroke-width="1px"></line><line x1="43.33333333333333" y1="0" x2="43.33333333333333" y2="5" style="visibility: inherit;" fill="rgb(0, 0, 0)" stroke="rgb(204, 204, 204)" stroke-width="1px"></line><line x1="65" y1="0" x2="65" y2="5" style="visibility: inherit;" fill="rgb(0, 0, 0)" stroke="rgb(204, 204, 204)" stroke-width="1px"></line><line x1="86.66666666666666" y1="0" x2="86.66666666666666" y2="5" style="visibility: inherit;" fill="rgb(0, 0, 0)" stroke="rgb(204, 204, 204)" stroke-width="1px"></line><line x1="108.33333333333334" y1="0" x2="108.33333333333334" y2="5" style="visibility: inherit;" fill="rgb(0, 0, 0)" stroke="rgb(204, 204, 204)" stroke-width="1px"></line><line x1="130" y1="0" x2="130" y2="5" style="visibility: inherit;" fill="rgb(0, 0, 0)" stroke="rgb(204, 204, 204)" stroke-width="1px"></line><line x1="151.66666666666669" y1="0" x2="151.66666666666669" y2="5" style="visibility: inherit;" fill="rgb(0, 0, 0)" stroke="rgb(204, 204, 204)" stroke-width="1px"></line><line x1="173.33333333333331" y1="0" x2="173.33333333333331" y2="5" style="visibility: inherit;" fill="rgb(0, 0, 0)" stroke="rgb(204, 204, 204)" stroke-width="1px"></line><line x1="195" y1="0" x2="195" y2="5" style="visibility: inherit;" fill="rgb(0, 0, 0)" stroke="rgb(204, 204, 204)" stroke-width="1px"></line><line x1="216.66666666666669" y1="0" x2="216.66666666666669" y2="5" style="visibility: inherit;" fill="rgb(0, 0, 0)" stroke="rgb(204, 204, 204)" stroke-width="1px"></line><line x1="238.33333333333331" y1="0" x2="238.33333333333331" y2="5" style="visibility: inherit;" fill="rgb(0, 0, 0)" stroke="rgb(204, 204, 204)" stroke-width="1px"></line><line x1="260" y1="0" x2="260" y2="5" style="visibility: inherit;" fill="rgb(0, 0, 0)" stroke="rgb(204, 204, 204)" stroke-width="1px"></line></g><g transform="translate(0, 8)"><text x="0" y="0" dx="0em" dy="0.95em" style="text-anchor: middle; visibility: hidden; font-family: &quot;Helvetica Neue&quot;, sans-serif; font-size: 12px; font-weight: 200;" fill="rgb(50, 49, 63)" stroke="none" stroke-width="1px">-5k</text><text x="21.666666666666664" y="0" dx="0em" dy="0.95em" style="text-anchor: middle; visibility: inherit; font-family: &quot;Helvetica Neue&quot;, sans-serif; font-size: 12px; font-weight: 200;" fill="rgb(50, 49, 63)" stroke="none" stroke-width="1px">0</text><text x="43.33333333333333" y="0" dx="0em" dy="0.95em" style="text-anchor: middle; visibility: hidden; font-family: &quot;Helvetica Neue&quot;, sans-serif; font-size: 12px; font-weight: 200;" fill="rgb(50, 49, 63)" stroke="none" stroke-width="1px">5k</text><text x="65" y="0" dx="0em" dy="0.95em" style="text-anchor: middle; visibility: inherit; font-family: &quot;Helvetica Neue&quot;, sans-serif; font-size: 12px; font-weight: 200;" fill="rgb(50, 49, 63)" stroke="none" stroke-width="1px">10k</text><text x="86.66666666666666" y="0" dx="0em" dy="0.95em" style="text-anchor: middle; visibility: hidden; font-family: &quot;Helvetica Neue&quot;, sans-serif; font-size: 12px; font-weight: 200;" fill="rgb(50, 49, 63)" stroke="none" stroke-width="1px">15k</text><text x="108.33333333333334" y="0" dx="0em" dy="0.95em" style="text-anchor: middle; visibility: inherit; font-family: &quot;Helvetica Neue&quot;, sans-serif; font-size: 12px; font-weight: 200;" fill="rgb(50, 49, 63)" stroke="none" stroke-width="1px">20k</text><text x="130" y="0" dx="0em" dy="0.95em" style="text-anchor: middle; visibility: hidden; font-family: &quot;Helvetica Neue&quot;, sans-serif; font-size: 12px; font-weight: 200;" fill="rgb(50, 49, 63)" stroke="none" stroke-width="1px">25k</text><text x="151.66666666666669" y="0" dx="0em" dy="0.95em" style="text-anchor: middle; visibility: inherit; font-family: &quot;Helvetica Neue&quot;, sans-serif; font-size: 12px; font-weight: 200;" fill="rgb(50, 49, 63)" stroke="none" stroke-width="1px">30k</text><text x="173.33333333333331" y="0" dx="0em" dy="0.95em" style="text-anchor: middle; visibility: hidden; font-family: &quot;Helvetica Neue&quot;, sans-serif; font-size: 12px; font-weight: 200;" fill="rgb(50, 49, 63)" stroke="none" stroke-width="1px">35k</text><text x="195" y="0" dx="0em" dy="0.95em" style="text-anchor: middle; visibility: inherit; font-family: &quot;Helvetica Neue&quot;, sans-serif; font-size: 12px; font-weight: 200;" fill="rgb(50, 49, 63)" stroke="none" stroke-width="1px">40k</text><text x="216.66666666666669" y="0" dx="0em" dy="0.95em" style="text-anchor: middle; visibility: hidden; font-family: &quot;Helvetica Neue&quot;, sans-serif; font-size: 12px; font-weight: 200;" fill="rgb(50, 49, 63)" stroke="none" stroke-width="1px">45k</text><text x="238.33333333333331" y="0" dx="0em" dy="0.95em" style="text-anchor: middle; visibility: inherit; font-family: &quot;Helvetica Neue&quot;, sans-serif; font-size: 12px; font-weight: 200;" fill="rgb(50, 49, 63)" stroke="none" stroke-width="1px">50k</text><text x="260" y="0" dx="0em" dy="0.95em" style="text-anchor: middle; visibility: hidden; font-family: &quot;Helvetica Neue&quot;, sans-serif; font-size: 12px; font-weight: 200;" fill="rgb(50, 49, 63)" stroke="none" stroke-width="1px">55k</text></g><line x1="0" y1="0" x2="260" y2="0" fill="rgb(0, 0, 0)" stroke="rgb(204, 204, 204)" stroke-width="1px"></line></g></g></g></g></svg>