<svg viewBox="0 0 330 200" xmlns="http://www.w3.org/2000/svg"><g><g><g><g><g><line x1="70" y1="178" x2="65" y2="178" style="visibility: inherit;" fill="rgb(0, 0, 0)" stroke="rgb(204, 204, 204)" stroke-width="1px"></line><line x1="70" y1="160.2" x2="65" y2="160.2" style="visibility: inherit;" fill="rgb(0, 0, 0)" stroke="rgb(204, 204, 204)" stroke-width="1px"></line><line x1="70" y1="142.39999999999998" x2="65" y2="142.39999999999998" style="visibility: inherit;" fill="rgb(0, 0, 0)" stroke="rgb(204, 204, 204)" stroke-width="1px"></line><line x1="70" y1="124.6" x2="65" y2="124.6" style="visibility: inherit;" fill="rgb(0, 0, 0)" stroke="rgb(204, 204, 204)" stroke-width="1px"></line><line x1="70" y1="106.79999999999998" x2="65" y2="106.79999999999998" style="visibility: inherit;" fill="rgb(0, 0, 0)" stroke="rgb(204, 204, 204)" stroke-width="1px"></line><line x1="70" y1="88.99999999999999" x2="65" y2="88.99999999999999" style="visibility: inherit;" fill="rgb(0, 0, 0)" stroke="rgb(204, 204, 204)" stroke-width="1px"></line><line x1="70" y1="71.19999999999999" x2="65" y2="71.19999999999999" style="visibility: inherit;" fill="rgb(0, 0, 0)" stroke="rgb(204, 204, 204)" stroke-width="1px"></line><line x1="70" y1="53.39999999999999" x2="65" y2="53.39999999999999" style="visibility: inherit;" fill="rgb(0, 0, 0)" stroke="rgb(204, 204, 204)" stroke-width="1px"></line><line x1="70" y1="35.599999999999966" x2="65" y2="35.599999999999966" style="visibility: inherit;" fill="rgb(0, 0, 0)" stroke="rgb(204, 204, 204)" stroke-width="1px"></line><line x1="70" y1="17.799999999999955" x2="65" y2="17.799999999999955" style="visibility: inherit;" fill="rgb(0, 0, 0)" stroke="rgb(204, 204, 204)" stroke-width="1px"></line><line x1="70" y1="0" x2="65" y2="0" style="visibility: inherit;" fill="rgb(0, 0, 0)" stroke="rgb(204, 204, 204)" stroke-width="1px"></line></g><g transform="translate(60, 0)"><text x="0" y="178" dx="0em" dy="0.3em" style="text-anchor: end; visibility: hidden; font-family: &quot;Helvetica Neue&quot;, sans-serif; font-size: 12px; font-weight: 200;" fill="rgb(50, 49, 63)" stroke="none" stroke-width="1px">-1e-3</text><text x="0" y="160.2" dx="0em" dy="0.3em" style="text-anchor: end; visibility: inherit; font-family: &quot;Helvetica Neue&quot;, sans-serif; font-size: 12px; font-weight: 200;" fill="rgb(50, 49, 63)" stroke="none" stroke-width="1px">0</text><text x="0" y="142.39999999999998" dx="0em" dy="0.3em" style="text-anchor: end; visibility: hidden; font-family: &quot;Helvetica Neue&quot;, sans-serif; font-size: 12px; font-weight: 200;" fill="rgb(50, 49, 63)" stroke="none" stroke-width="1px">1e-3</text><text x="0" y="124.6" dx="0em" dy="0.3em" style="text-anchor: end; visibility: inherit; font-family: &quot;Helvetica Neue&quot;, sans-serif; font-size: 12px; font-weight: 200;" fill="rgb(50, 49, 63)" stroke="none" stroke-width="1px">2e-3</text><text x="0" y="106.79999999999998" dx="0em" dy="0.3em" style="text-anchor: end; visibility: hidden; font-family: &quot;Helvetica Neue&quot;, sans-serif; font-size: 12px; font-weight: 200;" fill="rgb(50, 49, 63)" stroke="none" stroke-width="1px">3e-3</text><text x="0" y="88.99999999999999" dx="0em" dy="0.3em" style="text-anchor: end; visibility: inherit; font-family: &quot;Helvetica Neue&quot;, sans-serif; font-size: 12px; font-weight: 200;" fill="rgb(50, 49, 63)" stroke="none" stroke-width="1px">4e-3</text><text x="0" y="71.19999999999999" dx="0em" dy="0.3em" style="text-anchor: end; visibility: hidden; font-family: &quot;Helvetica Neue&quot;, sans-serif; font-size: 12px; font-weight: 200;" fill="rgb(50, 49, 63)" stroke="none" stroke-width="1px">5e-3</text><text x="0" y="53.39999999999999" dx="0em" dy="0.3em" style="text-anchor: end; visibility: inherit; font-family: &quot;Helvetica Neue&quot;, sans-serif; font-size: 12px; font-weight: 200;" fill="rgb(50, 49, 63)" stroke="none" stroke-width="1px">6e-3</text><text x="0" y="35.599999999999966" dx="0em" dy="0.3em" style="text-anchor: end; visibility: hidden; font-family: &quot;Helvetica Neue&quot;, sans-serif; font-size: 12px; font-weight: 200;" fill="rgb(50, 49, 63)" stroke="none" stroke-width="1px">7e-3</text><text x="0" y="17.799999999999955" dx="0em" dy="0.3em" style="text-anchor: end; visibility: inherit; font-family: &quot;Helvetica Neue&quot;, sans-serif; font-size: 12px; font-weight: 200;" fill="rgb(50, 49, 63)" stroke="none" stroke-width="1px">8e-3</text><text x="0" y="0" dx="0em" dy="0.3em" style="text-anchor: end; visibility: hidden; font-family: &quot;Helvetica Neue&quot;, sans-serif; font-size: 12px; font-weight: 200;" fill="rgb(50, 49, 63)" stroke="none" stroke-width="1px">9e-3</text></g><line x1="70" y1="0" x2="70" y2="178" fill="rgb(0, 0, 0)" stroke="rgb(204, 204, 204)" stroke-width="1px"></line></g></g><g transform="translate(70, 0)" clip-path="url(#clip_0)"><clipPath id="clip_0"><rect width="260" height="178"></rect></clipPath><g><g><g><line x1="0" y1="0" x2="0" y2="178" fill="rgb(0, 0, 0)" stroke="rgb(60, 60, 60)" stroke-width="1px" opacity="0.25"></line><line x1="21.666666666666664" y1="0" x2="21.666666666666664" y2="178" fill="rgb(0, 0, 0)" stroke="rgb(60, 60, 60)" stroke-width="1px" opacity="0.25"></line><line x1="43.33333333333333" y1="0" x2="43.33333333333333" y2="178" fill="rgb(0, 0, 0)" stroke="rgb(60, 60, 60)" stroke-width="1px" opacity="0.25"></line><line x1="65" y1="0" x2="65" y2="178" fill="rgb(0, 0, 0)" stroke="rgb(60, 60, 60)" stroke-width="1px" opacity="0.25"></line><line x1="86.66666666666666" y1="0" x2="86.66666666666666" y2="178" fill="rgb(0, 0, 0)" stroke="rgb(60, 60, 60)" stroke-width="1px" opacity="0.25"></line><line x1="108.33333333333334" y1="0" x2="108.33333333333334" y2="178" fill="rgb(0, 0, 0)" stroke="rgb(60, 60, 60)" stroke-width="1px" opacity="0.25"></line><line x1="130" y1="0" x2="130" y2="178" fill="rgb(0, 0, 0)" stroke="rgb(60, 60, 60)" stroke-width="1px" opacity="0.25"></line><line x1="151.66666666666669" y1="0" x2="151.66666666666669" y2="178" fill="rgb(0, 0, 0)" stroke="rgb(60, 60, 60)" stroke-width="1px" opacity="0.25"></line><line x1="173.33333333333331" y1="0" x2="173.33333333333331" y2="178" fill="rgb(0, 0, 0)" stroke="rgb(60, 60, 60)" stroke-width="1px" opacity="0.25"></line><line x1="195" y1="0" x2="195" y2="178" fill="rgb(0, 0, 0)" stroke="rgb(60, 60, 60)" stroke-width="1px" opacity="0.25"></line><line x1="216.66666666666669" y1="0" x2="216.66666666666669" y2="178" fill="rgb(0, 0, 0)" stroke="rgb(60, 60, 60)" stroke-width="1px" opacity="0.25"></line><line x1="238.33333333333331" y1="0" x2="238.33333333333331" y2="178" fill="rgb(0, 0, 0)" stroke="rgb(60, 60, 60)" stroke-width="1px" opacity="0.25"></line><line x1="260" y1="0" x2="260" y2="178" fill="rgb(0, 0, 0)" stroke="rgb(60, 60, 60)" stroke-width="1px" opacity="0.25"></line></g><g><line x1="0" y1="178" x2="260" y2="178" fill="rgb(0, 0, 0)" stroke="rgb(60, 60, 60)" stroke-width="1px" opacity="0.25"></line><line x1="0" y1="160.2" x2="260" y2="160.2" fill="rgb(0, 0, 0)" stroke="rgb(60, 60, 60)" stroke-width="1px" opacity="0.25"></line><line x1="0" y1="142.39999999999998" x2="260" y2="142.39999999999998" fill="rgb(0, 0, 0)" stroke="rgb(60, 60, 60)" stroke-width="1px" opacity="0.25"></line><line x1="0" y1="124.6" x2="260" y2="124.6" fill="rgb(0, 0, 0)" stroke="rgb(60, 60, 60)" stroke-width="1px" opacity="0.25"></line><line x1="0" y1="106.79999999999998" x2="260" y2="106.79999999999998" fill="rgb(0, 0, 0)" stroke="rgb(60, 60, 60)" stroke-width="1px" opacity="0.25"></line><line x1="0" y1="88.99999999999999" x2="260" y2="88.99999999999999" fill="rgb(0, 0, 0)" stroke="rgb(60, 60, 60)" stroke-width="1px" opacity="0.25"></line><line x1="0" y1="71.19999999999999" x2="260" y2="71.19999999999999" fill="rgb(0, 0, 0)" stroke="rgb(60, 60, 60)" stroke-width="1px" opacity="0.25"></line><line x1="0" y1="53.39999999999999" x2="260" y2="53.39999999999999" fill="rgb(0, 0, 0)" stroke="rgb(60, 60, 60)" stroke-width="1px" opacity="0.25"></line><line x1="0" y1="35.599999999999966" x2="260" y2="35.599999999999966" fill="rgb(0, 0, 0)" stroke="rgb(60, 60, 60)" stroke-width="1px" opacity="0.25"></line><line x1="0" y1="17.799999999999955" x2="260" y2="17.799999999999955" fill="rgb(0, 0, 0)" stroke="rgb(60, 60, 60)" stroke-width="1px" opacity="0.25"></line><line x1="0" y1="0" x2="260" y2="0" fill="rgb(0, 0, 0)" stroke="rgb(60, 60, 60)" stroke-width="1px" opacity="0.25"></line></g></g></g><g><g><line x1="0" y1="160.2" x2="260" y2="160.2" fill="rgb(0, 0, 0)" stroke="rgb(153, 153, 153)" stroke-width="1.5px"></line></g></g><g><g><line x1="21.666666666666664" y1="0" x2="21.666666666666664" y2="178" fill="rgb(0, 0, 0)" stroke="rgb(153, 153, 153)" stroke-width="1.5px"></line></g></g><g><g><g><g><g><path stroke="rgb(0, 119, 187)" stroke-width="2px" d="M22.732666666666667,35.599996154010256L23.828999999999997,35.599996154010256L24.947,35.599996154010256L26.078,35.599996154010284L27.248,35.59999615401031L28.439666666666668,35.59999615401031L29.627,35.599996154010284L30.827333333333332,35.59999615401031L32.02333333333333,35.59999615401031L33.241,35.59999615401031L34.45,35.59999615401031L35.59833333333333,35.599996154010284L36.742333333333335,35.599996154010256L37.894999999999996,35.599996154010256L39.026,35.599996154010256L40.183,35.599996154010256L41.32266666666667,35.599996154010256L42.471,35.599996154010256L43.628,35.599996154010284L44.772,35.599996154010256L45.88133333333333,35.599996154010284L47.00366666666667,35.599996154010284L48.126,35.599996154010284L49.26133333333333,35.599996154010284L50.39233333333333,35.599996154010284L51.52333333333333,35.599996154010284L52.62833333333333,35.599996154010256L53.733333333333334,35.599996154010256L54.82533333333333,35.599996154010256L55.904333333333334,35.599996154010256L57.03533333333333,35.599996154010256L58.123,35.599996154010256L59.245333333333335,35.599996154010256L60.57133333333333,35.599996154010256L61.92766666666667,35.599996154010256L63.297,35.599996154010256L64.779,35.599996154010256L66.26100000000001,71.09506068747424L67.73,96.3320103267104L69.35933333333332,114.27546067051463L71.019,127.03324332501782L72.71333333333334,136.10402146421345L74.42066666666666,142.55334202768879L76.11500000000001,147.13880758670334L77.79633333333334,150.39907291083725L79.49933333333334,152.7171212083336L81.20666666666668,154.36525337195098L82.91833333333334,155.53707525136056L84.62566666666667,156.37024056266864L86.34166666666667,156.96262107628442L88.04033333333334,157.3838036099777L89.74333333333334,157.68326438562636L91.44633333333334,157.89618099417692L93.14500000000001,158.0475647013723L94.848,158.15519851643802L96.54666666666667,158.2317261585705L98.24533333333333,158.28613731193497L99.93100000000001,158.3248236418802L101.62966666666668,158.35232962242225L103.32833333333333,158.37188637456288L104.494,158.38579122532235L105.638,158.395677574206L106.79933333333334,158.40270676825907L107.94333333333334,158.4077045252292L109.10900000000001,158.41125793043415L110.27466666666666,158.41378440153443L111.44466666666666,158.41558072248654L112.61466666666666,158.4168579066834L113.76733333333333,158.41776598464727L114.93299999999999,158.41841162807958L116.09866666666667,158.41887068055993L117.25133333333333,158.41919706687347L118.39533333333333,158.41942912754237L119.548,158.41959412267798L120.68766666666667,158.41971143421938L121.84033333333333,158.4197948427253L122.97999999999999,158.41985414617304L124.13266666666667,158.41989631092437L125.28966666666666,158.41992629006256L126.83666666666667,158.41994760522982L128.401,158.41996276031375L129.96966666666668,158.41997353557844L131.56433333333334,158.52286519419258L133.159,158.5960211634672L134.74066666666667,158.64803505762148L136.33966666666666,158.68501693636514L137.9343333333333,158.7113110521519L139.52466666666666,158.73000616847628L140.85066666666665,158.7432983961829L142.28066666666666,158.75274917008232L143.72366666666665,158.7594686703248L145.17533333333333,158.76424623499722L146.63133333333332,158.7676430834793L148.08733333333333,158.77005824275005L149.52166666666665,158.77177542099156L150.96033333333332,158.77299633472126L152.40766666666664,158.7738644043831L153.85933333333332,158.77448160191267L155.311,158.77492042935617L156.754,158.7752324356685L158.20566666666667,158.7754542721566L159.64,158.7756119978996L161.083,158.7757241409029L162.539,158.77580387457823L164.00366666666667,158.7758605652214L165.45966666666666,158.7759008722687L166.92433333333332,158.7759295305793L168.37599999999998,158.77594990663817L169.845,158.775964394016L171.30533333333335,158.77597469454165L172.77433333333332,158.7759820182154L174.24766666666667,158.77598722534742L175.71666666666664,158.7759909276183L177.16833333333332,158.77599355993289L178.724,158.77599543150853L180.35766666666666,158.77599676219884L182.03033333333335,158.77599770831966L183.69433333333333,158.77599838101156L185.315,158.77599885929547L186.953,158.77599919935537L188.591,158.77599944113794L190.25933333333333,158.77599961304534L191.93633333333332,158.7759997352715L193.61766666666668,158.77599982217433L195.29466666666667,158.7759998839622L196.95,158.7759999278934L198.63566666666668,158.77599995912848L200.31699999999998,158.7759999813366L202.01566666666668,158.7759999971266L203.70999999999998,158.7760000083533L205.37833333333336,158.77600001633547L207.077,158.7760000220108L208.76700000000002,158.77600002604595L210.46133333333333,158.77600002891495L212.147,158.7760000309548L213.824,158.77600003240514L215.527,158.77600003343633L216.70566666666667,158.7760000341695L217.81933333333333,158.77600003469078L218.95466666666667,158.77600003506143L220.077,158.77600003532496L221.20366666666666,158.7760000355123L222.326,158.77600003564552L223.46133333333336,158.77600003574025L224.588,158.77600003580758L225.69733333333332,158.77600003585547L226.82833333333332,158.77600003588952L227.955,158.7760000359137L229.06866666666667,158.77600003593093L230.19966666666664,158.77600003594316L231.33066666666667,158.77600003595185L232.453,158.77600003595805L233.57533333333333,158.77600003596245L234.69333333333333,158.77600003596558L235.82433333333333,158.7760000359678L236.96833333333333,158.77600003596936L238.095,158.7760000359705L239.20000000000002,158.98176803077317L240.318,159.12806907507786" style="fill: none;" fill="none"></path></g></g></g></g><g opacity="0.2"><g><g><g><path stroke="rgb(0, 119, 187)" stroke-width="2px" d="M22.732666666666667,35.599996154010256L23.828999999999997,35.599996154010256L24.947,35.599996154010256L26.078,35.599996154010256L27.248,35.599996154010256L28.439666666666668,35.599996154010256L29.627,35.599996154010256L30.827333333333332,35.599996154010256L32.02333333333333,35.599996154010256L33.241,35.599996154010256L34.45,35.599996154010256L35.59833333333333,35.599996154010256L36.742333333333335,35.599996154010256L37.894999999999996,35.599996154010256L39.026,35.599996154010256L40.183,35.599996154010256L41.32266666666667,35.599996154010256L42.471,35.599996154010256L43.628,35.599996154010256L44.772,35.599996154010256L45.88133333333333,35.599996154010256L47.00366666666667,35.599996154010256L48.126,35.599996154010256L49.26133333333333,35.599996154010256L50.39233333333333,35.599996154010256L51.52333333333333,35.599996154010256L52.62833333333333,35.599996154010256L53.733333333333334,35.599996154010256L54.82533333333333,35.599996154010256L55.904333333333334,35.599996154010256L57.03533333333333,35.599996154010256L58.123,35.599996154010256L59.245333333333335,35.599996154010256L60.57133333333333,35.599996154010256L61.92766666666667,35.599996154010256L63.297,35.599996154010256L64.779,35.599996154010256L66.26100000000001,158.42000004496657L67.73,158.42000004496657L69.35933333333332,158.42000004496657L71.019,158.42000004496657L72.71333333333334,158.42000004496657L74.42066666666666,158.42000004496657L76.11500000000001,158.42000004496657L77.79633333333334,158.42000004496657L79.49933333333334,158.42000004496657L81.20666666666668,158.42000004496657L82.91833333333334,158.42000004496657L84.62566666666667,158.42000004496657L86.34166666666667,158.42000004496657L88.04033333333334,158.42000004496657L89.74333333333334,158.42000004496657L91.44633333333334,158.42000004496657L93.14500000000001,158.42000004496657L94.848,158.42000004496657L96.54666666666667,158.42000004496657L98.24533333333333,158.42000004496657L99.93100000000001,158.42000004496657L101.62966666666668,158.42000004496657L103.32833333333333,158.42000004496657L104.494,158.42000004496657L105.638,158.42000004496657L106.79933333333334,158.42000004496657L107.94333333333334,158.42000004496657L109.10900000000001,158.42000004496657L110.27466666666666,158.42000004496657L111.44466666666666,158.42000004496657L112.61466666666666,158.42000004496657L113.76733333333333,158.42000004496657L114.93299999999999,158.42000004496657L116.09866666666667,158.42000004496657L117.25133333333333,158.42000004496657L118.39533333333333,158.42000004496657L119.548,158.42000004496657L120.68766666666667,158.42000004496657L121.84033333333333,158.42000004496657L122.97999999999999,158.42000004496657L124.13266666666667,158.42000004496657L125.28966666666666,158.42000004496657L126.83666666666667,158.42000004496657L128.401,158.42000004496657L129.96966666666668,158.42000004496657L131.56433333333334,158.77600003597325L133.159,158.77600003597325L134.74066666666667,158.77600003597325L136.33966666666666,158.77600003597325L137.9343333333333,158.77600003597325L139.52466666666666,158.77600003597325L140.85066666666665,158.77600003597325L142.28066666666666,158.77600003597325L143.72366666666665,158.77600003597325L145.17533333333333,158.77600003597325L146.63133333333332,158.77600003597325L148.08733333333333,158.77600003597325L149.52166666666665,158.77600003597325L150.96033333333332,158.77600003597325L152.40766666666664,158.77600003597325L153.85933333333332,158.77600003597325L155.311,158.77600003597325L156.754,158.77600003597325L158.20566666666667,158.77600003597325L159.64,158.77600003597325L161.083,158.77600003597325L162.539,158.77600003597325L164.00366666666667,158.77600003597325L165.45966666666666,158.77600003597325L166.92433333333332,158.77600003597325L168.37599999999998,158.77600003597325L169.845,158.77600003597325L171.30533333333335,158.77600003597325L172.77433333333332,158.77600003597325L174.24766666666667,158.77600003597325L175.71666666666664,158.77600003597325L177.16833333333332,158.77600003597325L178.724,158.77600003597325L180.35766666666666,158.77600003597325L182.03033333333335,158.77600003597325L183.69433333333333,158.77600003597325L185.315,158.77600003597325L186.953,158.77600003597325L188.591,158.77600003597325L190.25933333333333,158.77600003597325L191.93633333333332,158.77600003597325L193.61766666666668,158.77600003597325L195.29466666666667,158.77600003597325L196.95,158.77600003597325L198.63566666666668,158.77600003597325L200.31699999999998,158.77600003597325L202.01566666666668,158.77600003597325L203.70999999999998,158.77600003597325L205.37833333333336,158.77600003597325L207.077,158.77600003597325L208.76700000000002,158.77600003597325L210.46133333333333,158.77600003597325L212.147,158.77600003597325L213.824,158.77600003597325L215.527,158.77600003597325L216.70566666666667,158.77600003597325L217.81933333333333,158.77600003597325L218.95466666666667,158.77600003597325L220.077,158.77600003597325L221.20366666666666,158.77600003597325L222.326,158.77600003597325L223.46133333333336,158.77600003597325L224.588,158.77600003597325L225.69733333333332,158.77600003597325L226.82833333333332,158.77600003597325L227.955,158.77600003597325L229.06866666666667,158.77600003597325L230.19966666666664,158.77600003597325L231.33066666666667,158.77600003597325L232.453,158.77600003597325L233.57533333333333,158.77600003597325L234.69333333333333,158.77600003597325L235.82433333333333,158.77600003597325L236.96833333333333,158.77600003597325L238.095,158.77600003597325L239.20000000000002,159.48800001798662L240.318,159.48800001798662" style="fill: none;" fill="none"></path></g></g></g></g></g></g><g transform="translate(70, 178)" clip-path="url(#clip_1)"><clipPath id="clip_1"><rect width="260" height="22"></rect></clipPath><g><g><line x1="0" y1="0" x2="0" y2="5" style="visibility: inherit;" fill="rgb(0, 0, 0)" stroke="rgb(204, 204, 204)" stroke-width="1px"></line><line x1="21.666666666666664" y1="0" x2="21.666666666666664" y2="5" style="visibility: inherit;" fill="rgb(0, 0, 0)" stroke="rgb(204, 204, 204)" stroke-width="1px"></line><line x1="43.33333333333333" y1="0" x2="43.33333333333333" y2="5" style="visibility: inherit;" fill="rgb(0, 0, 0)" stroke="rgb(204, 204, 204)" stroke-width="1px"></line><line x1="65" y1="0" x2="65" y2="5" style="visibility: inherit;" fill="rgb(0, 0, 0)" stroke="rgb(204, 204, 204)" stroke-width="1px"></line><line x1="86.66666666666666" y1="0" x2="86.66666666666666" y2="5" style="visibility: inherit;" fill="rgb(0, 0, 0)" stroke="rgb(204, 204, 204)" stroke-width="1px"></line><line x1="108.33333333333334" y1="0" x2="108.33333333333334" y2="5" style="visibility: inherit;" fill="rgb(0, 0, 0)" stroke="rgb(204, 204, 204)" stroke-width="1px"></line><line x1="130" y1="0" x2="130" y2="5" style="visibility: inherit;" fill="rgb(0, 0, 0)" stroke="rgb(204, 204, 204)" stroke-width="1px"></line><line x1="151.66666666666669" y1="0" x2="151.66666666666669" y2="5" style="visibility: inherit;" fill="rgb(0, 0, 0)" stroke="rgb(204, 204, 204)" stroke-width="1px"></line><line x1="173.33333333333331" y1="0" x2="173.33333333333331" y2="5" style="visibility: inherit;" fill="rgb(0, 0, 0)" stroke="rgb(204, 204, 204)" stroke-width="1px"></line><line x1="195" y1="0" x2="195" y2="5" style="visibility: inherit;" fill="rgb(0, 0, 0)" stroke="rgb(204, 204, 204)" stroke-width="1px"></line><line x1="216.66666666666669" y1="0" x2="216.66666666666669" y2="5" style="visibility: inherit;" fill="rgb(0, 0, 0)" stroke="rgb(204, 204, 204)" stroke-width="1px"></line><line x1="238.33333333333331" y1="0" x2="238.33333333333331" y2="5" style="visibility: inherit;" fill="rgb(0, 0, 0)" stroke="rgb(204, 204, 204)" stroke-width="1px"></line><line x1="260" y1="0" x2="260" y2="5" style="visibility: inherit;" fill="rgb(0, 0, 0)" stroke="rgb(204, 204, 204)" stroke-width="1px"></line></g><g transform="translate(0, 8)"><text x="0" y="0" dx="0em" dy="0.95em" style="text-anchor: middle; visibility: hidden; font-family: &quot;Helvetica Neue&quot;, sans-serif; font-size: 12px; font-weight: 200;" fill="rgb(50, 49, 63)" stroke="none" stroke-width="1px">-5k</text><text x="21.666666666666664" y="0" dx="0em" dy="0.95em" style="text-anchor: middle; visibility: inherit; font-family: &quot;Helvetica Neue&quot;, sans-serif; font-size: 12px; font-weight: 200;" fill="rgb(50, 49, 63)" stroke="none" stroke-width="1px">0</text><text x="43.33333333333333" y="0" dx="0em" dy="0.95em" style="text-anchor: middle; visibility: hidden; font-family: &quot;Helvetica Neue&quot;, sans-serif; font-size: 12px; font-weight: 200;" fill="rgb(50, 49, 63)" stroke="none" stroke-width="1px">5k</text><text x="65" y="0" dx="0em" dy="0.95em" style="text-anchor: middle; visibility: inherit; font-family: &quot;Helvetica Neue&quot;, sans-serif; font-size: 12px; font-weight: 200;" fill="rgb(50, 49, 63)" stroke="none" stroke-width="1px">10k</text><text x="86.66666666666666" y="0" dx="0em" dy="0.95em" style="text-anchor: middle; visibility: hidden; font-family: &quot;Helvetica Neue&quot;, sans-serif; font-size: 12px; font-weight: 200;" fill="rgb(50, 49, 63)" stroke="none" stroke-width="1px">15k</text><text x="108.33333333333334" y="0" dx="0em" dy="0.95em" style="text-anchor: middle; visibility: inherit; font-family: &quot;Helvetica Neue&quot;, sans-serif; font-size: 12px; font-weight: 200;" fill="rgb(50, 49, 63)" stroke="none" stroke-width="1px">20k</text><text x="130" y="0" dx="0em" dy="0.95em" style="text-anchor: middle; visibility: hidden; font-family: &quot;Helvetica Neue&quot;, sans-serif; font-size: 12px; font-weight: 200;" fill="rgb(50, 49, 63)" stroke="none" stroke-width="1px">25k</text><text x="151.66666666666669" y="0" dx="0em" dy="0.95em" style="text-anchor: middle; visibility: inherit; font-family: &quot;Helvetica Neue&quot;, sans-serif; font-size: 12px; font-weight: 200;" fill="rgb(50, 49, 63)" stroke="none" stroke-width="1px">30k</text><text x="173.33333333333331" y="0" dx="0em" dy="0.95em" style="text-anchor: middle; visibility: hidden; font-family: &quot;Helvetica Neue&quot;, sans-serif; font-size: 12px; font-weight: 200;" fill="rgb(50, 49, 63)" stroke="none" stroke-width="1px">35k</text><text x="195" y="0" dx="0em" dy="0.95em" style="text-anchor: middle; visibility: inherit; font-family: &quot;Helvetica Neue&quot;, sans-serif; font-size: 12px; font-weight: 200;" fill="rgb(50, 49, 63)" stroke="none" stroke-width="1px">40k</text><text x="216.66666666666669" y="0" dx="0em" dy="0.95em" style="text-anchor: middle; visibility: hidden; font-family: &quot;Helvetica Neue&quot;, sans-serif; font-size: 12px; font-weight: 200;" fill="rgb(50, 49, 63)" stroke="none" stroke-width="1px">45k</text><text x="238.33333333333331" y="0" dx="0em" dy="0.95em" style="text-anchor: middle; visibility: inherit; font-family: &quot;Helvetica Neue&quot;, sans-serif; font-size: 12px; font-weight: 200;" fill="rgb(50, 49, 63)" stroke="none" stroke-width="1px">50k</text><text x="260" y="0" dx="0em" dy="0.95em" style="text-anchor: middle; visibility: hidden; font-family: &quot;Helvetica Neue&quot;, sans-serif; font-size: 12px; font-weight: 200;" fill="rgb(50, 49, 63)" stroke="none" stroke-width="1px">55k</text></g><line x1="0" y1="0" x2="260" y2="0" fill="rgb(0, 0, 0)" stroke="rgb(204, 204, 204)" stroke-width="1px"></line></g></g></g></g></svg>