<svg viewBox="0 0 330 200" xmlns="http://www.w3.org/2000/svg"><g><g><g><g><g><line x1="34" y1="178" x2="29" y2="178" style="visibility: inherit;" fill="rgb(0, 0, 0)" stroke="rgb(204, 204, 204)" stroke-width="1px"></line><line x1="34" y1="163.16666666666666" x2="29" y2="163.16666666666666" style="visibility: inherit;" fill="rgb(0, 0, 0)" stroke="rgb(204, 204, 204)" stroke-width="1px"></line><line x1="34" y1="148.33333333333334" x2="29" y2="148.33333333333334" style="visibility: inherit;" fill="rgb(0, 0, 0)" stroke="rgb(204, 204, 204)" stroke-width="1px"></line><line x1="34" y1="133.5" x2="29" y2="133.5" style="visibility: inherit;" fill="rgb(0, 0, 0)" stroke="rgb(204, 204, 204)" stroke-width="1px"></line><line x1="34" y1="118.66666666666667" x2="29" y2="118.66666666666667" style="visibility: inherit;" fill="rgb(0, 0, 0)" stroke="rgb(204, 204, 204)" stroke-width="1px"></line><line x1="34" y1="103.83333333333333" x2="29" y2="103.83333333333333" style="visibility: inherit;" fill="rgb(0, 0, 0)" stroke="rgb(204, 204, 204)" stroke-width="1px"></line><line x1="34" y1="89" x2="29" y2="89" style="visibility: inherit;" fill="rgb(0, 0, 0)" stroke="rgb(204, 204, 204)" stroke-width="1px"></line><line x1="34" y1="74.16666666666666" x2="29" y2="74.16666666666666" style="visibility: inherit;" fill="rgb(0, 0, 0)" stroke="rgb(204, 204, 204)" stroke-width="1px"></line><line x1="34" y1="59.33333333333334" x2="29" y2="59.33333333333334" style="visibility: inherit;" fill="rgb(0, 0, 0)" stroke="rgb(204, 204, 204)" stroke-width="1px"></line><line x1="34" y1="44.5" x2="29" y2="44.5" style="visibility: inherit;" fill="rgb(0, 0, 0)" stroke="rgb(204, 204, 204)" stroke-width="1px"></line><line x1="34" y1="29.666666666666657" x2="29" y2="29.666666666666657" style="visibility: inherit;" fill="rgb(0, 0, 0)" stroke="rgb(204, 204, 204)" stroke-width="1px"></line><line x1="34" y1="14.833333333333343" x2="29" y2="14.833333333333343" style="visibility: inherit;" fill="rgb(0, 0, 0)" stroke="rgb(204, 204, 204)" stroke-width="1px"></line><line x1="34" y1="0" x2="29" y2="0" style="visibility: inherit;" fill="rgb(0, 0, 0)" stroke="rgb(204, 204, 204)" stroke-width="1px"></line></g><g transform="translate(24, 0)"><text x="0" y="178" dx="0em" dy="0.3em" style="text-anchor: end; visibility: hidden; font-family: &quot;Helvetica Neue&quot;, sans-serif; font-size: 12px; font-weight: 200;" fill="rgb(50, 49, 63)" stroke="none" stroke-width="1px">-2</text><text x="0" y="163.16666666666666" dx="0em" dy="0.3em" style="text-anchor: end; visibility: inherit; font-family: &quot;Helvetica Neue&quot;, sans-serif; font-size: 12px; font-weight: 200;" fill="rgb(50, 49, 63)" stroke="none" stroke-width="1px">0</text><text x="0" y="148.33333333333334" dx="0em" dy="0.3em" style="text-anchor: end; visibility: hidden; font-family: &quot;Helvetica Neue&quot;, sans-serif; font-size: 12px; font-weight: 200;" fill="rgb(50, 49, 63)" stroke="none" stroke-width="1px">2</text><text x="0" y="133.5" dx="0em" dy="0.3em" style="text-anchor: end; visibility: inherit; font-family: &quot;Helvetica Neue&quot;, sans-serif; font-size: 12px; font-weight: 200;" fill="rgb(50, 49, 63)" stroke="none" stroke-width="1px">4</text><text x="0" y="118.66666666666667" dx="0em" dy="0.3em" style="text-anchor: end; visibility: hidden; font-family: &quot;Helvetica Neue&quot;, sans-serif; font-size: 12px; font-weight: 200;" fill="rgb(50, 49, 63)" stroke="none" stroke-width="1px">6</text><text x="0" y="103.83333333333333" dx="0em" dy="0.3em" style="text-anchor: end; visibility: inherit; font-family: &quot;Helvetica Neue&quot;, sans-serif; font-size: 12px; font-weight: 200;" fill="rgb(50, 49, 63)" stroke="none" stroke-width="1px">8</text><text x="0" y="89" dx="0em" dy="0.3em" style="text-anchor: end; visibility: hidden; font-family: &quot;Helvetica Neue&quot;, sans-serif; font-size: 12px; font-weight: 200;" fill="rgb(50, 49, 63)" stroke="none" stroke-width="1px">10</text><text x="0" y="74.16666666666666" dx="0em" dy="0.3em" style="text-anchor: end; visibility: inherit; font-family: &quot;Helvetica Neue&quot;, sans-serif; font-size: 12px; font-weight: 200;" fill="rgb(50, 49, 63)" stroke="none" stroke-width="1px">12</text><text x="0" y="59.33333333333334" dx="0em" dy="0.3em" style="text-anchor: end; visibility: hidden; font-family: &quot;Helvetica Neue&quot;, sans-serif; font-size: 12px; font-weight: 200;" fill="rgb(50, 49, 63)" stroke="none" stroke-width="1px">14</text><text x="0" y="44.5" dx="0em" dy="0.3em" style="text-anchor: end; visibility: inherit; font-family: &quot;Helvetica Neue&quot;, sans-serif; font-size: 12px; font-weight: 200;" fill="rgb(50, 49, 63)" stroke="none" stroke-width="1px">16</text><text x="0" y="29.666666666666657" dx="0em" dy="0.3em" style="text-anchor: end; visibility: hidden; font-family: &quot;Helvetica Neue&quot;, sans-serif; font-size: 12px; font-weight: 200;" fill="rgb(50, 49, 63)" stroke="none" stroke-width="1px">18</text><text x="0" y="14.833333333333343" dx="0em" dy="0.3em" style="text-anchor: end; visibility: inherit; font-family: &quot;Helvetica Neue&quot;, sans-serif; font-size: 12px; font-weight: 200;" fill="rgb(50, 49, 63)" stroke="none" stroke-width="1px">20</text><text x="0" y="0" dx="0em" dy="0.3em" style="text-anchor: end; visibility: hidden; font-family: &quot;Helvetica Neue&quot;, sans-serif; font-size: 12px; font-weight: 200;" fill="rgb(50, 49, 63)" stroke="none" stroke-width="1px">22</text></g><line x1="34" y1="0" x2="34" y2="178" fill="rgb(0, 0, 0)" stroke="rgb(204, 204, 204)" stroke-width="1px"></line></g></g><g transform="translate(34, 0)" clip-path="url(#clip_0)"><clipPath id="clip_0"><rect width="296" height="178"></rect></clipPath><g><g><g><line x1="0" y1="0" x2="0" y2="178" fill="rgb(0, 0, 0)" stroke="rgb(60, 60, 60)" stroke-width="1px" opacity="0.25"></line><line x1="24.666666666666664" y1="0" x2="24.666666666666664" y2="178" fill="rgb(0, 0, 0)" stroke="rgb(60, 60, 60)" stroke-width="1px" opacity="0.25"></line><line x1="49.33333333333333" y1="0" x2="49.33333333333333" y2="178" fill="rgb(0, 0, 0)" stroke="rgb(60, 60, 60)" stroke-width="1px" opacity="0.25"></line><line x1="74" y1="0" x2="74" y2="178" fill="rgb(0, 0, 0)" stroke="rgb(60, 60, 60)" stroke-width="1px" opacity="0.25"></line><line x1="98.66666666666666" y1="0" x2="98.66666666666666" y2="178" fill="rgb(0, 0, 0)" stroke="rgb(60, 60, 60)" stroke-width="1px" opacity="0.25"></line><line x1="123.33333333333334" y1="0" x2="123.33333333333334" y2="178" fill="rgb(0, 0, 0)" stroke="rgb(60, 60, 60)" stroke-width="1px" opacity="0.25"></line><line x1="148" y1="0" x2="148" y2="178" fill="rgb(0, 0, 0)" stroke="rgb(60, 60, 60)" stroke-width="1px" opacity="0.25"></line><line x1="172.66666666666669" y1="0" x2="172.66666666666669" y2="178" fill="rgb(0, 0, 0)" stroke="rgb(60, 60, 60)" stroke-width="1px" opacity="0.25"></line><line x1="197.33333333333331" y1="0" x2="197.33333333333331" y2="178" fill="rgb(0, 0, 0)" stroke="rgb(60, 60, 60)" stroke-width="1px" opacity="0.25"></line><line x1="222" y1="0" x2="222" y2="178" fill="rgb(0, 0, 0)" stroke="rgb(60, 60, 60)" stroke-width="1px" opacity="0.25"></line><line x1="246.66666666666669" y1="0" x2="246.66666666666669" y2="178" fill="rgb(0, 0, 0)" stroke="rgb(60, 60, 60)" stroke-width="1px" opacity="0.25"></line><line x1="271.3333333333333" y1="0" x2="271.3333333333333" y2="178" fill="rgb(0, 0, 0)" stroke="rgb(60, 60, 60)" stroke-width="1px" opacity="0.25"></line><line x1="296" y1="0" x2="296" y2="178" fill="rgb(0, 0, 0)" stroke="rgb(60, 60, 60)" stroke-width="1px" opacity="0.25"></line></g><g><line x1="0" y1="178" x2="296" y2="178" fill="rgb(0, 0, 0)" stroke="rgb(60, 60, 60)" stroke-width="1px" opacity="0.25"></line><line x1="0" y1="163.16666666666666" x2="296" y2="163.16666666666666" fill="rgb(0, 0, 0)" stroke="rgb(60, 60, 60)" stroke-width="1px" opacity="0.25"></line><line x1="0" y1="148.33333333333334" x2="296" y2="148.33333333333334" fill="rgb(0, 0, 0)" stroke="rgb(60, 60, 60)" stroke-width="1px" opacity="0.25"></line><line x1="0" y1="133.5" x2="296" y2="133.5" fill="rgb(0, 0, 0)" stroke="rgb(60, 60, 60)" stroke-width="1px" opacity="0.25"></line><line x1="0" y1="118.66666666666667" x2="296" y2="118.66666666666667" fill="rgb(0, 0, 0)" stroke="rgb(60, 60, 60)" stroke-width="1px" opacity="0.25"></line><line x1="0" y1="103.83333333333333" x2="296" y2="103.83333333333333" fill="rgb(0, 0, 0)" stroke="rgb(60, 60, 60)" stroke-width="1px" opacity="0.25"></line><line x1="0" y1="89" x2="296" y2="89" fill="rgb(0, 0, 0)" stroke="rgb(60, 60, 60)" stroke-width="1px" opacity="0.25"></line><line x1="0" y1="74.16666666666666" x2="296" y2="74.16666666666666" fill="rgb(0, 0, 0)" stroke="rgb(60, 60, 60)" stroke-width="1px" opacity="0.25"></line><line x1="0" y1="59.33333333333334" x2="296" y2="59.33333333333334" fill="rgb(0, 0, 0)" stroke="rgb(60, 60, 60)" stroke-width="1px" opacity="0.25"></line><line x1="0" y1="44.5" x2="296" y2="44.5" fill="rgb(0, 0, 0)" stroke="rgb(60, 60, 60)" stroke-width="1px" opacity="0.25"></line><line x1="0" y1="29.666666666666657" x2="296" y2="29.666666666666657" fill="rgb(0, 0, 0)" stroke="rgb(60, 60, 60)" stroke-width="1px" opacity="0.25"></line><line x1="0" y1="14.833333333333343" x2="296" y2="14.833333333333343" fill="rgb(0, 0, 0)" stroke="rgb(60, 60, 60)" stroke-width="1px" opacity="0.25"></line><line x1="0" y1="0" x2="296" y2="0" fill="rgb(0, 0, 0)" stroke="rgb(60, 60, 60)" stroke-width="1px" opacity="0.25"></line></g></g></g><g><g><line x1="0" y1="163.16666666666666" x2="296" y2="163.16666666666666" fill="rgb(0, 0, 0)" stroke="rgb(153, 153, 153)" stroke-width="1.5px"></line></g></g><g><g><line x1="24.666666666666664" y1="0" x2="24.666666666666664" y2="178" fill="rgb(0, 0, 0)" stroke="rgb(153, 153, 153)" stroke-width="1.5px"></line></g></g><g><g><g><g><g><path stroke="rgb(0, 119, 187)" stroke-width="2px" d="M25.880266666666667,69.87246974309286L27.1284,68.33083495920962L28.4012,68.90338374132217L29.6888,57.78413839715523L31.0208,14.752271796052383L32.37746666666666,-12.359994784293605L33.7292,9.705503585928028L35.095733333333335,24.800005861623845L36.45733333333333,32.86170809615314L37.843599999999995,31.562067410200285L39.22,18.915682292196493L40.52733333333333,23.31373857369232L41.82973333333334,18.49304962344516L43.141999999999996,16.973729419479525L44.4296,17.02425778176911L45.7468,25.619931944730496L47.04426666666667,38.406975696947825L48.3516,47.824929070695674L49.668800000000005,50.958428150347075L50.971199999999996,56.11705331166246L52.23413333333333,62.675914249571306L53.51186666666666,56.55057649328893L54.78959999999999,61.135043353824344L56.08213333333333,59.677361464649564L57.369733333333336,60.390203855467476L58.657333333333334,66.6870428176038L59.91533333333333,65.40395007328561L61.17333333333333,69.49202996746767L62.416533333333334,66.39767852837045L63.644933333333334,72.15805966098185L64.93253333333332,67.12474167830042L66.1708,70.6193445422183L67.44853333333333,71.59379814496859L68.95813333333334,69.97278025489345L70.50226666666667,64.51165543675779L72.0612,68.75443614724568L73.7484,78.36721208722159L75.43560000000001,83.31221824126725L77.108,87.5509389436462L78.96293333333332,91.33406999105623L80.8524,94.7306990231501L82.78133333333334,97.78847828046999L84.72506666666666,100.502539902818L86.654,102.80319827964134L88.56813333333334,104.65181431770552L90.50693333333334,106.08603311333657L92.45066666666668,107.2087280417579L94.39933333333333,107.88778361052067L96.34306666666667,108.15616987698387L98.29666666666667,108.18978116432777L100.23053333333334,108.03658428031885L102.16933333333334,107.87506196436642L104.10813333333334,107.78285824440151L106.042,107.72990443091733L107.9808,107.75545646056254L109.91466666666668,107.52622802454978L111.84853333333334,107.45934075562417L113.7676,107.43537306883468L115.70146666666668,107.11680675788384L117.63533333333332,106.77488275058747L118.96239999999999,106.58010292243848L120.2648,106.72714552194002L121.58693333333333,106.55788376727868L122.88933333333334,106.2639947948895L124.21640000000001,106.16477226189703L125.54346666666666,106.0717202861257L126.87546666666665,105.69100990448179L128.20746666666665,105.28238035500308L129.51973333333333,105.19984432088877L130.8468,105.26400778794151L132.17386666666667,105.09929711698831L133.48613333333333,104.84981052649884L134.78853333333333,104.60776386764582L136.1008,104.44899329870796L137.39826666666667,104.31141852563043L138.71053333333333,104.29222897050046L140.00799999999998,104.30327000712373L141.32026666666667,103.90256265713617L142.63746666666665,103.76450328205742L144.39866666666666,103.68823765095287L146.1796,103.79846848819156L147.96546666666666,103.76914603210446L149.78093333333334,103.57201069006847L151.5964,103.47909119624066L153.39706666666666,103.36779924961522L155.21746666666667,103.4294370533315L157.03293333333332,103.25299313944929L158.84346666666664,102.97000925498953L160.35306666666665,102.58096317484734L161.98106666666666,102.43323531179341L163.62386666666666,102.31126729928269L165.27653333333333,102.14334327468356L166.9341333333333,101.92583350894586L168.59173333333334,101.78803989077161L170.22466666666665,101.72491681029214L171.86253333333335,101.81347041428901L173.51026666666664,101.45626695619703L175.16293333333334,101.48542451185992L176.81560000000002,101.40442369888883L178.45839999999998,101.2659666773188L180.1110666666667,101.3394956704137L181.744,101.50722267430898L183.38680000000002,101.4110261759513L185.0444,101.2758449304424L186.71186666666668,101.11972792459498L188.36946666666665,101.08319607692681L190.03693333333334,101.03634123288492L191.68959999999998,101.06993970947606L193.362,100.96364426517931L195.02453333333335,100.67452701556745L196.69693333333333,100.6237087311601L198.37426666666667,100.28294151507453L200.04666666666665,100.00128011344029L201.69933333333333,99.9996277385903L203.4704,100.05871564378344L205.33026666666666,100.09828850751651L207.23453333333336,99.98994291436925L209.12893333333335,100.0255055380594L210.974,99.77783085322301L212.8388,99.5829241469574L214.70360000000002,99.31208060203952L216.60293333333334,99.11094597283484L218.5121333333333,98.73795106177306L220.42626666666666,98.53198009827888L222.33546666666666,98.36103390384216L224.22,98.05187351878446L226.13906666666668,98.28629288320055L228.0532,98.3514376283954L229.98706666666666,98.4917115393781L231.916,98.59582684229919L233.81533333333334,98.54353020689366L235.7492,98.5292966503516L237.6732,98.51573633529298L239.60213333333334,98.38505025702159L241.5212,97.9640836727041L243.43040000000002,97.84105533052666L245.36919999999998,97.804952994754L246.71106666666668,97.67779360530032L247.97893333333334,97.90650129556226L249.27146666666664,98.04051111636889L250.5492,98.00953898330843L251.83186666666666,97.5403314850601L253.1096,97.27100439611587L254.40213333333335,97.52147641727962L255.6848,97.4679487580974L256.9477333333333,97.5270333748686L258.2353333333333,97.14294747060707L259.51800000000003,97.1467713455491L260.78586666666666,97.06490028785014L262.07346666666666,97.00868298421493L263.36106666666666,97.18822046048489L264.6388,97.0765969727847L265.91653333333335,96.49411511097428L267.1893333333333,96.77676857424049L268.47693333333336,96.72646769289796L269.77933333333334,96.73686411626824L271.062,96.7247857167175L272.32,96.84507983044264L273.5928,96.69067814899589" style="fill: none;" fill="none"></path></g></g></g></g><g opacity="0.2"><g><g><g><path stroke="rgb(0, 119, 187)" stroke-width="2px" d="M25.880266666666667,69.87246974309286L27.1284,67.23473262786865L28.4012,69.59990135828653L29.6888,40.26080338160196L31.0208,-64.06050205230713L32.37746666666666,-66.94227472941083L33.7292,56.978222529093415L35.095733333333335,58.524646361668914L36.45733333333333,51.399914185206086L37.843599999999995,28.513145605723054L39.22,-11.169899940490723L40.52733333333333,33.87989091873169L41.82973333333334,6.8310859998067315L43.141999999999996,13.280239582061768L44.4296,17.14751927057901L45.7468,46.640223423639924L47.04426666666667,69.73158804575601L48.3516,70.92478911081949L49.668800000000005,58.65086555480957L50.971199999999996,68.78888734181723L52.23413333333333,78.79448684056601L53.51186666666666,41.49265178044638L54.78959999999999,72.40756932894388L56.08213333333333,56.09256625175476L57.369733333333336,62.143455664316804L58.657333333333334,82.17550611495972L59.91533333333333,62.24772000312805L61.17333333333333,79.54854838053384L62.416533333333334,58.785473426183074L63.644933333333334,86.32907597223917L64.93253333333332,54.74218002955118L66.1708,79.21657315889993L67.44853333333333,73.99111270904541L68.95813333333334,65.98479127883911L70.50226666666667,51.07627813021341L72.0612,79.19248930613199L73.7484,102.01652669906616L75.43560000000001,95.47791981697083L77.108,97.97904737790425L78.96293333333332,100.64134224255879L80.8524,103.08710169792175L82.78133333333334,105.31124373277028L84.72506666666666,107.1796909570694L86.654,108.46329311529796L88.56813333333334,109.19979218641917L90.50693333333334,109.6145083506902L92.45066666666668,109.97079022725423L94.39933333333333,109.55840110778809L96.34306666666667,108.8164557615916L98.29666666666667,108.27247190475464L100.23053333333334,107.65968815485637L102.16933333333334,107.47768354415894L104.10813333333334,107.55601795514424L106.042,107.59962705771129L107.9808,107.81831975777943L109.91466666666668,106.96227848529816L111.84853333333334,107.29478418827057L113.7676,107.37640758355458L115.70146666666668,106.33306749661763L117.63533333333332,105.93367870648702L118.96239999999999,106.10090410709381L120.2648,107.08890084425609L121.58693333333333,106.1414647102356L122.88933333333334,105.54096690813701L124.21640000000001,105.92066423098247L125.54346666666666,105.84279310703278L126.87546666666665,104.75438332557678L128.20746666666665,104.27706682682037L129.51973333333333,104.99678854147594L130.8468,105.42186323801677L132.17386666666667,104.69407467047374L133.48613333333333,104.23602171738942L134.78853333333333,104.01227883497874L136.1008,104.05838473637898L137.39826666666667,103.97295602162679L138.71053333333333,104.2450186808904L140.00799999999998,104.33043324947357L141.32026666666667,102.9167393843333L142.63746666666665,103.42484855651855L144.39866666666666,103.50060836474101L146.1796,104.06965923309326L147.96546666666666,103.6970067024231L149.78093333333334,103.08701682090759L151.5964,103.25048995018005L153.39706666666666,103.09399795532227L155.21746666666667,103.58107884724934L157.03293333333332,102.81890447934468L158.84346666666664,102.27381014823914L160.35306666666665,101.62382904688518L161.98106666666666,102.06979409853618L163.62386666666666,102.01120066642761L165.27653333333333,101.73021531105042L166.9341333333333,101.39071432749431L168.59173333333334,101.44903898239136L170.22466666666665,101.56962092717488L171.86253333333335,102.03133066495259L173.51026666666664,100.57747228940327L175.16293333333334,101.55715815226237L176.81560000000002,101.20514488220215L178.45839999999998,100.92533365885417L180.1110666666667,101.52039225896199L181.744,101.91986592610677L183.38680000000002,101.17436281840007L185.0444,100.94327100118001L186.71186666666668,100.73564767837524L188.36946666666665,100.99332014719646L190.03693333333334,100.92106858889262L191.68959999999998,101.1525989373525L193.362,100.702135403951L195.02453333333335,99.96323855717976L196.69693333333333,100.49868520100911L198.37426666666667,99.44458341598511L200.04666666666665,99.30833458900452L201.69933333333333,99.99556255340576L203.4704,100.20408415794373L205.33026666666666,100.19564596811931L207.23453333333336,99.7233902613322L209.12893333333335,100.11299697558086L210.974,99.16849970817566L212.8388,99.10341318448384L214.70360000000002,98.64574925104777L216.60293333333334,98.61611302693684L218.5121333333333,97.82030614217122L220.42626666666666,98.02524876594543L222.33546666666666,97.94047077496846L224.22,97.29127478599548L226.13906666666668,98.86301318804423L228.0532,98.51170722643535L229.98706666666666,98.83681448300679L231.916,98.8519721031189L233.81533333333334,98.41486962636311L235.7492,98.49427914619446L237.6732,98.4823751449585L239.60213333333334,98.06353537241618L241.5212,96.9284184773763L243.43040000000002,97.53838006655376L245.36919999999998,97.71613375345866L246.71106666666668,97.36495510737102L247.97893333333334,98.46916969617207L249.27146666666664,98.37020309766133L250.5492,97.93334110577901L251.83186666666666,96.38598362604777L253.1096,96.60840384165446L254.40213333333335,98.1376895904541L255.6848,97.33625960350037L256.9477333333333,97.67239379882812L258.2353333333333,96.19801640510559L259.51800000000003,97.15617887179057L260.78586666666666,96.86348048845927L262.07346666666666,96.87037674585979L263.36106666666666,97.62991992632548L264.6388,96.80198001861572L265.91653333333335,95.0610888004303L267.1893333333333,97.4721547762553L268.47693333333336,96.60271708170573L269.77933333333334,96.76244147618611L271.062,96.69507034619649L272.32,97.14102832476298L273.5928,96.31081795692444" style="fill: none;" fill="none"></path></g></g></g></g></g></g><g transform="translate(34, 178)" clip-path="url(#clip_1)"><clipPath id="clip_1"><rect width="296" height="22"></rect></clipPath><g><g><line x1="0" y1="0" x2="0" y2="5" style="visibility: inherit;" fill="rgb(0, 0, 0)" stroke="rgb(204, 204, 204)" stroke-width="1px"></line><line x1="24.666666666666664" y1="0" x2="24.666666666666664" y2="5" style="visibility: inherit;" fill="rgb(0, 0, 0)" stroke="rgb(204, 204, 204)" stroke-width="1px"></line><line x1="49.33333333333333" y1="0" x2="49.33333333333333" y2="5" style="visibility: inherit;" fill="rgb(0, 0, 0)" stroke="rgb(204, 204, 204)" stroke-width="1px"></line><line x1="74" y1="0" x2="74" y2="5" style="visibility: inherit;" fill="rgb(0, 0, 0)" stroke="rgb(204, 204, 204)" stroke-width="1px"></line><line x1="98.66666666666666" y1="0" x2="98.66666666666666" y2="5" style="visibility: inherit;" fill="rgb(0, 0, 0)" stroke="rgb(204, 204, 204)" stroke-width="1px"></line><line x1="123.33333333333334" y1="0" x2="123.33333333333334" y2="5" style="visibility: inherit;" fill="rgb(0, 0, 0)" stroke="rgb(204, 204, 204)" stroke-width="1px"></line><line x1="148" y1="0" x2="148" y2="5" style="visibility: inherit;" fill="rgb(0, 0, 0)" stroke="rgb(204, 204, 204)" stroke-width="1px"></line><line x1="172.66666666666669" y1="0" x2="172.66666666666669" y2="5" style="visibility: inherit;" fill="rgb(0, 0, 0)" stroke="rgb(204, 204, 204)" stroke-width="1px"></line><line x1="197.33333333333331" y1="0" x2="197.33333333333331" y2="5" style="visibility: inherit;" fill="rgb(0, 0, 0)" stroke="rgb(204, 204, 204)" stroke-width="1px"></line><line x1="222" y1="0" x2="222" y2="5" style="visibility: inherit;" fill="rgb(0, 0, 0)" stroke="rgb(204, 204, 204)" stroke-width="1px"></line><line x1="246.66666666666669" y1="0" x2="246.66666666666669" y2="5" style="visibility: inherit;" fill="rgb(0, 0, 0)" stroke="rgb(204, 204, 204)" stroke-width="1px"></line><line x1="271.3333333333333" y1="0" x2="271.3333333333333" y2="5" style="visibility: inherit;" fill="rgb(0, 0, 0)" stroke="rgb(204, 204, 204)" stroke-width="1px"></line><line x1="296" y1="0" x2="296" y2="5" style="visibility: inherit;" fill="rgb(0, 0, 0)" stroke="rgb(204, 204, 204)" stroke-width="1px"></line></g><g transform="translate(0, 8)"><text x="0" y="0" dx="0em" dy="0.95em" style="text-anchor: middle; visibility: hidden; font-family: &quot;Helvetica Neue&quot;, sans-serif; font-size: 12px; font-weight: 200;" fill="rgb(50, 49, 63)" stroke="none" stroke-width="1px">-5k</text><text x="24.666666666666664" y="0" dx="0em" dy="0.95em" style="text-anchor: middle; visibility: inherit; font-family: &quot;Helvetica Neue&quot;, sans-serif; font-size: 12px; font-weight: 200;" fill="rgb(50, 49, 63)" stroke="none" stroke-width="1px">0</text><text x="49.33333333333333" y="0" dx="0em" dy="0.95em" style="text-anchor: middle; visibility: hidden; font-family: &quot;Helvetica Neue&quot;, sans-serif; font-size: 12px; font-weight: 200;" fill="rgb(50, 49, 63)" stroke="none" stroke-width="1px">5k</text><text x="74" y="0" dx="0em" dy="0.95em" style="text-anchor: middle; visibility: inherit; font-family: &quot;Helvetica Neue&quot;, sans-serif; font-size: 12px; font-weight: 200;" fill="rgb(50, 49, 63)" stroke="none" stroke-width="1px">10k</text><text x="98.66666666666666" y="0" dx="0em" dy="0.95em" style="text-anchor: middle; visibility: hidden; font-family: &quot;Helvetica Neue&quot;, sans-serif; font-size: 12px; font-weight: 200;" fill="rgb(50, 49, 63)" stroke="none" stroke-width="1px">15k</text><text x="123.33333333333334" y="0" dx="0em" dy="0.95em" style="text-anchor: middle; visibility: inherit; font-family: &quot;Helvetica Neue&quot;, sans-serif; font-size: 12px; font-weight: 200;" fill="rgb(50, 49, 63)" stroke="none" stroke-width="1px">20k</text><text x="148" y="0" dx="0em" dy="0.95em" style="text-anchor: middle; visibility: hidden; font-family: &quot;Helvetica Neue&quot;, sans-serif; font-size: 12px; font-weight: 200;" fill="rgb(50, 49, 63)" stroke="none" stroke-width="1px">25k</text><text x="172.66666666666669" y="0" dx="0em" dy="0.95em" style="text-anchor: middle; visibility: inherit; font-family: &quot;Helvetica Neue&quot;, sans-serif; font-size: 12px; font-weight: 200;" fill="rgb(50, 49, 63)" stroke="none" stroke-width="1px">30k</text><text x="197.33333333333331" y="0" dx="0em" dy="0.95em" style="text-anchor: middle; visibility: hidden; font-family: &quot;Helvetica Neue&quot;, sans-serif; font-size: 12px; font-weight: 200;" fill="rgb(50, 49, 63)" stroke="none" stroke-width="1px">35k</text><text x="222" y="0" dx="0em" dy="0.95em" style="text-anchor: middle; visibility: inherit; font-family: &quot;Helvetica Neue&quot;, sans-serif; font-size: 12px; font-weight: 200;" fill="rgb(50, 49, 63)" stroke="none" stroke-width="1px">40k</text><text x="246.66666666666669" y="0" dx="0em" dy="0.95em" style="text-anchor: middle; visibility: hidden; font-family: &quot;Helvetica Neue&quot;, sans-serif; font-size: 12px; font-weight: 200;" fill="rgb(50, 49, 63)" stroke="none" stroke-width="1px">45k</text><text x="271.3333333333333" y="0" dx="0em" dy="0.95em" style="text-anchor: middle; visibility: inherit; font-family: &quot;Helvetica Neue&quot;, sans-serif; font-size: 12px; font-weight: 200;" fill="rgb(50, 49, 63)" stroke="none" stroke-width="1px">50k</text><text x="296" y="0" dx="0em" dy="0.95em" style="text-anchor: middle; visibility: hidden; font-family: &quot;Helvetica Neue&quot;, sans-serif; font-size: 12px; font-weight: 200;" fill="rgb(50, 49, 63)" stroke="none" stroke-width="1px">55k</text></g><line x1="0" y1="0" x2="296" y2="0" fill="rgb(0, 0, 0)" stroke="rgb(204, 204, 204)" stroke-width="1px"></line></g></g></g></g></svg>