<svg viewBox="0 0 330 200" xmlns="http://www.w3.org/2000/svg"><g><g><g><g><g><line x1="34" y1="178" x2="29" y2="178" style="visibility: inherit;" fill="rgb(0, 0, 0)" stroke="rgb(204, 204, 204)" stroke-width="1px"></line><line x1="34" y1="158.22222222222223" x2="29" y2="158.22222222222223" style="visibility: inherit;" fill="rgb(0, 0, 0)" stroke="rgb(204, 204, 204)" stroke-width="1px"></line><line x1="34" y1="138.44444444444446" x2="29" y2="138.44444444444446" style="visibility: inherit;" fill="rgb(0, 0, 0)" stroke="rgb(204, 204, 204)" stroke-width="1px"></line><line x1="34" y1="118.66666666666667" x2="29" y2="118.66666666666667" style="visibility: inherit;" fill="rgb(0, 0, 0)" stroke="rgb(204, 204, 204)" stroke-width="1px"></line><line x1="34" y1="98.8888888888889" x2="29" y2="98.8888888888889" style="visibility: inherit;" fill="rgb(0, 0, 0)" stroke="rgb(204, 204, 204)" stroke-width="1px"></line><line x1="34" y1="79.1111111111111" x2="29" y2="79.1111111111111" style="visibility: inherit;" fill="rgb(0, 0, 0)" stroke="rgb(204, 204, 204)" stroke-width="1px"></line><line x1="34" y1="59.33333333333334" x2="29" y2="59.33333333333334" style="visibility: inherit;" fill="rgb(0, 0, 0)" stroke="rgb(204, 204, 204)" stroke-width="1px"></line><line x1="34" y1="39.55555555555554" x2="29" y2="39.55555555555554" style="visibility: inherit;" fill="rgb(0, 0, 0)" stroke="rgb(204, 204, 204)" stroke-width="1px"></line><line x1="34" y1="19.7777777777778" x2="29" y2="19.7777777777778" style="visibility: inherit;" fill="rgb(0, 0, 0)" stroke="rgb(204, 204, 204)" stroke-width="1px"></line><line x1="34" y1="0" x2="29" y2="0" style="visibility: inherit;" fill="rgb(0, 0, 0)" stroke="rgb(204, 204, 204)" stroke-width="1px"></line></g><g transform="translate(24, 0)"><text x="0" y="178" dx="0em" dy="0.3em" style="text-anchor: end; visibility: hidden; font-family: &quot;Helvetica Neue&quot;, sans-serif; font-size: 12px; font-weight: 200;" fill="rgb(50, 49, 63)" stroke="none" stroke-width="1px">-5</text><text x="0" y="158.22222222222223" dx="0em" dy="0.3em" style="text-anchor: end; visibility: inherit; font-family: &quot;Helvetica Neue&quot;, sans-serif; font-size: 12px; font-weight: 200;" fill="rgb(50, 49, 63)" stroke="none" stroke-width="1px">0</text><text x="0" y="138.44444444444446" dx="0em" dy="0.3em" style="text-anchor: end; visibility: hidden; font-family: &quot;Helvetica Neue&quot;, sans-serif; font-size: 12px; font-weight: 200;" fill="rgb(50, 49, 63)" stroke="none" stroke-width="1px">5</text><text x="0" y="118.66666666666667" dx="0em" dy="0.3em" style="text-anchor: end; visibility: inherit; font-family: &quot;Helvetica Neue&quot;, sans-serif; font-size: 12px; font-weight: 200;" fill="rgb(50, 49, 63)" stroke="none" stroke-width="1px">10</text><text x="0" y="98.8888888888889" dx="0em" dy="0.3em" style="text-anchor: end; visibility: hidden; font-family: &quot;Helvetica Neue&quot;, sans-serif; font-size: 12px; font-weight: 200;" fill="rgb(50, 49, 63)" stroke="none" stroke-width="1px">15</text><text x="0" y="79.1111111111111" dx="0em" dy="0.3em" style="text-anchor: end; visibility: inherit; font-family: &quot;Helvetica Neue&quot;, sans-serif; font-size: 12px; font-weight: 200;" fill="rgb(50, 49, 63)" stroke="none" stroke-width="1px">20</text><text x="0" y="59.33333333333334" dx="0em" dy="0.3em" style="text-anchor: end; visibility: hidden; font-family: &quot;Helvetica Neue&quot;, sans-serif; font-size: 12px; font-weight: 200;" fill="rgb(50, 49, 63)" stroke="none" stroke-width="1px">25</text><text x="0" y="39.55555555555554" dx="0em" dy="0.3em" style="text-anchor: end; visibility: inherit; font-family: &quot;Helvetica Neue&quot;, sans-serif; font-size: 12px; font-weight: 200;" fill="rgb(50, 49, 63)" stroke="none" stroke-width="1px">30</text><text x="0" y="19.7777777777778" dx="0em" dy="0.3em" style="text-anchor: end; visibility: hidden; font-family: &quot;Helvetica Neue&quot;, sans-serif; font-size: 12px; font-weight: 200;" fill="rgb(50, 49, 63)" stroke="none" stroke-width="1px">35</text><text x="0" y="0" dx="0em" dy="0.3em" style="text-anchor: end; visibility: hidden; font-family: &quot;Helvetica Neue&quot;, sans-serif; font-size: 12px; font-weight: 200;" fill="rgb(50, 49, 63)" stroke="none" stroke-width="1px">40</text></g><line x1="34" y1="0" x2="34" y2="178" fill="rgb(0, 0, 0)" stroke="rgb(204, 204, 204)" stroke-width="1px"></line></g></g><g transform="translate(34, 0)" clip-path="url(#clip_0)"><clipPath id="clip_0"><rect width="296" height="178"></rect></clipPath><g><g><g><line x1="0" y1="0" x2="0" y2="178" fill="rgb(0, 0, 0)" stroke="rgb(60, 60, 60)" stroke-width="1px" opacity="0.25"></line><line x1="24.666666666666664" y1="0" x2="24.666666666666664" y2="178" fill="rgb(0, 0, 0)" stroke="rgb(60, 60, 60)" stroke-width="1px" opacity="0.25"></line><line x1="49.33333333333333" y1="0" x2="49.33333333333333" y2="178" fill="rgb(0, 0, 0)" stroke="rgb(60, 60, 60)" stroke-width="1px" opacity="0.25"></line><line x1="74" y1="0" x2="74" y2="178" fill="rgb(0, 0, 0)" stroke="rgb(60, 60, 60)" stroke-width="1px" opacity="0.25"></line><line x1="98.66666666666666" y1="0" x2="98.66666666666666" y2="178" fill="rgb(0, 0, 0)" stroke="rgb(60, 60, 60)" stroke-width="1px" opacity="0.25"></line><line x1="123.33333333333334" y1="0" x2="123.33333333333334" y2="178" fill="rgb(0, 0, 0)" stroke="rgb(60, 60, 60)" stroke-width="1px" opacity="0.25"></line><line x1="148" y1="0" x2="148" y2="178" fill="rgb(0, 0, 0)" stroke="rgb(60, 60, 60)" stroke-width="1px" opacity="0.25"></line><line x1="172.66666666666669" y1="0" x2="172.66666666666669" y2="178" fill="rgb(0, 0, 0)" stroke="rgb(60, 60, 60)" stroke-width="1px" opacity="0.25"></line><line x1="197.33333333333331" y1="0" x2="197.33333333333331" y2="178" fill="rgb(0, 0, 0)" stroke="rgb(60, 60, 60)" stroke-width="1px" opacity="0.25"></line><line x1="222" y1="0" x2="222" y2="178" fill="rgb(0, 0, 0)" stroke="rgb(60, 60, 60)" stroke-width="1px" opacity="0.25"></line><line x1="246.66666666666669" y1="0" x2="246.66666666666669" y2="178" fill="rgb(0, 0, 0)" stroke="rgb(60, 60, 60)" stroke-width="1px" opacity="0.25"></line><line x1="271.3333333333333" y1="0" x2="271.3333333333333" y2="178" fill="rgb(0, 0, 0)" stroke="rgb(60, 60, 60)" stroke-width="1px" opacity="0.25"></line><line x1="296" y1="0" x2="296" y2="178" fill="rgb(0, 0, 0)" stroke="rgb(60, 60, 60)" stroke-width="1px" opacity="0.25"></line></g><g><line x1="0" y1="178" x2="296" y2="178" fill="rgb(0, 0, 0)" stroke="rgb(60, 60, 60)" stroke-width="1px" opacity="0.25"></line><line x1="0" y1="158.22222222222223" x2="296" y2="158.22222222222223" fill="rgb(0, 0, 0)" stroke="rgb(60, 60, 60)" stroke-width="1px" opacity="0.25"></line><line x1="0" y1="138.44444444444446" x2="296" y2="138.44444444444446" fill="rgb(0, 0, 0)" stroke="rgb(60, 60, 60)" stroke-width="1px" opacity="0.25"></line><line x1="0" y1="118.66666666666667" x2="296" y2="118.66666666666667" fill="rgb(0, 0, 0)" stroke="rgb(60, 60, 60)" stroke-width="1px" opacity="0.25"></line><line x1="0" y1="98.8888888888889" x2="296" y2="98.8888888888889" fill="rgb(0, 0, 0)" stroke="rgb(60, 60, 60)" stroke-width="1px" opacity="0.25"></line><line x1="0" y1="79.1111111111111" x2="296" y2="79.1111111111111" fill="rgb(0, 0, 0)" stroke="rgb(60, 60, 60)" stroke-width="1px" opacity="0.25"></line><line x1="0" y1="59.33333333333334" x2="296" y2="59.33333333333334" fill="rgb(0, 0, 0)" stroke="rgb(60, 60, 60)" stroke-width="1px" opacity="0.25"></line><line x1="0" y1="39.55555555555554" x2="296" y2="39.55555555555554" fill="rgb(0, 0, 0)" stroke="rgb(60, 60, 60)" stroke-width="1px" opacity="0.25"></line><line x1="0" y1="19.7777777777778" x2="296" y2="19.7777777777778" fill="rgb(0, 0, 0)" stroke="rgb(60, 60, 60)" stroke-width="1px" opacity="0.25"></line><line x1="0" y1="0" x2="296" y2="0" fill="rgb(0, 0, 0)" stroke="rgb(60, 60, 60)" stroke-width="1px" opacity="0.25"></line></g></g></g><g><g><line x1="0" y1="158.22222222222223" x2="296" y2="158.22222222222223" fill="rgb(0, 0, 0)" stroke="rgb(153, 153, 153)" stroke-width="1.5px"></line></g></g><g><g><line x1="24.666666666666664" y1="0" x2="24.666666666666664" y2="178" fill="rgb(0, 0, 0)" stroke="rgb(153, 153, 153)" stroke-width="1.5px"></line></g></g><g><g><g><g><g><path stroke="rgb(0, 119, 187)" stroke-width="2px" d="M25.880266666666667,55.13312827216255L27.1284,28.47494860956965L28.4012,38.596054247953475L29.6888,32.9052303503089L31.0208,-73.31154656527818L35.095733333333335,-25.363437007737446L36.45733333333333,1.682485660893235L37.843599999999995,12.190717025348249L39.22,15.725675802317141L40.52733333333333,27.75173951787795L41.82973333333334,33.47315184362853L43.141999999999996,36.84250878612622L44.4296,41.60445849137554L45.7468,49.177085893876466L47.04426666666667,57.901543239039924L48.3516,58.40515195039528L49.668800000000005,61.89911468310814L50.971199999999996,65.05260547662425L52.23413333333333,63.725214982193506L53.51186666666666,61.54634003856229L54.78959999999999,63.70061441824075L56.08213333333333,65.48190762010326L57.369733333333336,68.71929224814308L58.657333333333334,75.2111361126277L59.91533333333333,77.66812623999799L61.17333333333333,78.44185352503294L62.416533333333334,72.1487689645758L63.644933333333334,71.521452262016L64.93253333333332,71.62834281503835L66.1708,74.10848267026668L67.44853333333333,80.1037382718844L68.95813333333334,83.78490341212533L70.50226666666667,78.95248921368066L72.0612,82.45071675148304L73.7484,89.81836611675674L75.43560000000001,93.01210761141928L77.108,96.06479454074827L78.96293333333332,98.4074472384451L80.8524,100.89763087212151L82.78133333333334,102.61623731169941L84.72506666666666,104.24983694777481L86.654,105.28604579224219L88.56813333333334,106.01390391853896L90.50693333333334,106.60675129982702L92.45066666666668,107.02540615302534L94.39933333333333,107.83593929112124L96.34306666666667,108.24596329107989L98.29666666666667,108.61630403769465L100.23053333333334,109.19930599905868L102.16933333333334,109.3371172020825L104.10813333333334,109.65825470707928L106.042,110.16268377209724L107.9808,110.2746548007646L109.91466666666668,110.32955141085922L111.84853333333334,110.53282778498819L113.7676,110.69974450452872L115.70146666666668,110.67607403645157L117.63533333333332,110.63026141733035L118.96239999999999,110.60436828888639L120.2648,110.64765803568771L121.58693333333333,110.52669455341166L122.88933333333334,110.41159431082588L124.21640000000001,110.63974387400195L125.54346666666666,110.66088767033513L126.87546666666665,110.68597144574676L128.20746666666665,110.37555063483003L129.51973333333333,110.44736666120428L130.8468,110.55040414023789L132.17386666666667,110.56805714389583L133.48613333333333,110.3711781052341L134.78853333333333,110.3009806886811L136.1008,110.0440111821047L137.39826666666667,109.96241628506544L138.71053333333333,109.97904054531169L140.00799999999998,110.13491153896837L141.32026666666667,109.99885500630913L142.63746666666665,109.70996594670818L144.39866666666666,109.66938197303074L146.1796,109.96241756648469L147.96546666666666,109.94318811171647L149.78093333333334,109.89045090111011L151.5964,109.82774718406289L153.39706666666666,109.79916349825695L155.21746666666667,109.85297614836848L157.03293333333332,109.66644572720978L158.84346666666664,109.48259964036679L160.35306666666665,109.31557929572865L161.98106666666666,109.18489888315746L163.62386666666666,109.06983882575832L165.27653333333333,109.0461583068696L166.9341333333333,109.01126341672745L168.59173333333334,109.22583121570855L170.22466666666665,109.1790025915571L171.86253333333335,109.26522803711613L173.51026666666664,109.0774513196126L175.16293333333334,109.04983737503217L176.81560000000002,108.94334014698025L178.45839999999998,109.043250440418L180.1110666666667,109.11092448813348L181.744,109.09374114088332L183.38680000000002,108.96752612719682L185.0444,109.01671446604978L186.71186666666668,109.0684404490692L188.36946666666665,109.23737143582832L190.03693333333334,109.2345898775798L191.68959999999998,109.02464709164434L193.362,108.75373673822263L195.02453333333335,108.35532605352027L196.69693333333333,108.17263119156762L198.37426666666667,107.88265154694267L200.04666666666665,107.76901530434164L201.69933333333333,107.90003452333941L203.4704,108.16615238609405L205.33026666666666,108.20530077980484L207.23453333333336,108.2072550752037L209.12893333333335,108.28488104167704L210.974,108.27670970047686L212.8388,108.28338918623685L214.70360000000002,108.17855921969144L216.60293333333334,108.01109335743686L218.5121333333333,107.7587473223077L220.42626666666666,107.7624607669914L222.33546666666666,107.59583687024379L224.22,107.63414212622067L226.13906666666668,107.66205526643407L228.0532,107.76602228417902L229.98706666666666,107.90063198123627L231.916,108.07800621498988L233.81533333333334,108.08215120313923L235.7492,107.93736009514181L237.6732,108.12010329821807L239.60213333333334,108.04963350215178L241.5212,107.88596136140565L243.43040000000002,107.82289788548809L245.36919999999998,107.69534424439935L246.71106666666668,107.70000996218484L247.97893333333334,107.79841545539907L249.27146666666664,107.9563127784626L250.5492,107.90339423070515L251.83186666666666,107.87566378114157L253.1096,107.69074317328247L254.40213333333335,107.85451424903451L255.6848,107.78766810990636L256.9477333333333,107.72109583449982L258.2353333333333,107.49583825711736L259.51800000000003,107.20530551005386L260.78586666666666,107.1100230580261L262.07346666666666,107.14656776460603L263.36106666666666,107.21075050196463L264.6388,107.35308608927296L265.91653333333335,107.06742117696676L267.1893333333333,107.20530231324832L268.47693333333336,107.46124445372564L269.77933333333334,107.53495283318821L271.062,107.54844487005681L272.32,107.69218767381096L273.5928,107.65562185281577" style="fill: none;" fill="none"></path></g></g></g></g><g opacity="0.2"><g><g><g><path stroke="rgb(0, 119, 187)" stroke-width="2px" d="M25.880266666666667,55.13312827216255L27.1284,9.520982869466138L28.4012,50.90859180026585L29.6888,23.936796739366315L31.0208,-267.8473517523871L32.37746666666666,-220.6496961805555L33.7292,45.382683224148224L35.095733333333335,71.85476014879015L36.45733333333333,63.875664435492624L37.843599999999995,36.84274283515083L39.22,24.135295783148877L40.52733333333333,56.643871222602L41.82973333333334,47.31409929063585L43.141999999999996,45.03346523708768L44.4296,53.22100380791558L45.7468,67.69556766086156L47.04426666666667,79.27397689819335L48.3516,59.640376875135644L49.668800000000005,70.47645551893447L50.971199999999996,72.79895468817817L52.23413333333333,60.46311806572808L53.51186666666666,56.19000930786133L54.78959999999999,68.99765650431314L56.08213333333333,69.86254196166992L57.369733333333336,76.68171217176649L58.657333333333334,91.17925694783528L59.91533333333333,83.71198094685873L61.17333333333333,80.34519271850586L62.416533333333334,56.667576429579L63.644933333333334,69.97820103963217L64.93253333333332,71.89130630493165L66.1708,80.2099855211046L67.44853333333333,94.85304345024957L68.95813333333334,92.84121678670247L70.50226666666667,67.06385633680556L72.0612,91.05702650282117L73.7484,107.94422891404894L75.43560000000001,100.86934878031413L77.108,103.57502051459419L78.96293333333332,104.170849609375L80.8524,107.02399232652452L82.78133333333334,106.84436238606771L84.72506666666666,108.2688287946913L86.654,107.83533359103733L88.56813333333334,107.8045854780409L90.50693333333334,108.06527862548829L92.45066666666668,108.05538385179308L94.39933333333333,109.8300188700358L96.34306666666667,109.2547073788113L98.29666666666667,109.52741911146376L100.23053333333334,110.63361180623373L102.16933333333334,109.67616136338975L104.10813333333334,110.4483196258545L106.042,111.40368398030598L107.9808,110.5501267751058L109.91466666666668,110.46460846794976L111.84853333333334,111.03292986551921L113.7676,111.11039428710937L115.70146666666668,110.6178397708469L117.63533333333332,110.517552863227L118.96239999999999,110.54066581726075L120.2648,110.75415980021158L121.58693333333333,110.22909927368164L122.88933333333334,110.12842381795248L124.21640000000001,111.20103916592069L125.54346666666666,110.71290579901802L126.87546666666665,110.74768274095324L128.20746666666665,109.61185099283854L129.51973333333333,110.62404899597168L130.8468,110.80389773050943L132.17386666666667,110.61148719787597L133.48613333333333,109.88681479560005L134.78853333333333,110.12828047010633L136.1008,109.41181284586588L137.39826666666667,109.76167589823405L138.71053333333333,110.01993967692057L140.00799999999998,110.51838654412164L141.32026666666667,109.66412768893771L142.63746666666665,108.99923888312446L144.39866666666666,109.5695369720459L146.1796,110.68334596421984L147.96546666666666,109.89587966071235L149.78093333333334,109.76070641411675L151.5964,109.67348302205404L153.39706666666666,109.72884169684517L155.21746666666667,109.98536643981934L157.03293333333332,109.20754216512044L158.84346666666664,109.03030009799534L160.35306666666665,108.90467457241482L161.98106666666666,108.8633979373508L163.62386666666666,108.78676719665528L165.27653333333333,108.98789931403266L166.9341333333333,108.92541474236383L168.59173333333334,109.75371254814996L170.22466666666665,109.0637944539388L171.86253333333335,109.47736053466797L173.51026666666664,108.61548160976834L175.16293333333334,108.98190133836535L176.81560000000002,108.6813348558214L178.45839999999998,109.28905050489638L180.1110666666667,109.27741669548882L181.744,109.051466539171L183.38680000000002,108.65701098971897L185.0444,109.13772799173991L186.71186666666668,109.19569710625542L188.36946666666665,109.65297673543294L190.03693333333334,109.2277466668023L191.68959999999998,108.50814425150553L193.362,108.0872410244412L195.02453333333335,107.3751530541314L196.69693333333333,107.723163901435L198.37426666666667,107.16924141777886L200.04666666666665,107.4894465552436L201.69933333333333,108.2223690032959L203.4704,108.82085757785374L205.33026666666666,108.30161395602755L207.23453333333336,108.21206304762099L209.12893333333335,108.47585703531901L210.974,108.25660650465224L212.8388,108.29982210795085L214.70360000000002,107.92065573798286L216.60293333333334,107.59909256829155L218.5121333333333,107.13792368570964L220.42626666666666,107.77159661187066L222.33546666666666,107.18590749104818L224.22,107.72838100857206L226.13906666666668,107.73072738647461L228.0532,108.02180273267957L229.98706666666666,108.23179978264703L231.916,108.51438365512423L233.81533333333334,108.09234873453777L235.7492,107.5811439090305L237.6732,108.569689517551L239.60213333333334,107.87626317342122L241.5212,107.48329391479491L243.43040000000002,107.66774864196778L245.36919999999998,107.38153580559624L246.71106666666668,107.7114885965983L247.97893333333334,108.04051339891222L249.27146666666664,108.34477297465007L250.5492,107.77320361667209L251.83186666666666,107.80744111802844L253.1096,107.23580008612738L254.40213333333335,108.25742509629991L255.6848,107.62321272956001L256.9477333333333,107.55731421576606L258.2353333333333,106.94165785047743L259.51800000000003,106.49053463406034L260.78586666666666,106.87560844421387L262.07346666666666,107.23647532992892L263.36106666666666,107.3686533610026L264.6388,107.70326118469238L265.91653333333335,106.36462618509928L267.1893333333333,107.54451853434244L268.47693333333336,108.0909152560764L269.77933333333334,107.7162907494439L271.062,107.58163808186849L272.32,108.04582481384277L273.5928,107.56566234164768" style="fill: none;" fill="none"></path></g></g></g></g></g></g><g transform="translate(34, 178)" clip-path="url(#clip_1)"><clipPath id="clip_1"><rect width="296" height="22"></rect></clipPath><g><g><line x1="0" y1="0" x2="0" y2="5" style="visibility: inherit;" fill="rgb(0, 0, 0)" stroke="rgb(204, 204, 204)" stroke-width="1px"></line><line x1="24.666666666666664" y1="0" x2="24.666666666666664" y2="5" style="visibility: inherit;" fill="rgb(0, 0, 0)" stroke="rgb(204, 204, 204)" stroke-width="1px"></line><line x1="49.33333333333333" y1="0" x2="49.33333333333333" y2="5" style="visibility: inherit;" fill="rgb(0, 0, 0)" stroke="rgb(204, 204, 204)" stroke-width="1px"></line><line x1="74" y1="0" x2="74" y2="5" style="visibility: inherit;" fill="rgb(0, 0, 0)" stroke="rgb(204, 204, 204)" stroke-width="1px"></line><line x1="98.66666666666666" y1="0" x2="98.66666666666666" y2="5" style="visibility: inherit;" fill="rgb(0, 0, 0)" stroke="rgb(204, 204, 204)" stroke-width="1px"></line><line x1="123.33333333333334" y1="0" x2="123.33333333333334" y2="5" style="visibility: inherit;" fill="rgb(0, 0, 0)" stroke="rgb(204, 204, 204)" stroke-width="1px"></line><line x1="148" y1="0" x2="148" y2="5" style="visibility: inherit;" fill="rgb(0, 0, 0)" stroke="rgb(204, 204, 204)" stroke-width="1px"></line><line x1="172.66666666666669" y1="0" x2="172.66666666666669" y2="5" style="visibility: inherit;" fill="rgb(0, 0, 0)" stroke="rgb(204, 204, 204)" stroke-width="1px"></line><line x1="197.33333333333331" y1="0" x2="197.33333333333331" y2="5" style="visibility: inherit;" fill="rgb(0, 0, 0)" stroke="rgb(204, 204, 204)" stroke-width="1px"></line><line x1="222" y1="0" x2="222" y2="5" style="visibility: inherit;" fill="rgb(0, 0, 0)" stroke="rgb(204, 204, 204)" stroke-width="1px"></line><line x1="246.66666666666669" y1="0" x2="246.66666666666669" y2="5" style="visibility: inherit;" fill="rgb(0, 0, 0)" stroke="rgb(204, 204, 204)" stroke-width="1px"></line><line x1="271.3333333333333" y1="0" x2="271.3333333333333" y2="5" style="visibility: inherit;" fill="rgb(0, 0, 0)" stroke="rgb(204, 204, 204)" stroke-width="1px"></line><line x1="296" y1="0" x2="296" y2="5" style="visibility: inherit;" fill="rgb(0, 0, 0)" stroke="rgb(204, 204, 204)" stroke-width="1px"></line></g><g transform="translate(0, 8)"><text x="0" y="0" dx="0em" dy="0.95em" style="text-anchor: middle; visibility: hidden; font-family: &quot;Helvetica Neue&quot;, sans-serif; font-size: 12px; font-weight: 200;" fill="rgb(50, 49, 63)" stroke="none" stroke-width="1px">-5k</text><text x="24.666666666666664" y="0" dx="0em" dy="0.95em" style="text-anchor: middle; visibility: inherit; font-family: &quot;Helvetica Neue&quot;, sans-serif; font-size: 12px; font-weight: 200;" fill="rgb(50, 49, 63)" stroke="none" stroke-width="1px">0</text><text x="49.33333333333333" y="0" dx="0em" dy="0.95em" style="text-anchor: middle; visibility: hidden; font-family: &quot;Helvetica Neue&quot;, sans-serif; font-size: 12px; font-weight: 200;" fill="rgb(50, 49, 63)" stroke="none" stroke-width="1px">5k</text><text x="74" y="0" dx="0em" dy="0.95em" style="text-anchor: middle; visibility: inherit; font-family: &quot;Helvetica Neue&quot;, sans-serif; font-size: 12px; font-weight: 200;" fill="rgb(50, 49, 63)" stroke="none" stroke-width="1px">10k</text><text x="98.66666666666666" y="0" dx="0em" dy="0.95em" style="text-anchor: middle; visibility: hidden; font-family: &quot;Helvetica Neue&quot;, sans-serif; font-size: 12px; font-weight: 200;" fill="rgb(50, 49, 63)" stroke="none" stroke-width="1px">15k</text><text x="123.33333333333334" y="0" dx="0em" dy="0.95em" style="text-anchor: middle; visibility: inherit; font-family: &quot;Helvetica Neue&quot;, sans-serif; font-size: 12px; font-weight: 200;" fill="rgb(50, 49, 63)" stroke="none" stroke-width="1px">20k</text><text x="148" y="0" dx="0em" dy="0.95em" style="text-anchor: middle; visibility: hidden; font-family: &quot;Helvetica Neue&quot;, sans-serif; font-size: 12px; font-weight: 200;" fill="rgb(50, 49, 63)" stroke="none" stroke-width="1px">25k</text><text x="172.66666666666669" y="0" dx="0em" dy="0.95em" style="text-anchor: middle; visibility: inherit; font-family: &quot;Helvetica Neue&quot;, sans-serif; font-size: 12px; font-weight: 200;" fill="rgb(50, 49, 63)" stroke="none" stroke-width="1px">30k</text><text x="197.33333333333331" y="0" dx="0em" dy="0.95em" style="text-anchor: middle; visibility: hidden; font-family: &quot;Helvetica Neue&quot;, sans-serif; font-size: 12px; font-weight: 200;" fill="rgb(50, 49, 63)" stroke="none" stroke-width="1px">35k</text><text x="222" y="0" dx="0em" dy="0.95em" style="text-anchor: middle; visibility: inherit; font-family: &quot;Helvetica Neue&quot;, sans-serif; font-size: 12px; font-weight: 200;" fill="rgb(50, 49, 63)" stroke="none" stroke-width="1px">40k</text><text x="246.66666666666669" y="0" dx="0em" dy="0.95em" style="text-anchor: middle; visibility: hidden; font-family: &quot;Helvetica Neue&quot;, sans-serif; font-size: 12px; font-weight: 200;" fill="rgb(50, 49, 63)" stroke="none" stroke-width="1px">45k</text><text x="271.3333333333333" y="0" dx="0em" dy="0.95em" style="text-anchor: middle; visibility: inherit; font-family: &quot;Helvetica Neue&quot;, sans-serif; font-size: 12px; font-weight: 200;" fill="rgb(50, 49, 63)" stroke="none" stroke-width="1px">50k</text><text x="296" y="0" dx="0em" dy="0.95em" style="text-anchor: middle; visibility: hidden; font-family: &quot;Helvetica Neue&quot;, sans-serif; font-size: 12px; font-weight: 200;" fill="rgb(50, 49, 63)" stroke="none" stroke-width="1px">55k</text></g><line x1="0" y1="0" x2="296" y2="0" fill="rgb(0, 0, 0)" stroke="rgb(204, 204, 204)" stroke-width="1px"></line></g></g></g></g></svg>