<svg viewBox="0 0 330 200" xmlns="http://www.w3.org/2000/svg"><g><g><g><g><g><line x1="70" y1="178" x2="65" y2="178" style="visibility: inherit;" fill="rgb(0, 0, 0)" stroke="rgb(204, 204, 204)" stroke-width="1px"></line><line x1="70" y1="160.2" x2="65" y2="160.2" style="visibility: inherit;" fill="rgb(0, 0, 0)" stroke="rgb(204, 204, 204)" stroke-width="1px"></line><line x1="70" y1="142.4" x2="65" y2="142.4" style="visibility: inherit;" fill="rgb(0, 0, 0)" stroke="rgb(204, 204, 204)" stroke-width="1px"></line><line x1="70" y1="124.6" x2="65" y2="124.6" style="visibility: inherit;" fill="rgb(0, 0, 0)" stroke="rgb(204, 204, 204)" stroke-width="1px"></line><line x1="70" y1="106.8" x2="65" y2="106.8" style="visibility: inherit;" fill="rgb(0, 0, 0)" stroke="rgb(204, 204, 204)" stroke-width="1px"></line><line x1="70" y1="89" x2="65" y2="89" style="visibility: inherit;" fill="rgb(0, 0, 0)" stroke="rgb(204, 204, 204)" stroke-width="1px"></line><line x1="70" y1="71.2" x2="65" y2="71.2" style="visibility: inherit;" fill="rgb(0, 0, 0)" stroke="rgb(204, 204, 204)" stroke-width="1px"></line><line x1="70" y1="53.400000000000006" x2="65" y2="53.400000000000006" style="visibility: inherit;" fill="rgb(0, 0, 0)" stroke="rgb(204, 204, 204)" stroke-width="1px"></line><line x1="70" y1="35.60000000000002" x2="65" y2="35.60000000000002" style="visibility: inherit;" fill="rgb(0, 0, 0)" stroke="rgb(204, 204, 204)" stroke-width="1px"></line><line x1="70" y1="17.799999999999983" x2="65" y2="17.799999999999983" style="visibility: inherit;" fill="rgb(0, 0, 0)" stroke="rgb(204, 204, 204)" stroke-width="1px"></line><line x1="70" y1="0" x2="65" y2="0" style="visibility: inherit;" fill="rgb(0, 0, 0)" stroke="rgb(204, 204, 204)" stroke-width="1px"></line></g><g transform="translate(60, 0)"><text x="0" y="178" dx="0em" dy="0.3em" style="text-anchor: end; visibility: hidden; font-family: &quot;Helvetica Neue&quot;, sans-serif; font-size: 12px; font-weight: 200;" fill="rgb(50, 49, 63)" stroke="none" stroke-width="1px">-0.05</text><text x="0" y="160.2" dx="0em" dy="0.3em" style="text-anchor: end; visibility: inherit; font-family: &quot;Helvetica Neue&quot;, sans-serif; font-size: 12px; font-weight: 200;" fill="rgb(50, 49, 63)" stroke="none" stroke-width="1px">0</text><text x="0" y="142.4" dx="0em" dy="0.3em" style="text-anchor: end; visibility: hidden; font-family: &quot;Helvetica Neue&quot;, sans-serif; font-size: 12px; font-weight: 200;" fill="rgb(50, 49, 63)" stroke="none" stroke-width="1px">0.05</text><text x="0" y="124.6" dx="0em" dy="0.3em" style="text-anchor: end; visibility: inherit; font-family: &quot;Helvetica Neue&quot;, sans-serif; font-size: 12px; font-weight: 200;" fill="rgb(50, 49, 63)" stroke="none" stroke-width="1px">0.1</text><text x="0" y="106.8" dx="0em" dy="0.3em" style="text-anchor: end; visibility: hidden; font-family: &quot;Helvetica Neue&quot;, sans-serif; font-size: 12px; font-weight: 200;" fill="rgb(50, 49, 63)" stroke="none" stroke-width="1px">0.15</text><text x="0" y="89" dx="0em" dy="0.3em" style="text-anchor: end; visibility: inherit; font-family: &quot;Helvetica Neue&quot;, sans-serif; font-size: 12px; font-weight: 200;" fill="rgb(50, 49, 63)" stroke="none" stroke-width="1px">0.2</text><text x="0" y="71.2" dx="0em" dy="0.3em" style="text-anchor: end; visibility: hidden; font-family: &quot;Helvetica Neue&quot;, sans-serif; font-size: 12px; font-weight: 200;" fill="rgb(50, 49, 63)" stroke="none" stroke-width="1px">0.25</text><text x="0" y="53.400000000000006" dx="0em" dy="0.3em" style="text-anchor: end; visibility: inherit; font-family: &quot;Helvetica Neue&quot;, sans-serif; font-size: 12px; font-weight: 200;" fill="rgb(50, 49, 63)" stroke="none" stroke-width="1px">0.3</text><text x="0" y="35.60000000000002" dx="0em" dy="0.3em" style="text-anchor: end; visibility: hidden; font-family: &quot;Helvetica Neue&quot;, sans-serif; font-size: 12px; font-weight: 200;" fill="rgb(50, 49, 63)" stroke="none" stroke-width="1px">0.35</text><text x="0" y="17.799999999999983" dx="0em" dy="0.3em" style="text-anchor: end; visibility: inherit; font-family: &quot;Helvetica Neue&quot;, sans-serif; font-size: 12px; font-weight: 200;" fill="rgb(50, 49, 63)" stroke="none" stroke-width="1px">0.4</text><text x="0" y="0" dx="0em" dy="0.3em" style="text-anchor: end; visibility: hidden; font-family: &quot;Helvetica Neue&quot;, sans-serif; font-size: 12px; font-weight: 200;" fill="rgb(50, 49, 63)" stroke="none" stroke-width="1px">0.45</text></g><line x1="70" y1="0" x2="70" y2="178" fill="rgb(0, 0, 0)" stroke="rgb(204, 204, 204)" stroke-width="1px"></line></g></g><g transform="translate(70, 0)" clip-path="url(#clip_0)"><clipPath id="clip_0"><rect width="260" height="178"></rect></clipPath><g><g><g><line x1="0" y1="0" x2="0" y2="178" fill="rgb(0, 0, 0)" stroke="rgb(60, 60, 60)" stroke-width="1px" opacity="0.25"></line><line x1="21.666666666666664" y1="0" x2="21.666666666666664" y2="178" fill="rgb(0, 0, 0)" stroke="rgb(60, 60, 60)" stroke-width="1px" opacity="0.25"></line><line x1="43.33333333333333" y1="0" x2="43.33333333333333" y2="178" fill="rgb(0, 0, 0)" stroke="rgb(60, 60, 60)" stroke-width="1px" opacity="0.25"></line><line x1="65" y1="0" x2="65" y2="178" fill="rgb(0, 0, 0)" stroke="rgb(60, 60, 60)" stroke-width="1px" opacity="0.25"></line><line x1="86.66666666666666" y1="0" x2="86.66666666666666" y2="178" fill="rgb(0, 0, 0)" stroke="rgb(60, 60, 60)" stroke-width="1px" opacity="0.25"></line><line x1="108.33333333333334" y1="0" x2="108.33333333333334" y2="178" fill="rgb(0, 0, 0)" stroke="rgb(60, 60, 60)" stroke-width="1px" opacity="0.25"></line><line x1="130" y1="0" x2="130" y2="178" fill="rgb(0, 0, 0)" stroke="rgb(60, 60, 60)" stroke-width="1px" opacity="0.25"></line><line x1="151.66666666666669" y1="0" x2="151.66666666666669" y2="178" fill="rgb(0, 0, 0)" stroke="rgb(60, 60, 60)" stroke-width="1px" opacity="0.25"></line><line x1="173.33333333333331" y1="0" x2="173.33333333333331" y2="178" fill="rgb(0, 0, 0)" stroke="rgb(60, 60, 60)" stroke-width="1px" opacity="0.25"></line><line x1="195" y1="0" x2="195" y2="178" fill="rgb(0, 0, 0)" stroke="rgb(60, 60, 60)" stroke-width="1px" opacity="0.25"></line><line x1="216.66666666666669" y1="0" x2="216.66666666666669" y2="178" fill="rgb(0, 0, 0)" stroke="rgb(60, 60, 60)" stroke-width="1px" opacity="0.25"></line><line x1="238.33333333333331" y1="0" x2="238.33333333333331" y2="178" fill="rgb(0, 0, 0)" stroke="rgb(60, 60, 60)" stroke-width="1px" opacity="0.25"></line><line x1="260" y1="0" x2="260" y2="178" fill="rgb(0, 0, 0)" stroke="rgb(60, 60, 60)" stroke-width="1px" opacity="0.25"></line></g><g><line x1="0" y1="178" x2="260" y2="178" fill="rgb(0, 0, 0)" stroke="rgb(60, 60, 60)" stroke-width="1px" opacity="0.25"></line><line x1="0" y1="160.2" x2="260" y2="160.2" fill="rgb(0, 0, 0)" stroke="rgb(60, 60, 60)" stroke-width="1px" opacity="0.25"></line><line x1="0" y1="142.4" x2="260" y2="142.4" fill="rgb(0, 0, 0)" stroke="rgb(60, 60, 60)" stroke-width="1px" opacity="0.25"></line><line x1="0" y1="124.6" x2="260" y2="124.6" fill="rgb(0, 0, 0)" stroke="rgb(60, 60, 60)" stroke-width="1px" opacity="0.25"></line><line x1="0" y1="106.8" x2="260" y2="106.8" fill="rgb(0, 0, 0)" stroke="rgb(60, 60, 60)" stroke-width="1px" opacity="0.25"></line><line x1="0" y1="89" x2="260" y2="89" fill="rgb(0, 0, 0)" stroke="rgb(60, 60, 60)" stroke-width="1px" opacity="0.25"></line><line x1="0" y1="71.2" x2="260" y2="71.2" fill="rgb(0, 0, 0)" stroke="rgb(60, 60, 60)" stroke-width="1px" opacity="0.25"></line><line x1="0" y1="53.400000000000006" x2="260" y2="53.400000000000006" fill="rgb(0, 0, 0)" stroke="rgb(60, 60, 60)" stroke-width="1px" opacity="0.25"></line><line x1="0" y1="35.60000000000002" x2="260" y2="35.60000000000002" fill="rgb(0, 0, 0)" stroke="rgb(60, 60, 60)" stroke-width="1px" opacity="0.25"></line><line x1="0" y1="17.799999999999983" x2="260" y2="17.799999999999983" fill="rgb(0, 0, 0)" stroke="rgb(60, 60, 60)" stroke-width="1px" opacity="0.25"></line><line x1="0" y1="0" x2="260" y2="0" fill="rgb(0, 0, 0)" stroke="rgb(60, 60, 60)" stroke-width="1px" opacity="0.25"></line></g></g></g><g><g><line x1="0" y1="160.2" x2="260" y2="160.2" fill="rgb(0, 0, 0)" stroke="rgb(153, 153, 153)" stroke-width="1.5px"></line></g></g><g><g><line x1="21.666666666666664" y1="0" x2="21.666666666666664" y2="178" fill="rgb(0, 0, 0)" stroke="rgb(153, 153, 153)" stroke-width="1.5px"></line></g></g><g><g><g><g><g><path stroke="rgb(0, 119, 187)" stroke-width="2px" d="M22.732666666666667,160.2L23.828999999999997,160.2L24.947,160.2L26.078,160.2L27.248,160.2L28.439666666666668,160.2L29.627,160.2L30.827333333333332,160.2L32.02333333333333,160.2L33.241,160.2L34.45,160.2L35.59833333333333,160.19696797316377L36.742333333333335,160.19785475144175L37.894999999999996,160.19848000335986L39.026,159.89148169820214L40.183,159.83813761687017L41.32266666666667,158.68899246758983L42.471,159.12403896557197L43.628,159.13069305326974L44.772,159.41434224827069L45.88133333333333,159.63658062039121L47.00366666666667,159.71856526315185L48.126,159.68154238555547L49.26133333333333,159.43930233045802L50.39233333333333,155.9320684289922L51.52333333333333,156.93541706613604L52.62833333333333,157.45543203714297L53.733333333333334,156.66803208890656L54.82533333333333,157.68756491586828L55.904333333333334,158.4136847825912L57.03533333333333,158.66364422553147L58.123,158.76798262661373L59.245333333333335,153.96333541409942L60.57133333333333,136.78844645772293L61.92766666666667,143.06940534878743L63.297,137.71617202288127L64.779,136.39415479395905L66.26100000000001,136.45889713358753L67.73,130.74077737029174L69.35933333333332,128.6604361863358L71.019,121.33240571996367L72.71333333333334,118.77647187128693L74.42066666666666,115.53721816433412L76.11500000000001,117.86421300124732L77.79633333333334,118.59380343805282L79.49933333333334,121.90451145800753L81.20666666666668,124.78615523915863L82.91833333333334,123.1770957652439L84.62566666666667,123.02161241309113L86.34166666666667,122.84823308023635L88.04033333333334,115.59531633343116L89.74333333333334,114.54425623232561L91.44633333333334,110.76638863627858L93.14500000000001,100.26793946729386L94.848,97.72855432552767L96.54666666666667,92.04728074354112L98.24533333333333,86.96217228645806L99.93100000000001,84.1900703057134L101.62966666666668,78.77508416578648L103.32833333333333,74.46201712486516L104.494,71.09097603836807L105.638,69.08810584238091L106.79933333333334,68.03711218349744L107.94333333333334,65.62322012667921L109.10900000000001,59.43088726415877L110.27466666666666,58.17949314407849L111.44466666666666,55.085246689109155L112.61466666666666,58.805605900459724L113.76733333333333,55.291124938935525L114.93299999999999,54.48388033655257L116.09866666666667,51.511135557687325L117.25133333333333,54.587652787313374L118.39533333333333,51.972378942093854L119.548,54.435656542301345L120.68766666666667,54.49024011875635L121.84033333333333,54.17419978295244L122.97999999999999,51.391379347674985L124.13266666666667,47.57184906487058L125.28966666666666,50.58085079619289L126.83666666666667,46.62794029132979L128.401,41.53405654856945L129.96966666666668,39.57734329161997L131.56433333333334,38.93926341794506L133.159,38.81433547789538L134.74066666666667,37.802195351927026L136.33966666666666,35.14083336221296L137.9343333333333,33.67385072186056L139.52466666666666,34.02589907632614L140.85066666666665,33.91213005564103L142.28066666666666,35.36791878330155L143.72366666666665,34.47813660736156L145.17533333333333,34.74307417564273L146.63133333333332,32.07826112463363L148.08733333333333,27.071643338989162L149.52166666666665,27.26703923091486L150.96033333333332,27.10757099691068L152.40766666666664,27.902800033599704L153.85933333333332,29.881653453803693L155.311,30.829598505000774L156.754,29.06105448170908L158.20566666666667,28.628257102041374L159.64,30.470842498903693L161.083,30.802388547565215L162.539,29.227957303491962L164.00366666666667,28.176403564365955L165.45966666666666,26.22749228312395L166.92433333333332,25.756887758988626L168.37599999999998,28.22843023804657L169.845,31.125856768127562L171.30533333333335,33.45052015230539L172.77433333333332,35.8286029453927L174.24766666666667,39.53162943401853L175.71666666666664,40.938066670277834L177.16833333333332,38.67590477455872L178.724,35.1891338280393L180.35766666666666,35.6918496877486L182.03033333333335,35.49335424700874L183.69433333333333,34.96689381336216L185.315,33.02791383312956L186.953,32.765064349576704L188.591,31.452337609877475L190.25933333333333,34.47349612453763L191.93633333333332,36.81599709956009L193.61766666666668,36.72965519527358L195.29466666666667,40.76683176323306L196.95,39.30141293796282L198.63566666666668,41.26374847675544L200.31699999999998,37.41705165985488L202.01566666666668,36.33773031930727L203.70999999999998,34.215034349097095L205.37833333333336,31.309363117653106L207.077,31.4446368955511L208.76700000000002,30.048563963245243L210.46133333333333,29.75155938641666L212.147,29.344380373031356L213.824,29.758230680996462L215.527,31.333817367725118L216.70566666666667,31.31748710761812L217.81933333333333,31.540739711976414L218.95466666666667,31.53491645077156L220.077,31.28260852847015L221.20366666666666,29.568663958566873L222.326,30.410992890984488L223.46133333333336,29.50777533179101L224.588,29.428011304144917L225.69733333333332,31.605386841175402L226.82833333333332,31.866553683110936L227.955,34.163349569099665L229.06866666666667,36.96302921753238L230.19966666666664,34.0658280993558L231.33066666666667,32.95508851270034L232.453,31.48265494916012L233.57533333333333,31.58539208193784L234.69333333333333,32.734766231095165L235.82433333333333,29.76630027772586L236.96833333333333,29.955986154620035L238.095,29.81808525022558L239.20000000000002,29.539945499411687L240.318,29.95935540938919" style="fill: none;" fill="none"></path></g></g></g></g><g opacity="0.2"><g><g><g><path stroke="rgb(0, 119, 187)" stroke-width="2px" d="M22.732666666666667,160.2L23.828999999999997,160.2L24.947,160.2L26.078,160.2L27.248,160.2L28.439666666666668,160.2L29.627,160.2L30.827333333333332,160.2L32.02333333333333,160.2L33.241,160.2L34.45,160.2L35.59833333333333,160.1896836513144L36.742333333333335,160.2L37.894999999999996,160.2L39.026,159.14257422443478L40.183,159.70768733257427L41.32266666666667,155.8739144064486L42.471,160.19109810416847L43.628,159.14702819548546L44.772,160.11110842325724L45.88133333333333,160.18273724231693L47.00366666666667,159.9201082028914L48.126,159.59050860516726L49.26133333333333,158.84357496611773L50.39233333333333,147.30594817996024L51.52333333333333,159.40337418466805L52.62833333333333,158.7345966927707L53.733333333333334,154.73105867281555L54.82533333333333,160.19564880355682L55.904333333333334,160.2L57.03533333333333,159.27857422251253L58.123,159.02467018812894L59.245333333333335,142.14312077760695L60.57133333333333,94.53520036935807L61.92766666666667,158.52172613590955L63.297,124.54619274735451L64.779,133.1417330622673L66.26100000000001,136.61817620396613L67.73,116.67304865717888L69.35933333333332,123.54237352013588L71.019,103.30395079851151L72.71333333333334,112.48834927082062L74.42066666666666,107.56798632144928L76.11500000000001,123.58910096883774L77.79633333333334,120.38874683976174L79.49933333333334,130.04953877329825L81.20666666666668,131.87559611797332L82.91833333333334,119.21847583055497L84.62566666666667,122.63909111618996L86.34166666666667,122.4216839492321L88.04033333333334,97.75163604021073L89.74333333333334,111.95843024253845L91.44633333333334,101.47205020189286L93.14500000000001,74.43957526683808L94.848,91.48113973140717L96.54666666666667,78.07016832828522L98.24533333333333,74.45174981355667L99.93100000000001,77.37012393474579L101.62966666666668,65.4530940771103L103.32833333333333,63.850976777076724L104.494,62.797515106201175L105.638,64.16062934398651L106.79933333333334,65.45144958496094L107.94333333333334,59.684544515609744L109.10900000000001,44.196462821960466L110.27466666666666,55.100803804397586L111.44466666666666,47.47275800704958L112.61466666666666,67.95846195220948L113.76733333333333,46.64477212429048L114.93299999999999,52.497891020774844L116.09866666666667,44.19756622314455L117.25133333333333,62.156523895263675L118.39533333333333,45.538262319564836L119.548,60.49583084583283L120.68766666666667,54.62452704906464L121.84033333333333,53.39667494297028L122.97999999999999,44.545063328743L124.13266666666667,38.17501158714296L125.28966666666666,57.98361976146698L126.83666666666667,36.9029597759247L128.401,29.002044987678545L129.96966666666668,34.76342244148256L131.56433333333334,37.36945445537569L133.159,38.50698680877687L134.74066666666667,35.31212050914766L136.33966666666666,28.593330335617082L137.9343333333333,30.06476886272432L139.52466666666666,34.8920111179352L140.85066666666665,33.63223464488985L142.28066666666666,38.94946129322054L143.72366666666665,32.289087724685686L145.17533333333333,35.39487559795381L146.63133333333332,25.52226777076723L148.08733333333333,14.754324150085466L149.52166666666665,27.747753691673296L150.96033333333332,26.715246033668535L152.40766666666664,29.859228563308733L153.85933333333332,34.750043702125566L155.311,33.16174013614656L156.754,24.710069012641924L158.20566666666667,27.563485693931597L159.64,35.003985118865984L161.083,31.61806066036226L162.539,25.35452957153322L164.00366666666667,25.589363050460832L165.45966666666666,21.43276591300966L166.92433333333332,24.59910292625429L168.37599999999998,34.308937859535234L169.845,38.254127573967L171.30533333333335,39.16967470645906L172.77433333333332,41.67918033599855L174.24766666666667,48.6418433904648L175.71666666666664,44.39819426536562L177.16833333333332,33.11051685810091L178.724,26.610953402519243L180.35766666666666,36.92863507270815L182.03033333333335,35.005014252662676L183.69433333333333,33.67169184684755L185.315,28.257620525360124L186.953,32.11840004920961L188.591,28.22275729179384L190.25933333333333,41.90617330074312L191.93633333333332,42.57903583049776L193.61766666666668,36.51723618507387L195.29466666666667,50.69912428855896L196.95,35.6961783885956L198.63566666666668,46.091501307487505L200.31699999999998,27.953378868103044L202.01566666666668,33.68237574100496L203.70999999999998,28.992761564254778L205.37833333333336,24.160808634758013L207.077,31.777438473701494L208.76700000000002,26.61393470764162L210.46133333333333,29.02086646556856L212.147,28.34263546466829L213.824,30.77638835906984L215.527,35.21008772850038L216.70566666666667,31.277311277389543L217.81933333333333,32.0899874687195L218.95466666666667,31.52059001922609L220.077,30.66187865734102L221.20366666666666,25.352004480361956L222.326,32.48329694271089L223.46133333333336,27.285672616958635L224.588,29.231775236129778L225.69733333333332,36.96218271255495L226.82833333333332,32.50907833576204L227.955,39.8139442920685L229.06866666666667,43.85082240104677L230.19966666666664,26.938111853599565L231.33066666666667,30.22243852615358L232.453,27.860162687301653L233.57533333333333,31.838146758079546L234.69333333333333,35.56246526241304L235.82433333333333,22.463257741928118L236.96833333333333,30.42265279293062L238.095,29.478820395469683L239.20000000000002,28.855663967132585L240.318,30.991190862655657" style="fill: none;" fill="none"></path></g></g></g></g></g></g><g transform="translate(70, 178)" clip-path="url(#clip_1)"><clipPath id="clip_1"><rect width="260" height="22"></rect></clipPath><g><g><line x1="0" y1="0" x2="0" y2="5" style="visibility: inherit;" fill="rgb(0, 0, 0)" stroke="rgb(204, 204, 204)" stroke-width="1px"></line><line x1="21.666666666666664" y1="0" x2="21.666666666666664" y2="5" style="visibility: inherit;" fill="rgb(0, 0, 0)" stroke="rgb(204, 204, 204)" stroke-width="1px"></line><line x1="43.33333333333333" y1="0" x2="43.33333333333333" y2="5" style="visibility: inherit;" fill="rgb(0, 0, 0)" stroke="rgb(204, 204, 204)" stroke-width="1px"></line><line x1="65" y1="0" x2="65" y2="5" style="visibility: inherit;" fill="rgb(0, 0, 0)" stroke="rgb(204, 204, 204)" stroke-width="1px"></line><line x1="86.66666666666666" y1="0" x2="86.66666666666666" y2="5" style="visibility: inherit;" fill="rgb(0, 0, 0)" stroke="rgb(204, 204, 204)" stroke-width="1px"></line><line x1="108.33333333333334" y1="0" x2="108.33333333333334" y2="5" style="visibility: inherit;" fill="rgb(0, 0, 0)" stroke="rgb(204, 204, 204)" stroke-width="1px"></line><line x1="130" y1="0" x2="130" y2="5" style="visibility: inherit;" fill="rgb(0, 0, 0)" stroke="rgb(204, 204, 204)" stroke-width="1px"></line><line x1="151.66666666666669" y1="0" x2="151.66666666666669" y2="5" style="visibility: inherit;" fill="rgb(0, 0, 0)" stroke="rgb(204, 204, 204)" stroke-width="1px"></line><line x1="173.33333333333331" y1="0" x2="173.33333333333331" y2="5" style="visibility: inherit;" fill="rgb(0, 0, 0)" stroke="rgb(204, 204, 204)" stroke-width="1px"></line><line x1="195" y1="0" x2="195" y2="5" style="visibility: inherit;" fill="rgb(0, 0, 0)" stroke="rgb(204, 204, 204)" stroke-width="1px"></line><line x1="216.66666666666669" y1="0" x2="216.66666666666669" y2="5" style="visibility: inherit;" fill="rgb(0, 0, 0)" stroke="rgb(204, 204, 204)" stroke-width="1px"></line><line x1="238.33333333333331" y1="0" x2="238.33333333333331" y2="5" style="visibility: inherit;" fill="rgb(0, 0, 0)" stroke="rgb(204, 204, 204)" stroke-width="1px"></line><line x1="260" y1="0" x2="260" y2="5" style="visibility: inherit;" fill="rgb(0, 0, 0)" stroke="rgb(204, 204, 204)" stroke-width="1px"></line></g><g transform="translate(0, 8)"><text x="0" y="0" dx="0em" dy="0.95em" style="text-anchor: middle; visibility: hidden; font-family: &quot;Helvetica Neue&quot;, sans-serif; font-size: 12px; font-weight: 200;" fill="rgb(50, 49, 63)" stroke="none" stroke-width="1px">-5k</text><text x="21.666666666666664" y="0" dx="0em" dy="0.95em" style="text-anchor: middle; visibility: inherit; font-family: &quot;Helvetica Neue&quot;, sans-serif; font-size: 12px; font-weight: 200;" fill="rgb(50, 49, 63)" stroke="none" stroke-width="1px">0</text><text x="43.33333333333333" y="0" dx="0em" dy="0.95em" style="text-anchor: middle; visibility: hidden; font-family: &quot;Helvetica Neue&quot;, sans-serif; font-size: 12px; font-weight: 200;" fill="rgb(50, 49, 63)" stroke="none" stroke-width="1px">5k</text><text x="65" y="0" dx="0em" dy="0.95em" style="text-anchor: middle; visibility: inherit; font-family: &quot;Helvetica Neue&quot;, sans-serif; font-size: 12px; font-weight: 200;" fill="rgb(50, 49, 63)" stroke="none" stroke-width="1px">10k</text><text x="86.66666666666666" y="0" dx="0em" dy="0.95em" style="text-anchor: middle; visibility: hidden; font-family: &quot;Helvetica Neue&quot;, sans-serif; font-size: 12px; font-weight: 200;" fill="rgb(50, 49, 63)" stroke="none" stroke-width="1px">15k</text><text x="108.33333333333334" y="0" dx="0em" dy="0.95em" style="text-anchor: middle; visibility: inherit; font-family: &quot;Helvetica Neue&quot;, sans-serif; font-size: 12px; font-weight: 200;" fill="rgb(50, 49, 63)" stroke="none" stroke-width="1px">20k</text><text x="130" y="0" dx="0em" dy="0.95em" style="text-anchor: middle; visibility: hidden; font-family: &quot;Helvetica Neue&quot;, sans-serif; font-size: 12px; font-weight: 200;" fill="rgb(50, 49, 63)" stroke="none" stroke-width="1px">25k</text><text x="151.66666666666669" y="0" dx="0em" dy="0.95em" style="text-anchor: middle; visibility: inherit; font-family: &quot;Helvetica Neue&quot;, sans-serif; font-size: 12px; font-weight: 200;" fill="rgb(50, 49, 63)" stroke="none" stroke-width="1px">30k</text><text x="173.33333333333331" y="0" dx="0em" dy="0.95em" style="text-anchor: middle; visibility: hidden; font-family: &quot;Helvetica Neue&quot;, sans-serif; font-size: 12px; font-weight: 200;" fill="rgb(50, 49, 63)" stroke="none" stroke-width="1px">35k</text><text x="195" y="0" dx="0em" dy="0.95em" style="text-anchor: middle; visibility: inherit; font-family: &quot;Helvetica Neue&quot;, sans-serif; font-size: 12px; font-weight: 200;" fill="rgb(50, 49, 63)" stroke="none" stroke-width="1px">40k</text><text x="216.66666666666669" y="0" dx="0em" dy="0.95em" style="text-anchor: middle; visibility: hidden; font-family: &quot;Helvetica Neue&quot;, sans-serif; font-size: 12px; font-weight: 200;" fill="rgb(50, 49, 63)" stroke="none" stroke-width="1px">45k</text><text x="238.33333333333331" y="0" dx="0em" dy="0.95em" style="text-anchor: middle; visibility: inherit; font-family: &quot;Helvetica Neue&quot;, sans-serif; font-size: 12px; font-weight: 200;" fill="rgb(50, 49, 63)" stroke="none" stroke-width="1px">50k</text><text x="260" y="0" dx="0em" dy="0.95em" style="text-anchor: middle; visibility: hidden; font-family: &quot;Helvetica Neue&quot;, sans-serif; font-size: 12px; font-weight: 200;" fill="rgb(50, 49, 63)" stroke="none" stroke-width="1px">55k</text></g><line x1="0" y1="0" x2="260" y2="0" fill="rgb(0, 0, 0)" stroke="rgb(204, 204, 204)" stroke-width="1px"></line></g></g></g></g></svg>