<svg viewBox="0 0 330 200" xmlns="http://www.w3.org/2000/svg"><g><g><g><g><g><line x1="34" y1="178" x2="29" y2="178" style="visibility: inherit;" fill="rgb(0, 0, 0)" stroke="rgb(204, 204, 204)" stroke-width="1px"></line><line x1="34" y1="161.8181818181818" x2="29" y2="161.8181818181818" style="visibility: inherit;" fill="rgb(0, 0, 0)" stroke="rgb(204, 204, 204)" stroke-width="1px"></line><line x1="34" y1="145.63636363636363" x2="29" y2="145.63636363636363" style="visibility: inherit;" fill="rgb(0, 0, 0)" stroke="rgb(204, 204, 204)" stroke-width="1px"></line><line x1="34" y1="129.45454545454547" x2="29" y2="129.45454545454547" style="visibility: inherit;" fill="rgb(0, 0, 0)" stroke="rgb(204, 204, 204)" stroke-width="1px"></line><line x1="34" y1="113.27272727272727" x2="29" y2="113.27272727272727" style="visibility: inherit;" fill="rgb(0, 0, 0)" stroke="rgb(204, 204, 204)" stroke-width="1px"></line><line x1="34" y1="97.0909090909091" x2="29" y2="97.0909090909091" style="visibility: inherit;" fill="rgb(0, 0, 0)" stroke="rgb(204, 204, 204)" stroke-width="1px"></line><line x1="34" y1="80.90909090909092" x2="29" y2="80.90909090909092" style="visibility: inherit;" fill="rgb(0, 0, 0)" stroke="rgb(204, 204, 204)" stroke-width="1px"></line><line x1="34" y1="64.72727272727273" x2="29" y2="64.72727272727273" style="visibility: inherit;" fill="rgb(0, 0, 0)" stroke="rgb(204, 204, 204)" stroke-width="1px"></line><line x1="34" y1="48.54545454545453" x2="29" y2="48.54545454545453" style="visibility: inherit;" fill="rgb(0, 0, 0)" stroke="rgb(204, 204, 204)" stroke-width="1px"></line><line x1="34" y1="32.363636363636346" x2="29" y2="32.363636363636346" style="visibility: inherit;" fill="rgb(0, 0, 0)" stroke="rgb(204, 204, 204)" stroke-width="1px"></line><line x1="34" y1="16.181818181818187" x2="29" y2="16.181818181818187" style="visibility: inherit;" fill="rgb(0, 0, 0)" stroke="rgb(204, 204, 204)" stroke-width="1px"></line><line x1="34" y1="0" x2="29" y2="0" style="visibility: inherit;" fill="rgb(0, 0, 0)" stroke="rgb(204, 204, 204)" stroke-width="1px"></line></g><g transform="translate(24, 0)"><text x="0" y="178" dx="0em" dy="0.3em" style="text-anchor: end; visibility: hidden; font-family: &quot;Helvetica Neue&quot;, sans-serif; font-size: 12px; font-weight: 200;" fill="rgb(50, 49, 63)" stroke="none" stroke-width="1px">-2</text><text x="0" y="161.8181818181818" dx="0em" dy="0.3em" style="text-anchor: end; visibility: inherit; font-family: &quot;Helvetica Neue&quot;, sans-serif; font-size: 12px; font-weight: 200;" fill="rgb(50, 49, 63)" stroke="none" stroke-width="1px">0</text><text x="0" y="145.63636363636363" dx="0em" dy="0.3em" style="text-anchor: end; visibility: hidden; font-family: &quot;Helvetica Neue&quot;, sans-serif; font-size: 12px; font-weight: 200;" fill="rgb(50, 49, 63)" stroke="none" stroke-width="1px">2</text><text x="0" y="129.45454545454547" dx="0em" dy="0.3em" style="text-anchor: end; visibility: inherit; font-family: &quot;Helvetica Neue&quot;, sans-serif; font-size: 12px; font-weight: 200;" fill="rgb(50, 49, 63)" stroke="none" stroke-width="1px">4</text><text x="0" y="113.27272727272727" dx="0em" dy="0.3em" style="text-anchor: end; visibility: hidden; font-family: &quot;Helvetica Neue&quot;, sans-serif; font-size: 12px; font-weight: 200;" fill="rgb(50, 49, 63)" stroke="none" stroke-width="1px">6</text><text x="0" y="97.0909090909091" dx="0em" dy="0.3em" style="text-anchor: end; visibility: inherit; font-family: &quot;Helvetica Neue&quot;, sans-serif; font-size: 12px; font-weight: 200;" fill="rgb(50, 49, 63)" stroke="none" stroke-width="1px">8</text><text x="0" y="80.90909090909092" dx="0em" dy="0.3em" style="text-anchor: end; visibility: hidden; font-family: &quot;Helvetica Neue&quot;, sans-serif; font-size: 12px; font-weight: 200;" fill="rgb(50, 49, 63)" stroke="none" stroke-width="1px">10</text><text x="0" y="64.72727272727273" dx="0em" dy="0.3em" style="text-anchor: end; visibility: inherit; font-family: &quot;Helvetica Neue&quot;, sans-serif; font-size: 12px; font-weight: 200;" fill="rgb(50, 49, 63)" stroke="none" stroke-width="1px">12</text><text x="0" y="48.54545454545453" dx="0em" dy="0.3em" style="text-anchor: end; visibility: hidden; font-family: &quot;Helvetica Neue&quot;, sans-serif; font-size: 12px; font-weight: 200;" fill="rgb(50, 49, 63)" stroke="none" stroke-width="1px">14</text><text x="0" y="32.363636363636346" dx="0em" dy="0.3em" style="text-anchor: end; visibility: inherit; font-family: &quot;Helvetica Neue&quot;, sans-serif; font-size: 12px; font-weight: 200;" fill="rgb(50, 49, 63)" stroke="none" stroke-width="1px">16</text><text x="0" y="16.181818181818187" dx="0em" dy="0.3em" style="text-anchor: end; visibility: hidden; font-family: &quot;Helvetica Neue&quot;, sans-serif; font-size: 12px; font-weight: 200;" fill="rgb(50, 49, 63)" stroke="none" stroke-width="1px">18</text><text x="0" y="0" dx="0em" dy="0.3em" style="text-anchor: end; visibility: hidden; font-family: &quot;Helvetica Neue&quot;, sans-serif; font-size: 12px; font-weight: 200;" fill="rgb(50, 49, 63)" stroke="none" stroke-width="1px">20</text></g><line x1="34" y1="0" x2="34" y2="178" fill="rgb(0, 0, 0)" stroke="rgb(204, 204, 204)" stroke-width="1px"></line></g></g><g transform="translate(34, 0)" clip-path="url(#clip_0)"><clipPath id="clip_0"><rect width="296" height="178"></rect></clipPath><g><g><g><line x1="0" y1="0" x2="0" y2="178" fill="rgb(0, 0, 0)" stroke="rgb(60, 60, 60)" stroke-width="1px" opacity="0.25"></line><line x1="24.666666666666664" y1="0" x2="24.666666666666664" y2="178" fill="rgb(0, 0, 0)" stroke="rgb(60, 60, 60)" stroke-width="1px" opacity="0.25"></line><line x1="49.33333333333333" y1="0" x2="49.33333333333333" y2="178" fill="rgb(0, 0, 0)" stroke="rgb(60, 60, 60)" stroke-width="1px" opacity="0.25"></line><line x1="74" y1="0" x2="74" y2="178" fill="rgb(0, 0, 0)" stroke="rgb(60, 60, 60)" stroke-width="1px" opacity="0.25"></line><line x1="98.66666666666666" y1="0" x2="98.66666666666666" y2="178" fill="rgb(0, 0, 0)" stroke="rgb(60, 60, 60)" stroke-width="1px" opacity="0.25"></line><line x1="123.33333333333334" y1="0" x2="123.33333333333334" y2="178" fill="rgb(0, 0, 0)" stroke="rgb(60, 60, 60)" stroke-width="1px" opacity="0.25"></line><line x1="148" y1="0" x2="148" y2="178" fill="rgb(0, 0, 0)" stroke="rgb(60, 60, 60)" stroke-width="1px" opacity="0.25"></line><line x1="172.66666666666669" y1="0" x2="172.66666666666669" y2="178" fill="rgb(0, 0, 0)" stroke="rgb(60, 60, 60)" stroke-width="1px" opacity="0.25"></line><line x1="197.33333333333331" y1="0" x2="197.33333333333331" y2="178" fill="rgb(0, 0, 0)" stroke="rgb(60, 60, 60)" stroke-width="1px" opacity="0.25"></line><line x1="222" y1="0" x2="222" y2="178" fill="rgb(0, 0, 0)" stroke="rgb(60, 60, 60)" stroke-width="1px" opacity="0.25"></line><line x1="246.66666666666669" y1="0" x2="246.66666666666669" y2="178" fill="rgb(0, 0, 0)" stroke="rgb(60, 60, 60)" stroke-width="1px" opacity="0.25"></line><line x1="271.3333333333333" y1="0" x2="271.3333333333333" y2="178" fill="rgb(0, 0, 0)" stroke="rgb(60, 60, 60)" stroke-width="1px" opacity="0.25"></line><line x1="296" y1="0" x2="296" y2="178" fill="rgb(0, 0, 0)" stroke="rgb(60, 60, 60)" stroke-width="1px" opacity="0.25"></line></g><g><line x1="0" y1="178" x2="296" y2="178" fill="rgb(0, 0, 0)" stroke="rgb(60, 60, 60)" stroke-width="1px" opacity="0.25"></line><line x1="0" y1="161.8181818181818" x2="296" y2="161.8181818181818" fill="rgb(0, 0, 0)" stroke="rgb(60, 60, 60)" stroke-width="1px" opacity="0.25"></line><line x1="0" y1="145.63636363636363" x2="296" y2="145.63636363636363" fill="rgb(0, 0, 0)" stroke="rgb(60, 60, 60)" stroke-width="1px" opacity="0.25"></line><line x1="0" y1="129.45454545454547" x2="296" y2="129.45454545454547" fill="rgb(0, 0, 0)" stroke="rgb(60, 60, 60)" stroke-width="1px" opacity="0.25"></line><line x1="0" y1="113.27272727272727" x2="296" y2="113.27272727272727" fill="rgb(0, 0, 0)" stroke="rgb(60, 60, 60)" stroke-width="1px" opacity="0.25"></line><line x1="0" y1="97.0909090909091" x2="296" y2="97.0909090909091" fill="rgb(0, 0, 0)" stroke="rgb(60, 60, 60)" stroke-width="1px" opacity="0.25"></line><line x1="0" y1="80.90909090909092" x2="296" y2="80.90909090909092" fill="rgb(0, 0, 0)" stroke="rgb(60, 60, 60)" stroke-width="1px" opacity="0.25"></line><line x1="0" y1="64.72727272727273" x2="296" y2="64.72727272727273" fill="rgb(0, 0, 0)" stroke="rgb(60, 60, 60)" stroke-width="1px" opacity="0.25"></line><line x1="0" y1="48.54545454545453" x2="296" y2="48.54545454545453" fill="rgb(0, 0, 0)" stroke="rgb(60, 60, 60)" stroke-width="1px" opacity="0.25"></line><line x1="0" y1="32.363636363636346" x2="296" y2="32.363636363636346" fill="rgb(0, 0, 0)" stroke="rgb(60, 60, 60)" stroke-width="1px" opacity="0.25"></line><line x1="0" y1="16.181818181818187" x2="296" y2="16.181818181818187" fill="rgb(0, 0, 0)" stroke="rgb(60, 60, 60)" stroke-width="1px" opacity="0.25"></line><line x1="0" y1="0" x2="296" y2="0" fill="rgb(0, 0, 0)" stroke="rgb(60, 60, 60)" stroke-width="1px" opacity="0.25"></line></g></g></g><g><g><line x1="0" y1="161.8181818181818" x2="296" y2="161.8181818181818" fill="rgb(0, 0, 0)" stroke="rgb(153, 153, 153)" stroke-width="1.5px"></line></g></g><g><g><line x1="24.666666666666664" y1="0" x2="24.666666666666664" y2="178" fill="rgb(0, 0, 0)" stroke="rgb(153, 153, 153)" stroke-width="1.5px"></line></g></g><g><g><g><g><g><path stroke="rgb(0, 119, 187)" stroke-width="2px" d="M25.880266666666667,55.328694343566895L27.1284,2.2763394167329523L28.4012,22.355760610339132L29.6888,22.804559854372542L31.0208,-147.30247819914672L36.45733333333333,-13.379740107114145L37.843599999999995,9.565903370559226L39.22,30.687209255459038L40.52733333333333,50.56205515760416L41.82973333333334,67.57720185819632L43.141999999999996,76.17154951115907L44.4296,85.90711804376103L45.7468,92.10360235178976L47.04426666666667,96.09559497094371L48.3516,86.96446575208877L49.668800000000005,90.72081983738404L50.971199999999996,91.61187801342145L52.23413333333333,81.77261829092706L53.51186666666666,84.02053985517513L54.78959999999999,83.5164994450625L56.08213333333333,89.44452812517034L57.369733333333336,95.15461013909392L58.657333333333334,101.45629757343784L59.91533333333333,107.80404891015424L61.17333333333333,104.87815830011562L62.416533333333334,95.9102569770026L63.644933333333334,88.38466688941558L64.93253333333332,94.0420709282278L66.1708,95.20884967856958L67.44853333333333,106.36052115540302L68.95813333333334,115.57702077928303L70.50226666666667,111.59489989237917L72.0612,114.08115081685168L73.7484,118.63193070048715L75.43560000000001,119.77459485995212L77.108,121.38828714915357L78.96293333333332,122.03949210500754L80.8524,123.4117147604666L82.78133333333334,123.5744968233628L84.72506666666666,123.93808056202724L86.654,123.53097592831838L88.56813333333334,122.98708271147561L90.50693333333334,122.61966711331297L92.45066666666668,122.23635041465582L94.39933333333333,123.13905097734072L96.34306666666667,123.67101028825715L98.29666666666667,124.37854243316367L100.23053333333334,125.72516582739703L102.16933333333334,126.17056819005356L104.10813333333334,126.91606989554191L106.042,127.99388501235185L107.9808,128.1836015054989L109.91466666666668,128.53462009396844L111.84853333333334,129.01220676373828L113.7676,129.36876199407516L115.70146666666668,129.65701149108799L117.63533333333332,129.92555953557658L118.96239999999999,130.07550456978345L120.2648,129.99489608011987L121.58693333333333,129.92394618082082L122.88933333333334,130.00144199076993L124.21640000000001,130.56900869937297L125.54346666666666,130.70677251897203L126.87546666666665,131.16662853221519L128.20746666666665,130.9709102558868L129.51973333333333,131.20150212036657L130.8468,131.33606776138237L132.17386666666667,131.54599991333043L133.48613333333333,131.40965461216513L134.78853333333333,131.52450601045274L136.1008,131.16661365067796L137.39826666666667,131.1448570099521L138.71053333333333,131.19505785493376L140.00799999999998,131.49719463604197L141.32026666666667,131.6514456404594L142.63746666666665,131.2068599694318L144.39866666666666,131.2026856110078L146.1796,131.67730394180498L147.96546666666666,131.66523288099202L149.78093333333334,131.76783012102487L151.5964,131.73644628782273L153.39706666666666,131.7949770130909L155.21746666666667,131.83346764041562L157.03293333333332,131.6401697103919L158.84346666666664,131.5686237913332L160.35306666666665,131.64742627287492L161.98106666666666,131.53742720692193L163.62386666666666,131.43131226866092L165.27653333333333,131.562510171393L166.9341333333333,131.72486571643205L168.59173333333334,132.31053577629055L170.22466666666665,132.28013476559903L171.86253333333335,132.3565516222667L173.51026666666664,132.35884030423483L175.16293333333334,132.26719318154542L176.81560000000002,132.13437035736249L178.45839999999998,132.48644638174528L180.1110666666667,132.54133231323567L181.744,132.31995428147192L183.38680000000002,132.16341191691083L185.0444,132.4084987778017L186.71186666666668,132.6815345446304L188.36946666666665,133.06381338803368L190.03693333333334,133.10610991277375L191.68959999999998,132.63689790747898L193.362,132.19554531887488L195.02453333333335,131.69282499719216L196.69693333333333,131.3714402305988L198.37426666666667,131.14690887611226L200.04666666666665,131.2185848808415L201.69933333333333,131.4852708306021L203.4704,131.96198232407895L205.33026666666666,131.9956216531678L207.23453333333336,132.11452284888793L209.12893333333335,132.23117957818133L210.974,132.48132253958954L212.8388,132.70441598131922L214.70360000000002,132.78219859254136L216.60293333333334,132.6557917133943L218.5121333333333,132.5432735034739L220.42626666666666,132.77260623478406L222.33546666666666,132.61519950200173L224.22,133.0278931413632L226.13906666666668,132.8262302516777L228.0532,132.96474659038017L229.98706666666666,133.08397192065678L231.916,133.33015164800264L233.81533333333334,133.3925874212647L235.7492,133.10885093848117L237.6732,133.49438462373402L239.60213333333334,133.48969113227363L241.5212,133.61104509507263L243.43040000000002,133.61314712578329L245.36919999999998,133.38857429064242L246.71106666666668,133.53405892837554L247.97893333333334,133.48327957911397L249.27146666666664,133.65781827215534L250.5492,133.5812927557636L251.83186666666666,134.03445500207755L253.1096,133.94802047843234L254.40213333333335,134.00770871587213L255.6848,133.92738994216117L256.9477333333333,133.72473831788324L258.2353333333333,133.68102978139393L259.51800000000003,133.08068842391913L260.78586666666666,132.97315513901503L262.07346666666666,133.10730108721535L263.36106666666666,133.04080952652143L264.6388,133.4517894418525L265.91653333333335,133.50100066984479L267.1893333333333,133.47276684975492L268.47693333333336,134.04922502818596L269.77933333333334,134.18670501164578L271.062,134.22555470848116L272.32,134.3866778556682L273.5928,134.47884101899297" style="fill: none;" fill="none"></path></g></g></g></g><g opacity="0.2"><g><g><g><path stroke="rgb(0, 119, 187)" stroke-width="2px" d="M25.880266666666667,55.328694343566895L27.1284,-35.44388493624601L28.4012,46.78279816020617L29.6888,23.511843421242446L31.0208,-458.853163285689L32.37746666666666,-359.5176738392223L33.7292,49.42907827550715L35.095733333333335,102.63664973865856L36.45733333333333,93.6978269923817L37.843599999999995,63.39576070958918L39.22,80.93451543287797L40.52733333333333,98.31056863611396L41.82973333333334,108.73937264355746L43.141999999999996,97.06453548778187L44.4296,109.6565652327104L45.7468,107.25679497285323L47.04426666666667,105.87483900243585L48.3516,64.56811289353804L49.668800000000005,99.94230608506636L50.971199999999996,93.80070564963601L52.23413333333333,57.59237974340266L53.51186666666666,89.5466079711914L54.78959999999999,82.27713862332432L56.08213333333333,104.02299616553567L57.369733333333336,109.19868460568514L58.657333333333334,116.95668675682762L59.91533333333333,123.418636191975L61.17333333333333,97.68058057264848L62.416533333333334,73.84892827814275L63.644933333333334,69.87108984860508L64.93253333333332,107.95995859666304L66.1708,98.07929420471191L67.44853333333333,133.7954491701993L68.95813333333334,138.25123006647283L70.50226666666667,101.79814585772428L72.0612,120.19780427759343L73.7484,129.82774196971548L75.43560000000001,122.58577663248235L77.108,125.35829587416217L78.96293333333332,123.64158881794322L80.8524,126.78766337308016L82.78133333333334,123.97497415542603L84.72506666666666,124.83257150650024L86.654,122.52941443703392L88.56813333333334,121.64899288524282L90.50693333333334,121.71574865687978L92.45066666666668,121.29331189935857L94.39933333333333,125.3598815311085L96.34306666666667,124.97974053296176L98.29666666666667,126.11921830610797L100.23053333333334,129.03813882307574L102.16933333333334,127.26635044271296L104.10813333333334,128.7501588301225L106.042,130.6455339301716L107.9808,128.65034346147016L109.91466666666668,129.3981986912814L111.84853333333334,130.18716911836103L113.7676,130.24596188285133L115.70146666666668,130.36616509610957L117.63533333333332,130.58624347773466L118.96239999999999,130.4444004839117L120.2648,129.79658246040344L121.58693333333333,129.74939469857648L122.88933333333334,130.1920977722515L124.21640000000001,131.96534063599327L125.54346666666666,131.045700116591L126.87546666666665,132.2979697964408L128.20746666666665,130.489402662624L129.51973333333333,131.76880598068237L130.8468,131.6671271757646L132.17386666666667,132.06247659163043L133.48613333333333,131.0742168643258L134.78853333333333,131.80706429481506L136.1008,130.28612414273348L137.39826666666667,131.09133115681735L138.71053333333333,131.31856235590848L140.00799999999998,132.24051384492353L141.32026666666667,132.03093513575467L142.63746666666665,130.1130869171836L144.39866666666666,131.192415822636L146.1796,132.84496357224205L147.96546666666666,131.6355355652896L149.78093333333334,132.0202406319705L151.5964,131.65923554247075L153.39706666666666,131.93897474895823L155.21746666666667,131.92816257476807L157.03293333333332,131.1646166714755L158.84346666666664,131.39260597662494L160.35306666666665,131.8412967378443L161.98106666666666,131.26680666750127L163.62386666666666,131.1702474897558L165.27653333333333,131.8852842504328L166.9341333333333,132.1242940642617L168.59173333333334,133.75140571594238L170.22466666666665,132.2053419676694L171.86253333333335,132.54455295476046L173.51026666666664,132.3644709370353L175.16293333333334,132.0417222326452L176.81560000000002,131.80759863419965L178.45839999999998,133.3526264970953L180.1110666666667,132.6763630997051L181.744,131.7753183624961L183.38680000000002,131.77828519994563L185.0444,133.01146333867854L186.71186666666668,133.35325921665537L188.36946666666665,134.00429870865563L190.03693333333334,133.21016814491966L191.68959999999998,131.48253896019676L193.362,131.1097263206135L195.02453333333335,130.45602863485163L196.69693333333333,130.58076698129827L198.37426666666667,130.59451512856916L200.04666666666665,131.39492273330688L201.69933333333333,132.14137363433838L203.4704,133.1347915692763L205.33026666666666,132.0783813866702L207.23453333333336,132.4070444757288L209.12893333333335,132.51817935163325L210.974,133.0967261574485L212.8388,133.25327216495168L214.70360000000002,132.9735599647869L216.60293333333334,132.3448045470498L218.5121333333333,132.26645534688777L220.42626666666666,133.33681236613882L222.33546666666666,132.22794625975868L224.22,134.0432051745328L226.13906666666668,132.3300976753235L228.0532,133.30552554130554L229.98706666666666,133.377290985801L231.916,133.93580488725144L233.81533333333334,133.5461923859336L235.7492,132.4108002836054L237.6732,134.44287753105164L239.60213333333334,133.47814416885376L241.5212,133.90960103815252L243.43040000000002,133.61831855773926L245.36919999999998,132.83607849207792L246.71106666666668,133.89198134162208L247.97893333333334,133.35835183750498L249.27146666666664,134.08721969344398L250.5492,133.3930240977894L251.83186666666666,135.1493282101371L253.1096,133.73537360538137L254.40213333333335,134.1545541719957L255.6848,133.72978908365423L256.9477333333333,133.226173249158L258.2353333333333,133.57349770719355L259.51800000000003,131.60372404618695L260.78586666666666,132.70860093290156L262.07346666666666,133.43732797015798L263.36106666666666,132.87722648273814L264.6388,134.46288535811684L265.91653333333335,133.62207050756973L267.1893333333333,133.4033057906411L268.47693333333336,135.467431827025L269.77933333333334,134.52493431351402L271.062,134.32113302837718L272.32,134.7830742489208L273.5928,134.70558153499258" style="fill: none;" fill="none"></path></g></g></g></g></g></g><g transform="translate(34, 178)" clip-path="url(#clip_1)"><clipPath id="clip_1"><rect width="296" height="22"></rect></clipPath><g><g><line x1="0" y1="0" x2="0" y2="5" style="visibility: inherit;" fill="rgb(0, 0, 0)" stroke="rgb(204, 204, 204)" stroke-width="1px"></line><line x1="24.666666666666664" y1="0" x2="24.666666666666664" y2="5" style="visibility: inherit;" fill="rgb(0, 0, 0)" stroke="rgb(204, 204, 204)" stroke-width="1px"></line><line x1="49.33333333333333" y1="0" x2="49.33333333333333" y2="5" style="visibility: inherit;" fill="rgb(0, 0, 0)" stroke="rgb(204, 204, 204)" stroke-width="1px"></line><line x1="74" y1="0" x2="74" y2="5" style="visibility: inherit;" fill="rgb(0, 0, 0)" stroke="rgb(204, 204, 204)" stroke-width="1px"></line><line x1="98.66666666666666" y1="0" x2="98.66666666666666" y2="5" style="visibility: inherit;" fill="rgb(0, 0, 0)" stroke="rgb(204, 204, 204)" stroke-width="1px"></line><line x1="123.33333333333334" y1="0" x2="123.33333333333334" y2="5" style="visibility: inherit;" fill="rgb(0, 0, 0)" stroke="rgb(204, 204, 204)" stroke-width="1px"></line><line x1="148" y1="0" x2="148" y2="5" style="visibility: inherit;" fill="rgb(0, 0, 0)" stroke="rgb(204, 204, 204)" stroke-width="1px"></line><line x1="172.66666666666669" y1="0" x2="172.66666666666669" y2="5" style="visibility: inherit;" fill="rgb(0, 0, 0)" stroke="rgb(204, 204, 204)" stroke-width="1px"></line><line x1="197.33333333333331" y1="0" x2="197.33333333333331" y2="5" style="visibility: inherit;" fill="rgb(0, 0, 0)" stroke="rgb(204, 204, 204)" stroke-width="1px"></line><line x1="222" y1="0" x2="222" y2="5" style="visibility: inherit;" fill="rgb(0, 0, 0)" stroke="rgb(204, 204, 204)" stroke-width="1px"></line><line x1="246.66666666666669" y1="0" x2="246.66666666666669" y2="5" style="visibility: inherit;" fill="rgb(0, 0, 0)" stroke="rgb(204, 204, 204)" stroke-width="1px"></line><line x1="271.3333333333333" y1="0" x2="271.3333333333333" y2="5" style="visibility: inherit;" fill="rgb(0, 0, 0)" stroke="rgb(204, 204, 204)" stroke-width="1px"></line><line x1="296" y1="0" x2="296" y2="5" style="visibility: inherit;" fill="rgb(0, 0, 0)" stroke="rgb(204, 204, 204)" stroke-width="1px"></line></g><g transform="translate(0, 8)"><text x="0" y="0" dx="0em" dy="0.95em" style="text-anchor: middle; visibility: hidden; font-family: &quot;Helvetica Neue&quot;, sans-serif; font-size: 12px; font-weight: 200;" fill="rgb(50, 49, 63)" stroke="none" stroke-width="1px">-5k</text><text x="24.666666666666664" y="0" dx="0em" dy="0.95em" style="text-anchor: middle; visibility: inherit; font-family: &quot;Helvetica Neue&quot;, sans-serif; font-size: 12px; font-weight: 200;" fill="rgb(50, 49, 63)" stroke="none" stroke-width="1px">0</text><text x="49.33333333333333" y="0" dx="0em" dy="0.95em" style="text-anchor: middle; visibility: hidden; font-family: &quot;Helvetica Neue&quot;, sans-serif; font-size: 12px; font-weight: 200;" fill="rgb(50, 49, 63)" stroke="none" stroke-width="1px">5k</text><text x="74" y="0" dx="0em" dy="0.95em" style="text-anchor: middle; visibility: inherit; font-family: &quot;Helvetica Neue&quot;, sans-serif; font-size: 12px; font-weight: 200;" fill="rgb(50, 49, 63)" stroke="none" stroke-width="1px">10k</text><text x="98.66666666666666" y="0" dx="0em" dy="0.95em" style="text-anchor: middle; visibility: hidden; font-family: &quot;Helvetica Neue&quot;, sans-serif; font-size: 12px; font-weight: 200;" fill="rgb(50, 49, 63)" stroke="none" stroke-width="1px">15k</text><text x="123.33333333333334" y="0" dx="0em" dy="0.95em" style="text-anchor: middle; visibility: inherit; font-family: &quot;Helvetica Neue&quot;, sans-serif; font-size: 12px; font-weight: 200;" fill="rgb(50, 49, 63)" stroke="none" stroke-width="1px">20k</text><text x="148" y="0" dx="0em" dy="0.95em" style="text-anchor: middle; visibility: hidden; font-family: &quot;Helvetica Neue&quot;, sans-serif; font-size: 12px; font-weight: 200;" fill="rgb(50, 49, 63)" stroke="none" stroke-width="1px">25k</text><text x="172.66666666666669" y="0" dx="0em" dy="0.95em" style="text-anchor: middle; visibility: inherit; font-family: &quot;Helvetica Neue&quot;, sans-serif; font-size: 12px; font-weight: 200;" fill="rgb(50, 49, 63)" stroke="none" stroke-width="1px">30k</text><text x="197.33333333333331" y="0" dx="0em" dy="0.95em" style="text-anchor: middle; visibility: hidden; font-family: &quot;Helvetica Neue&quot;, sans-serif; font-size: 12px; font-weight: 200;" fill="rgb(50, 49, 63)" stroke="none" stroke-width="1px">35k</text><text x="222" y="0" dx="0em" dy="0.95em" style="text-anchor: middle; visibility: inherit; font-family: &quot;Helvetica Neue&quot;, sans-serif; font-size: 12px; font-weight: 200;" fill="rgb(50, 49, 63)" stroke="none" stroke-width="1px">40k</text><text x="246.66666666666669" y="0" dx="0em" dy="0.95em" style="text-anchor: middle; visibility: hidden; font-family: &quot;Helvetica Neue&quot;, sans-serif; font-size: 12px; font-weight: 200;" fill="rgb(50, 49, 63)" stroke="none" stroke-width="1px">45k</text><text x="271.3333333333333" y="0" dx="0em" dy="0.95em" style="text-anchor: middle; visibility: inherit; font-family: &quot;Helvetica Neue&quot;, sans-serif; font-size: 12px; font-weight: 200;" fill="rgb(50, 49, 63)" stroke="none" stroke-width="1px">50k</text><text x="296" y="0" dx="0em" dy="0.95em" style="text-anchor: middle; visibility: hidden; font-family: &quot;Helvetica Neue&quot;, sans-serif; font-size: 12px; font-weight: 200;" fill="rgb(50, 49, 63)" stroke="none" stroke-width="1px">55k</text></g><line x1="0" y1="0" x2="296" y2="0" fill="rgb(0, 0, 0)" stroke="rgb(204, 204, 204)" stroke-width="1px"></line></g></g></g></g></svg>