<svg viewBox="0 0 330 200" xmlns="http://www.w3.org/2000/svg"><g><g><g><g><g><line x1="70" y1="178" x2="65" y2="178" style="visibility: inherit;" fill="rgb(0, 0, 0)" stroke="rgb(204, 204, 204)" stroke-width="1px"></line><line x1="70" y1="158.22222222222223" x2="65" y2="158.22222222222223" style="visibility: inherit;" fill="rgb(0, 0, 0)" stroke="rgb(204, 204, 204)" stroke-width="1px"></line><line x1="70" y1="138.44444444444446" x2="65" y2="138.44444444444446" style="visibility: inherit;" fill="rgb(0, 0, 0)" stroke="rgb(204, 204, 204)" stroke-width="1px"></line><line x1="70" y1="118.66666666666667" x2="65" y2="118.66666666666667" style="visibility: inherit;" fill="rgb(0, 0, 0)" stroke="rgb(204, 204, 204)" stroke-width="1px"></line><line x1="70" y1="98.88888888888889" x2="65" y2="98.88888888888889" style="visibility: inherit;" fill="rgb(0, 0, 0)" stroke="rgb(204, 204, 204)" stroke-width="1px"></line><line x1="70" y1="79.1111111111111" x2="65" y2="79.1111111111111" style="visibility: inherit;" fill="rgb(0, 0, 0)" stroke="rgb(204, 204, 204)" stroke-width="1px"></line><line x1="70" y1="59.333333333333314" x2="65" y2="59.333333333333314" style="visibility: inherit;" fill="rgb(0, 0, 0)" stroke="rgb(204, 204, 204)" stroke-width="1px"></line><line x1="70" y1="39.55555555555557" x2="65" y2="39.55555555555557" style="visibility: inherit;" fill="rgb(0, 0, 0)" stroke="rgb(204, 204, 204)" stroke-width="1px"></line><line x1="70" y1="19.77777777777777" x2="65" y2="19.77777777777777" style="visibility: inherit;" fill="rgb(0, 0, 0)" stroke="rgb(204, 204, 204)" stroke-width="1px"></line><line x1="70" y1="0" x2="65" y2="0" style="visibility: inherit;" fill="rgb(0, 0, 0)" stroke="rgb(204, 204, 204)" stroke-width="1px"></line></g><g transform="translate(60, 0)"><text x="0" y="178" dx="0em" dy="0.3em" style="text-anchor: end; visibility: hidden; font-family: &quot;Helvetica Neue&quot;, sans-serif; font-size: 12px; font-weight: 200;" fill="rgb(50, 49, 63)" stroke="none" stroke-width="1px">-0.02</text><text x="0" y="158.22222222222223" dx="0em" dy="0.3em" style="text-anchor: end; visibility: inherit; font-family: &quot;Helvetica Neue&quot;, sans-serif; font-size: 12px; font-weight: 200;" fill="rgb(50, 49, 63)" stroke="none" stroke-width="1px">0</text><text x="0" y="138.44444444444446" dx="0em" dy="0.3em" style="text-anchor: end; visibility: hidden; font-family: &quot;Helvetica Neue&quot;, sans-serif; font-size: 12px; font-weight: 200;" fill="rgb(50, 49, 63)" stroke="none" stroke-width="1px">0.02</text><text x="0" y="118.66666666666667" dx="0em" dy="0.3em" style="text-anchor: end; visibility: inherit; font-family: &quot;Helvetica Neue&quot;, sans-serif; font-size: 12px; font-weight: 200;" fill="rgb(50, 49, 63)" stroke="none" stroke-width="1px">0.04</text><text x="0" y="98.88888888888889" dx="0em" dy="0.3em" style="text-anchor: end; visibility: hidden; font-family: &quot;Helvetica Neue&quot;, sans-serif; font-size: 12px; font-weight: 200;" fill="rgb(50, 49, 63)" stroke="none" stroke-width="1px">0.06</text><text x="0" y="79.1111111111111" dx="0em" dy="0.3em" style="text-anchor: end; visibility: inherit; font-family: &quot;Helvetica Neue&quot;, sans-serif; font-size: 12px; font-weight: 200;" fill="rgb(50, 49, 63)" stroke="none" stroke-width="1px">0.08</text><text x="0" y="59.333333333333314" dx="0em" dy="0.3em" style="text-anchor: end; visibility: hidden; font-family: &quot;Helvetica Neue&quot;, sans-serif; font-size: 12px; font-weight: 200;" fill="rgb(50, 49, 63)" stroke="none" stroke-width="1px">0.1</text><text x="0" y="39.55555555555557" dx="0em" dy="0.3em" style="text-anchor: end; visibility: inherit; font-family: &quot;Helvetica Neue&quot;, sans-serif; font-size: 12px; font-weight: 200;" fill="rgb(50, 49, 63)" stroke="none" stroke-width="1px">0.12</text><text x="0" y="19.77777777777777" dx="0em" dy="0.3em" style="text-anchor: end; visibility: hidden; font-family: &quot;Helvetica Neue&quot;, sans-serif; font-size: 12px; font-weight: 200;" fill="rgb(50, 49, 63)" stroke="none" stroke-width="1px">0.14</text><text x="0" y="0" dx="0em" dy="0.3em" style="text-anchor: end; visibility: hidden; font-family: &quot;Helvetica Neue&quot;, sans-serif; font-size: 12px; font-weight: 200;" fill="rgb(50, 49, 63)" stroke="none" stroke-width="1px">0.16</text></g><line x1="70" y1="0" x2="70" y2="178" fill="rgb(0, 0, 0)" stroke="rgb(204, 204, 204)" stroke-width="1px"></line></g></g><g transform="translate(70, 0)" clip-path="url(#clip_0)"><clipPath id="clip_0"><rect width="260" height="178"></rect></clipPath><g><g><g><line x1="0" y1="0" x2="0" y2="178" fill="rgb(0, 0, 0)" stroke="rgb(60, 60, 60)" stroke-width="1px" opacity="0.25"></line><line x1="21.666666666666664" y1="0" x2="21.666666666666664" y2="178" fill="rgb(0, 0, 0)" stroke="rgb(60, 60, 60)" stroke-width="1px" opacity="0.25"></line><line x1="43.33333333333333" y1="0" x2="43.33333333333333" y2="178" fill="rgb(0, 0, 0)" stroke="rgb(60, 60, 60)" stroke-width="1px" opacity="0.25"></line><line x1="65" y1="0" x2="65" y2="178" fill="rgb(0, 0, 0)" stroke="rgb(60, 60, 60)" stroke-width="1px" opacity="0.25"></line><line x1="86.66666666666666" y1="0" x2="86.66666666666666" y2="178" fill="rgb(0, 0, 0)" stroke="rgb(60, 60, 60)" stroke-width="1px" opacity="0.25"></line><line x1="108.33333333333334" y1="0" x2="108.33333333333334" y2="178" fill="rgb(0, 0, 0)" stroke="rgb(60, 60, 60)" stroke-width="1px" opacity="0.25"></line><line x1="130" y1="0" x2="130" y2="178" fill="rgb(0, 0, 0)" stroke="rgb(60, 60, 60)" stroke-width="1px" opacity="0.25"></line><line x1="151.66666666666669" y1="0" x2="151.66666666666669" y2="178" fill="rgb(0, 0, 0)" stroke="rgb(60, 60, 60)" stroke-width="1px" opacity="0.25"></line><line x1="173.33333333333331" y1="0" x2="173.33333333333331" y2="178" fill="rgb(0, 0, 0)" stroke="rgb(60, 60, 60)" stroke-width="1px" opacity="0.25"></line><line x1="195" y1="0" x2="195" y2="178" fill="rgb(0, 0, 0)" stroke="rgb(60, 60, 60)" stroke-width="1px" opacity="0.25"></line><line x1="216.66666666666669" y1="0" x2="216.66666666666669" y2="178" fill="rgb(0, 0, 0)" stroke="rgb(60, 60, 60)" stroke-width="1px" opacity="0.25"></line><line x1="238.33333333333331" y1="0" x2="238.33333333333331" y2="178" fill="rgb(0, 0, 0)" stroke="rgb(60, 60, 60)" stroke-width="1px" opacity="0.25"></line><line x1="260" y1="0" x2="260" y2="178" fill="rgb(0, 0, 0)" stroke="rgb(60, 60, 60)" stroke-width="1px" opacity="0.25"></line></g><g><line x1="0" y1="178" x2="260" y2="178" fill="rgb(0, 0, 0)" stroke="rgb(60, 60, 60)" stroke-width="1px" opacity="0.25"></line><line x1="0" y1="158.22222222222223" x2="260" y2="158.22222222222223" fill="rgb(0, 0, 0)" stroke="rgb(60, 60, 60)" stroke-width="1px" opacity="0.25"></line><line x1="0" y1="138.44444444444446" x2="260" y2="138.44444444444446" fill="rgb(0, 0, 0)" stroke="rgb(60, 60, 60)" stroke-width="1px" opacity="0.25"></line><line x1="0" y1="118.66666666666667" x2="260" y2="118.66666666666667" fill="rgb(0, 0, 0)" stroke="rgb(60, 60, 60)" stroke-width="1px" opacity="0.25"></line><line x1="0" y1="98.88888888888889" x2="260" y2="98.88888888888889" fill="rgb(0, 0, 0)" stroke="rgb(60, 60, 60)" stroke-width="1px" opacity="0.25"></line><line x1="0" y1="79.1111111111111" x2="260" y2="79.1111111111111" fill="rgb(0, 0, 0)" stroke="rgb(60, 60, 60)" stroke-width="1px" opacity="0.25"></line><line x1="0" y1="59.333333333333314" x2="260" y2="59.333333333333314" fill="rgb(0, 0, 0)" stroke="rgb(60, 60, 60)" stroke-width="1px" opacity="0.25"></line><line x1="0" y1="39.55555555555557" x2="260" y2="39.55555555555557" fill="rgb(0, 0, 0)" stroke="rgb(60, 60, 60)" stroke-width="1px" opacity="0.25"></line><line x1="0" y1="19.77777777777777" x2="260" y2="19.77777777777777" fill="rgb(0, 0, 0)" stroke="rgb(60, 60, 60)" stroke-width="1px" opacity="0.25"></line><line x1="0" y1="0" x2="260" y2="0" fill="rgb(0, 0, 0)" stroke="rgb(60, 60, 60)" stroke-width="1px" opacity="0.25"></line></g></g></g><g><g><line x1="0" y1="158.22222222222223" x2="260" y2="158.22222222222223" fill="rgb(0, 0, 0)" stroke="rgb(153, 153, 153)" stroke-width="1.5px"></line></g></g><g><g><line x1="21.666666666666664" y1="0" x2="21.666666666666664" y2="178" fill="rgb(0, 0, 0)" stroke="rgb(153, 153, 153)" stroke-width="1.5px"></line></g></g><g><g><g><g><g><path stroke="rgb(0, 119, 187)" stroke-width="2px" d="M22.732666666666667,158.22222222222223L23.828999999999997,158.22222222222223L24.947,158.22222222222223L26.078,158.22222222222223L27.248,158.22222222222223L28.439666666666668,158.22222222222223L29.627,158.22222222222223L30.827333333333332,158.22222222222223L32.02333333333333,158.22222222222223L33.241,158.22222222222223L34.45,158.22222222222223L35.59833333333333,158.22194378797184L36.742333333333335,158.22202522176462L37.894999999999996,158.2220826393135L39.026,158.06397495869948L40.183,157.9893937847425L41.32266666666667,157.726777976662L42.471,157.37741310548776L43.628,157.35895510481149L44.772,157.48158055362092L45.88133333333333,157.68668267808522L47.00366666666667,157.78047382320892L48.126,157.6999039328127L49.26133333333333,157.77335132850698L50.39233333333333,156.94304047247914L51.52333333333333,157.01552650158658L52.62833333333333,155.13796135804253L53.733333333333334,155.17930938431883L54.82533333333333,156.0565845403799L55.904333333333334,156.68247635141265L57.03533333333333,157.06493327755527L58.123,157.2866926837346L59.245333333333335,156.80701952173365L60.57133333333333,155.47177756432362L61.92766666666667,155.70243095849148L63.297,154.2644150151986L64.779,152.89253861839782L66.26100000000001,144.1120551560933L67.73,135.45861378780722L69.35933333333332,131.0732490432168L71.019,126.33434108783086L72.71333333333334,123.8489805798107L74.42066666666666,121.12089487238482L76.11500000000001,119.44024019569379L77.79633333333334,116.80945586537408L79.49933333333334,114.64432430845692L81.20666666666668,114.38210124007334L82.91833333333334,110.31440502528572L84.62566666666667,107.46754301213267L86.34166666666667,104.64890397972526L88.04033333333334,97.38879785874963L89.74333333333334,92.29470178795322L91.44633333333334,88.05405035556012L93.14500000000001,81.4564263603331L94.848,78.15652759585066L96.54666666666667,74.00935407668776L98.24533333333333,71.19134159161209L99.93100000000001,70.22991512556831L101.62966666666668,67.89238264176144L103.32833333333333,66.09272972835716L104.494,63.900978804447206L105.638,61.21719322742027L106.79933333333334,60.13300702956448L107.94333333333334,58.8423220475799L109.10900000000001,56.81767661949685L110.27466666666666,59.14900413271576L111.44466666666666,57.94554899399773L112.61466666666666,58.2113847049563L113.76733333333333,56.584852090662906L114.93299999999999,55.691514803017114L116.09866666666667,54.568232829713736L117.25133333333333,52.22219646278536L118.39533333333333,51.1267741199312L119.548,51.42141623452824L120.68766666666667,52.07834366486887L121.84033333333333,53.74804170988216L122.97999999999999,51.396480018108804L124.13266666666667,51.172585918746876L125.28966666666666,50.43176162643722L126.83666666666667,49.756430056347966L128.401,47.929789493444446L129.96966666666668,47.222525233824825L131.56433333333334,46.30258504940619L133.159,45.138592971806105L134.74066666666667,43.75051567371216L136.33966666666666,44.0337224668441L137.9343333333333,44.17416129043556L139.52466666666666,43.9046341647483L140.85066666666665,43.22057152725699L142.28066666666666,42.112615476957785L143.72366666666665,42.11400883541339L145.17533333333333,42.08421419290721L146.63133333333332,42.602326924745796L148.08733333333333,42.375414332447235L149.52166666666665,41.19331763596611L150.96033333333332,40.60716965864847L152.40766666666664,40.55097378522129L153.85933333333332,41.05207190872406L155.311,40.01082092539201L156.754,40.422055797827056L158.20566666666667,40.23643025562879L159.64,40.530952171731656L161.083,40.65373973801678L162.539,40.35625500314865L164.00366666666667,40.617009930944135L165.45966666666666,36.356512853304054L166.92433333333332,35.59918282658171L168.37599999999998,35.66380087656199L169.845,35.730551762763355L171.30533333333335,35.53573428032382L172.77433333333332,38.35728999198926L174.24766666666667,38.9782321248199L175.71666666666664,39.5560946903712L177.16833333333332,38.822608956673776L178.724,37.307014541245906L180.35766666666666,38.04042480495849L182.03033333333335,36.37533817644524L183.69433333333333,34.98507771567938L185.315,33.37245560266524L186.953,30.92287737128723L188.591,32.07175547616632L190.25933333333333,33.119265618542556L191.93633333333332,35.30053249710065L193.61766666666668,34.18700104788405L195.29466666666667,32.692945617599776L196.95,31.064748673161773L198.63566666666668,32.54722825715777L200.31699999999998,31.761617321079427L202.01566666666668,32.79006336282873L203.70999999999998,31.58388937614518L205.37833333333336,31.5145469615357L207.077,33.2764787493698L208.76700000000002,32.269276318906805L210.46133333333333,31.723243327699322L212.147,31.410071454501406L213.824,30.44029690640039L215.527,32.46907690715585L216.70566666666667,30.473391130718824L217.81933333333333,31.570235435181814L218.95466666666667,31.32502446154811L220.077,31.960355955482413L221.20366666666666,31.64286949709782L222.326,32.31321983741631L223.46133333333336,32.551754145067065L224.588,33.967493173251L225.69733333333332,33.2252121154564L226.82833333333332,34.74095421270792L227.955,37.68699086006134L229.06866666666667,39.15289588135357L230.19966666666664,39.50941123382873L231.33066666666667,39.776297549820185L232.453,38.45940634385673L233.57533333333333,37.961884394500174L234.69333333333333,38.50393565828284L235.82433333333333,36.61651595165952L236.96833333333333,35.93520355025734L238.095,35.16948525617849L239.20000000000002,35.411799299460455L240.318,34.610367343741416" style="fill: none;" fill="none"></path></g></g></g></g><g opacity="0.2"><g><g><g><path stroke="rgb(0, 119, 187)" stroke-width="2px" d="M22.732666666666667,158.22222222222223L23.828999999999997,158.22222222222223L24.947,158.22222222222223L26.078,158.22222222222223L27.248,158.22222222222223L28.439666666666668,158.22222222222223L29.627,158.22222222222223L30.827333333333332,158.22222222222223L32.02333333333333,158.22222222222223L33.241,158.22222222222223L34.45,158.22222222222223L35.59833333333333,158.221274860946L36.742333333333335,158.22222222222223L37.894999999999996,158.22222222222223L39.026,157.67827894122132L40.183,157.80700925204695L41.32266666666667,157.08344410339163L42.471,156.5205093487166L43.628,157.31364249701923L44.772,157.78280215561648L45.88133333333333,158.19072652244196L47.00366666666667,158.01104070101994L48.126,157.5017944884797L49.26133333333333,157.95397638424765L50.39233333333333,154.90087234528943L51.52333333333333,157.1938218666344L52.62833333333333,150.51941169280974L53.733333333333334,155.28102392961995L54.82533333333333,158.21470993448142L55.904333333333334,158.22222222222223L57.03533333333333,158.00582286216863L58.123,157.83225290532897L59.245333333333335,155.62694542275534L60.57133333333333,152.1868476205402L61.92766666666667,156.2698809767349L63.297,150.7266203744544L64.779,149.51745355253416L66.26100000000001,122.51031429568926L67.73,114.16940148671468L69.35933333333332,120.2843593408664L71.019,114.67565751075745L72.71333333333334,117.73448290261956L74.42066666666666,114.40924167798624L76.11500000000001,115.30548253158727L77.79633333333334,110.33718219399451L79.49933333333334,109.3176523198684L81.20666666666668,113.73697815007633L82.91833333333334,100.30702892442544L84.62566666666667,100.46367195910877L86.34166666666667,97.7144671579202L88.04033333333334,79.52743021315997L89.74333333333334,79.76216820544666L91.44633333333334,77.62116762664583L93.14500000000001,65.22490181194411L94.848,70.0380916164981L96.54666666666667,63.80644628736708L98.24533333333333,64.25844585895538L99.93100000000001,67.86460642351044L101.62966666666668,62.14156744546359L103.32833333333333,61.665209939082445L104.494,58.50881650381616L105.638,54.614523526695024L106.79933333333334,57.46568389402495L107.94333333333334,55.666969031095505L109.10900000000001,51.8366285264492L110.27466666666666,64.88455382651752L111.44466666666666,54.984799500968705L112.61466666666666,58.8653957446416L113.76733333333333,52.583244171407486L114.93299999999999,53.49371960759163L116.09866666666667,51.804725968175475L117.25133333333333,46.45045993394322L118.39533333333333,48.43180773324437L119.548,52.14629700779915L120.68766666666667,53.69452152980699L121.84033333333333,57.855845550696046L122.97999999999999,45.61115004287828L124.13266666666667,50.621759951114655L125.28966666666666,48.60918006300926L126.83666666666667,48.09497418668536L128.401,43.43587447537317L129.96966666666668,45.48250831829179L131.56433333333334,44.03934120469623L133.159,42.274930801656524L134.74066666666667,40.335557338264266L136.33966666666666,44.730469975206574L137.9343333333333,44.51966995331975L139.52466666666666,43.24154147836896L140.85066666666665,41.53763541910382L142.28066666666666,39.38681356774438L143.72366666666665,42.117436786492675L145.17533333333333,42.01091318660312L146.63133333333332,43.876991811725816L148.08733333333333,41.81716224551201L149.52166666666665,38.285114344623366L150.96033333333332,39.16512394282552L152.40766666666664,40.412720269627044L153.85933333333332,42.28487732675342L155.311,37.4491273297204L156.754,41.43377896149954L158.20566666666667,39.77975288364621L159.64,41.25553723176321L161.083,40.95582264330653L162.539,39.624380793836394L164.00366666666667,41.25852118929228L165.45966666666666,25.874805510044098L166.92433333333332,33.735993729697356L168.37599999999998,35.82277469502557L169.845,35.89477280113431L171.30533333333335,35.05644282698631L172.77433333333332,45.298902832799484L174.24766666666667,40.50587868690491L175.71666666666664,40.97775657309427L177.16833333333332,37.0180817710029L178.724,33.5783376230134L180.35766666666666,39.844766318798065L182.03033333333335,32.27887937757703L183.69433333333333,31.564748346805573L185.315,29.4050704042117L186.953,24.89640635914273L188.591,34.89823413557477L190.25933333333333,35.69635804494223L191.93633333333332,40.66690187652907L193.61766666666668,31.447482499811372L195.29466666666667,29.017259074582L196.95,27.059046155876587L198.63566666666668,36.19443581501645L200.31699999999998,29.828851315710267L202.01566666666668,35.32025414374141L203.70999999999998,28.616450952159056L205.37833333333336,31.343950225247283L207.077,37.61119674642882L208.76700000000002,29.791349232196808L210.46133333333333,30.379888806078156L212.147,30.639603628052612L213.824,28.05445018079547L215.527,37.4602969090144L216.70566666666667,25.563589791456877L217.81933333333333,34.268700142701476L218.95466666666667,30.72175455755658L220.077,33.52340333329309L221.20366666666666,30.861786895328095L222.326,33.962420847680846L223.46133333333336,33.13859806458157L224.588,37.45050510764122L225.69733333333332,31.3990466064877L226.82833333333332,38.4699944588873L227.955,44.93485264645685L229.06866666666667,42.75932657387523L230.19966666666664,40.386513017945816L231.33066666666667,40.432893296082824L232.453,35.219580574168106L233.57533333333333,36.73787710732884L234.69333333333333,39.83749430378279L235.82433333333333,31.973071621523985L236.96833333333333,34.25903359386655L238.095,33.285659280088225L239.20000000000002,36.00794215334787L240.318,32.638678345415315" style="fill: none;" fill="none"></path></g></g></g></g></g><g><g><span fill="rgb(0, 0, 0)" stroke="none" stroke-width="1px">Alt + Scroll to Zoom</span></g></g></g><g transform="translate(70, 178)" clip-path="url(#clip_1)"><clipPath id="clip_1"><rect width="260" height="22"></rect></clipPath><g><g><line x1="0" y1="0" x2="0" y2="5" style="visibility: inherit;" fill="rgb(0, 0, 0)" stroke="rgb(204, 204, 204)" stroke-width="1px"></line><line x1="21.666666666666664" y1="0" x2="21.666666666666664" y2="5" style="visibility: inherit;" fill="rgb(0, 0, 0)" stroke="rgb(204, 204, 204)" stroke-width="1px"></line><line x1="43.33333333333333" y1="0" x2="43.33333333333333" y2="5" style="visibility: inherit;" fill="rgb(0, 0, 0)" stroke="rgb(204, 204, 204)" stroke-width="1px"></line><line x1="65" y1="0" x2="65" y2="5" style="visibility: inherit;" fill="rgb(0, 0, 0)" stroke="rgb(204, 204, 204)" stroke-width="1px"></line><line x1="86.66666666666666" y1="0" x2="86.66666666666666" y2="5" style="visibility: inherit;" fill="rgb(0, 0, 0)" stroke="rgb(204, 204, 204)" stroke-width="1px"></line><line x1="108.33333333333334" y1="0" x2="108.33333333333334" y2="5" style="visibility: inherit;" fill="rgb(0, 0, 0)" stroke="rgb(204, 204, 204)" stroke-width="1px"></line><line x1="130" y1="0" x2="130" y2="5" style="visibility: inherit;" fill="rgb(0, 0, 0)" stroke="rgb(204, 204, 204)" stroke-width="1px"></line><line x1="151.66666666666669" y1="0" x2="151.66666666666669" y2="5" style="visibility: inherit;" fill="rgb(0, 0, 0)" stroke="rgb(204, 204, 204)" stroke-width="1px"></line><line x1="173.33333333333331" y1="0" x2="173.33333333333331" y2="5" style="visibility: inherit;" fill="rgb(0, 0, 0)" stroke="rgb(204, 204, 204)" stroke-width="1px"></line><line x1="195" y1="0" x2="195" y2="5" style="visibility: inherit;" fill="rgb(0, 0, 0)" stroke="rgb(204, 204, 204)" stroke-width="1px"></line><line x1="216.66666666666669" y1="0" x2="216.66666666666669" y2="5" style="visibility: inherit;" fill="rgb(0, 0, 0)" stroke="rgb(204, 204, 204)" stroke-width="1px"></line><line x1="238.33333333333331" y1="0" x2="238.33333333333331" y2="5" style="visibility: inherit;" fill="rgb(0, 0, 0)" stroke="rgb(204, 204, 204)" stroke-width="1px"></line><line x1="260" y1="0" x2="260" y2="5" style="visibility: inherit;" fill="rgb(0, 0, 0)" stroke="rgb(204, 204, 204)" stroke-width="1px"></line></g><g transform="translate(0, 8)"><text x="0" y="0" dx="0em" dy="0.95em" style="text-anchor: middle; visibility: hidden; font-family: &quot;Helvetica Neue&quot;, sans-serif; font-size: 12px; font-weight: 200;" fill="rgb(50, 49, 63)" stroke="none" stroke-width="1px">-5k</text><text x="21.666666666666664" y="0" dx="0em" dy="0.95em" style="text-anchor: middle; visibility: inherit; font-family: &quot;Helvetica Neue&quot;, sans-serif; font-size: 12px; font-weight: 200;" fill="rgb(50, 49, 63)" stroke="none" stroke-width="1px">0</text><text x="43.33333333333333" y="0" dx="0em" dy="0.95em" style="text-anchor: middle; visibility: hidden; font-family: &quot;Helvetica Neue&quot;, sans-serif; font-size: 12px; font-weight: 200;" fill="rgb(50, 49, 63)" stroke="none" stroke-width="1px">5k</text><text x="65" y="0" dx="0em" dy="0.95em" style="text-anchor: middle; visibility: inherit; font-family: &quot;Helvetica Neue&quot;, sans-serif; font-size: 12px; font-weight: 200;" fill="rgb(50, 49, 63)" stroke="none" stroke-width="1px">10k</text><text x="86.66666666666666" y="0" dx="0em" dy="0.95em" style="text-anchor: middle; visibility: hidden; font-family: &quot;Helvetica Neue&quot;, sans-serif; font-size: 12px; font-weight: 200;" fill="rgb(50, 49, 63)" stroke="none" stroke-width="1px">15k</text><text x="108.33333333333334" y="0" dx="0em" dy="0.95em" style="text-anchor: middle; visibility: inherit; font-family: &quot;Helvetica Neue&quot;, sans-serif; font-size: 12px; font-weight: 200;" fill="rgb(50, 49, 63)" stroke="none" stroke-width="1px">20k</text><text x="130" y="0" dx="0em" dy="0.95em" style="text-anchor: middle; visibility: hidden; font-family: &quot;Helvetica Neue&quot;, sans-serif; font-size: 12px; font-weight: 200;" fill="rgb(50, 49, 63)" stroke="none" stroke-width="1px">25k</text><text x="151.66666666666669" y="0" dx="0em" dy="0.95em" style="text-anchor: middle; visibility: inherit; font-family: &quot;Helvetica Neue&quot;, sans-serif; font-size: 12px; font-weight: 200;" fill="rgb(50, 49, 63)" stroke="none" stroke-width="1px">30k</text><text x="173.33333333333331" y="0" dx="0em" dy="0.95em" style="text-anchor: middle; visibility: hidden; font-family: &quot;Helvetica Neue&quot;, sans-serif; font-size: 12px; font-weight: 200;" fill="rgb(50, 49, 63)" stroke="none" stroke-width="1px">35k</text><text x="195" y="0" dx="0em" dy="0.95em" style="text-anchor: middle; visibility: inherit; font-family: &quot;Helvetica Neue&quot;, sans-serif; font-size: 12px; font-weight: 200;" fill="rgb(50, 49, 63)" stroke="none" stroke-width="1px">40k</text><text x="216.66666666666669" y="0" dx="0em" dy="0.95em" style="text-anchor: middle; visibility: hidden; font-family: &quot;Helvetica Neue&quot;, sans-serif; font-size: 12px; font-weight: 200;" fill="rgb(50, 49, 63)" stroke="none" stroke-width="1px">45k</text><text x="238.33333333333331" y="0" dx="0em" dy="0.95em" style="text-anchor: middle; visibility: inherit; font-family: &quot;Helvetica Neue&quot;, sans-serif; font-size: 12px; font-weight: 200;" fill="rgb(50, 49, 63)" stroke="none" stroke-width="1px">50k</text><text x="260" y="0" dx="0em" dy="0.95em" style="text-anchor: middle; visibility: hidden; font-family: &quot;Helvetica Neue&quot;, sans-serif; font-size: 12px; font-weight: 200;" fill="rgb(50, 49, 63)" stroke="none" stroke-width="1px">55k</text></g><line x1="0" y1="0" x2="260" y2="0" fill="rgb(0, 0, 0)" stroke="rgb(204, 204, 204)" stroke-width="1px"></line></g></g></g></g></svg>