<svg viewBox="0 0 330 200" xmlns="http://www.w3.org/2000/svg"><g><g><g><g><g><line x1="70" y1="178" x2="65" y2="178" style="visibility: inherit;" fill="rgb(0, 0, 0)" stroke="rgb(204, 204, 204)" stroke-width="1px"></line><line x1="70" y1="158.22222222222223" x2="65" y2="158.22222222222223" style="visibility: inherit;" fill="rgb(0, 0, 0)" stroke="rgb(204, 204, 204)" stroke-width="1px"></line><line x1="70" y1="138.44444444444446" x2="65" y2="138.44444444444446" style="visibility: inherit;" fill="rgb(0, 0, 0)" stroke="rgb(204, 204, 204)" stroke-width="1px"></line><line x1="70" y1="118.66666666666667" x2="65" y2="118.66666666666667" style="visibility: inherit;" fill="rgb(0, 0, 0)" stroke="rgb(204, 204, 204)" stroke-width="1px"></line><line x1="70" y1="98.88888888888889" x2="65" y2="98.88888888888889" style="visibility: inherit;" fill="rgb(0, 0, 0)" stroke="rgb(204, 204, 204)" stroke-width="1px"></line><line x1="70" y1="79.1111111111111" x2="65" y2="79.1111111111111" style="visibility: inherit;" fill="rgb(0, 0, 0)" stroke="rgb(204, 204, 204)" stroke-width="1px"></line><line x1="70" y1="59.333333333333314" x2="65" y2="59.333333333333314" style="visibility: inherit;" fill="rgb(0, 0, 0)" stroke="rgb(204, 204, 204)" stroke-width="1px"></line><line x1="70" y1="39.55555555555557" x2="65" y2="39.55555555555557" style="visibility: inherit;" fill="rgb(0, 0, 0)" stroke="rgb(204, 204, 204)" stroke-width="1px"></line><line x1="70" y1="19.77777777777777" x2="65" y2="19.77777777777777" style="visibility: inherit;" fill="rgb(0, 0, 0)" stroke="rgb(204, 204, 204)" stroke-width="1px"></line><line x1="70" y1="0" x2="65" y2="0" style="visibility: inherit;" fill="rgb(0, 0, 0)" stroke="rgb(204, 204, 204)" stroke-width="1px"></line></g><g transform="translate(60, 0)"><text x="0" y="178" dx="0em" dy="0.3em" style="text-anchor: end; visibility: hidden; font-family: &quot;Helvetica Neue&quot;, sans-serif; font-size: 12px; font-weight: 200;" fill="rgb(50, 49, 63)" stroke="none" stroke-width="1px">-0.01</text><text x="0" y="158.22222222222223" dx="0em" dy="0.3em" style="text-anchor: end; visibility: inherit; font-family: &quot;Helvetica Neue&quot;, sans-serif; font-size: 12px; font-weight: 200;" fill="rgb(50, 49, 63)" stroke="none" stroke-width="1px">0</text><text x="0" y="138.44444444444446" dx="0em" dy="0.3em" style="text-anchor: end; visibility: hidden; font-family: &quot;Helvetica Neue&quot;, sans-serif; font-size: 12px; font-weight: 200;" fill="rgb(50, 49, 63)" stroke="none" stroke-width="1px">0.01</text><text x="0" y="118.66666666666667" dx="0em" dy="0.3em" style="text-anchor: end; visibility: inherit; font-family: &quot;Helvetica Neue&quot;, sans-serif; font-size: 12px; font-weight: 200;" fill="rgb(50, 49, 63)" stroke="none" stroke-width="1px">0.02</text><text x="0" y="98.88888888888889" dx="0em" dy="0.3em" style="text-anchor: end; visibility: hidden; font-family: &quot;Helvetica Neue&quot;, sans-serif; font-size: 12px; font-weight: 200;" fill="rgb(50, 49, 63)" stroke="none" stroke-width="1px">0.03</text><text x="0" y="79.1111111111111" dx="0em" dy="0.3em" style="text-anchor: end; visibility: inherit; font-family: &quot;Helvetica Neue&quot;, sans-serif; font-size: 12px; font-weight: 200;" fill="rgb(50, 49, 63)" stroke="none" stroke-width="1px">0.04</text><text x="0" y="59.333333333333314" dx="0em" dy="0.3em" style="text-anchor: end; visibility: hidden; font-family: &quot;Helvetica Neue&quot;, sans-serif; font-size: 12px; font-weight: 200;" fill="rgb(50, 49, 63)" stroke="none" stroke-width="1px">0.05</text><text x="0" y="39.55555555555557" dx="0em" dy="0.3em" style="text-anchor: end; visibility: inherit; font-family: &quot;Helvetica Neue&quot;, sans-serif; font-size: 12px; font-weight: 200;" fill="rgb(50, 49, 63)" stroke="none" stroke-width="1px">0.06</text><text x="0" y="19.77777777777777" dx="0em" dy="0.3em" style="text-anchor: end; visibility: hidden; font-family: &quot;Helvetica Neue&quot;, sans-serif; font-size: 12px; font-weight: 200;" fill="rgb(50, 49, 63)" stroke="none" stroke-width="1px">0.07</text><text x="0" y="0" dx="0em" dy="0.3em" style="text-anchor: end; visibility: hidden; font-family: &quot;Helvetica Neue&quot;, sans-serif; font-size: 12px; font-weight: 200;" fill="rgb(50, 49, 63)" stroke="none" stroke-width="1px">0.08</text></g><line x1="70" y1="0" x2="70" y2="178" fill="rgb(0, 0, 0)" stroke="rgb(204, 204, 204)" stroke-width="1px"></line></g></g><g transform="translate(70, 0)" clip-path="url(#clip_0)"><clipPath id="clip_0"><rect width="260" height="178"></rect></clipPath><g><g><g><line x1="0" y1="0" x2="0" y2="178" fill="rgb(0, 0, 0)" stroke="rgb(60, 60, 60)" stroke-width="1px" opacity="0.25"></line><line x1="21.666666666666664" y1="0" x2="21.666666666666664" y2="178" fill="rgb(0, 0, 0)" stroke="rgb(60, 60, 60)" stroke-width="1px" opacity="0.25"></line><line x1="43.33333333333333" y1="0" x2="43.33333333333333" y2="178" fill="rgb(0, 0, 0)" stroke="rgb(60, 60, 60)" stroke-width="1px" opacity="0.25"></line><line x1="65" y1="0" x2="65" y2="178" fill="rgb(0, 0, 0)" stroke="rgb(60, 60, 60)" stroke-width="1px" opacity="0.25"></line><line x1="86.66666666666666" y1="0" x2="86.66666666666666" y2="178" fill="rgb(0, 0, 0)" stroke="rgb(60, 60, 60)" stroke-width="1px" opacity="0.25"></line><line x1="108.33333333333334" y1="0" x2="108.33333333333334" y2="178" fill="rgb(0, 0, 0)" stroke="rgb(60, 60, 60)" stroke-width="1px" opacity="0.25"></line><line x1="130" y1="0" x2="130" y2="178" fill="rgb(0, 0, 0)" stroke="rgb(60, 60, 60)" stroke-width="1px" opacity="0.25"></line><line x1="151.66666666666669" y1="0" x2="151.66666666666669" y2="178" fill="rgb(0, 0, 0)" stroke="rgb(60, 60, 60)" stroke-width="1px" opacity="0.25"></line><line x1="173.33333333333331" y1="0" x2="173.33333333333331" y2="178" fill="rgb(0, 0, 0)" stroke="rgb(60, 60, 60)" stroke-width="1px" opacity="0.25"></line><line x1="195" y1="0" x2="195" y2="178" fill="rgb(0, 0, 0)" stroke="rgb(60, 60, 60)" stroke-width="1px" opacity="0.25"></line><line x1="216.66666666666669" y1="0" x2="216.66666666666669" y2="178" fill="rgb(0, 0, 0)" stroke="rgb(60, 60, 60)" stroke-width="1px" opacity="0.25"></line><line x1="238.33333333333331" y1="0" x2="238.33333333333331" y2="178" fill="rgb(0, 0, 0)" stroke="rgb(60, 60, 60)" stroke-width="1px" opacity="0.25"></line><line x1="260" y1="0" x2="260" y2="178" fill="rgb(0, 0, 0)" stroke="rgb(60, 60, 60)" stroke-width="1px" opacity="0.25"></line></g><g><line x1="0" y1="178" x2="260" y2="178" fill="rgb(0, 0, 0)" stroke="rgb(60, 60, 60)" stroke-width="1px" opacity="0.25"></line><line x1="0" y1="158.22222222222223" x2="260" y2="158.22222222222223" fill="rgb(0, 0, 0)" stroke="rgb(60, 60, 60)" stroke-width="1px" opacity="0.25"></line><line x1="0" y1="138.44444444444446" x2="260" y2="138.44444444444446" fill="rgb(0, 0, 0)" stroke="rgb(60, 60, 60)" stroke-width="1px" opacity="0.25"></line><line x1="0" y1="118.66666666666667" x2="260" y2="118.66666666666667" fill="rgb(0, 0, 0)" stroke="rgb(60, 60, 60)" stroke-width="1px" opacity="0.25"></line><line x1="0" y1="98.88888888888889" x2="260" y2="98.88888888888889" fill="rgb(0, 0, 0)" stroke="rgb(60, 60, 60)" stroke-width="1px" opacity="0.25"></line><line x1="0" y1="79.1111111111111" x2="260" y2="79.1111111111111" fill="rgb(0, 0, 0)" stroke="rgb(60, 60, 60)" stroke-width="1px" opacity="0.25"></line><line x1="0" y1="59.333333333333314" x2="260" y2="59.333333333333314" fill="rgb(0, 0, 0)" stroke="rgb(60, 60, 60)" stroke-width="1px" opacity="0.25"></line><line x1="0" y1="39.55555555555557" x2="260" y2="39.55555555555557" fill="rgb(0, 0, 0)" stroke="rgb(60, 60, 60)" stroke-width="1px" opacity="0.25"></line><line x1="0" y1="19.77777777777777" x2="260" y2="19.77777777777777" fill="rgb(0, 0, 0)" stroke="rgb(60, 60, 60)" stroke-width="1px" opacity="0.25"></line><line x1="0" y1="0" x2="260" y2="0" fill="rgb(0, 0, 0)" stroke="rgb(60, 60, 60)" stroke-width="1px" opacity="0.25"></line></g></g></g><g><g><line x1="0" y1="158.22222222222223" x2="260" y2="158.22222222222223" fill="rgb(0, 0, 0)" stroke="rgb(153, 153, 153)" stroke-width="1.5px"></line></g></g><g><g><line x1="21.666666666666664" y1="0" x2="21.666666666666664" y2="178" fill="rgb(0, 0, 0)" stroke="rgb(153, 153, 153)" stroke-width="1.5px"></line></g></g><g><g><g><g><g><path stroke="rgb(0, 119, 187)" stroke-width="2px" d="M22.732666666666667,158.22222222222223L23.828999999999997,158.22222222222223L24.947,158.22222222222223L26.078,158.22222222222223L27.248,158.22222222222223L28.439666666666668,158.22222222222223L29.627,158.22222222222223L30.827333333333332,158.22222222222223L32.02333333333333,158.22222222222223L33.241,158.22222222222223L34.45,158.22222222222223L35.59833333333333,158.1532686228497L36.742333333333335,158.1734355136511L37.894999999999996,158.1876548370925L39.026,158.09538710996017L40.183,156.41903551741066L41.32266666666667,152.2151125098962L42.471,152.4940078516996L43.628,152.65805119494993L44.772,150.80613432964992L45.88133333333333,152.17070873191838L47.00366666666667,152.59767634094655L48.126,151.57846075489542L49.26133333333333,149.26789273017403L50.39233333333333,147.9567720090231L51.52333333333333,145.43880910120032L52.62833333333333,138.06520787897335L53.733333333333334,138.66981098957692L54.82533333333333,144.08342193603403L55.904333333333334,148.16968225148287L57.03533333333333,147.96363609399606L58.123,143.7149945209663L59.245333333333335,139.90680129939443L60.57133333333333,133.31282978129906L61.92766666666667,135.46034833972294L63.297,137.15673451991535L64.779,132.81842168348956L66.26100000000001,126.8152785308243L67.73,118.42209090563054L69.35933333333332,113.9568372595935L71.019,107.66862140545165L72.71333333333334,106.08460101090938L74.42066666666666,101.63991461530229L76.11500000000001,101.57629138794583L77.79633333333334,100.85449033727718L79.49933333333334,102.7499093859913L81.20666666666668,105.2100568752163L82.91833333333334,102.98196998481512L84.62566666666667,103.27316469037746L86.34166666666667,101.80054308994426L88.04033333333334,94.31613304605325L89.74333333333334,92.5396862847697L91.44633333333334,88.60539603284042L93.14500000000001,79.73521612701694L94.848,78.5868097353137L96.54666666666667,77.0854482354353L98.24533333333333,74.83913538310982L99.93100000000001,74.2506126604521L101.62966666666668,71.4774111283281L103.32833333333333,69.68287526415418L104.494,68.60266359950624L105.638,68.8516772046152L106.79933333333334,68.5202038287723L107.94333333333334,67.7421037334396L109.10900000000001,63.14382016908857L110.27466666666666,63.62208806025684L111.44466666666666,61.367137158066896L112.61466666666666,62.33266974579307L113.76733333333333,59.94954459976111L114.93299999999999,58.398452567201986L116.09866666666667,54.004107289225175L117.25133333333333,53.57643072720474L118.39533333333333,52.457987491895324L119.548,54.55591309242162L120.68766666666667,55.809495995929964L121.84033333333333,56.99893280865001L122.97999999999999,54.579300233346856L124.13266666666667,52.28261847105712L125.28966666666666,54.133816697808214L126.83666666666667,52.345766868250905L128.401,46.86063488070954L129.96966666666668,45.74370283157427L131.56433333333334,44.21143828618321L133.159,43.06190102453442L134.74066666666667,41.412454397629915L136.33966666666666,41.21748416560408L137.9343333333333,42.23150633313841L139.52466666666666,42.96861826562824L140.85066666666665,41.21052419247337L142.28066666666666,41.17253213129041L143.72366666666665,41.97764540966159L145.17533333333333,41.0384638037371L146.63133333333332,39.93071919179772L148.08733333333333,35.973253223388355L149.52166666666665,36.619057578036774L150.96033333333332,36.44950808568146L152.40766666666664,37.23659089489439L153.85933333333332,37.77771599052696L155.311,38.16318841036545L156.754,35.30754118602101L158.20566666666667,35.117177004595106L159.64,36.9765009211273L161.083,37.45864867999825L162.539,36.64880760475782L164.00366666666667,35.9975037358565L165.45966666666666,31.756771052439348L166.92433333333332,30.88818460811015L168.37599999999998,33.49433540716484L169.845,35.566857912734434L171.30533333333335,37.89874374169568L172.77433333333332,41.176278358484694L174.24766666666667,43.43880238923441L175.71666666666664,43.612811646343914L177.16833333333332,41.37884257729527L178.724,37.38348861827876L180.35766666666666,38.75735511827804L182.03033333333335,38.717132231554416L183.69433333333333,38.09371784683063L185.315,34.24954403587958L186.953,32.517968729987274L188.591,33.56899934465278L190.25933333333333,34.87411433121443L191.93633333333332,36.709683584937295L193.61766666666668,35.11466327776873L195.29466666666667,36.73740393974481L196.95,33.020963826566685L198.63566666666668,34.815770574880474L200.31699999999998,33.53848518862745L202.01566666666668,33.44323552501902L203.70999999999998,31.646544010436628L205.37833333333336,32.27836111553995L207.077,34.18607436001295L208.76700000000002,31.368041005030392L210.46133333333333,30.468487598209748L212.147,29.63393426935332L213.824,29.31177492109927L215.527,31.805621377909603L216.70566666666667,30.28722523664854L217.81933333333333,31.557631448447353L218.95466666666667,31.681155889129002L220.077,31.980096923726705L221.20366666666666,28.399576542874996L222.326,28.738529033418843L223.46133333333336,28.037989150377797L224.588,26.91889268764325L225.69733333333332,27.098652811997L226.82833333333332,28.484627514276895L227.955,33.66920686863554L229.06866666666667,36.18430387606901L230.19966666666664,36.14186102797669L231.33066666666667,36.72190976977555L232.453,34.038511045178325L233.57533333333333,33.8518797731285L234.69333333333333,34.762423600553205L235.82433333333333,31.296962784319703L236.96833333333333,29.164329641002922L238.095,28.725168743497107L239.20000000000002,27.606996405127234L240.318,27.787409323317945" style="fill: none;" fill="none"></path></g></g></g></g><g opacity="0.2"><g><g><g><path stroke="rgb(0, 119, 187)" stroke-width="2px" d="M22.732666666666667,158.22222222222223L23.828999999999997,158.22222222222223L24.947,158.22222222222223L26.078,158.22222222222223L27.248,158.22222222222223L28.439666666666668,158.22222222222223L29.627,158.22222222222223L30.827333333333332,158.22222222222223L32.02333333333333,158.22222222222223L33.241,158.22222222222223L34.45,158.22222222222223L35.59833333333333,157.98761038905812L36.742333333333335,158.22222222222223L37.894999999999996,158.22222222222223L39.026,157.87030446528095L40.183,152.3196014964746L41.32266666666667,141.91669943597583L42.471,153.17806765809655L43.628,153.0607617487096L44.772,146.25701854377985L45.88133333333333,155.524186076079L47.00366666666667,153.64729129564432L48.126,149.0723603690664L49.26133333333333,143.58564253855081L50.39233333333333,144.73204126126237L51.52333333333333,139.24532435172134L52.62833333333333,119.92717225684059L53.733333333333334,140.157111255659L54.82533333333333,157.40108079895273L55.904333333333334,158.22222222222223L57.03533333333333,147.4567380088071L58.123,133.2627215915256L59.245333333333335,130.53802576495542L60.57133333333333,117.09050066106849L61.92766666666667,140.74364126308097L63.297,141.33016942855386L64.779,122.14532103141148L66.26100000000001,112.04634885986646L67.73,97.77315533989005L69.35933333333332,102.97140460213025L71.019,92.1983232696851L72.71333333333334,102.1875852694114L74.42066666666666,90.70506987637943L76.11500000000001,101.4197651065058L77.79633333333334,99.07871043682097L79.49933333333334,107.41303275194433L81.20666666666668,111.2625295271476L82.91833333333334,97.50041425393687L84.62566666666667,103.9895640661319L86.34166666666667,98.17758841812609L88.04033333333334,75.90293120344478L89.74333333333334,88.16925856139925L91.44633333333334,78.92622539732191L93.14500000000001,57.91273230645392L94.848,75.76149161656696L96.54666666666667,73.3917872707049L98.24533333333333,69.31273943185806L99.93100000000001,72.8027245832814L101.62966666666668,64.65475962559381L103.32833333333333,65.26794447832636L104.494,65.9451186425156L105.638,69.4643023709456L106.79933333333334,67.70471050673059L107.94333333333334,65.82781595653957L109.10900000000001,51.831087943580414L110.27466666666666,64.79872636662589L111.44466666666666,55.81948978371089L112.61466666666666,64.70808036790953L113.76733333333333,54.08656197455194L114.93299999999999,54.58244414130846L116.09866666666667,43.19310558504529L117.25133333333333,52.52425759368474L118.39533333333333,49.706384930345735L119.548,59.71724562512503L120.68766666666667,58.89357019795311L121.84033333333333,59.925194309817414L122.97999999999999,48.6265017522706L124.13266666666667,46.632304516103545L125.28966666666666,58.688148667414964L126.83666666666667,47.946793066130766L128.401,33.36607140964932L129.96966666666668,42.995818101697495L131.56433333333334,40.44174938731723L133.159,40.23380070262485L134.74066666666667,37.35447324977983L136.33966666666666,40.737816916571745L137.9343333333333,44.72621138890585L139.52466666666666,44.782066653172194L140.85066666666665,36.885247770282945L142.28066666666666,41.07906377315521L143.72366666666665,43.95839122600026L145.17533333333333,38.727882067362486L146.63133333333332,37.20543746484651L148.08733333333333,26.237065321869323L149.52166666666665,38.207870367500504L150.96033333333332,36.03238113390077L152.40766666666664,39.17297801375389L153.85933333333332,39.10899607009358L155.311,39.111530592044204L156.754,28.282056146197846L158.20566666666667,34.648841596311996L159.64,41.55082377460269L161.083,38.6448322667016L162.539,34.65643042657109L164.00366666666667,34.39516099956302L165.45966666666666,21.323688222302337L166.92433333333332,28.751281625694702L168.37599999999998,39.90600744220944L169.845,40.6656935579247L171.30533333333335,43.6356670094861L172.77433333333332,49.2396939727995L174.24766666666667,49.0050812330511L175.71666666666664,44.04091054532262L177.16833333333332,35.88281486762895L178.724,27.554088393847167L180.35766666666666,42.137351940075575L182.03033333333335,38.618175579441925L183.69433333333333,36.55998903181819L185.315,24.79207836257089L186.953,28.257933980888794L188.591,36.154752863778015L190.25933333333333,38.08496815628476L191.93633333333332,41.22556503613791L193.61766666666668,31.19058217604956L195.29466666666667,40.72968286938138L196.95,23.87774956888623L198.63566666666668,39.231367799970826L200.31699999999998,30.39609795808792L202.01566666666668,33.208901577525666L203.70999999999998,27.226309869024476L205.37833333333336,33.832762367195556L207.077,38.87944500645003L208.76700000000002,24.43509389294519L210.46133333333333,28.25539945893817L212.147,27.580759816699555L213.824,28.519196040100525L215.527,37.941001415252686L216.70566666666667,26.551655491193145L217.81933333333333,34.683094481627165L218.95466666666667,31.985051658418456L220.077,32.71555393271976L221.20366666666666,19.590753045347014L222.326,29.572422530916015L223.46133333333336,26.314515597290466L224.588,24.165683050950378L225.69733333333332,27.540900038348326L226.82833333333332,31.894413027498445L227.955,46.42434846361479L229.06866666666667,42.371964679824L230.19966666666664,36.037442810005615L231.33066666666667,38.14895009994507L232.453,27.43679307566751L233.57533333333333,33.392728096908996L234.69333333333333,37.00255045625897L235.82433333333333,22.77120970355142L236.96833333333333,23.917609347237487L238.095,27.644741760359892L239.20000000000002,24.8560603062312L240.318,28.231262558036377" style="fill: none;" fill="none"></path></g></g></g></g></g><g><g opacity="0.999847"><span fill="rgb(0, 0, 0)" stroke="none" stroke-width="1px">Alt + Scroll to Zoom</span></g></g></g><g transform="translate(70, 178)" clip-path="url(#clip_1)"><clipPath id="clip_1"><rect width="260" height="22"></rect></clipPath><g><g><line x1="0" y1="0" x2="0" y2="5" style="visibility: inherit;" fill="rgb(0, 0, 0)" stroke="rgb(204, 204, 204)" stroke-width="1px"></line><line x1="21.666666666666664" y1="0" x2="21.666666666666664" y2="5" style="visibility: inherit;" fill="rgb(0, 0, 0)" stroke="rgb(204, 204, 204)" stroke-width="1px"></line><line x1="43.33333333333333" y1="0" x2="43.33333333333333" y2="5" style="visibility: inherit;" fill="rgb(0, 0, 0)" stroke="rgb(204, 204, 204)" stroke-width="1px"></line><line x1="65" y1="0" x2="65" y2="5" style="visibility: inherit;" fill="rgb(0, 0, 0)" stroke="rgb(204, 204, 204)" stroke-width="1px"></line><line x1="86.66666666666666" y1="0" x2="86.66666666666666" y2="5" style="visibility: inherit;" fill="rgb(0, 0, 0)" stroke="rgb(204, 204, 204)" stroke-width="1px"></line><line x1="108.33333333333334" y1="0" x2="108.33333333333334" y2="5" style="visibility: inherit;" fill="rgb(0, 0, 0)" stroke="rgb(204, 204, 204)" stroke-width="1px"></line><line x1="130" y1="0" x2="130" y2="5" style="visibility: inherit;" fill="rgb(0, 0, 0)" stroke="rgb(204, 204, 204)" stroke-width="1px"></line><line x1="151.66666666666669" y1="0" x2="151.66666666666669" y2="5" style="visibility: inherit;" fill="rgb(0, 0, 0)" stroke="rgb(204, 204, 204)" stroke-width="1px"></line><line x1="173.33333333333331" y1="0" x2="173.33333333333331" y2="5" style="visibility: inherit;" fill="rgb(0, 0, 0)" stroke="rgb(204, 204, 204)" stroke-width="1px"></line><line x1="195" y1="0" x2="195" y2="5" style="visibility: inherit;" fill="rgb(0, 0, 0)" stroke="rgb(204, 204, 204)" stroke-width="1px"></line><line x1="216.66666666666669" y1="0" x2="216.66666666666669" y2="5" style="visibility: inherit;" fill="rgb(0, 0, 0)" stroke="rgb(204, 204, 204)" stroke-width="1px"></line><line x1="238.33333333333331" y1="0" x2="238.33333333333331" y2="5" style="visibility: inherit;" fill="rgb(0, 0, 0)" stroke="rgb(204, 204, 204)" stroke-width="1px"></line><line x1="260" y1="0" x2="260" y2="5" style="visibility: inherit;" fill="rgb(0, 0, 0)" stroke="rgb(204, 204, 204)" stroke-width="1px"></line></g><g transform="translate(0, 8)"><text x="0" y="0" dx="0em" dy="0.95em" style="text-anchor: middle; visibility: hidden; font-family: &quot;Helvetica Neue&quot;, sans-serif; font-size: 12px; font-weight: 200;" fill="rgb(50, 49, 63)" stroke="none" stroke-width="1px">-5k</text><text x="21.666666666666664" y="0" dx="0em" dy="0.95em" style="text-anchor: middle; visibility: inherit; font-family: &quot;Helvetica Neue&quot;, sans-serif; font-size: 12px; font-weight: 200;" fill="rgb(50, 49, 63)" stroke="none" stroke-width="1px">0</text><text x="43.33333333333333" y="0" dx="0em" dy="0.95em" style="text-anchor: middle; visibility: hidden; font-family: &quot;Helvetica Neue&quot;, sans-serif; font-size: 12px; font-weight: 200;" fill="rgb(50, 49, 63)" stroke="none" stroke-width="1px">5k</text><text x="65" y="0" dx="0em" dy="0.95em" style="text-anchor: middle; visibility: inherit; font-family: &quot;Helvetica Neue&quot;, sans-serif; font-size: 12px; font-weight: 200;" fill="rgb(50, 49, 63)" stroke="none" stroke-width="1px">10k</text><text x="86.66666666666666" y="0" dx="0em" dy="0.95em" style="text-anchor: middle; visibility: hidden; font-family: &quot;Helvetica Neue&quot;, sans-serif; font-size: 12px; font-weight: 200;" fill="rgb(50, 49, 63)" stroke="none" stroke-width="1px">15k</text><text x="108.33333333333334" y="0" dx="0em" dy="0.95em" style="text-anchor: middle; visibility: inherit; font-family: &quot;Helvetica Neue&quot;, sans-serif; font-size: 12px; font-weight: 200;" fill="rgb(50, 49, 63)" stroke="none" stroke-width="1px">20k</text><text x="130" y="0" dx="0em" dy="0.95em" style="text-anchor: middle; visibility: hidden; font-family: &quot;Helvetica Neue&quot;, sans-serif; font-size: 12px; font-weight: 200;" fill="rgb(50, 49, 63)" stroke="none" stroke-width="1px">25k</text><text x="151.66666666666669" y="0" dx="0em" dy="0.95em" style="text-anchor: middle; visibility: inherit; font-family: &quot;Helvetica Neue&quot;, sans-serif; font-size: 12px; font-weight: 200;" fill="rgb(50, 49, 63)" stroke="none" stroke-width="1px">30k</text><text x="173.33333333333331" y="0" dx="0em" dy="0.95em" style="text-anchor: middle; visibility: hidden; font-family: &quot;Helvetica Neue&quot;, sans-serif; font-size: 12px; font-weight: 200;" fill="rgb(50, 49, 63)" stroke="none" stroke-width="1px">35k</text><text x="195" y="0" dx="0em" dy="0.95em" style="text-anchor: middle; visibility: inherit; font-family: &quot;Helvetica Neue&quot;, sans-serif; font-size: 12px; font-weight: 200;" fill="rgb(50, 49, 63)" stroke="none" stroke-width="1px">40k</text><text x="216.66666666666669" y="0" dx="0em" dy="0.95em" style="text-anchor: middle; visibility: hidden; font-family: &quot;Helvetica Neue&quot;, sans-serif; font-size: 12px; font-weight: 200;" fill="rgb(50, 49, 63)" stroke="none" stroke-width="1px">45k</text><text x="238.33333333333331" y="0" dx="0em" dy="0.95em" style="text-anchor: middle; visibility: inherit; font-family: &quot;Helvetica Neue&quot;, sans-serif; font-size: 12px; font-weight: 200;" fill="rgb(50, 49, 63)" stroke="none" stroke-width="1px">50k</text><text x="260" y="0" dx="0em" dy="0.95em" style="text-anchor: middle; visibility: hidden; font-family: &quot;Helvetica Neue&quot;, sans-serif; font-size: 12px; font-weight: 200;" fill="rgb(50, 49, 63)" stroke="none" stroke-width="1px">55k</text></g><line x1="0" y1="0" x2="260" y2="0" fill="rgb(0, 0, 0)" stroke="rgb(204, 204, 204)" stroke-width="1px"></line></g></g></g></g></svg>