<svg viewBox="0 0 330 200" xmlns="http://www.w3.org/2000/svg"><g><g><g><g><g><line x1="82" y1="178" x2="77" y2="178" style="visibility: inherit;" fill="rgb(0, 0, 0)" stroke="rgb(204, 204, 204)" stroke-width="1px"></line><line x1="82" y1="163.16666666666666" x2="77" y2="163.16666666666666" style="visibility: inherit;" fill="rgb(0, 0, 0)" stroke="rgb(204, 204, 204)" stroke-width="1px"></line><line x1="82" y1="148.33333333333334" x2="77" y2="148.33333333333334" style="visibility: inherit;" fill="rgb(0, 0, 0)" stroke="rgb(204, 204, 204)" stroke-width="1px"></line><line x1="82" y1="133.5" x2="77" y2="133.5" style="visibility: inherit;" fill="rgb(0, 0, 0)" stroke="rgb(204, 204, 204)" stroke-width="1px"></line><line x1="82" y1="118.66666666666667" x2="77" y2="118.66666666666667" style="visibility: inherit;" fill="rgb(0, 0, 0)" stroke="rgb(204, 204, 204)" stroke-width="1px"></line><line x1="82" y1="103.83333333333333" x2="77" y2="103.83333333333333" style="visibility: inherit;" fill="rgb(0, 0, 0)" stroke="rgb(204, 204, 204)" stroke-width="1px"></line><line x1="82" y1="89" x2="77" y2="89" style="visibility: inherit;" fill="rgb(0, 0, 0)" stroke="rgb(204, 204, 204)" stroke-width="1px"></line><line x1="82" y1="74.16666666666666" x2="77" y2="74.16666666666666" style="visibility: inherit;" fill="rgb(0, 0, 0)" stroke="rgb(204, 204, 204)" stroke-width="1px"></line><line x1="82" y1="59.33333333333334" x2="77" y2="59.33333333333334" style="visibility: inherit;" fill="rgb(0, 0, 0)" stroke="rgb(204, 204, 204)" stroke-width="1px"></line><line x1="82" y1="44.49999999999997" x2="77" y2="44.49999999999997" style="visibility: inherit;" fill="rgb(0, 0, 0)" stroke="rgb(204, 204, 204)" stroke-width="1px"></line><line x1="82" y1="29.666666666666686" x2="77" y2="29.666666666666686" style="visibility: inherit;" fill="rgb(0, 0, 0)" stroke="rgb(204, 204, 204)" stroke-width="1px"></line><line x1="82" y1="14.833333333333343" x2="77" y2="14.833333333333343" style="visibility: inherit;" fill="rgb(0, 0, 0)" stroke="rgb(204, 204, 204)" stroke-width="1px"></line><line x1="82" y1="0" x2="77" y2="0" style="visibility: inherit;" fill="rgb(0, 0, 0)" stroke="rgb(204, 204, 204)" stroke-width="1px"></line></g><g transform="translate(72, 0)"><text x="0" y="178" dx="0em" dy="0.3em" style="text-anchor: end; visibility: hidden; font-family: &quot;Helvetica Neue&quot;, sans-serif; font-size: 12px; font-weight: 200;" fill="rgb(50, 49, 63)" stroke="none" stroke-width="1px">-5e-4</text><text x="0" y="163.16666666666666" dx="0em" dy="0.3em" style="text-anchor: end; visibility: inherit; font-family: &quot;Helvetica Neue&quot;, sans-serif; font-size: 12px; font-weight: 200;" fill="rgb(50, 49, 63)" stroke="none" stroke-width="1px">0</text><text x="0" y="148.33333333333334" dx="0em" dy="0.3em" style="text-anchor: end; visibility: hidden; font-family: &quot;Helvetica Neue&quot;, sans-serif; font-size: 12px; font-weight: 200;" fill="rgb(50, 49, 63)" stroke="none" stroke-width="1px">5e-4</text><text x="0" y="133.5" dx="0em" dy="0.3em" style="text-anchor: end; visibility: inherit; font-family: &quot;Helvetica Neue&quot;, sans-serif; font-size: 12px; font-weight: 200;" fill="rgb(50, 49, 63)" stroke="none" stroke-width="1px">1e-3</text><text x="0" y="118.66666666666667" dx="0em" dy="0.3em" style="text-anchor: end; visibility: hidden; font-family: &quot;Helvetica Neue&quot;, sans-serif; font-size: 12px; font-weight: 200;" fill="rgb(50, 49, 63)" stroke="none" stroke-width="1px">1.5e-3</text><text x="0" y="103.83333333333333" dx="0em" dy="0.3em" style="text-anchor: end; visibility: inherit; font-family: &quot;Helvetica Neue&quot;, sans-serif; font-size: 12px; font-weight: 200;" fill="rgb(50, 49, 63)" stroke="none" stroke-width="1px">2e-3</text><text x="0" y="89" dx="0em" dy="0.3em" style="text-anchor: end; visibility: hidden; font-family: &quot;Helvetica Neue&quot;, sans-serif; font-size: 12px; font-weight: 200;" fill="rgb(50, 49, 63)" stroke="none" stroke-width="1px">2.5e-3</text><text x="0" y="74.16666666666666" dx="0em" dy="0.3em" style="text-anchor: end; visibility: inherit; font-family: &quot;Helvetica Neue&quot;, sans-serif; font-size: 12px; font-weight: 200;" fill="rgb(50, 49, 63)" stroke="none" stroke-width="1px">3e-3</text><text x="0" y="59.33333333333334" dx="0em" dy="0.3em" style="text-anchor: end; visibility: hidden; font-family: &quot;Helvetica Neue&quot;, sans-serif; font-size: 12px; font-weight: 200;" fill="rgb(50, 49, 63)" stroke="none" stroke-width="1px">3.5e-3</text><text x="0" y="44.49999999999997" dx="0em" dy="0.3em" style="text-anchor: end; visibility: inherit; font-family: &quot;Helvetica Neue&quot;, sans-serif; font-size: 12px; font-weight: 200;" fill="rgb(50, 49, 63)" stroke="none" stroke-width="1px">4e-3</text><text x="0" y="29.666666666666686" dx="0em" dy="0.3em" style="text-anchor: end; visibility: hidden; font-family: &quot;Helvetica Neue&quot;, sans-serif; font-size: 12px; font-weight: 200;" fill="rgb(50, 49, 63)" stroke="none" stroke-width="1px">4.5e-3</text><text x="0" y="14.833333333333343" dx="0em" dy="0.3em" style="text-anchor: end; visibility: inherit; font-family: &quot;Helvetica Neue&quot;, sans-serif; font-size: 12px; font-weight: 200;" fill="rgb(50, 49, 63)" stroke="none" stroke-width="1px">5e-3</text><text x="0" y="0" dx="0em" dy="0.3em" style="text-anchor: end; visibility: hidden; font-family: &quot;Helvetica Neue&quot;, sans-serif; font-size: 12px; font-weight: 200;" fill="rgb(50, 49, 63)" stroke="none" stroke-width="1px">5.5e-3</text></g><line x1="82" y1="0" x2="82" y2="178" fill="rgb(0, 0, 0)" stroke="rgb(204, 204, 204)" stroke-width="1px"></line></g></g><g transform="translate(82, 0)" clip-path="url(#clip_0)"><clipPath id="clip_0"><rect width="248" height="178"></rect></clipPath><g><g><g><line x1="0" y1="0" x2="0" y2="178" fill="rgb(0, 0, 0)" stroke="rgb(60, 60, 60)" stroke-width="1px" opacity="0.25"></line><line x1="20.666666666666664" y1="0" x2="20.666666666666664" y2="178" fill="rgb(0, 0, 0)" stroke="rgb(60, 60, 60)" stroke-width="1px" opacity="0.25"></line><line x1="41.33333333333333" y1="0" x2="41.33333333333333" y2="178" fill="rgb(0, 0, 0)" stroke="rgb(60, 60, 60)" stroke-width="1px" opacity="0.25"></line><line x1="62" y1="0" x2="62" y2="178" fill="rgb(0, 0, 0)" stroke="rgb(60, 60, 60)" stroke-width="1px" opacity="0.25"></line><line x1="82.66666666666666" y1="0" x2="82.66666666666666" y2="178" fill="rgb(0, 0, 0)" stroke="rgb(60, 60, 60)" stroke-width="1px" opacity="0.25"></line><line x1="103.33333333333334" y1="0" x2="103.33333333333334" y2="178" fill="rgb(0, 0, 0)" stroke="rgb(60, 60, 60)" stroke-width="1px" opacity="0.25"></line><line x1="124" y1="0" x2="124" y2="178" fill="rgb(0, 0, 0)" stroke="rgb(60, 60, 60)" stroke-width="1px" opacity="0.25"></line><line x1="144.66666666666669" y1="0" x2="144.66666666666669" y2="178" fill="rgb(0, 0, 0)" stroke="rgb(60, 60, 60)" stroke-width="1px" opacity="0.25"></line><line x1="165.33333333333331" y1="0" x2="165.33333333333331" y2="178" fill="rgb(0, 0, 0)" stroke="rgb(60, 60, 60)" stroke-width="1px" opacity="0.25"></line><line x1="186" y1="0" x2="186" y2="178" fill="rgb(0, 0, 0)" stroke="rgb(60, 60, 60)" stroke-width="1px" opacity="0.25"></line><line x1="206.66666666666669" y1="0" x2="206.66666666666669" y2="178" fill="rgb(0, 0, 0)" stroke="rgb(60, 60, 60)" stroke-width="1px" opacity="0.25"></line><line x1="227.33333333333331" y1="0" x2="227.33333333333331" y2="178" fill="rgb(0, 0, 0)" stroke="rgb(60, 60, 60)" stroke-width="1px" opacity="0.25"></line><line x1="248" y1="0" x2="248" y2="178" fill="rgb(0, 0, 0)" stroke="rgb(60, 60, 60)" stroke-width="1px" opacity="0.25"></line></g><g><line x1="0" y1="178" x2="248" y2="178" fill="rgb(0, 0, 0)" stroke="rgb(60, 60, 60)" stroke-width="1px" opacity="0.25"></line><line x1="0" y1="163.16666666666666" x2="248" y2="163.16666666666666" fill="rgb(0, 0, 0)" stroke="rgb(60, 60, 60)" stroke-width="1px" opacity="0.25"></line><line x1="0" y1="148.33333333333334" x2="248" y2="148.33333333333334" fill="rgb(0, 0, 0)" stroke="rgb(60, 60, 60)" stroke-width="1px" opacity="0.25"></line><line x1="0" y1="133.5" x2="248" y2="133.5" fill="rgb(0, 0, 0)" stroke="rgb(60, 60, 60)" stroke-width="1px" opacity="0.25"></line><line x1="0" y1="118.66666666666667" x2="248" y2="118.66666666666667" fill="rgb(0, 0, 0)" stroke="rgb(60, 60, 60)" stroke-width="1px" opacity="0.25"></line><line x1="0" y1="103.83333333333333" x2="248" y2="103.83333333333333" fill="rgb(0, 0, 0)" stroke="rgb(60, 60, 60)" stroke-width="1px" opacity="0.25"></line><line x1="0" y1="89" x2="248" y2="89" fill="rgb(0, 0, 0)" stroke="rgb(60, 60, 60)" stroke-width="1px" opacity="0.25"></line><line x1="0" y1="74.16666666666666" x2="248" y2="74.16666666666666" fill="rgb(0, 0, 0)" stroke="rgb(60, 60, 60)" stroke-width="1px" opacity="0.25"></line><line x1="0" y1="59.33333333333334" x2="248" y2="59.33333333333334" fill="rgb(0, 0, 0)" stroke="rgb(60, 60, 60)" stroke-width="1px" opacity="0.25"></line><line x1="0" y1="44.49999999999997" x2="248" y2="44.49999999999997" fill="rgb(0, 0, 0)" stroke="rgb(60, 60, 60)" stroke-width="1px" opacity="0.25"></line><line x1="0" y1="29.666666666666686" x2="248" y2="29.666666666666686" fill="rgb(0, 0, 0)" stroke="rgb(60, 60, 60)" stroke-width="1px" opacity="0.25"></line><line x1="0" y1="14.833333333333343" x2="248" y2="14.833333333333343" fill="rgb(0, 0, 0)" stroke="rgb(60, 60, 60)" stroke-width="1px" opacity="0.25"></line><line x1="0" y1="0" x2="248" y2="0" fill="rgb(0, 0, 0)" stroke="rgb(60, 60, 60)" stroke-width="1px" opacity="0.25"></line></g></g></g><g><g><line x1="0" y1="163.16666666666666" x2="248" y2="163.16666666666666" fill="rgb(0, 0, 0)" stroke="rgb(153, 153, 153)" stroke-width="1.5px"></line></g></g><g><g><line x1="20.666666666666664" y1="0" x2="20.666666666666664" y2="178" fill="rgb(0, 0, 0)" stroke="rgb(153, 153, 153)" stroke-width="1.5px"></line></g></g><g><g><g><g><g><path stroke="rgb(0, 119, 187)" stroke-width="2px" d="M21.683466666666668,163.16666666666666L22.7292,163.16666666666666L23.795599999999997,163.16666666666666L24.8744,163.16666666666666L25.9904,163.16666666666666L27.127066666666668,163.16666666666666L28.2596,163.16666666666666L29.404533333333333,163.16666666666666L30.545333333333332,163.16666666666666L31.706799999999998,163.16666666666666L32.86,163.16666666666666L33.95533333333333,163.16666666666666L35.046533333333336,163.16666666666666L36.146,163.16666666666666L37.2248,163.16666666666666L38.328399999999995,163.16666666666666L39.41546666666667,163.10666245022566L40.510799999999996,163.12404113757702L41.6144,162.97350887673852L42.7056,163.00149336718286L43.763733333333334,163.04926547069664L44.834266666666664,163.0832131206092L45.904799999999994,163.10458597422317L46.98773333333334,163.02322066447545L48.06653333333333,148.91391719775612L49.14533333333333,152.88841408703075L50.199333333333335,155.71843898719422L51.25333333333333,143.7221576713876L52.29493333333333,149.34190517471154L53.32413333333333,153.33740501286303L54.40293333333333,156.17813430621925L55.4404,158.13165331458748L56.510933333333334,155.51173806451223L57.77573333333333,153.14614531555716L59.06946666666666,155.97893395066492L60.3756,155.96019387007934L61.7892,148.2115251203851L63.2028,151.85173992978977L64.604,152.56910467842027L66.15813333333332,151.80453814157818L67.7412,147.48486141376216L69.35733333333333,147.70089009092138L70.98586666666667,149.08159134645484L72.602,151.83260911444194L74.20573333333334,151.95943174767416L75.83013333333334,150.82766098621613L77.45866666666667,150.35135800752278L79.09133333333334,153.75460105151046L80.71986666666668,156.26662985061898L82.35666666666667,158.08959582821117L83.97693333333333,156.39677056678968L85.60133333333333,158.07653777883527L87.22573333333334,157.35400143673345L88.846,146.15823017474136L90.4704,148.02042689358748L92.09066666666666,141.52034015638992L93.71093333333334,135.569936880603L95.31880000000001,134.34997244265648L96.93906666666668,124.98769914385102L98.55933333333333,127.82425280730666L99.6712,127.93832323343952L100.7624,130.40923032594569L101.87013333333333,130.2482366730179L102.96133333333334,129.32079474887243L104.0732,110.45841737587392L105.18506666666666,112.70346953304329L106.30106666666666,106.29253165360709L107.41706666666666,112.02674873401108L108.51653333333333,107.37401218807011L109.6284,109.13246309091355L110.74026666666667,102.04645515792065L111.83973333333334,103.70297984358675L112.93093333333333,101.68494574313864L114.0304,107.96306972855928L115.11746666666667,112.7385563766503L116.21693333333334,114.63983531730385L117.30399999999999,110.9718792933488L118.40346666666666,101.69359511016236L119.50706666666666,109.32392297441815L120.98266666666667,108.56139379381436L122.4748,86.73251559002658L123.97106666666667,82.54691832991796L125.49213333333333,72.89171806403586L127.0132,75.57645701120556L128.52186666666665,72.09014334247543L130.04706666666667,62.48296198160995L131.56813333333332,66.72039302791015L133.08506666666665,70.96024827695729L134.34986666666666,63.59333941751366L135.71386666666666,69.64491628833181L137.09026666666665,72.32507804017386L138.47493333333333,67.82847675979764L139.86373333333333,63.93621030984687L141.25253333333333,34.841690706212034L142.62066666666666,33.98750541804466L143.99293333333333,34.16102607741274L145.37346666666664,46.895408768774075L146.75813333333332,64.00905054003789L148.14280000000002,70.04450952088304L149.5192,66.1640280646362L150.9038666666667,65.1869047221335L152.272,71.73178337198155L153.6484,74.9615613305752L155.03719999999998,71.28515638066384L156.43426666666667,66.92877465157406L157.82306666666665,55.48523148169184L159.22013333333334,46.95784623215491L160.60479999999998,58.961786634969116L162.006,71.79207987023868L163.39893333333333,78.81665272225518L164.80013333333332,86.55084159995128L166.20546666666667,95.67517110173436L167.60666666666665,95.52293361615608L168.99133333333333,87.795030533386L170.4752,59.94952282165033L172.03346666666667,65.06994360386845L173.62893333333335,68.1698667125228L175.21613333333335,68.13384640868064L176.762,55.63517073063278L178.3244,47.48366561198068L179.88680000000002,37.253032406092785L181.47813333333335,55.364071919489206L183.07773333333333,68.41649406582387L184.68146666666667,65.85852842970364L186.28106666666667,77.24252066314948L187.85999999999999,65.999628559564L189.46786666666668,71.52276903339384L191.0716,64.25311467959001L192.69186666666667,60.71954783865819L194.308,50.4336595228023L195.89933333333335,43.58562219065351L197.5196,49.97726346438179L199.13160000000002,32.621712124817265L200.74773333333334,30.106904900066155L202.35559999999998,36.806671973321954L203.9552,35.87558350599721L205.5796,44.51885949611514L206.70386666666667,40.97550040095132L207.76613333333333,55.79854016899438L208.84906666666666,53.1696050124673L209.9196,61.594873143355244L210.99426666666668,43.40455392152538L212.0648,42.44090136425058L213.14773333333335,32.71329779808326L214.2224,29.166514194207394L215.28053333333332,29.257226065522474L216.35933333333332,32.05418155791358L217.434,53.19487523863397L218.49626666666666,64.63420345149652L219.57506666666666,58.04255946758822L220.6538666666667,64.35202023672834L221.7244,51.358457127210826L222.79493333333332,53.79361596080622L223.86133333333333,62.494441895413374L224.94013333333334,45.431015819445804L226.03133333333332,37.96045095433681L227.106,35.09633546056955L228.16,29.494382754600423L229.2264,28.94189325198772" style="fill: none;" fill="none"></path></g></g></g></g><g opacity="0.2"><g><g><g><path stroke="rgb(0, 119, 187)" stroke-width="2px" d="M21.683466666666668,163.16666666666666L22.7292,163.16666666666666L23.795599999999997,163.16666666666666L24.8744,163.16666666666666L25.9904,163.16666666666666L27.127066666666668,163.16666666666666L28.2596,163.16666666666666L29.404533333333333,163.16666666666666L30.545333333333332,163.16666666666666L31.706799999999998,163.16666666666666L32.86,163.16666666666666L33.95533333333333,163.16666666666666L35.046533333333336,163.16666666666666L36.146,163.16666666666666L37.2248,163.16666666666666L38.328399999999995,163.16666666666666L39.41546666666667,162.9596692236652L40.510799999999996,163.16666666666666L41.6144,162.6039667245253L42.7056,163.07023548494485L43.763733333333334,163.16666666666666L44.834266666666664,163.16666666666666L45.904799999999994,163.1571386602508L46.98773333333334,162.8231235273391L48.06653333333333,114.21176964975893L49.14533333333333,162.66456519477651L50.199333333333335,162.67990746150704L51.25333333333333,114.21176964975893L52.29493333333333,163.16666666666666L53.32413333333333,163.16666666666666L54.40293333333333,163.16666666666666L55.4404,162.9375926948196L56.510933333333334,149.06631986509697L57.77573333333333,147.32637129429108L59.06946666666666,162.94811803083334L60.3756,155.9140896825896L61.7892,129.14827989041805L63.2028,160.80739451607224L64.604,154.33396674669348L66.15813333333332,149.9235488700991L67.7412,136.857572468929L69.35733333333333,148.2323650380907L70.98586666666667,152.47840104601346L72.602,158.60068107951278L74.20573333333334,152.27144166066623L75.83013333333334,148.0432705443042L77.45866666666667,149.1795539733333L79.09133333333334,162.12728458181178L80.71986666666668,162.44674174545312L82.35666666666667,162.57447035615527L83.97693333333333,152.2320691354107L85.60133333333333,162.20911374583375L87.22573333333334,155.57641206285916L88.846,118.61430887691677L90.4704,152.60181739126952L92.09066666666666,125.5287773978586L93.71093333333334,120.93070951849222L95.31880000000001,131.3486066563055L96.93906666666668,101.95456316322088L98.55933333333333,134.80276371057457L99.6712,128.2189601638044L100.7624,136.48817475900674L101.87013333333333,129.852158862787L102.96133333333334,127.03909506804L104.0732,64.05305298914513L105.18506666666666,118.22676393917452L106.30106666666666,90.52029348226885L107.41706666666666,126.13411324502279L108.51653333333333,95.92731431995828L109.6284,113.45861738796036L110.74026666666667,84.61340449998775L111.83973333333334,107.77837448536108L112.93093333333333,96.72016288712621L114.0304,123.40855814920117L115.11746666666667,124.48724498134106L116.21693333333334,119.31737624046703L117.30399999999999,101.9479459611078L118.40346666666666,78.86708973223963L119.50706666666666,128.09611367154866L120.98266666666667,106.68541369897623L122.4748,33.02894326175252L123.97106666666667,72.24948008793095L125.49213333333333,49.13792087013522L127.0132,82.18147220648825L128.52186666666665,63.51308791525662L130.04706666666667,38.84730126336214L131.56813333333332,77.14535314527652L133.08506666666665,81.39117243637642L134.34986666666666,45.46921416123706L135.71386666666666,84.53305177328488L137.09026666666665,78.91883238467076L138.47493333333333,56.7659040596336L139.86373333333333,54.36042675996819L141.25253333333333,-36.73686790342134L142.62066666666666,31.886032269646705L143.99293333333333,34.58792292450863L145.37346666666664,78.22463400599858L146.75813333333332,106.11216230255862L148.14280000000002,84.89299165022871L149.5192,56.617238045980514L150.9038666666667,62.782978436599166L152.272,87.8335436489433L153.6484,82.90748565085232L155.03719999999998,62.240436936418206L156.43426666666667,56.211171158899845L157.82306666666665,27.33173946167031L159.22013333333334,25.978708126892627L160.60479999999998,88.49397219344974L162.006,103.35726495770116L163.39893333333333,96.09856032704313L164.80013333333332,105.57855195303758L166.20546666666667,118.12291600058477L167.60666666666665,95.14839779523511L168.99133333333333,68.78278454082707L170.4752,-8.556207223484932L172.03346666666667,77.66724179126322L173.62893333333335,75.79632114246488L175.21613333333335,68.04522898296514L176.762,24.885833681871475L178.3244,27.429270666092606L179.88680000000002,12.083550712714583L181.47813333333335,99.92098919985195L183.07773333333333,100.52816239123543L184.68146666666667,59.56540189931789L186.28106666666667,105.24950501602143L187.85999999999999,38.33977982029316L189.46786666666668,85.11084127177796L191.0716,46.368255698432506L192.69186666666667,52.02623979747294L194.308,25.12823878725368L195.89933333333335,26.73802861571309L197.5196,65.70202798210084L199.13160000000002,-10.076547399163246L200.74773333333334,23.919957021872193L202.35559999999998,53.28948992863296L203.9552,33.58491257081428L205.5796,65.78311288356781L206.70386666666667,32.258101381361456L207.76613333333333,92.26629544608295L208.84906666666666,46.701878727724136L209.9196,82.32278193595508L210.99426666666668,-1.347407901038764L212.0648,40.07011600707966L213.14773333333335,8.781373453636945L214.2224,20.440690172215284L215.28053333333332,29.480396101872117L216.35933333333332,38.935272751996905L217.434,105.20537076455851L218.49626666666666,92.77732580217223L219.57506666666666,41.82574675977227L220.6538666666667,79.87460365146399L221.7244,19.39159425223866L222.79493333333332,59.78461226075886L223.86133333333333,83.90028009439507L224.94013333333334,3.451445092757524L226.03133333333332,19.581310403843702L227.106,28.05001671984789L228.16,15.712416062752396L229.2264,27.582654371857615" style="fill: none;" fill="none"></path></g></g></g></g></g></g><g transform="translate(82, 178)" clip-path="url(#clip_1)"><clipPath id="clip_1"><rect width="248" height="22"></rect></clipPath><g><g><line x1="0" y1="0" x2="0" y2="5" style="visibility: inherit;" fill="rgb(0, 0, 0)" stroke="rgb(204, 204, 204)" stroke-width="1px"></line><line x1="20.666666666666664" y1="0" x2="20.666666666666664" y2="5" style="visibility: inherit;" fill="rgb(0, 0, 0)" stroke="rgb(204, 204, 204)" stroke-width="1px"></line><line x1="41.33333333333333" y1="0" x2="41.33333333333333" y2="5" style="visibility: inherit;" fill="rgb(0, 0, 0)" stroke="rgb(204, 204, 204)" stroke-width="1px"></line><line x1="62" y1="0" x2="62" y2="5" style="visibility: inherit;" fill="rgb(0, 0, 0)" stroke="rgb(204, 204, 204)" stroke-width="1px"></line><line x1="82.66666666666666" y1="0" x2="82.66666666666666" y2="5" style="visibility: inherit;" fill="rgb(0, 0, 0)" stroke="rgb(204, 204, 204)" stroke-width="1px"></line><line x1="103.33333333333334" y1="0" x2="103.33333333333334" y2="5" style="visibility: inherit;" fill="rgb(0, 0, 0)" stroke="rgb(204, 204, 204)" stroke-width="1px"></line><line x1="124" y1="0" x2="124" y2="5" style="visibility: inherit;" fill="rgb(0, 0, 0)" stroke="rgb(204, 204, 204)" stroke-width="1px"></line><line x1="144.66666666666669" y1="0" x2="144.66666666666669" y2="5" style="visibility: inherit;" fill="rgb(0, 0, 0)" stroke="rgb(204, 204, 204)" stroke-width="1px"></line><line x1="165.33333333333331" y1="0" x2="165.33333333333331" y2="5" style="visibility: inherit;" fill="rgb(0, 0, 0)" stroke="rgb(204, 204, 204)" stroke-width="1px"></line><line x1="186" y1="0" x2="186" y2="5" style="visibility: inherit;" fill="rgb(0, 0, 0)" stroke="rgb(204, 204, 204)" stroke-width="1px"></line><line x1="206.66666666666669" y1="0" x2="206.66666666666669" y2="5" style="visibility: inherit;" fill="rgb(0, 0, 0)" stroke="rgb(204, 204, 204)" stroke-width="1px"></line><line x1="227.33333333333331" y1="0" x2="227.33333333333331" y2="5" style="visibility: inherit;" fill="rgb(0, 0, 0)" stroke="rgb(204, 204, 204)" stroke-width="1px"></line><line x1="248" y1="0" x2="248" y2="5" style="visibility: inherit;" fill="rgb(0, 0, 0)" stroke="rgb(204, 204, 204)" stroke-width="1px"></line></g><g transform="translate(0, 8)"><text x="0" y="0" dx="0em" dy="0.95em" style="text-anchor: middle; visibility: hidden; font-family: &quot;Helvetica Neue&quot;, sans-serif; font-size: 12px; font-weight: 200;" fill="rgb(50, 49, 63)" stroke="none" stroke-width="1px">-5k</text><text x="20.666666666666664" y="0" dx="0em" dy="0.95em" style="text-anchor: middle; visibility: inherit; font-family: &quot;Helvetica Neue&quot;, sans-serif; font-size: 12px; font-weight: 200;" fill="rgb(50, 49, 63)" stroke="none" stroke-width="1px">0</text><text x="41.33333333333333" y="0" dx="0em" dy="0.95em" style="text-anchor: middle; visibility: hidden; font-family: &quot;Helvetica Neue&quot;, sans-serif; font-size: 12px; font-weight: 200;" fill="rgb(50, 49, 63)" stroke="none" stroke-width="1px">5k</text><text x="62" y="0" dx="0em" dy="0.95em" style="text-anchor: middle; visibility: inherit; font-family: &quot;Helvetica Neue&quot;, sans-serif; font-size: 12px; font-weight: 200;" fill="rgb(50, 49, 63)" stroke="none" stroke-width="1px">10k</text><text x="82.66666666666666" y="0" dx="0em" dy="0.95em" style="text-anchor: middle; visibility: hidden; font-family: &quot;Helvetica Neue&quot;, sans-serif; font-size: 12px; font-weight: 200;" fill="rgb(50, 49, 63)" stroke="none" stroke-width="1px">15k</text><text x="103.33333333333334" y="0" dx="0em" dy="0.95em" style="text-anchor: middle; visibility: inherit; font-family: &quot;Helvetica Neue&quot;, sans-serif; font-size: 12px; font-weight: 200;" fill="rgb(50, 49, 63)" stroke="none" stroke-width="1px">20k</text><text x="124" y="0" dx="0em" dy="0.95em" style="text-anchor: middle; visibility: hidden; font-family: &quot;Helvetica Neue&quot;, sans-serif; font-size: 12px; font-weight: 200;" fill="rgb(50, 49, 63)" stroke="none" stroke-width="1px">25k</text><text x="144.66666666666669" y="0" dx="0em" dy="0.95em" style="text-anchor: middle; visibility: inherit; font-family: &quot;Helvetica Neue&quot;, sans-serif; font-size: 12px; font-weight: 200;" fill="rgb(50, 49, 63)" stroke="none" stroke-width="1px">30k</text><text x="165.33333333333331" y="0" dx="0em" dy="0.95em" style="text-anchor: middle; visibility: hidden; font-family: &quot;Helvetica Neue&quot;, sans-serif; font-size: 12px; font-weight: 200;" fill="rgb(50, 49, 63)" stroke="none" stroke-width="1px">35k</text><text x="186" y="0" dx="0em" dy="0.95em" style="text-anchor: middle; visibility: inherit; font-family: &quot;Helvetica Neue&quot;, sans-serif; font-size: 12px; font-weight: 200;" fill="rgb(50, 49, 63)" stroke="none" stroke-width="1px">40k</text><text x="206.66666666666669" y="0" dx="0em" dy="0.95em" style="text-anchor: middle; visibility: hidden; font-family: &quot;Helvetica Neue&quot;, sans-serif; font-size: 12px; font-weight: 200;" fill="rgb(50, 49, 63)" stroke="none" stroke-width="1px">45k</text><text x="227.33333333333331" y="0" dx="0em" dy="0.95em" style="text-anchor: middle; visibility: inherit; font-family: &quot;Helvetica Neue&quot;, sans-serif; font-size: 12px; font-weight: 200;" fill="rgb(50, 49, 63)" stroke="none" stroke-width="1px">50k</text><text x="248" y="0" dx="0em" dy="0.95em" style="text-anchor: middle; visibility: hidden; font-family: &quot;Helvetica Neue&quot;, sans-serif; font-size: 12px; font-weight: 200;" fill="rgb(50, 49, 63)" stroke="none" stroke-width="1px">55k</text></g><line x1="0" y1="0" x2="248" y2="0" fill="rgb(0, 0, 0)" stroke="rgb(204, 204, 204)" stroke-width="1px"></line></g></g></g></g></svg>