<svg viewBox="0 0 330 200" xmlns="http://www.w3.org/2000/svg"><g><g><g><g><g><line x1="70" y1="178" x2="65" y2="178" style="visibility: inherit;" fill="rgb(0, 0, 0)" stroke="rgb(204, 204, 204)" stroke-width="1px"></line><line x1="70" y1="158.22222222222223" x2="65" y2="158.22222222222223" style="visibility: inherit;" fill="rgb(0, 0, 0)" stroke="rgb(204, 204, 204)" stroke-width="1px"></line><line x1="70" y1="138.44444444444446" x2="65" y2="138.44444444444446" style="visibility: inherit;" fill="rgb(0, 0, 0)" stroke="rgb(204, 204, 204)" stroke-width="1px"></line><line x1="70" y1="118.66666666666667" x2="65" y2="118.66666666666667" style="visibility: inherit;" fill="rgb(0, 0, 0)" stroke="rgb(204, 204, 204)" stroke-width="1px"></line><line x1="70" y1="98.88888888888889" x2="65" y2="98.88888888888889" style="visibility: inherit;" fill="rgb(0, 0, 0)" stroke="rgb(204, 204, 204)" stroke-width="1px"></line><line x1="70" y1="79.1111111111111" x2="65" y2="79.1111111111111" style="visibility: inherit;" fill="rgb(0, 0, 0)" stroke="rgb(204, 204, 204)" stroke-width="1px"></line><line x1="70" y1="59.333333333333314" x2="65" y2="59.333333333333314" style="visibility: inherit;" fill="rgb(0, 0, 0)" stroke="rgb(204, 204, 204)" stroke-width="1px"></line><line x1="70" y1="39.55555555555557" x2="65" y2="39.55555555555557" style="visibility: inherit;" fill="rgb(0, 0, 0)" stroke="rgb(204, 204, 204)" stroke-width="1px"></line><line x1="70" y1="19.77777777777777" x2="65" y2="19.77777777777777" style="visibility: inherit;" fill="rgb(0, 0, 0)" stroke="rgb(204, 204, 204)" stroke-width="1px"></line><line x1="70" y1="0" x2="65" y2="0" style="visibility: inherit;" fill="rgb(0, 0, 0)" stroke="rgb(204, 204, 204)" stroke-width="1px"></line></g><g transform="translate(60, 0)"><text x="0" y="178" dx="0em" dy="0.3em" style="text-anchor: end; visibility: hidden; font-family: &quot;Helvetica Neue&quot;, sans-serif; font-size: 12px; font-weight: 200;" fill="rgb(50, 49, 63)" stroke="none" stroke-width="1px">-0.01</text><text x="0" y="158.22222222222223" dx="0em" dy="0.3em" style="text-anchor: end; visibility: inherit; font-family: &quot;Helvetica Neue&quot;, sans-serif; font-size: 12px; font-weight: 200;" fill="rgb(50, 49, 63)" stroke="none" stroke-width="1px">0</text><text x="0" y="138.44444444444446" dx="0em" dy="0.3em" style="text-anchor: end; visibility: hidden; font-family: &quot;Helvetica Neue&quot;, sans-serif; font-size: 12px; font-weight: 200;" fill="rgb(50, 49, 63)" stroke="none" stroke-width="1px">0.01</text><text x="0" y="118.66666666666667" dx="0em" dy="0.3em" style="text-anchor: end; visibility: inherit; font-family: &quot;Helvetica Neue&quot;, sans-serif; font-size: 12px; font-weight: 200;" fill="rgb(50, 49, 63)" stroke="none" stroke-width="1px">0.02</text><text x="0" y="98.88888888888889" dx="0em" dy="0.3em" style="text-anchor: end; visibility: hidden; font-family: &quot;Helvetica Neue&quot;, sans-serif; font-size: 12px; font-weight: 200;" fill="rgb(50, 49, 63)" stroke="none" stroke-width="1px">0.03</text><text x="0" y="79.1111111111111" dx="0em" dy="0.3em" style="text-anchor: end; visibility: inherit; font-family: &quot;Helvetica Neue&quot;, sans-serif; font-size: 12px; font-weight: 200;" fill="rgb(50, 49, 63)" stroke="none" stroke-width="1px">0.04</text><text x="0" y="59.333333333333314" dx="0em" dy="0.3em" style="text-anchor: end; visibility: hidden; font-family: &quot;Helvetica Neue&quot;, sans-serif; font-size: 12px; font-weight: 200;" fill="rgb(50, 49, 63)" stroke="none" stroke-width="1px">0.05</text><text x="0" y="39.55555555555557" dx="0em" dy="0.3em" style="text-anchor: end; visibility: inherit; font-family: &quot;Helvetica Neue&quot;, sans-serif; font-size: 12px; font-weight: 200;" fill="rgb(50, 49, 63)" stroke="none" stroke-width="1px">0.06</text><text x="0" y="19.77777777777777" dx="0em" dy="0.3em" style="text-anchor: end; visibility: hidden; font-family: &quot;Helvetica Neue&quot;, sans-serif; font-size: 12px; font-weight: 200;" fill="rgb(50, 49, 63)" stroke="none" stroke-width="1px">0.07</text><text x="0" y="0" dx="0em" dy="0.3em" style="text-anchor: end; visibility: hidden; font-family: &quot;Helvetica Neue&quot;, sans-serif; font-size: 12px; font-weight: 200;" fill="rgb(50, 49, 63)" stroke="none" stroke-width="1px">0.08</text></g><line x1="70" y1="0" x2="70" y2="178" fill="rgb(0, 0, 0)" stroke="rgb(204, 204, 204)" stroke-width="1px"></line></g></g><g transform="translate(70, 0)" clip-path="url(#clip_0)"><clipPath id="clip_0"><rect width="260" height="178"></rect></clipPath><g><g><g><line x1="0" y1="0" x2="0" y2="178" fill="rgb(0, 0, 0)" stroke="rgb(60, 60, 60)" stroke-width="1px" opacity="0.25"></line><line x1="21.666666666666664" y1="0" x2="21.666666666666664" y2="178" fill="rgb(0, 0, 0)" stroke="rgb(60, 60, 60)" stroke-width="1px" opacity="0.25"></line><line x1="43.33333333333333" y1="0" x2="43.33333333333333" y2="178" fill="rgb(0, 0, 0)" stroke="rgb(60, 60, 60)" stroke-width="1px" opacity="0.25"></line><line x1="65" y1="0" x2="65" y2="178" fill="rgb(0, 0, 0)" stroke="rgb(60, 60, 60)" stroke-width="1px" opacity="0.25"></line><line x1="86.66666666666666" y1="0" x2="86.66666666666666" y2="178" fill="rgb(0, 0, 0)" stroke="rgb(60, 60, 60)" stroke-width="1px" opacity="0.25"></line><line x1="108.33333333333334" y1="0" x2="108.33333333333334" y2="178" fill="rgb(0, 0, 0)" stroke="rgb(60, 60, 60)" stroke-width="1px" opacity="0.25"></line><line x1="130" y1="0" x2="130" y2="178" fill="rgb(0, 0, 0)" stroke="rgb(60, 60, 60)" stroke-width="1px" opacity="0.25"></line><line x1="151.66666666666669" y1="0" x2="151.66666666666669" y2="178" fill="rgb(0, 0, 0)" stroke="rgb(60, 60, 60)" stroke-width="1px" opacity="0.25"></line><line x1="173.33333333333331" y1="0" x2="173.33333333333331" y2="178" fill="rgb(0, 0, 0)" stroke="rgb(60, 60, 60)" stroke-width="1px" opacity="0.25"></line><line x1="195" y1="0" x2="195" y2="178" fill="rgb(0, 0, 0)" stroke="rgb(60, 60, 60)" stroke-width="1px" opacity="0.25"></line><line x1="216.66666666666669" y1="0" x2="216.66666666666669" y2="178" fill="rgb(0, 0, 0)" stroke="rgb(60, 60, 60)" stroke-width="1px" opacity="0.25"></line><line x1="238.33333333333331" y1="0" x2="238.33333333333331" y2="178" fill="rgb(0, 0, 0)" stroke="rgb(60, 60, 60)" stroke-width="1px" opacity="0.25"></line><line x1="260" y1="0" x2="260" y2="178" fill="rgb(0, 0, 0)" stroke="rgb(60, 60, 60)" stroke-width="1px" opacity="0.25"></line></g><g><line x1="0" y1="178" x2="260" y2="178" fill="rgb(0, 0, 0)" stroke="rgb(60, 60, 60)" stroke-width="1px" opacity="0.25"></line><line x1="0" y1="158.22222222222223" x2="260" y2="158.22222222222223" fill="rgb(0, 0, 0)" stroke="rgb(60, 60, 60)" stroke-width="1px" opacity="0.25"></line><line x1="0" y1="138.44444444444446" x2="260" y2="138.44444444444446" fill="rgb(0, 0, 0)" stroke="rgb(60, 60, 60)" stroke-width="1px" opacity="0.25"></line><line x1="0" y1="118.66666666666667" x2="260" y2="118.66666666666667" fill="rgb(0, 0, 0)" stroke="rgb(60, 60, 60)" stroke-width="1px" opacity="0.25"></line><line x1="0" y1="98.88888888888889" x2="260" y2="98.88888888888889" fill="rgb(0, 0, 0)" stroke="rgb(60, 60, 60)" stroke-width="1px" opacity="0.25"></line><line x1="0" y1="79.1111111111111" x2="260" y2="79.1111111111111" fill="rgb(0, 0, 0)" stroke="rgb(60, 60, 60)" stroke-width="1px" opacity="0.25"></line><line x1="0" y1="59.333333333333314" x2="260" y2="59.333333333333314" fill="rgb(0, 0, 0)" stroke="rgb(60, 60, 60)" stroke-width="1px" opacity="0.25"></line><line x1="0" y1="39.55555555555557" x2="260" y2="39.55555555555557" fill="rgb(0, 0, 0)" stroke="rgb(60, 60, 60)" stroke-width="1px" opacity="0.25"></line><line x1="0" y1="19.77777777777777" x2="260" y2="19.77777777777777" fill="rgb(0, 0, 0)" stroke="rgb(60, 60, 60)" stroke-width="1px" opacity="0.25"></line><line x1="0" y1="0" x2="260" y2="0" fill="rgb(0, 0, 0)" stroke="rgb(60, 60, 60)" stroke-width="1px" opacity="0.25"></line></g></g></g><g><g><line x1="0" y1="158.22222222222223" x2="260" y2="158.22222222222223" fill="rgb(0, 0, 0)" stroke="rgb(153, 153, 153)" stroke-width="1.5px"></line></g></g><g><g><line x1="21.666666666666664" y1="0" x2="21.666666666666664" y2="178" fill="rgb(0, 0, 0)" stroke="rgb(153, 153, 153)" stroke-width="1.5px"></line></g></g><g><g><g><g><g><path stroke="rgb(0, 119, 187)" stroke-width="2px" d="M22.732666666666667,158.22222222222223L23.828999999999997,158.22222222222223L24.947,158.22222222222223L26.078,158.22222222222223L27.248,158.22222222222223L28.439666666666668,158.22222222222223L29.627,158.22222222222223L30.827333333333332,158.22222222222223L32.02333333333333,158.22222222222223L33.241,158.22222222222223L34.45,158.22222222222223L35.59833333333333,158.22222222222223L36.742333333333335,158.22222222222223L37.894999999999996,158.22222222222223L39.026,158.15401023154192L40.183,158.03762146539142L41.32266666666667,156.76495684725364L42.471,156.64342195065956L43.628,156.62504731946214L44.772,156.61199689988212L45.88133333333333,156.9080744012236L47.00366666666667,156.88103129441555L48.126,156.7939816288384L49.26133333333333,156.73210618357075L50.39233333333333,155.7726018507402L51.52333333333333,154.89475708255412L52.62833333333333,152.80968176245796L53.733333333333334,152.5432108333559L54.82533333333333,154.18452818838284L55.904333333333334,155.35146375310114L57.03533333333333,155.70650229110697L58.123,155.7894200444701L59.245333333333335,153.91596838469064L60.57133333333333,150.85496840541902L61.92766666666667,151.93316809886244L63.297,150.69957203692135L64.779,148.56813170453066L66.26100000000001,140.93962634122704L67.73,132.49414681267555L69.35933333333332,127.99244507961852L71.019,121.71368011681935L72.71333333333334,118.73417078312787L74.42066666666666,115.67493750294943L76.11500000000001,116.66271036104337L77.79633333333334,116.58601571231671L79.49933333333334,117.3713164352767L81.20666666666668,118.90510087620586L82.91833333333334,117.12941173827912L84.62566666666667,116.40161453656489L86.34166666666667,114.6636994845484L88.04033333333334,108.46765003666552L89.74333333333334,106.69886371289671L91.44633333333334,103.7800875147121L93.14500000000001,96.04021941323278L94.848,94.44662149146575L96.54666666666667,90.94047614659188L98.24533333333333,87.43826862592931L99.93100000000001,86.16094438975627L101.62966666666668,82.58996652964935L103.32833333333333,80.05870505695684L104.494,78.38688053256725L105.638,77.70673321628509L106.79933333333334,76.81633211300867L107.94333333333334,75.67473487985761L109.10900000000001,71.62393379101L110.27466666666666,72.52536219845025L111.44466666666666,70.63908150509006L112.61466666666666,70.89130303112516L113.76733333333333,68.6713364969696L114.93299999999999,67.4396594828203L116.09866666666667,63.37412397025672L117.25133333333333,62.90901882428513L118.39533333333333,61.866399900666494L119.548,63.983603633713216L120.68766666666667,65.35332932432233L121.84033333333333,66.82802042718986L122.97999999999999,64.9764136254546L124.13266666666667,63.219204351745475L125.28966666666666,64.34292577423501L126.83666666666667,62.87820183018361L128.401,58.224743894568064L129.96966666666668,57.333922123079034L131.56433333333334,55.89461890330705L133.159,55.14248451190562L134.74066666666667,53.80949393128719L136.33966666666666,53.21153790721081L137.9343333333333,53.701729584281395L139.52466666666666,54.464778140020414L140.85066666666665,53.25984161908974L142.28066666666666,53.081158311994756L143.72366666666665,53.48883322303743L145.17533333333333,52.77705781109481L146.63133333333332,51.62685941016407L148.08733333333333,48.44367278433759L149.52166666666665,48.86942624125379L150.96033333333332,48.44171487328333L152.40766666666664,49.410456691499405L153.85933333333332,50.37814823401827L155.311,50.761064117352916L156.754,48.479924326099706L158.20566666666667,48.529991114174265L159.64,49.480924881390905L161.083,50.05533523184761L162.539,49.51450210458643L164.00366666666667,48.459646974435145L165.45966666666666,44.73094272015183L166.92433333333332,44.260311094477004L168.37599999999998,46.51298546917343L169.845,48.09614616786479L171.30533333333335,50.04619314659536L172.77433333333332,52.48362112223613L174.24766666666667,54.71744854976366L175.71666666666664,54.938857603769506L177.16833333333332,53.54451873055737L178.724,50.21394705186107L180.35766666666666,51.356246241666014L182.03033333333335,51.49039227703754L183.69433333333333,50.618040440033056L185.315,47.835811966520055L186.953,45.789844440064996L188.591,47.491074207940954L190.25933333333333,48.9456642064209L191.93633333333332,51.05701896273251L193.61766666666668,49.997093298254725L195.29466666666667,51.86468221690245L196.95,49.06118967881068L198.63566666666668,50.995845498115855L200.31699999999998,49.919698488665205L202.01566666666668,50.07760015775257L203.70999999999998,49.123516105474266L205.37833333333336,49.02148534555667L207.077,50.466799580325315L208.76700000000002,47.89778635508952L210.46133333333333,47.573668491780836L212.147,47.147515228224506L213.824,47.91395561331717L215.527,49.00902316403443L216.70566666666667,48.499361897222116L217.81933333333333,48.653218567894726L218.95466666666667,48.78880735437198L220.077,48.72341025364682L221.20366666666666,46.15742040697418L222.326,47.616816686131926L223.46133333333336,46.84688622667605L224.588,46.51057869798282L225.69733333333332,46.74608348829986L226.82833333333332,46.472808427244416L227.955,49.57002870159408L229.06866666666667,51.13573001623513L230.19966666666664,50.55387299414201L231.33066666666667,50.85210394555382L232.453,48.902159834604845L233.57533333333333,49.033607676790155L234.69333333333333,49.06696992270787L235.82433333333333,46.25067760286589L236.96833333333333,44.783010376552255L238.095,44.417527667223055L239.20000000000002,43.3856409968939L240.318,43.322292350958435" style="fill: none;" fill="none"></path></g></g></g></g><g opacity="0.2"><g><g><g><path stroke="rgb(0, 119, 187)" stroke-width="2px" d="M22.732666666666667,158.22222222222223L23.828999999999997,158.22222222222223L24.947,158.22222222222223L26.078,158.22222222222223L27.248,158.22222222222223L28.439666666666668,158.22222222222223L29.627,158.22222222222223L30.827333333333332,158.22222222222223L32.02333333333333,158.22222222222223L33.241,158.22222222222223L34.45,158.22222222222223L35.59833333333333,158.22222222222223L36.742333333333335,158.22222222222223L37.894999999999996,158.22222222222223L39.026,157.98761038905812L40.183,157.752998555894L41.32266666666667,153.64729129564432L42.471,156.34532755690938L43.628,156.57993937568324L44.772,156.57993937568324L45.88133333333333,157.63569261772662L47.00366666666667,156.81455119445712L48.126,156.57993937568324L49.26133333333333,156.57993937568324L50.39233333333333,153.41267947687044L51.52333333333333,152.73550439170666L52.62833333333333,147.68068586331276L53.733333333333334,151.8877026548402L54.82533333333333,158.22222222222223L55.904333333333334,158.22222222222223L57.03533333333333,156.57993937568324L58.123,155.99340971362673L59.245333333333335,149.30697218784027L60.57133333333333,143.32437034861908L61.92766666666667,154.58573880098345L63.297,147.6646894564231L64.779,143.32437034861908L66.26100000000001,122.17198140256934L67.73,111.7165626105335L69.35933333333332,116.91734271082612L71.019,106.26663310825823L72.71333333333334,111.40396543012724L74.42066666666666,108.14859301845232L76.11500000000001,119.09283562832408L77.79633333333334,116.39733101096417L79.49933333333334,119.30331883496709L81.20666666666668,122.67852845456864L82.91833333333334,112.76084828045633L84.62566666666667,114.6110824594895L86.34166666666667,110.38806787961059L88.04033333333334,93.22408261564043L89.74333333333334,102.3472822556893L91.44633333333334,96.59929223524199L93.14500000000001,76.9985372589694L94.848,90.52603979243172L96.54666666666667,82.31463074021867L98.24533333333333,78.82211106684473L99.93100000000001,83.01846159166759L101.62966666666668,73.80461963680054L103.32833333333333,73.83127632406021L104.494,74.2738451162974L105.638,76.03342961271602L106.79933333333334,74.62576054202185L107.94333333333334,72.86616867780685L109.10900000000001,61.658122118976365L110.27466666666666,74.74306322799788L111.44466666666666,65.99843938483131L112.61466666666666,71.51182034942839L113.76733333333333,63.20975793070262L114.93299999999999,64.40947831670442L116.09866666666667,53.37206255396208L117.25133333333333,61.764763603607804L118.39533333333333,59.301340887943894L119.548,69.19236437479654L120.68766666666667,68.72313889529968L121.84033333333333,70.45606670445865L122.97999999999999,60.421076476573944L124.13266666666667,58.89610471990372L125.28966666666666,67.10751377211676L126.83666666666667,59.27467683288786L128.401,46.77627125713559L129.96966666666668,55.14231561952165L131.56433333333334,52.35363416539299L133.159,53.2920777565903L134.74066666666667,50.530060357517655L136.33966666666666,51.74044194486406L137.9343333333333,54.90770287977324L139.52466666666666,56.342036005523454L140.85066666666665,50.29544761776924L142.28066666666666,52.641560279660766L143.72366666666665,54.4917981425921L145.17533333333333,51.0259425242742L146.63133333333332,48.79713254835872L148.08733333333333,40.61237281560898L149.52166666666665,49.91686813698877L150.96033333333332,47.38945610986818L152.40766666666664,51.79376268717978L153.85933333333332,52.75887033343315L155.311,51.703116688463425L156.754,42.867846846580505L158.20566666666667,48.653165807326644L159.64,51.82041937443945L161.083,51.468503948715L162.539,48.18394032782979L164.00366666666667,45.86448435319795L165.45966666666666,35.55755612916417L166.92433333333332,43.10245958632893L168.37599999999998,52.055032114187895L169.845,51.99105017052757L171.30533333333335,54.84371356831656L172.77433333333332,58.48019998272258L174.24766666666667,60.21312779188156L175.71666666666664,55.48356984390152L177.16833333333332,50.11415562033653L178.724,42.02004925409955L180.35766666666666,54.166539404127334L182.03033333333335,51.82041937443945L183.69433333333333,48.471873809893935L185.315,40.99095229638948L186.953,40.75633955664105L188.591,51.67645263340738L190.25933333333333,52.52425759368474L191.93633333333332,56.2513900068071L193.61766666666668,47.38945610986818L195.29466666666667,56.45933869149948L196.95,42.16401599513162L198.63566666666668,55.75550047225421L200.31699999999998,47.27215342389215L202.01566666666668,50.466071046060975L203.70999999999998,46.77627125713559L205.37833333333336,48.77046849330267L207.077,54.02257266309526L208.76700000000002,41.577480461862365L210.46133333333333,46.77627125713559L212.147,46.09908972515001L213.824,49.79955808321637L215.527,51.703116688463425L216.70566666666667,47.245489368836104L217.81933333333333,49.031737920310775L218.95466666666667,49.12238391902713L220.077,48.56251980861029L221.20366666666666,39.84455265270341L222.326,51.20723452170691L223.46133333333336,44.952697449260285L224.588,45.68319235576524L225.69733333333332,47.32547416620784L226.82833333333332,45.80049504174127L227.955,57.18983359800444L229.06866666666667,54.98768030934862L230.19966666666664,49.12238391902713L231.33066666666667,51.585814002487396L232.453,44.104892488982955L233.57533333333333,49.35699665877553L234.69333333333333,49.149047974083146L235.82433333333333,39.32201379868718L236.96833333333333,41.17224429382219L238.095,43.51836432351007L239.20000000000002,40.846985555357406L240.318,43.16644152998924" style="fill: none;" fill="none"></path></g></g></g></g></g></g><g transform="translate(70, 178)" clip-path="url(#clip_1)"><clipPath id="clip_1"><rect width="260" height="22"></rect></clipPath><g><g><line x1="0" y1="0" x2="0" y2="5" style="visibility: inherit;" fill="rgb(0, 0, 0)" stroke="rgb(204, 204, 204)" stroke-width="1px"></line><line x1="21.666666666666664" y1="0" x2="21.666666666666664" y2="5" style="visibility: inherit;" fill="rgb(0, 0, 0)" stroke="rgb(204, 204, 204)" stroke-width="1px"></line><line x1="43.33333333333333" y1="0" x2="43.33333333333333" y2="5" style="visibility: inherit;" fill="rgb(0, 0, 0)" stroke="rgb(204, 204, 204)" stroke-width="1px"></line><line x1="65" y1="0" x2="65" y2="5" style="visibility: inherit;" fill="rgb(0, 0, 0)" stroke="rgb(204, 204, 204)" stroke-width="1px"></line><line x1="86.66666666666666" y1="0" x2="86.66666666666666" y2="5" style="visibility: inherit;" fill="rgb(0, 0, 0)" stroke="rgb(204, 204, 204)" stroke-width="1px"></line><line x1="108.33333333333334" y1="0" x2="108.33333333333334" y2="5" style="visibility: inherit;" fill="rgb(0, 0, 0)" stroke="rgb(204, 204, 204)" stroke-width="1px"></line><line x1="130" y1="0" x2="130" y2="5" style="visibility: inherit;" fill="rgb(0, 0, 0)" stroke="rgb(204, 204, 204)" stroke-width="1px"></line><line x1="151.66666666666669" y1="0" x2="151.66666666666669" y2="5" style="visibility: inherit;" fill="rgb(0, 0, 0)" stroke="rgb(204, 204, 204)" stroke-width="1px"></line><line x1="173.33333333333331" y1="0" x2="173.33333333333331" y2="5" style="visibility: inherit;" fill="rgb(0, 0, 0)" stroke="rgb(204, 204, 204)" stroke-width="1px"></line><line x1="195" y1="0" x2="195" y2="5" style="visibility: inherit;" fill="rgb(0, 0, 0)" stroke="rgb(204, 204, 204)" stroke-width="1px"></line><line x1="216.66666666666669" y1="0" x2="216.66666666666669" y2="5" style="visibility: inherit;" fill="rgb(0, 0, 0)" stroke="rgb(204, 204, 204)" stroke-width="1px"></line><line x1="238.33333333333331" y1="0" x2="238.33333333333331" y2="5" style="visibility: inherit;" fill="rgb(0, 0, 0)" stroke="rgb(204, 204, 204)" stroke-width="1px"></line><line x1="260" y1="0" x2="260" y2="5" style="visibility: inherit;" fill="rgb(0, 0, 0)" stroke="rgb(204, 204, 204)" stroke-width="1px"></line></g><g transform="translate(0, 8)"><text x="0" y="0" dx="0em" dy="0.95em" style="text-anchor: middle; visibility: hidden; font-family: &quot;Helvetica Neue&quot;, sans-serif; font-size: 12px; font-weight: 200;" fill="rgb(50, 49, 63)" stroke="none" stroke-width="1px">-5k</text><text x="21.666666666666664" y="0" dx="0em" dy="0.95em" style="text-anchor: middle; visibility: inherit; font-family: &quot;Helvetica Neue&quot;, sans-serif; font-size: 12px; font-weight: 200;" fill="rgb(50, 49, 63)" stroke="none" stroke-width="1px">0</text><text x="43.33333333333333" y="0" dx="0em" dy="0.95em" style="text-anchor: middle; visibility: hidden; font-family: &quot;Helvetica Neue&quot;, sans-serif; font-size: 12px; font-weight: 200;" fill="rgb(50, 49, 63)" stroke="none" stroke-width="1px">5k</text><text x="65" y="0" dx="0em" dy="0.95em" style="text-anchor: middle; visibility: inherit; font-family: &quot;Helvetica Neue&quot;, sans-serif; font-size: 12px; font-weight: 200;" fill="rgb(50, 49, 63)" stroke="none" stroke-width="1px">10k</text><text x="86.66666666666666" y="0" dx="0em" dy="0.95em" style="text-anchor: middle; visibility: hidden; font-family: &quot;Helvetica Neue&quot;, sans-serif; font-size: 12px; font-weight: 200;" fill="rgb(50, 49, 63)" stroke="none" stroke-width="1px">15k</text><text x="108.33333333333334" y="0" dx="0em" dy="0.95em" style="text-anchor: middle; visibility: inherit; font-family: &quot;Helvetica Neue&quot;, sans-serif; font-size: 12px; font-weight: 200;" fill="rgb(50, 49, 63)" stroke="none" stroke-width="1px">20k</text><text x="130" y="0" dx="0em" dy="0.95em" style="text-anchor: middle; visibility: hidden; font-family: &quot;Helvetica Neue&quot;, sans-serif; font-size: 12px; font-weight: 200;" fill="rgb(50, 49, 63)" stroke="none" stroke-width="1px">25k</text><text x="151.66666666666669" y="0" dx="0em" dy="0.95em" style="text-anchor: middle; visibility: inherit; font-family: &quot;Helvetica Neue&quot;, sans-serif; font-size: 12px; font-weight: 200;" fill="rgb(50, 49, 63)" stroke="none" stroke-width="1px">30k</text><text x="173.33333333333331" y="0" dx="0em" dy="0.95em" style="text-anchor: middle; visibility: hidden; font-family: &quot;Helvetica Neue&quot;, sans-serif; font-size: 12px; font-weight: 200;" fill="rgb(50, 49, 63)" stroke="none" stroke-width="1px">35k</text><text x="195" y="0" dx="0em" dy="0.95em" style="text-anchor: middle; visibility: inherit; font-family: &quot;Helvetica Neue&quot;, sans-serif; font-size: 12px; font-weight: 200;" fill="rgb(50, 49, 63)" stroke="none" stroke-width="1px">40k</text><text x="216.66666666666669" y="0" dx="0em" dy="0.95em" style="text-anchor: middle; visibility: hidden; font-family: &quot;Helvetica Neue&quot;, sans-serif; font-size: 12px; font-weight: 200;" fill="rgb(50, 49, 63)" stroke="none" stroke-width="1px">45k</text><text x="238.33333333333331" y="0" dx="0em" dy="0.95em" style="text-anchor: middle; visibility: inherit; font-family: &quot;Helvetica Neue&quot;, sans-serif; font-size: 12px; font-weight: 200;" fill="rgb(50, 49, 63)" stroke="none" stroke-width="1px">50k</text><text x="260" y="0" dx="0em" dy="0.95em" style="text-anchor: middle; visibility: hidden; font-family: &quot;Helvetica Neue&quot;, sans-serif; font-size: 12px; font-weight: 200;" fill="rgb(50, 49, 63)" stroke="none" stroke-width="1px">55k</text></g><line x1="0" y1="0" x2="260" y2="0" fill="rgb(0, 0, 0)" stroke="rgb(204, 204, 204)" stroke-width="1px"></line></g></g></g></g></svg>