<svg viewBox="0 0 330 200" xmlns="http://www.w3.org/2000/svg"><g><g><g><g><g><line x1="70" y1="178" x2="65" y2="178" style="visibility: inherit;" fill="rgb(0, 0, 0)" stroke="rgb(204, 204, 204)" stroke-width="1px"></line><line x1="70" y1="160.2" x2="65" y2="160.2" style="visibility: inherit;" fill="rgb(0, 0, 0)" stroke="rgb(204, 204, 204)" stroke-width="1px"></line><line x1="70" y1="142.4" x2="65" y2="142.4" style="visibility: inherit;" fill="rgb(0, 0, 0)" stroke="rgb(204, 204, 204)" stroke-width="1px"></line><line x1="70" y1="124.6" x2="65" y2="124.6" style="visibility: inherit;" fill="rgb(0, 0, 0)" stroke="rgb(204, 204, 204)" stroke-width="1px"></line><line x1="70" y1="106.8" x2="65" y2="106.8" style="visibility: inherit;" fill="rgb(0, 0, 0)" stroke="rgb(204, 204, 204)" stroke-width="1px"></line><line x1="70" y1="88.99999999999999" x2="65" y2="88.99999999999999" style="visibility: inherit;" fill="rgb(0, 0, 0)" stroke="rgb(204, 204, 204)" stroke-width="1px"></line><line x1="70" y1="71.19999999999999" x2="65" y2="71.19999999999999" style="visibility: inherit;" fill="rgb(0, 0, 0)" stroke="rgb(204, 204, 204)" stroke-width="1px"></line><line x1="70" y1="53.400000000000006" x2="65" y2="53.400000000000006" style="visibility: inherit;" fill="rgb(0, 0, 0)" stroke="rgb(204, 204, 204)" stroke-width="1px"></line><line x1="70" y1="35.599999999999994" x2="65" y2="35.599999999999994" style="visibility: inherit;" fill="rgb(0, 0, 0)" stroke="rgb(204, 204, 204)" stroke-width="1px"></line><line x1="70" y1="17.799999999999983" x2="65" y2="17.799999999999983" style="visibility: inherit;" fill="rgb(0, 0, 0)" stroke="rgb(204, 204, 204)" stroke-width="1px"></line><line x1="70" y1="0" x2="65" y2="0" style="visibility: inherit;" fill="rgb(0, 0, 0)" stroke="rgb(204, 204, 204)" stroke-width="1px"></line></g><g transform="translate(60, 0)"><text x="0" y="178" dx="0em" dy="0.3em" style="text-anchor: end; visibility: hidden; font-family: &quot;Helvetica Neue&quot;, sans-serif; font-size: 12px; font-weight: 200;" fill="rgb(50, 49, 63)" stroke="none" stroke-width="1px">-5e-3</text><text x="0" y="160.2" dx="0em" dy="0.3em" style="text-anchor: end; visibility: inherit; font-family: &quot;Helvetica Neue&quot;, sans-serif; font-size: 12px; font-weight: 200;" fill="rgb(50, 49, 63)" stroke="none" stroke-width="1px">0</text><text x="0" y="142.4" dx="0em" dy="0.3em" style="text-anchor: end; visibility: hidden; font-family: &quot;Helvetica Neue&quot;, sans-serif; font-size: 12px; font-weight: 200;" fill="rgb(50, 49, 63)" stroke="none" stroke-width="1px">5e-3</text><text x="0" y="124.6" dx="0em" dy="0.3em" style="text-anchor: end; visibility: inherit; font-family: &quot;Helvetica Neue&quot;, sans-serif; font-size: 12px; font-weight: 200;" fill="rgb(50, 49, 63)" stroke="none" stroke-width="1px">0.01</text><text x="0" y="106.8" dx="0em" dy="0.3em" style="text-anchor: end; visibility: hidden; font-family: &quot;Helvetica Neue&quot;, sans-serif; font-size: 12px; font-weight: 200;" fill="rgb(50, 49, 63)" stroke="none" stroke-width="1px">0.015</text><text x="0" y="88.99999999999999" dx="0em" dy="0.3em" style="text-anchor: end; visibility: inherit; font-family: &quot;Helvetica Neue&quot;, sans-serif; font-size: 12px; font-weight: 200;" fill="rgb(50, 49, 63)" stroke="none" stroke-width="1px">0.02</text><text x="0" y="71.19999999999999" dx="0em" dy="0.3em" style="text-anchor: end; visibility: hidden; font-family: &quot;Helvetica Neue&quot;, sans-serif; font-size: 12px; font-weight: 200;" fill="rgb(50, 49, 63)" stroke="none" stroke-width="1px">0.025</text><text x="0" y="53.400000000000006" dx="0em" dy="0.3em" style="text-anchor: end; visibility: inherit; font-family: &quot;Helvetica Neue&quot;, sans-serif; font-size: 12px; font-weight: 200;" fill="rgb(50, 49, 63)" stroke="none" stroke-width="1px">0.03</text><text x="0" y="35.599999999999994" dx="0em" dy="0.3em" style="text-anchor: end; visibility: hidden; font-family: &quot;Helvetica Neue&quot;, sans-serif; font-size: 12px; font-weight: 200;" fill="rgb(50, 49, 63)" stroke="none" stroke-width="1px">0.035</text><text x="0" y="17.799999999999983" dx="0em" dy="0.3em" style="text-anchor: end; visibility: inherit; font-family: &quot;Helvetica Neue&quot;, sans-serif; font-size: 12px; font-weight: 200;" fill="rgb(50, 49, 63)" stroke="none" stroke-width="1px">0.04</text><text x="0" y="0" dx="0em" dy="0.3em" style="text-anchor: end; visibility: hidden; font-family: &quot;Helvetica Neue&quot;, sans-serif; font-size: 12px; font-weight: 200;" fill="rgb(50, 49, 63)" stroke="none" stroke-width="1px">0.045</text></g><line x1="70" y1="0" x2="70" y2="178" fill="rgb(0, 0, 0)" stroke="rgb(204, 204, 204)" stroke-width="1px"></line></g></g><g transform="translate(70, 0)" clip-path="url(#clip_0)"><clipPath id="clip_0"><rect width="260" height="178"></rect></clipPath><g><g><g><line x1="0" y1="0" x2="0" y2="178" fill="rgb(0, 0, 0)" stroke="rgb(60, 60, 60)" stroke-width="1px" opacity="0.25"></line><line x1="21.666666666666664" y1="0" x2="21.666666666666664" y2="178" fill="rgb(0, 0, 0)" stroke="rgb(60, 60, 60)" stroke-width="1px" opacity="0.25"></line><line x1="43.33333333333333" y1="0" x2="43.33333333333333" y2="178" fill="rgb(0, 0, 0)" stroke="rgb(60, 60, 60)" stroke-width="1px" opacity="0.25"></line><line x1="65" y1="0" x2="65" y2="178" fill="rgb(0, 0, 0)" stroke="rgb(60, 60, 60)" stroke-width="1px" opacity="0.25"></line><line x1="86.66666666666666" y1="0" x2="86.66666666666666" y2="178" fill="rgb(0, 0, 0)" stroke="rgb(60, 60, 60)" stroke-width="1px" opacity="0.25"></line><line x1="108.33333333333334" y1="0" x2="108.33333333333334" y2="178" fill="rgb(0, 0, 0)" stroke="rgb(60, 60, 60)" stroke-width="1px" opacity="0.25"></line><line x1="130" y1="0" x2="130" y2="178" fill="rgb(0, 0, 0)" stroke="rgb(60, 60, 60)" stroke-width="1px" opacity="0.25"></line><line x1="151.66666666666669" y1="0" x2="151.66666666666669" y2="178" fill="rgb(0, 0, 0)" stroke="rgb(60, 60, 60)" stroke-width="1px" opacity="0.25"></line><line x1="173.33333333333331" y1="0" x2="173.33333333333331" y2="178" fill="rgb(0, 0, 0)" stroke="rgb(60, 60, 60)" stroke-width="1px" opacity="0.25"></line><line x1="195" y1="0" x2="195" y2="178" fill="rgb(0, 0, 0)" stroke="rgb(60, 60, 60)" stroke-width="1px" opacity="0.25"></line><line x1="216.66666666666669" y1="0" x2="216.66666666666669" y2="178" fill="rgb(0, 0, 0)" stroke="rgb(60, 60, 60)" stroke-width="1px" opacity="0.25"></line><line x1="238.33333333333331" y1="0" x2="238.33333333333331" y2="178" fill="rgb(0, 0, 0)" stroke="rgb(60, 60, 60)" stroke-width="1px" opacity="0.25"></line><line x1="260" y1="0" x2="260" y2="178" fill="rgb(0, 0, 0)" stroke="rgb(60, 60, 60)" stroke-width="1px" opacity="0.25"></line></g><g><line x1="0" y1="178" x2="260" y2="178" fill="rgb(0, 0, 0)" stroke="rgb(60, 60, 60)" stroke-width="1px" opacity="0.25"></line><line x1="0" y1="160.2" x2="260" y2="160.2" fill="rgb(0, 0, 0)" stroke="rgb(60, 60, 60)" stroke-width="1px" opacity="0.25"></line><line x1="0" y1="142.4" x2="260" y2="142.4" fill="rgb(0, 0, 0)" stroke="rgb(60, 60, 60)" stroke-width="1px" opacity="0.25"></line><line x1="0" y1="124.6" x2="260" y2="124.6" fill="rgb(0, 0, 0)" stroke="rgb(60, 60, 60)" stroke-width="1px" opacity="0.25"></line><line x1="0" y1="106.8" x2="260" y2="106.8" fill="rgb(0, 0, 0)" stroke="rgb(60, 60, 60)" stroke-width="1px" opacity="0.25"></line><line x1="0" y1="88.99999999999999" x2="260" y2="88.99999999999999" fill="rgb(0, 0, 0)" stroke="rgb(60, 60, 60)" stroke-width="1px" opacity="0.25"></line><line x1="0" y1="71.19999999999999" x2="260" y2="71.19999999999999" fill="rgb(0, 0, 0)" stroke="rgb(60, 60, 60)" stroke-width="1px" opacity="0.25"></line><line x1="0" y1="53.400000000000006" x2="260" y2="53.400000000000006" fill="rgb(0, 0, 0)" stroke="rgb(60, 60, 60)" stroke-width="1px" opacity="0.25"></line><line x1="0" y1="35.599999999999994" x2="260" y2="35.599999999999994" fill="rgb(0, 0, 0)" stroke="rgb(60, 60, 60)" stroke-width="1px" opacity="0.25"></line><line x1="0" y1="17.799999999999983" x2="260" y2="17.799999999999983" fill="rgb(0, 0, 0)" stroke="rgb(60, 60, 60)" stroke-width="1px" opacity="0.25"></line><line x1="0" y1="0" x2="260" y2="0" fill="rgb(0, 0, 0)" stroke="rgb(60, 60, 60)" stroke-width="1px" opacity="0.25"></line></g></g></g><g><g><line x1="0" y1="160.2" x2="260" y2="160.2" fill="rgb(0, 0, 0)" stroke="rgb(153, 153, 153)" stroke-width="1.5px"></line></g></g><g><g><line x1="21.666666666666664" y1="0" x2="21.666666666666664" y2="178" fill="rgb(0, 0, 0)" stroke="rgb(153, 153, 153)" stroke-width="1.5px"></line></g></g><g><g><g><g><g><path stroke="rgb(0, 119, 187)" stroke-width="2px" d="M22.732666666666667,160.2L23.828999999999997,160.2L24.947,160.2L26.078,160.2L27.248,160.2L28.439666666666668,160.2L29.627,160.2L30.827333333333332,160.2L32.02333333333333,160.2L33.241,160.2L34.45,160.2L35.59833333333333,160.19979952733675L36.742333333333335,160.19985815966842L37.894999999999996,160.19989950030424L39.026,160.14299534437376L40.183,160.03993546116575L41.32266666666667,159.77810770805002L42.471,159.3785061999652L43.628,159.5016176791697L44.772,159.62477458130488L45.88133333333333,159.78503144231448L47.00366666666667,159.8524680565443L48.126,159.86270758238317L49.26133333333333,159.91061741308016L50.39233333333333,158.61072720424104L51.52333333333333,158.89297673940496L52.62833333333333,157.8872935194182L53.733333333333334,157.2492628389686L54.82533333333333,158.10127696910124L55.904333333333334,158.70782975014995L57.03533333333333,159.09014557918073L58.123,159.33246028179957L59.245333333333335,158.88331091115128L60.57133333333333,157.95913811180986L61.92766666666667,158.31144157668274L63.297,157.19106937438272L64.779,155.60799522251926L66.26100000000001,149.01719464174053L67.73,142.2423082866339L69.35933333333332,139.48606643170262L71.019,135.06747576793418L72.71333333333334,133.4323362051748L74.42066666666666,130.89734504040263L76.11500000000001,131.4493297766183L77.79633333333334,129.89355649660374L79.49933333333334,129.65036554077204L81.20666666666668,130.56572351954634L82.91833333333334,127.71648814722872L84.62566666666667,126.01068306495843L86.34166666666667,123.96590367534651L88.04033333333334,117.09477314637691L89.74333333333334,114.7998701717002L91.44633333333334,111.36033004783147L93.14500000000001,102.9936858314348L94.848,101.0647551464983L96.54666666666667,95.65544165842701L98.24533333333333,91.13854679352458L99.93100000000001,89.4542922132891L101.62966666666668,85.31850893845021L103.32833333333333,82.2992217273041L104.494,79.31025320116038L105.638,78.24124876714521L106.79933333333334,76.81470593448817L107.94333333333334,74.76929800794139L109.10900000000001,70.5190304706347L110.27466666666666,72.5765218312471L111.44466666666666,69.88787764420965L112.61466666666666,70.79311674554474L113.76733333333333,68.81273948486404L114.93299999999999,67.35719609128196L116.09866666666667,63.99358156571064L117.25133333333333,62.98389369067391L118.39533333333333,61.69018043901099L119.548,64.3111774483985L120.68766666666667,65.32382161552529L121.84033333333333,67.27405587699752L122.97999999999999,64.63451466613026L124.13266666666667,62.88218437630535L125.28966666666666,64.30716172664947L126.83666666666667,63.10362999622271L128.401,57.846640609821335L129.96966666666668,56.49053597064396L131.56433333333334,54.881374159768754L133.159,52.41834953166092L134.74066666666667,50.570826407440435L136.33966666666666,48.80901529594567L137.9343333333333,48.26047799605183L139.52466666666666,49.08231514165047L140.85066666666665,47.82787875398421L142.28066666666666,47.14064597269498L143.72366666666665,47.247150254261584L145.17533333333333,47.2201576968815L146.63133333333332,46.78001750851459L148.08733333333333,43.229319811144876L149.52166666666665,42.247174512094915L150.96033333333332,42.63927639404815L152.40766666666664,43.68108792224925L153.85933333333332,45.47868099216814L155.311,45.076963697743224L156.754,42.84857137242142L158.20566666666667,42.78591912529728L159.64,43.788972831816096L161.083,44.0438149441093L162.539,43.280462613334635L164.00366666666667,40.95619829572857L165.45966666666666,37.040815447330374L166.92433333333332,36.46643459515778L168.37599999999998,37.64671159602793L169.845,40.3155982390752L171.30533333333335,41.93878400288327L172.77433333333332,45.32345334527392L174.24766666666667,47.47142426814398L175.71666666666664,49.23490967338219L177.16833333333332,47.379807750076935L178.724,43.0048355362199L180.35766666666666,43.40667990776524L182.03033333333335,43.37779713599778L183.69433333333333,43.001465542875195L185.315,40.158358276390146L186.953,36.00737269426952L188.591,37.04230401744903L190.25933333333333,39.30521004132686L191.93633333333332,42.925407978583735L193.61766666666668,42.49647832382732L195.29466666666667,42.85640327014792L196.95,40.89162749459592L198.63566666666668,42.910283836449054L200.31699999999998,40.71043626353679L202.01566666666668,41.15595873875833L203.70999999999998,38.97545784662873L205.37833333333336,38.68672918149582L207.077,39.869660895630574L208.76700000000002,38.361060147693365L210.46133333333333,36.981604504051546L212.147,35.761886963888L213.824,36.40289595669992L215.527,39.538791657952004L216.70566666666667,38.98697236911596L217.81933333333333,39.96343005141813L218.95466666666667,39.82104150757684L220.077,40.22462714532023L221.20366666666666,39.162498553684486L222.326,40.62822600289462L223.46133333333336,39.56092839299362L224.588,39.896350371423864L225.69733333333332,40.77598941374802L226.82833333333332,41.86071152598291L227.955,46.063535674983825L229.06866666666667,48.08206162788025L230.19966666666664,48.13548734601736L231.33066666666667,49.20226720752083L232.453,47.31082085755102L233.57533333333333,47.298063171936036L234.69333333333333,47.528223653211626L235.82433333333333,44.686365363344976L236.96833333333333,42.84651339619418L238.095,42.14580082698069L239.20000000000002,41.69454893696323L240.318,41.74890988575339" style="fill: none;" fill="none"></path></g></g></g></g><g opacity="0.2"><g><g><g><path stroke="rgb(0, 119, 187)" stroke-width="2px" d="M22.732666666666667,160.2L23.828999999999997,160.2L24.947,160.2L26.078,160.2L27.248,160.2L28.439666666666668,160.2L29.627,160.2L30.827333333333332,160.2L32.02333333333333,160.2L33.241,160.2L34.45,160.2L35.59833333333333,160.199317899871L36.742333333333335,160.2L37.894999999999996,160.2L39.026,160.00418041624943L40.183,159.78790766861056L41.32266666666667,159.13670434481463L42.471,158.39838466588407L43.628,159.80384446254465L44.772,159.927301664534L45.88133333333333,160.17886687682693L47.00366666666667,160.018247561343L48.126,159.88788506201234L49.26133333333333,160.02843936930293L50.39233333333333,155.41361815277486L51.52333333333333,159.58723168103023L52.62833333333333,155.41345237735658L53.733333333333334,155.67973204404115L54.82533333333333,160.19725941847145L55.904333333333334,160.2L57.03533333333333,160.0306880480959L58.123,159.92858950641238L59.245333333333335,157.77833031006156L60.57133333333333,155.6855105606839L61.92766666666667,159.17817327291704L63.297,154.43473917413502L64.779,151.71332224719225L66.26100000000001,132.80251047089695L67.73,125.57472046911715L69.35933333333332,132.7051505677402L71.019,124.19683829396962L72.71333333333334,129.40955680310725L74.42066666666666,124.66074422448872L76.11500000000001,132.80732624679803L77.79633333333334,126.06603239178656L79.49933333333334,129.05206542909144L81.20666666666668,132.81769384145736L82.91833333333334,120.70677835941314L84.62566666666667,121.81404874175786L86.34166666666667,118.93532213270663L88.04033333333334,100.19036617577075L89.74333333333334,109.15393256098031L91.44633333333334,102.89834741950034L93.14500000000001,82.41000432968139L94.848,96.3191852390766L96.54666666666667,82.34740753173827L98.24533333333333,80.02604771852492L99.93100000000001,85.31067628860472L101.62966666666668,75.14362346827983L103.32833333333333,74.87114835977553L104.494,71.95677008926867L105.638,75.6112759232521L106.79933333333334,73.3051144003868L107.94333333333334,69.73716985881327L109.10900000000001,60.062489923834804L110.27466666666666,77.63837773799895L111.44466666666666,63.27325474917889L112.61466666666666,73.02019287347792L113.76733333333333,63.94060027301312L114.93299999999999,63.776257154345515L116.09866666666667,55.71839150488377L117.25133333333333,60.499851894378665L118.39533333333333,58.50737724900246L119.548,70.759374243021L120.68766666666667,67.81513650417327L121.84033333333333,72.0720370531082L122.97999999999999,58.14069528579712L124.13266666666667,58.57108805775643L125.28966666666666,67.81290185153483L126.83666666666667,60.14269207119942L128.401,44.913355302810686L129.96966666666668,53.154237014055255L131.56433333333334,50.92250202298165L133.159,46.358797591924684L134.74066666666667,46.02553595304491L136.33966666666666,44.47459418773653L137.9343333333333,46.91096235513689L139.52466666666666,51.10420514345169L140.85066666666665,44.74170480370523L142.28066666666666,45.4499106526375L143.72366666666665,47.50917289853098L145.17533333333333,47.15375040173532L146.63133333333332,45.697181266546266L148.08733333333333,34.49386630654337L149.52166666666665,39.830893170833605L150.96033333333332,43.60392842888834L152.40766666666664,46.24416057467462L153.85933333333332,49.901133146882074L155.311,44.088655751943605L156.754,37.366263610124605L158.20566666666667,42.63178158998491L159.64,46.25669319629671L161.083,44.67077944874765L162.539,41.40245739817621L164.00366666666667,35.23802552819254L165.45966666666666,27.40816075801851L166.92433333333332,35.05333845019342L168.37599999999998,40.55043805837633L169.845,46.88161347508432L171.30533333333335,45.932157975435274L172.77433333333332,53.65044262707234L174.24766666666667,52.75587868392468L175.71666666666664,53.57344989180565L177.16833333333332,42.81587187647821L178.724,32.24149559140207L180.35766666666666,44.395300489664095L182.03033333333335,43.30673952102663L183.69433333333333,42.075611692667024L185.315,33.163724136352556L186.953,25.795086365938204L188.591,39.588449937105196L190.25933333333333,44.872428667545336L191.93633333333332,51.83184650242329L193.61766666666668,41.44122232198717L195.29466666666667,43.74189336299898L196.95,36.057871174812334L198.63566666666668,47.876597535610216L200.31699999999998,35.29835451841356L202.01566666666668,42.25203652381899L203.70999999999998,33.61097295284273L205.37833333333336,37.9763967216015L207.077,42.77991850376131L208.76700000000002,34.64958910346033L210.46133333333333,33.58785722851755L212.147,32.7611285865307L213.824,37.97991116046907L215.527,47.25374613404276L216.70566666666667,37.62938235402109L217.81933333333333,42.365718674659746L218.95466666666667,39.47073612809183L220.077,41.21753160357477L221.20366666666666,36.549441707134264L222.326,44.23421983122827L223.46133333333336,36.935154688358324L224.588,40.72155807614328L225.69733333333332,42.940084081888216L226.82833333333332,44.52935312390329L227.955,56.40335564017296L229.06866666666667,53.04805454313755L230.19966666666664,48.266925704479235L231.33066666666667,51.82676714360714L232.453,42.65747014880182L233.57533333333333,47.26667661666872L234.69333333333333,48.09446622133257L235.82433333333333,37.69480396509172L236.96833333333333,38.320095580816286L238.095,40.42190243005754L239.20000000000002,40.58437560200693L240.318,41.882649105787294" style="fill: none;" fill="none"></path></g></g></g></g></g></g><g transform="translate(70, 178)" clip-path="url(#clip_1)"><clipPath id="clip_1"><rect width="260" height="22"></rect></clipPath><g><g><line x1="0" y1="0" x2="0" y2="5" style="visibility: inherit;" fill="rgb(0, 0, 0)" stroke="rgb(204, 204, 204)" stroke-width="1px"></line><line x1="21.666666666666664" y1="0" x2="21.666666666666664" y2="5" style="visibility: inherit;" fill="rgb(0, 0, 0)" stroke="rgb(204, 204, 204)" stroke-width="1px"></line><line x1="43.33333333333333" y1="0" x2="43.33333333333333" y2="5" style="visibility: inherit;" fill="rgb(0, 0, 0)" stroke="rgb(204, 204, 204)" stroke-width="1px"></line><line x1="65" y1="0" x2="65" y2="5" style="visibility: inherit;" fill="rgb(0, 0, 0)" stroke="rgb(204, 204, 204)" stroke-width="1px"></line><line x1="86.66666666666666" y1="0" x2="86.66666666666666" y2="5" style="visibility: inherit;" fill="rgb(0, 0, 0)" stroke="rgb(204, 204, 204)" stroke-width="1px"></line><line x1="108.33333333333334" y1="0" x2="108.33333333333334" y2="5" style="visibility: inherit;" fill="rgb(0, 0, 0)" stroke="rgb(204, 204, 204)" stroke-width="1px"></line><line x1="130" y1="0" x2="130" y2="5" style="visibility: inherit;" fill="rgb(0, 0, 0)" stroke="rgb(204, 204, 204)" stroke-width="1px"></line><line x1="151.66666666666669" y1="0" x2="151.66666666666669" y2="5" style="visibility: inherit;" fill="rgb(0, 0, 0)" stroke="rgb(204, 204, 204)" stroke-width="1px"></line><line x1="173.33333333333331" y1="0" x2="173.33333333333331" y2="5" style="visibility: inherit;" fill="rgb(0, 0, 0)" stroke="rgb(204, 204, 204)" stroke-width="1px"></line><line x1="195" y1="0" x2="195" y2="5" style="visibility: inherit;" fill="rgb(0, 0, 0)" stroke="rgb(204, 204, 204)" stroke-width="1px"></line><line x1="216.66666666666669" y1="0" x2="216.66666666666669" y2="5" style="visibility: inherit;" fill="rgb(0, 0, 0)" stroke="rgb(204, 204, 204)" stroke-width="1px"></line><line x1="238.33333333333331" y1="0" x2="238.33333333333331" y2="5" style="visibility: inherit;" fill="rgb(0, 0, 0)" stroke="rgb(204, 204, 204)" stroke-width="1px"></line><line x1="260" y1="0" x2="260" y2="5" style="visibility: inherit;" fill="rgb(0, 0, 0)" stroke="rgb(204, 204, 204)" stroke-width="1px"></line></g><g transform="translate(0, 8)"><text x="0" y="0" dx="0em" dy="0.95em" style="text-anchor: middle; visibility: hidden; font-family: &quot;Helvetica Neue&quot;, sans-serif; font-size: 12px; font-weight: 200;" fill="rgb(50, 49, 63)" stroke="none" stroke-width="1px">-5k</text><text x="21.666666666666664" y="0" dx="0em" dy="0.95em" style="text-anchor: middle; visibility: inherit; font-family: &quot;Helvetica Neue&quot;, sans-serif; font-size: 12px; font-weight: 200;" fill="rgb(50, 49, 63)" stroke="none" stroke-width="1px">0</text><text x="43.33333333333333" y="0" dx="0em" dy="0.95em" style="text-anchor: middle; visibility: hidden; font-family: &quot;Helvetica Neue&quot;, sans-serif; font-size: 12px; font-weight: 200;" fill="rgb(50, 49, 63)" stroke="none" stroke-width="1px">5k</text><text x="65" y="0" dx="0em" dy="0.95em" style="text-anchor: middle; visibility: inherit; font-family: &quot;Helvetica Neue&quot;, sans-serif; font-size: 12px; font-weight: 200;" fill="rgb(50, 49, 63)" stroke="none" stroke-width="1px">10k</text><text x="86.66666666666666" y="0" dx="0em" dy="0.95em" style="text-anchor: middle; visibility: hidden; font-family: &quot;Helvetica Neue&quot;, sans-serif; font-size: 12px; font-weight: 200;" fill="rgb(50, 49, 63)" stroke="none" stroke-width="1px">15k</text><text x="108.33333333333334" y="0" dx="0em" dy="0.95em" style="text-anchor: middle; visibility: inherit; font-family: &quot;Helvetica Neue&quot;, sans-serif; font-size: 12px; font-weight: 200;" fill="rgb(50, 49, 63)" stroke="none" stroke-width="1px">20k</text><text x="130" y="0" dx="0em" dy="0.95em" style="text-anchor: middle; visibility: hidden; font-family: &quot;Helvetica Neue&quot;, sans-serif; font-size: 12px; font-weight: 200;" fill="rgb(50, 49, 63)" stroke="none" stroke-width="1px">25k</text><text x="151.66666666666669" y="0" dx="0em" dy="0.95em" style="text-anchor: middle; visibility: inherit; font-family: &quot;Helvetica Neue&quot;, sans-serif; font-size: 12px; font-weight: 200;" fill="rgb(50, 49, 63)" stroke="none" stroke-width="1px">30k</text><text x="173.33333333333331" y="0" dx="0em" dy="0.95em" style="text-anchor: middle; visibility: hidden; font-family: &quot;Helvetica Neue&quot;, sans-serif; font-size: 12px; font-weight: 200;" fill="rgb(50, 49, 63)" stroke="none" stroke-width="1px">35k</text><text x="195" y="0" dx="0em" dy="0.95em" style="text-anchor: middle; visibility: inherit; font-family: &quot;Helvetica Neue&quot;, sans-serif; font-size: 12px; font-weight: 200;" fill="rgb(50, 49, 63)" stroke="none" stroke-width="1px">40k</text><text x="216.66666666666669" y="0" dx="0em" dy="0.95em" style="text-anchor: middle; visibility: hidden; font-family: &quot;Helvetica Neue&quot;, sans-serif; font-size: 12px; font-weight: 200;" fill="rgb(50, 49, 63)" stroke="none" stroke-width="1px">45k</text><text x="238.33333333333331" y="0" dx="0em" dy="0.95em" style="text-anchor: middle; visibility: inherit; font-family: &quot;Helvetica Neue&quot;, sans-serif; font-size: 12px; font-weight: 200;" fill="rgb(50, 49, 63)" stroke="none" stroke-width="1px">50k</text><text x="260" y="0" dx="0em" dy="0.95em" style="text-anchor: middle; visibility: hidden; font-family: &quot;Helvetica Neue&quot;, sans-serif; font-size: 12px; font-weight: 200;" fill="rgb(50, 49, 63)" stroke="none" stroke-width="1px">55k</text></g><line x1="0" y1="0" x2="260" y2="0" fill="rgb(0, 0, 0)" stroke="rgb(204, 204, 204)" stroke-width="1px"></line></g></g></g></g></svg>