<svg viewBox="0 0 330 200" xmlns="http://www.w3.org/2000/svg"><g><g><g><g><g><line x1="70" y1="178" x2="65" y2="178" style="visibility: inherit;" fill="rgb(0, 0, 0)" stroke="rgb(204, 204, 204)" stroke-width="1px"></line><line x1="70" y1="164.30769230769232" x2="65" y2="164.30769230769232" style="visibility: inherit;" fill="rgb(0, 0, 0)" stroke="rgb(204, 204, 204)" stroke-width="1px"></line><line x1="70" y1="150.6153846153846" x2="65" y2="150.6153846153846" style="visibility: inherit;" fill="rgb(0, 0, 0)" stroke="rgb(204, 204, 204)" stroke-width="1px"></line><line x1="70" y1="136.9230769230769" x2="65" y2="136.9230769230769" style="visibility: inherit;" fill="rgb(0, 0, 0)" stroke="rgb(204, 204, 204)" stroke-width="1px"></line><line x1="70" y1="123.23076923076923" x2="65" y2="123.23076923076923" style="visibility: inherit;" fill="rgb(0, 0, 0)" stroke="rgb(204, 204, 204)" stroke-width="1px"></line><line x1="70" y1="109.53846153846155" x2="65" y2="109.53846153846155" style="visibility: inherit;" fill="rgb(0, 0, 0)" stroke="rgb(204, 204, 204)" stroke-width="1px"></line><line x1="70" y1="95.84615384615385" x2="65" y2="95.84615384615385" style="visibility: inherit;" fill="rgb(0, 0, 0)" stroke="rgb(204, 204, 204)" stroke-width="1px"></line><line x1="70" y1="82.15384615384616" x2="65" y2="82.15384615384616" style="visibility: inherit;" fill="rgb(0, 0, 0)" stroke="rgb(204, 204, 204)" stroke-width="1px"></line><line x1="70" y1="68.46153846153848" x2="65" y2="68.46153846153848" style="visibility: inherit;" fill="rgb(0, 0, 0)" stroke="rgb(204, 204, 204)" stroke-width="1px"></line><line x1="70" y1="54.769230769230774" x2="65" y2="54.769230769230774" style="visibility: inherit;" fill="rgb(0, 0, 0)" stroke="rgb(204, 204, 204)" stroke-width="1px"></line><line x1="70" y1="41.076923076923094" x2="65" y2="41.076923076923094" style="visibility: inherit;" fill="rgb(0, 0, 0)" stroke="rgb(204, 204, 204)" stroke-width="1px"></line><line x1="70" y1="27.384615384615387" x2="65" y2="27.384615384615387" style="visibility: inherit;" fill="rgb(0, 0, 0)" stroke="rgb(204, 204, 204)" stroke-width="1px"></line><line x1="70" y1="13.69230769230768" x2="65" y2="13.69230769230768" style="visibility: inherit;" fill="rgb(0, 0, 0)" stroke="rgb(204, 204, 204)" stroke-width="1px"></line><line x1="70" y1="0" x2="65" y2="0" style="visibility: inherit;" fill="rgb(0, 0, 0)" stroke="rgb(204, 204, 204)" stroke-width="1px"></line></g><g transform="translate(60, 0)"><text x="0" y="178" dx="0em" dy="0.3em" style="text-anchor: end; visibility: hidden; font-family: &quot;Helvetica Neue&quot;, sans-serif; font-size: 12px; font-weight: 200;" fill="rgb(50, 49, 63)" stroke="none" stroke-width="1px">-0.05</text><text x="0" y="164.30769230769232" dx="0em" dy="0.3em" style="text-anchor: end; visibility: inherit; font-family: &quot;Helvetica Neue&quot;, sans-serif; font-size: 12px; font-weight: 200;" fill="rgb(50, 49, 63)" stroke="none" stroke-width="1px">0</text><text x="0" y="150.6153846153846" dx="0em" dy="0.3em" style="text-anchor: end; visibility: hidden; font-family: &quot;Helvetica Neue&quot;, sans-serif; font-size: 12px; font-weight: 200;" fill="rgb(50, 49, 63)" stroke="none" stroke-width="1px">0.05</text><text x="0" y="136.9230769230769" dx="0em" dy="0.3em" style="text-anchor: end; visibility: inherit; font-family: &quot;Helvetica Neue&quot;, sans-serif; font-size: 12px; font-weight: 200;" fill="rgb(50, 49, 63)" stroke="none" stroke-width="1px">0.1</text><text x="0" y="123.23076923076923" dx="0em" dy="0.3em" style="text-anchor: end; visibility: hidden; font-family: &quot;Helvetica Neue&quot;, sans-serif; font-size: 12px; font-weight: 200;" fill="rgb(50, 49, 63)" stroke="none" stroke-width="1px">0.15</text><text x="0" y="109.53846153846155" dx="0em" dy="0.3em" style="text-anchor: end; visibility: inherit; font-family: &quot;Helvetica Neue&quot;, sans-serif; font-size: 12px; font-weight: 200;" fill="rgb(50, 49, 63)" stroke="none" stroke-width="1px">0.2</text><text x="0" y="95.84615384615385" dx="0em" dy="0.3em" style="text-anchor: end; visibility: hidden; font-family: &quot;Helvetica Neue&quot;, sans-serif; font-size: 12px; font-weight: 200;" fill="rgb(50, 49, 63)" stroke="none" stroke-width="1px">0.25</text><text x="0" y="82.15384615384616" dx="0em" dy="0.3em" style="text-anchor: end; visibility: inherit; font-family: &quot;Helvetica Neue&quot;, sans-serif; font-size: 12px; font-weight: 200;" fill="rgb(50, 49, 63)" stroke="none" stroke-width="1px">0.3</text><text x="0" y="68.46153846153848" dx="0em" dy="0.3em" style="text-anchor: end; visibility: hidden; font-family: &quot;Helvetica Neue&quot;, sans-serif; font-size: 12px; font-weight: 200;" fill="rgb(50, 49, 63)" stroke="none" stroke-width="1px">0.35</text><text x="0" y="54.769230769230774" dx="0em" dy="0.3em" style="text-anchor: end; visibility: inherit; font-family: &quot;Helvetica Neue&quot;, sans-serif; font-size: 12px; font-weight: 200;" fill="rgb(50, 49, 63)" stroke="none" stroke-width="1px">0.4</text><text x="0" y="41.076923076923094" dx="0em" dy="0.3em" style="text-anchor: end; visibility: hidden; font-family: &quot;Helvetica Neue&quot;, sans-serif; font-size: 12px; font-weight: 200;" fill="rgb(50, 49, 63)" stroke="none" stroke-width="1px">0.45</text><text x="0" y="27.384615384615387" dx="0em" dy="0.3em" style="text-anchor: end; visibility: inherit; font-family: &quot;Helvetica Neue&quot;, sans-serif; font-size: 12px; font-weight: 200;" fill="rgb(50, 49, 63)" stroke="none" stroke-width="1px">0.5</text><text x="0" y="13.69230769230768" dx="0em" dy="0.3em" style="text-anchor: end; visibility: hidden; font-family: &quot;Helvetica Neue&quot;, sans-serif; font-size: 12px; font-weight: 200;" fill="rgb(50, 49, 63)" stroke="none" stroke-width="1px">0.55</text><text x="0" y="0" dx="0em" dy="0.3em" style="text-anchor: end; visibility: hidden; font-family: &quot;Helvetica Neue&quot;, sans-serif; font-size: 12px; font-weight: 200;" fill="rgb(50, 49, 63)" stroke="none" stroke-width="1px">0.6</text></g><line x1="70" y1="0" x2="70" y2="178" fill="rgb(0, 0, 0)" stroke="rgb(204, 204, 204)" stroke-width="1px"></line></g></g><g transform="translate(70, 0)" clip-path="url(#clip_0)"><clipPath id="clip_0"><rect width="260" height="178"></rect></clipPath><g><g><g><line x1="0" y1="0" x2="0" y2="178" fill="rgb(0, 0, 0)" stroke="rgb(60, 60, 60)" stroke-width="1px" opacity="0.25"></line><line x1="21.666666666666664" y1="0" x2="21.666666666666664" y2="178" fill="rgb(0, 0, 0)" stroke="rgb(60, 60, 60)" stroke-width="1px" opacity="0.25"></line><line x1="43.33333333333333" y1="0" x2="43.33333333333333" y2="178" fill="rgb(0, 0, 0)" stroke="rgb(60, 60, 60)" stroke-width="1px" opacity="0.25"></line><line x1="65" y1="0" x2="65" y2="178" fill="rgb(0, 0, 0)" stroke="rgb(60, 60, 60)" stroke-width="1px" opacity="0.25"></line><line x1="86.66666666666666" y1="0" x2="86.66666666666666" y2="178" fill="rgb(0, 0, 0)" stroke="rgb(60, 60, 60)" stroke-width="1px" opacity="0.25"></line><line x1="108.33333333333334" y1="0" x2="108.33333333333334" y2="178" fill="rgb(0, 0, 0)" stroke="rgb(60, 60, 60)" stroke-width="1px" opacity="0.25"></line><line x1="130" y1="0" x2="130" y2="178" fill="rgb(0, 0, 0)" stroke="rgb(60, 60, 60)" stroke-width="1px" opacity="0.25"></line><line x1="151.66666666666669" y1="0" x2="151.66666666666669" y2="178" fill="rgb(0, 0, 0)" stroke="rgb(60, 60, 60)" stroke-width="1px" opacity="0.25"></line><line x1="173.33333333333331" y1="0" x2="173.33333333333331" y2="178" fill="rgb(0, 0, 0)" stroke="rgb(60, 60, 60)" stroke-width="1px" opacity="0.25"></line><line x1="195" y1="0" x2="195" y2="178" fill="rgb(0, 0, 0)" stroke="rgb(60, 60, 60)" stroke-width="1px" opacity="0.25"></line><line x1="216.66666666666669" y1="0" x2="216.66666666666669" y2="178" fill="rgb(0, 0, 0)" stroke="rgb(60, 60, 60)" stroke-width="1px" opacity="0.25"></line><line x1="238.33333333333331" y1="0" x2="238.33333333333331" y2="178" fill="rgb(0, 0, 0)" stroke="rgb(60, 60, 60)" stroke-width="1px" opacity="0.25"></line><line x1="260" y1="0" x2="260" y2="178" fill="rgb(0, 0, 0)" stroke="rgb(60, 60, 60)" stroke-width="1px" opacity="0.25"></line></g><g><line x1="0" y1="178" x2="260" y2="178" fill="rgb(0, 0, 0)" stroke="rgb(60, 60, 60)" stroke-width="1px" opacity="0.25"></line><line x1="0" y1="164.30769230769232" x2="260" y2="164.30769230769232" fill="rgb(0, 0, 0)" stroke="rgb(60, 60, 60)" stroke-width="1px" opacity="0.25"></line><line x1="0" y1="150.6153846153846" x2="260" y2="150.6153846153846" fill="rgb(0, 0, 0)" stroke="rgb(60, 60, 60)" stroke-width="1px" opacity="0.25"></line><line x1="0" y1="136.9230769230769" x2="260" y2="136.9230769230769" fill="rgb(0, 0, 0)" stroke="rgb(60, 60, 60)" stroke-width="1px" opacity="0.25"></line><line x1="0" y1="123.23076923076923" x2="260" y2="123.23076923076923" fill="rgb(0, 0, 0)" stroke="rgb(60, 60, 60)" stroke-width="1px" opacity="0.25"></line><line x1="0" y1="109.53846153846155" x2="260" y2="109.53846153846155" fill="rgb(0, 0, 0)" stroke="rgb(60, 60, 60)" stroke-width="1px" opacity="0.25"></line><line x1="0" y1="95.84615384615385" x2="260" y2="95.84615384615385" fill="rgb(0, 0, 0)" stroke="rgb(60, 60, 60)" stroke-width="1px" opacity="0.25"></line><line x1="0" y1="82.15384615384616" x2="260" y2="82.15384615384616" fill="rgb(0, 0, 0)" stroke="rgb(60, 60, 60)" stroke-width="1px" opacity="0.25"></line><line x1="0" y1="68.46153846153848" x2="260" y2="68.46153846153848" fill="rgb(0, 0, 0)" stroke="rgb(60, 60, 60)" stroke-width="1px" opacity="0.25"></line><line x1="0" y1="54.769230769230774" x2="260" y2="54.769230769230774" fill="rgb(0, 0, 0)" stroke="rgb(60, 60, 60)" stroke-width="1px" opacity="0.25"></line><line x1="0" y1="41.076923076923094" x2="260" y2="41.076923076923094" fill="rgb(0, 0, 0)" stroke="rgb(60, 60, 60)" stroke-width="1px" opacity="0.25"></line><line x1="0" y1="27.384615384615387" x2="260" y2="27.384615384615387" fill="rgb(0, 0, 0)" stroke="rgb(60, 60, 60)" stroke-width="1px" opacity="0.25"></line><line x1="0" y1="13.69230769230768" x2="260" y2="13.69230769230768" fill="rgb(0, 0, 0)" stroke="rgb(60, 60, 60)" stroke-width="1px" opacity="0.25"></line><line x1="0" y1="0" x2="260" y2="0" fill="rgb(0, 0, 0)" stroke="rgb(60, 60, 60)" stroke-width="1px" opacity="0.25"></line></g></g></g><g><g><line x1="0" y1="164.30769230769232" x2="260" y2="164.30769230769232" fill="rgb(0, 0, 0)" stroke="rgb(153, 153, 153)" stroke-width="1.5px"></line></g></g><g><g><line x1="21.666666666666664" y1="0" x2="21.666666666666664" y2="178" fill="rgb(0, 0, 0)" stroke="rgb(153, 153, 153)" stroke-width="1.5px"></line></g></g><g><g><g><g><g><path stroke="rgb(0, 119, 187)" stroke-width="2px" d="M22.732666666666667,164.30769230769232L23.828999999999997,164.30769230769232L24.947,164.30769230769232L26.078,164.30769230769232L27.248,164.30769230769232L28.439666666666668,164.30769230769232L29.627,164.30769230769232L30.827333333333332,164.30769230769232L32.02333333333333,164.30769230769232L33.241,164.30769230769232L34.45,164.30769230769232L35.59833333333333,163.83425251124592L36.742333333333335,163.97271966543155L37.894999999999996,164.07035044405617L39.026,163.9051822427954L40.183,162.1518760112888L41.32266666666667,145.0325329532691L42.471,148.04909609691336L43.628,149.9575249927774L44.772,150.38087699868902L45.88133333333333,151.14755140946062L47.00366666666667,150.99367036253003L48.126,145.062791627499L49.26133333333333,136.88890628386469L50.39233333333333,137.59722940349644L51.52333333333333,136.47116379856504L52.62833333333333,140.09366777221172L53.733333333333334,136.84944322124895L54.82533333333333,144.0869357572263L55.904333333333334,149.93094468075836L57.03533333333333,147.10267529179805L58.123,132.98759149455512L59.245333333333335,128.77119955694116L60.57133333333333,119.02300131261266L61.92766666666667,122.56676169647211L63.297,114.14615805521774L64.779,110.02128929046438L66.26100000000001,115.23545607550484L67.73,111.26132560966441L69.35933333333332,109.13403061192304L71.019,101.80228860146268L72.71333333333334,97.98603923411L74.42066666666666,94.34160980200771L76.11500000000001,97.56965461345281L77.79633333333334,100.09756325696368L79.49933333333334,104.45536781148073L81.20666666666668,108.25207424593405L82.91833333333334,107.2272245567375L84.62566666666667,108.12794107517264L86.34166666666667,107.8372735911184L88.04033333333334,101.57860920756798L89.74333333333334,100.15469879678498L91.44633333333334,96.58183708673931L93.14500000000001,87.29122389888886L94.848,84.8754439023363L96.54666666666667,79.66628724148428L98.24533333333333,75.264268036167L99.93100000000001,72.59997082400986L101.62966666666668,67.44688646707469L103.32833333333333,64.0158138904311L104.494,61.57632129063413L105.638,59.14353322284573L106.79933333333334,58.5776681717535L107.94333333333334,57.24426125266865L109.10900000000001,52.80466949986872L110.27466666666666,51.51027349961669L111.44466666666666,50.124419509698996L112.61466666666666,52.39784635975599L113.76733333333333,50.057177341897656L114.93299999999999,50.02234500930447L116.09866666666667,47.669887051809695L117.25133333333333,49.72159691446839L118.39533333333333,47.92159359021528L119.548,49.20225379185993L120.68766666666667,49.88003279902463L121.84033333333333,50.12916563552058L122.97999999999999,48.21137495090352L124.13266666666667,45.68398086896656L125.28966666666666,47.61131114704193L126.83666666666667,44.79179707063386L128.401,41.390507260937625L129.96966666666668,40.13603511142085L131.56433333333334,39.47687580931088L133.159,39.0082135455109L134.74066666666667,39.60607154352982L136.33966666666666,37.47068601497378L137.9343333333333,36.88350377175118L139.52466666666666,37.39709406440045L140.85066666666665,37.063950291089526L142.28066666666666,38.223700369636106L143.72366666666665,38.11720580790228L145.17533333333333,38.507026608299725L146.63133333333332,36.45649702843127L148.08733333333333,32.67087596959209L149.52166666666665,32.07422352811423L150.96033333333332,31.650003642223453L152.40766666666664,32.04669213334125L153.85933333333332,33.72535295189667L155.311,34.686110397693625L156.754,33.04151677270423L158.20566666666667,32.57051953532286L159.64,33.632255800915374L161.083,34.61991832334593L162.539,33.69276303782911L164.00366666666667,33.26632366742098L165.45966666666666,32.032048407480374L166.92433333333332,31.620017131452812L168.37599999999998,33.42198702555396L169.845,35.86703252543458L171.30533333333335,36.6743830082693L172.77433333333332,37.946718031550915L174.24766666666667,40.71350196826495L175.71666666666664,42.21514691347841L177.16833333333332,40.722353904378224L178.724,38.4971331697333L180.35766666666666,39.70823183014201L182.03033333333335,39.63824611011219L183.69433333333333,38.890177433184846L185.315,37.42722373630909L186.953,36.61983405402637L188.591,35.58024155613313L190.25933333333333,37.86708993046656L191.93633333333332,40.19134795460377L193.61766666666668,39.51620324081429L195.29466666666667,42.29494438584146L196.95,41.0118603034243L198.63566666666668,41.72897085979059L200.31699999999998,38.98006742883558L202.01566666666668,38.887750824587386L203.70999999999998,36.72719194621183L205.37833333333336,34.72549614989657L207.077,35.16444417387726L208.76700000000002,33.847150521361016L210.46133333333333,33.60886356440804L212.147,32.97390310422432L213.824,33.22075268841817L215.527,35.025648440346544L216.70566666666667,33.981237151016586L217.81933333333333,34.86804406326783L218.95466666666667,35.26579574028423L220.077,34.850288352656776L221.20366666666666,34.32209456245934L222.326,34.64485524901349L223.46133333333336,33.94326122957307L224.588,34.3755047493313L225.69733333333332,35.613906759459894L226.82833333333332,35.563333721080824L227.955,37.156761988359875L229.06866666666667,38.52245752398957L230.19966666666664,35.30362114571045L231.33066666666667,34.41164378212457L232.453,32.84637100903464L233.57533333333333,33.130077368738284L234.69333333333333,33.56456298668354L235.82433333333333,31.313017337293985L236.96833333333333,31.341556436746203L238.095,31.59461577405102L239.20000000000002,30.843464095294337L240.318,31.47324251547468" style="fill: none;" fill="none"></path></g></g></g></g><g opacity="0.2"><g><g><g><path stroke="rgb(0, 119, 187)" stroke-width="2px" d="M22.732666666666667,164.30769230769232L23.828999999999997,164.30769230769232L24.947,164.30769230769232L26.078,164.30769230769232L27.248,164.30769230769232L28.439666666666668,164.30769230769232L29.627,164.30769230769232L30.827333333333332,164.30769230769232L32.02333333333333,164.30769230769232L33.241,164.30769230769232L34.45,164.30769230769232L35.59833333333333,162.69683254768069L36.742333333333335,164.30769230769232L37.894999999999996,164.30769230769232L39.026,163.5022624276865L40.183,157.86425326764584L41.32266666666667,103.09502219236815L42.471,155.44796330882951L43.628,154.64253349258348L44.772,151.42081422759935L45.88133333333333,153.03167386009142L47.00366666666667,150.61538441135332L48.126,130.4796379850461L49.26133333333333,116.7873290685507L50.39233333333333,139.33936596375247L51.52333333333333,133.70135725003024L52.62833333333333,149.00452477886125L53.733333333333334,128.8687763122412L54.82533333333333,161.8914026039151L55.904333333333334,164.30769230769232L57.03533333333333,140.1447957799985L58.123,98.26244329489195L59.245333333333335,118.39818870104277L60.57133333333333,95.04071994928213L61.92766666666667,131.28506780129214L63.297,93.42986031679007L64.779,99.87330292738402L66.26100000000001,128.06334649599518L67.73,101.48416255987608L69.35933333333332,103.90045200861418L71.019,83.76470252183768L72.71333333333334,88.59728141931387L74.42066666666666,85.37556215432974L76.11500000000001,105.51131164110625L77.79633333333334,106.31674145735228L79.49933333333334,115.17646943605864L81.20666666666668,117.59275888479674L82.91833333333334,104.70588182486021L84.62566666666667,110.34389053858244L86.34166666666667,107.12217127359831L88.04033333333334,86.18099605120148L89.74333333333334,96.65158366239989L91.44633333333334,87.79185568369354L93.14500000000001,64.43438693193289L94.848,78.93212362436148L96.54666666666667,66.85068046129669L98.24533333333333,64.43438693193289L99.93100000000001,66.04524656442496L101.62966666666668,54.7692291369805L103.32833333333333,55.57466303385223L104.494,55.57466303385223L105.638,53.158369504488434L106.79933333333334,57.1855226663443L107.94333333333334,53.96380340136017L109.10900000000001,41.882352077043976L110.27466666666666,48.32579060701224L111.44466666666666,46.71493097452017L112.61466666666666,57.99094840196463L113.76733333333333,44.298645606407774L114.93299999999999,49.9366502395043L116.09866666666667,41.882352077043976L117.25133333333333,54.7692291369805L118.39533333333333,43.49321170953604L119.548,52.3529437688681L120.68766666666667,51.54750987199637L121.84033333333333,50.742084136376036L122.97999999999999,43.49321170953604L124.13266666666667,39.46606670893155L125.28966666666666,52.3529437688681L126.83666666666667,37.855207076439484L128.401,33.02262817896329L129.96966666666668,37.04977317956778L131.56433333333334,37.855207076439484L133.159,37.855207076439484L134.74066666666667,41.07692634142364L136.33966666666666,32.21719428209158L137.9343333333333,35.438913547075714L139.52466666666666,38.660632812059845L140.85066666666665,36.24434744394742L142.28066666666666,41.07692634142364L143.72366666666665,37.855207076439484L145.17533333333333,39.46606670893155L146.63133333333332,31.411768546471222L148.08733333333333,23.357462222759523L149.52166666666665,30.606334649599518L150.96033333333332,30.606334649599518L152.40766666666664,33.02262817896329L153.85933333333332,37.855207076439484L155.311,37.04977317956778L156.754,28.995475017107452L158.20566666666667,31.411768546471222L159.64,36.24434744394742L161.083,37.04977317956778L162.539,31.411768546471222L164.00366666666667,32.21719428209158L165.45966666666666,28.995475017107452L166.92433333333332,30.606334649599518L168.37599999999998,37.855207076439484L169.845,41.882352077043976L171.30533333333335,38.660632812059845L172.77433333333332,41.07692634142364L174.24766666666667,47.520364871391905L175.71666666666664,45.90950523889984L177.16833333333332,37.04977317956778L178.724,33.02262817896329L180.35766666666666,42.68778597391571L182.03033333333335,39.46606670893155L183.69433333333333,37.04977317956778L185.315,33.82805391458365L186.953,34.63348781145535L188.591,33.02262817896329L190.25933333333333,43.49321170953604L191.93633333333332,45.90950523889984L193.61766666666668,37.855207076439484L195.29466666666667,49.13122450388397L196.95,37.855207076439484L198.63566666666668,43.49321170953604L200.31699999999998,32.21719428209158L202.01566666666668,38.660632812059845L203.70999999999998,31.411768546471222L205.37833333333336,29.800908913979157L207.077,36.24434744394742L208.76700000000002,30.606334649599518L210.46133333333333,33.02262817896329L212.147,31.411768546471222L213.824,33.82805391458365L215.527,39.46606670893155L216.70566666666667,31.411768546471222L217.81933333333333,37.04977317956778L218.95466666666667,36.24434744394742L220.077,33.82805391458365L221.20366666666666,33.02262817896329L222.326,35.438913547075714L223.46133333333336,32.21719428209158L224.588,35.438913547075714L225.69733333333332,38.660632812059845L226.82833333333332,35.438913547075714L227.955,41.07692634142364L229.06866666666667,41.882352077043976L230.19966666666664,27.384615384615387L231.33066666666667,32.21719428209158L232.453,28.995475017107452L233.57533333333333,33.82805391458365L234.69333333333333,34.63348781145535L235.82433333333333,25.77374759087195L236.96833333333333,31.411768546471222L238.095,32.21719428209158L239.20000000000002,28.995475017107452L240.318,33.02262817896329" style="fill: none;" fill="none"></path></g></g></g></g></g><g><g><span fill="rgb(0, 0, 0)" stroke="none" stroke-width="1px">Alt + Scroll to Zoom</span></g></g></g><g transform="translate(70, 178)" clip-path="url(#clip_1)"><clipPath id="clip_1"><rect width="260" height="22"></rect></clipPath><g><g><line x1="0" y1="0" x2="0" y2="5" style="visibility: inherit;" fill="rgb(0, 0, 0)" stroke="rgb(204, 204, 204)" stroke-width="1px"></line><line x1="21.666666666666664" y1="0" x2="21.666666666666664" y2="5" style="visibility: inherit;" fill="rgb(0, 0, 0)" stroke="rgb(204, 204, 204)" stroke-width="1px"></line><line x1="43.33333333333333" y1="0" x2="43.33333333333333" y2="5" style="visibility: inherit;" fill="rgb(0, 0, 0)" stroke="rgb(204, 204, 204)" stroke-width="1px"></line><line x1="65" y1="0" x2="65" y2="5" style="visibility: inherit;" fill="rgb(0, 0, 0)" stroke="rgb(204, 204, 204)" stroke-width="1px"></line><line x1="86.66666666666666" y1="0" x2="86.66666666666666" y2="5" style="visibility: inherit;" fill="rgb(0, 0, 0)" stroke="rgb(204, 204, 204)" stroke-width="1px"></line><line x1="108.33333333333334" y1="0" x2="108.33333333333334" y2="5" style="visibility: inherit;" fill="rgb(0, 0, 0)" stroke="rgb(204, 204, 204)" stroke-width="1px"></line><line x1="130" y1="0" x2="130" y2="5" style="visibility: inherit;" fill="rgb(0, 0, 0)" stroke="rgb(204, 204, 204)" stroke-width="1px"></line><line x1="151.66666666666669" y1="0" x2="151.66666666666669" y2="5" style="visibility: inherit;" fill="rgb(0, 0, 0)" stroke="rgb(204, 204, 204)" stroke-width="1px"></line><line x1="173.33333333333331" y1="0" x2="173.33333333333331" y2="5" style="visibility: inherit;" fill="rgb(0, 0, 0)" stroke="rgb(204, 204, 204)" stroke-width="1px"></line><line x1="195" y1="0" x2="195" y2="5" style="visibility: inherit;" fill="rgb(0, 0, 0)" stroke="rgb(204, 204, 204)" stroke-width="1px"></line><line x1="216.66666666666669" y1="0" x2="216.66666666666669" y2="5" style="visibility: inherit;" fill="rgb(0, 0, 0)" stroke="rgb(204, 204, 204)" stroke-width="1px"></line><line x1="238.33333333333331" y1="0" x2="238.33333333333331" y2="5" style="visibility: inherit;" fill="rgb(0, 0, 0)" stroke="rgb(204, 204, 204)" stroke-width="1px"></line><line x1="260" y1="0" x2="260" y2="5" style="visibility: inherit;" fill="rgb(0, 0, 0)" stroke="rgb(204, 204, 204)" stroke-width="1px"></line></g><g transform="translate(0, 8)"><text x="0" y="0" dx="0em" dy="0.95em" style="text-anchor: middle; visibility: hidden; font-family: &quot;Helvetica Neue&quot;, sans-serif; font-size: 12px; font-weight: 200;" fill="rgb(50, 49, 63)" stroke="none" stroke-width="1px">-5k</text><text x="21.666666666666664" y="0" dx="0em" dy="0.95em" style="text-anchor: middle; visibility: inherit; font-family: &quot;Helvetica Neue&quot;, sans-serif; font-size: 12px; font-weight: 200;" fill="rgb(50, 49, 63)" stroke="none" stroke-width="1px">0</text><text x="43.33333333333333" y="0" dx="0em" dy="0.95em" style="text-anchor: middle; visibility: hidden; font-family: &quot;Helvetica Neue&quot;, sans-serif; font-size: 12px; font-weight: 200;" fill="rgb(50, 49, 63)" stroke="none" stroke-width="1px">5k</text><text x="65" y="0" dx="0em" dy="0.95em" style="text-anchor: middle; visibility: inherit; font-family: &quot;Helvetica Neue&quot;, sans-serif; font-size: 12px; font-weight: 200;" fill="rgb(50, 49, 63)" stroke="none" stroke-width="1px">10k</text><text x="86.66666666666666" y="0" dx="0em" dy="0.95em" style="text-anchor: middle; visibility: hidden; font-family: &quot;Helvetica Neue&quot;, sans-serif; font-size: 12px; font-weight: 200;" fill="rgb(50, 49, 63)" stroke="none" stroke-width="1px">15k</text><text x="108.33333333333334" y="0" dx="0em" dy="0.95em" style="text-anchor: middle; visibility: inherit; font-family: &quot;Helvetica Neue&quot;, sans-serif; font-size: 12px; font-weight: 200;" fill="rgb(50, 49, 63)" stroke="none" stroke-width="1px">20k</text><text x="130" y="0" dx="0em" dy="0.95em" style="text-anchor: middle; visibility: hidden; font-family: &quot;Helvetica Neue&quot;, sans-serif; font-size: 12px; font-weight: 200;" fill="rgb(50, 49, 63)" stroke="none" stroke-width="1px">25k</text><text x="151.66666666666669" y="0" dx="0em" dy="0.95em" style="text-anchor: middle; visibility: inherit; font-family: &quot;Helvetica Neue&quot;, sans-serif; font-size: 12px; font-weight: 200;" fill="rgb(50, 49, 63)" stroke="none" stroke-width="1px">30k</text><text x="173.33333333333331" y="0" dx="0em" dy="0.95em" style="text-anchor: middle; visibility: hidden; font-family: &quot;Helvetica Neue&quot;, sans-serif; font-size: 12px; font-weight: 200;" fill="rgb(50, 49, 63)" stroke="none" stroke-width="1px">35k</text><text x="195" y="0" dx="0em" dy="0.95em" style="text-anchor: middle; visibility: inherit; font-family: &quot;Helvetica Neue&quot;, sans-serif; font-size: 12px; font-weight: 200;" fill="rgb(50, 49, 63)" stroke="none" stroke-width="1px">40k</text><text x="216.66666666666669" y="0" dx="0em" dy="0.95em" style="text-anchor: middle; visibility: hidden; font-family: &quot;Helvetica Neue&quot;, sans-serif; font-size: 12px; font-weight: 200;" fill="rgb(50, 49, 63)" stroke="none" stroke-width="1px">45k</text><text x="238.33333333333331" y="0" dx="0em" dy="0.95em" style="text-anchor: middle; visibility: inherit; font-family: &quot;Helvetica Neue&quot;, sans-serif; font-size: 12px; font-weight: 200;" fill="rgb(50, 49, 63)" stroke="none" stroke-width="1px">50k</text><text x="260" y="0" dx="0em" dy="0.95em" style="text-anchor: middle; visibility: hidden; font-family: &quot;Helvetica Neue&quot;, sans-serif; font-size: 12px; font-weight: 200;" fill="rgb(50, 49, 63)" stroke="none" stroke-width="1px">55k</text></g><line x1="0" y1="0" x2="260" y2="0" fill="rgb(0, 0, 0)" stroke="rgb(204, 204, 204)" stroke-width="1px"></line></g></g></g></g></svg>