<svg viewBox="0 0 330 200" xmlns="http://www.w3.org/2000/svg"><g><g><g><g><g><line x1="46" y1="178" x2="41" y2="178" style="visibility: inherit;" fill="rgb(0, 0, 0)" stroke="rgb(204, 204, 204)" stroke-width="1px"></line><line x1="46" y1="164.3076923076923" x2="41" y2="164.3076923076923" style="visibility: inherit;" fill="rgb(0, 0, 0)" stroke="rgb(204, 204, 204)" stroke-width="1px"></line><line x1="46" y1="150.61538461538458" x2="41" y2="150.61538461538458" style="visibility: inherit;" fill="rgb(0, 0, 0)" stroke="rgb(204, 204, 204)" stroke-width="1px"></line><line x1="46" y1="136.92307692307693" x2="41" y2="136.92307692307693" style="visibility: inherit;" fill="rgb(0, 0, 0)" stroke="rgb(204, 204, 204)" stroke-width="1px"></line><line x1="46" y1="123.23076923076923" x2="41" y2="123.23076923076923" style="visibility: inherit;" fill="rgb(0, 0, 0)" stroke="rgb(204, 204, 204)" stroke-width="1px"></line><line x1="46" y1="109.53846153846156" x2="41" y2="109.53846153846156" style="visibility: inherit;" fill="rgb(0, 0, 0)" stroke="rgb(204, 204, 204)" stroke-width="1px"></line><line x1="46" y1="95.84615384615385" x2="41" y2="95.84615384615385" style="visibility: inherit;" fill="rgb(0, 0, 0)" stroke="rgb(204, 204, 204)" stroke-width="1px"></line><line x1="46" y1="82.15384615384616" x2="41" y2="82.15384615384616" style="visibility: inherit;" fill="rgb(0, 0, 0)" stroke="rgb(204, 204, 204)" stroke-width="1px"></line><line x1="46" y1="68.46153846153845" x2="41" y2="68.46153846153845" style="visibility: inherit;" fill="rgb(0, 0, 0)" stroke="rgb(204, 204, 204)" stroke-width="1px"></line><line x1="46" y1="54.769230769230816" x2="41" y2="54.769230769230816" style="visibility: inherit;" fill="rgb(0, 0, 0)" stroke="rgb(204, 204, 204)" stroke-width="1px"></line><line x1="46" y1="41.07692307692312" x2="41" y2="41.07692307692312" style="visibility: inherit;" fill="rgb(0, 0, 0)" stroke="rgb(204, 204, 204)" stroke-width="1px"></line><line x1="46" y1="27.384615384615415" x2="41" y2="27.384615384615415" style="visibility: inherit;" fill="rgb(0, 0, 0)" stroke="rgb(204, 204, 204)" stroke-width="1px"></line><line x1="46" y1="13.692307692307708" x2="41" y2="13.692307692307708" style="visibility: inherit;" fill="rgb(0, 0, 0)" stroke="rgb(204, 204, 204)" stroke-width="1px"></line><line x1="46" y1="0" x2="41" y2="0" style="visibility: inherit;" fill="rgb(0, 0, 0)" stroke="rgb(204, 204, 204)" stroke-width="1px"></line></g><g transform="translate(36, 0)"><text x="0" y="178" dx="0em" dy="0.3em" style="text-anchor: end; visibility: hidden; font-family: &quot;Helvetica Neue&quot;, sans-serif; font-size: 12px; font-weight: 200;" fill="rgb(50, 49, 63)" stroke="none" stroke-width="1px">2.8</text><text x="0" y="164.3076923076923" dx="0em" dy="0.3em" style="text-anchor: end; visibility: inherit; font-family: &quot;Helvetica Neue&quot;, sans-serif; font-size: 12px; font-weight: 200;" fill="rgb(50, 49, 63)" stroke="none" stroke-width="1px">3</text><text x="0" y="150.61538461538458" dx="0em" dy="0.3em" style="text-anchor: end; visibility: hidden; font-family: &quot;Helvetica Neue&quot;, sans-serif; font-size: 12px; font-weight: 200;" fill="rgb(50, 49, 63)" stroke="none" stroke-width="1px">3.2</text><text x="0" y="136.92307692307693" dx="0em" dy="0.3em" style="text-anchor: end; visibility: inherit; font-family: &quot;Helvetica Neue&quot;, sans-serif; font-size: 12px; font-weight: 200;" fill="rgb(50, 49, 63)" stroke="none" stroke-width="1px">3.4</text><text x="0" y="123.23076923076923" dx="0em" dy="0.3em" style="text-anchor: end; visibility: hidden; font-family: &quot;Helvetica Neue&quot;, sans-serif; font-size: 12px; font-weight: 200;" fill="rgb(50, 49, 63)" stroke="none" stroke-width="1px">3.6</text><text x="0" y="109.53846153846156" dx="0em" dy="0.3em" style="text-anchor: end; visibility: inherit; font-family: &quot;Helvetica Neue&quot;, sans-serif; font-size: 12px; font-weight: 200;" fill="rgb(50, 49, 63)" stroke="none" stroke-width="1px">3.8</text><text x="0" y="95.84615384615385" dx="0em" dy="0.3em" style="text-anchor: end; visibility: hidden; font-family: &quot;Helvetica Neue&quot;, sans-serif; font-size: 12px; font-weight: 200;" fill="rgb(50, 49, 63)" stroke="none" stroke-width="1px">4</text><text x="0" y="82.15384615384616" dx="0em" dy="0.3em" style="text-anchor: end; visibility: inherit; font-family: &quot;Helvetica Neue&quot;, sans-serif; font-size: 12px; font-weight: 200;" fill="rgb(50, 49, 63)" stroke="none" stroke-width="1px">4.2</text><text x="0" y="68.46153846153845" dx="0em" dy="0.3em" style="text-anchor: end; visibility: hidden; font-family: &quot;Helvetica Neue&quot;, sans-serif; font-size: 12px; font-weight: 200;" fill="rgb(50, 49, 63)" stroke="none" stroke-width="1px">4.4</text><text x="0" y="54.769230769230816" dx="0em" dy="0.3em" style="text-anchor: end; visibility: inherit; font-family: &quot;Helvetica Neue&quot;, sans-serif; font-size: 12px; font-weight: 200;" fill="rgb(50, 49, 63)" stroke="none" stroke-width="1px">4.6</text><text x="0" y="41.07692307692312" dx="0em" dy="0.3em" style="text-anchor: end; visibility: hidden; font-family: &quot;Helvetica Neue&quot;, sans-serif; font-size: 12px; font-weight: 200;" fill="rgb(50, 49, 63)" stroke="none" stroke-width="1px">4.8</text><text x="0" y="27.384615384615415" dx="0em" dy="0.3em" style="text-anchor: end; visibility: inherit; font-family: &quot;Helvetica Neue&quot;, sans-serif; font-size: 12px; font-weight: 200;" fill="rgb(50, 49, 63)" stroke="none" stroke-width="1px">5</text><text x="0" y="13.692307692307708" dx="0em" dy="0.3em" style="text-anchor: end; visibility: hidden; font-family: &quot;Helvetica Neue&quot;, sans-serif; font-size: 12px; font-weight: 200;" fill="rgb(50, 49, 63)" stroke="none" stroke-width="1px">5.2</text><text x="0" y="0" dx="0em" dy="0.3em" style="text-anchor: end; visibility: hidden; font-family: &quot;Helvetica Neue&quot;, sans-serif; font-size: 12px; font-weight: 200;" fill="rgb(50, 49, 63)" stroke="none" stroke-width="1px">5.4</text></g><line x1="46" y1="0" x2="46" y2="178" fill="rgb(0, 0, 0)" stroke="rgb(204, 204, 204)" stroke-width="1px"></line></g></g><g transform="translate(46, 0)" clip-path="url(#clip_0)"><clipPath id="clip_0"><rect width="284" height="178"></rect></clipPath><g><g><g><line x1="0" y1="0" x2="0" y2="178" fill="rgb(0, 0, 0)" stroke="rgb(60, 60, 60)" stroke-width="1px" opacity="0.25"></line><line x1="23.666666666666664" y1="0" x2="23.666666666666664" y2="178" fill="rgb(0, 0, 0)" stroke="rgb(60, 60, 60)" stroke-width="1px" opacity="0.25"></line><line x1="47.33333333333333" y1="0" x2="47.33333333333333" y2="178" fill="rgb(0, 0, 0)" stroke="rgb(60, 60, 60)" stroke-width="1px" opacity="0.25"></line><line x1="71" y1="0" x2="71" y2="178" fill="rgb(0, 0, 0)" stroke="rgb(60, 60, 60)" stroke-width="1px" opacity="0.25"></line><line x1="94.66666666666666" y1="0" x2="94.66666666666666" y2="178" fill="rgb(0, 0, 0)" stroke="rgb(60, 60, 60)" stroke-width="1px" opacity="0.25"></line><line x1="118.33333333333334" y1="0" x2="118.33333333333334" y2="178" fill="rgb(0, 0, 0)" stroke="rgb(60, 60, 60)" stroke-width="1px" opacity="0.25"></line><line x1="142" y1="0" x2="142" y2="178" fill="rgb(0, 0, 0)" stroke="rgb(60, 60, 60)" stroke-width="1px" opacity="0.25"></line><line x1="165.66666666666669" y1="0" x2="165.66666666666669" y2="178" fill="rgb(0, 0, 0)" stroke="rgb(60, 60, 60)" stroke-width="1px" opacity="0.25"></line><line x1="189.33333333333331" y1="0" x2="189.33333333333331" y2="178" fill="rgb(0, 0, 0)" stroke="rgb(60, 60, 60)" stroke-width="1px" opacity="0.25"></line><line x1="213" y1="0" x2="213" y2="178" fill="rgb(0, 0, 0)" stroke="rgb(60, 60, 60)" stroke-width="1px" opacity="0.25"></line><line x1="236.66666666666669" y1="0" x2="236.66666666666669" y2="178" fill="rgb(0, 0, 0)" stroke="rgb(60, 60, 60)" stroke-width="1px" opacity="0.25"></line><line x1="260.3333333333333" y1="0" x2="260.3333333333333" y2="178" fill="rgb(0, 0, 0)" stroke="rgb(60, 60, 60)" stroke-width="1px" opacity="0.25"></line><line x1="284" y1="0" x2="284" y2="178" fill="rgb(0, 0, 0)" stroke="rgb(60, 60, 60)" stroke-width="1px" opacity="0.25"></line></g><g><line x1="0" y1="178" x2="284" y2="178" fill="rgb(0, 0, 0)" stroke="rgb(60, 60, 60)" stroke-width="1px" opacity="0.25"></line><line x1="0" y1="164.3076923076923" x2="284" y2="164.3076923076923" fill="rgb(0, 0, 0)" stroke="rgb(60, 60, 60)" stroke-width="1px" opacity="0.25"></line><line x1="0" y1="150.61538461538458" x2="284" y2="150.61538461538458" fill="rgb(0, 0, 0)" stroke="rgb(60, 60, 60)" stroke-width="1px" opacity="0.25"></line><line x1="0" y1="136.92307692307693" x2="284" y2="136.92307692307693" fill="rgb(0, 0, 0)" stroke="rgb(60, 60, 60)" stroke-width="1px" opacity="0.25"></line><line x1="0" y1="123.23076923076923" x2="284" y2="123.23076923076923" fill="rgb(0, 0, 0)" stroke="rgb(60, 60, 60)" stroke-width="1px" opacity="0.25"></line><line x1="0" y1="109.53846153846156" x2="284" y2="109.53846153846156" fill="rgb(0, 0, 0)" stroke="rgb(60, 60, 60)" stroke-width="1px" opacity="0.25"></line><line x1="0" y1="95.84615384615385" x2="284" y2="95.84615384615385" fill="rgb(0, 0, 0)" stroke="rgb(60, 60, 60)" stroke-width="1px" opacity="0.25"></line><line x1="0" y1="82.15384615384616" x2="284" y2="82.15384615384616" fill="rgb(0, 0, 0)" stroke="rgb(60, 60, 60)" stroke-width="1px" opacity="0.25"></line><line x1="0" y1="68.46153846153845" x2="284" y2="68.46153846153845" fill="rgb(0, 0, 0)" stroke="rgb(60, 60, 60)" stroke-width="1px" opacity="0.25"></line><line x1="0" y1="54.769230769230816" x2="284" y2="54.769230769230816" fill="rgb(0, 0, 0)" stroke="rgb(60, 60, 60)" stroke-width="1px" opacity="0.25"></line><line x1="0" y1="41.07692307692312" x2="284" y2="41.07692307692312" fill="rgb(0, 0, 0)" stroke="rgb(60, 60, 60)" stroke-width="1px" opacity="0.25"></line><line x1="0" y1="27.384615384615415" x2="284" y2="27.384615384615415" fill="rgb(0, 0, 0)" stroke="rgb(60, 60, 60)" stroke-width="1px" opacity="0.25"></line><line x1="0" y1="13.692307692307708" x2="284" y2="13.692307692307708" fill="rgb(0, 0, 0)" stroke="rgb(60, 60, 60)" stroke-width="1px" opacity="0.25"></line><line x1="0" y1="0" x2="284" y2="0" fill="rgb(0, 0, 0)" stroke="rgb(60, 60, 60)" stroke-width="1px" opacity="0.25"></line></g></g></g><g><g><line x1="0" y1="369.6923076923076" x2="284" y2="369.6923076923076" fill="rgb(0, 0, 0)" stroke="rgb(153, 153, 153)" stroke-width="1.5px"></line></g></g><g><g><line x1="23.666666666666664" y1="0" x2="23.666666666666664" y2="178" fill="rgb(0, 0, 0)" stroke="rgb(153, 153, 153)" stroke-width="1.5px"></line></g></g><g><g><g><g><g><path stroke="rgb(255, 112, 67)" stroke-width="2px" d="M29.351399999999998,-13.245917760234647L29.82473333333333,9.033095446796437L30.298066666666667,24.42122542440609L30.7714,36.44543238478187L31.244733333333333,12.499279246033126L31.718066666666665,7.8593679529788005L32.1914,30.177254260762084L32.66473333333333,35.759283140875L33.13806666666667,47.14526972259716L33.611399999999996,60.18569698131131L34.08473333333333,59.63251072691011L34.55806666666667,22.526093563373934L35.0314,23.90802615186786L35.504733333333334,19.124946504001002L35.97806666666667,35.232381488477245L36.4514,46.55628543490613L36.924733333333336,53.28831785909941L37.39806666666667,57.93128234371231L37.8714,56.34575648967295L38.34473333333334,40.494440391117706L38.81806666666667,40.56633653938147L39.2914,53.45706376865705L39.76473333333334,38.40862679041558L40.23806666666667,35.36546309172442L40.711400000000005,37.26679689234976L41.18473333333333,38.93218592216718L41.65806666666666,39.259403612940446L42.1314,40.72392591927479L42.60473333333333,57.66956663478456L43.078066666666665,70.01112692153632L43.551399999999994,66.08341142791276L44.02473333333333,66.11625178290315L44.498066666666666,42.52609731239224L44.971399999999996,39.474025628531194L45.44473333333333,49.839613488384515L45.91806666666667,39.778808556982256L46.3914,51.591612390486205L46.864733333333334,56.688642982860586L47.33806666666666,50.0445062659869L47.8114,59.94736523075652L48.284733333333335,51.42274382964051L48.758066666666664,54.57011522640845L49.2314,43.99298134828152L49.70473333333333,50.145047315294505L50.178066666666666,50.148809422992485L50.6514,52.22898778649788L51.12473333333333,55.640245979839634L51.59806666666667,61.7179357674989L52.071400000000004,57.62179564960155L52.54473333333333,47.58958584822048L53.01806666666667,41.32327266453265L53.4914,35.34113510719098L53.964733333333335,32.96321607851857L54.43806666666667,43.48164723965334L54.9114,39.72217537024906L55.38473333333334,42.902155194202265L55.858066666666666,44.318684854040754L56.3314,44.48629790431127L56.80473333333334,48.101390139135674L57.27806666666667,36.418323044273336L57.751400000000004,43.3648995535402L58.22473333333334,39.2896796086996L58.69806666666666,40.17715949815499L59.171400000000006,45.83855498159559L59.64473333333333,50.06527892269415L60.118066666666664,53.98801342175301L60.5914,60.24014640287412L61.06473333333333,68.76144453425617L61.538066666666666,53.21765505292579L62.011399999999995,42.62298564852409L62.48473333333333,51.97206508781707L62.95806666666667,45.50532221846973L63.4314,47.35626230792843L63.90473333333333,66.39008682301899L64.37806666666667,72.9831771430373L64.71886666666667,80.3685715967501L65.1922,79.82985684101749L65.66553333333333,87.46492052274913L66.13886666666667,79.70239089324342L66.6122,90.58479720498242L67.08553333333333,69.88549038655243L67.55886666666667,64.02902128646886L68.0322,69.92363036597857L68.50553333333333,73.72363183461293L68.97886666666668,89.43815419856077L69.14453333333333,99.07311188159211L69.61786666666667,103.07182871911776L70.0912,83.80691295839792L70.56453333333333,94.87946023075514L71.03786666666666,86.73485305572021L71.5112,79.50126186013502L71.98453333333333,80.64500289757405L72.45786666666666,86.62612068463193L72.93119999999999,85.5762051464205L73.40453333333333,85.89281243472513L73.87786666666666,67.90158119304628L73.98673333333333,73.48719068968697L74.46006666666666,88.59389477697289L74.93339999999999,99.4806739151059L75.40673333333334,104.46194488086981L75.88006666666666,90.93925414256091L76.3534,99.78738203379518L76.82673333333334,93.77926985474825L77.30006666666667,80.55346720101619L77.7734,92.42213086802646L78.24673333333334,82.21527829418433L78.72006666666667,83.46268210095673L79.1934,90.72231085692785L79.66673333333334,101.29674200652202L80.14006666666667,109.02474789592387L80.6134,98.01670082132834L81.08673333333333,95.23767933496109L81.56006666666667,97.54173246924219L82.0334,95.56348921656759L82.50673333333333,100.36530724753385L82.98006666666667,92.14187067044486L83.4534,84.68424272654339L83.92673333333333,95.0761744135233L84.40006666666667,92.41837414252484L84.8734,100.85965996654019L85.34673333333333,100.78998202920171L85.82006666666668,93.53754519432943L86.2934,102.65972090179716L86.76673333333333,99.04610748162315L87.24006666666666,111.77738853660925L87.71340000000001,114.2653409928746L88.18673333333334,125.77591321331592L88.66006666666667,122.83774117243621L89.13340000000001,106.20004870697535L89.60673333333334,109.7390570956391L90.08006666666667,111.26284909483827L90.55340000000001,88.39329281048201L91.02673333333334,84.72018768311221L91.50006666666667,86.6885520432858L91.97340000000001,95.91510696050702L92.44673333333334,104.63595907869097L92.92006666666667,103.29695061792326L93.3934,107.4390470179413L93.86673333333334,103.78781879683812L94.34006666666667,106.69427636699818L94.8134,96.06724065724985L95.28673333333334,96.32285689907998L95.76006666666667,93.28577392932222L96.23339999999999,96.73629949203337L96.70673333333335,93.60891223244538L97.18006666666666,91.85177695189466L97.65339999999999,94.60197231191361L98.12673333333333,97.252912837552L98.60006666666666,108.6434999765621L99.07339999999999,108.46832721110476L99.54673333333332,107.75170432150286L100.02006666666666,104.38190923393684L100.4934,96.88648061650964L100.96673333333332,100.97203274661409L101.44006666666667,108.65346262188588L101.9134,112.1153273554476L102.38673333333332,122.17836363068946L102.86006666666667,109.76998751622502L103.3334,121.28569840293758L103.80673333333333,99.77636178352269L104.28006666666666,98.05061711536679L104.7534,116.7716275722144L105.22673333333333,111.6189483708733L105.70006666666666,108.87938036975986L106.1734,114.58538910781479L106.64673333333333,118.34153111535137L107.12006666666666,123.01659153781915L107.5934,126.52127083891455L108.06673333333333,116.90545686251048L108.54006666666666,107.93710708243992L109.0134,117.82367817862107L109.48673333333333,121.57109264753043L109.96006666666666,127.67360021301255L110.43339999999999,122.61839917181159L110.90673333333334,123.83845814815808L111.38006666666666,118.6496112758651L111.8534,130.2837609135233L112.32673333333334,129.6176920746771L112.80006666666667,132.4462490580045L112.87106666666668,132.24754145573917L113.34440000000001,119.05290504166567L113.81773333333334,130.79380575020647L114.29106666666667,119.26100837626313L114.76440000000001,114.96553841156518L115.23773333333334,124.44213429972072L115.71106666666667,131.1751871460499L116.18440000000001,122.88098392018276L116.65773333333334,115.84536030251522L117.13106666666667,123.5801978000936L117.60440000000001,114.2484499223832L118.07773333333334,121.75838483512501L118.55106666666666,114.54384789350547L119.02439999999999,134.46061431564019L119.49773333333334,135.71781339965037L119.97106666666666,147.8743633034912L120.44439999999999,146.9534840143349L120.91773333333333,140.27445984558798L121.39106666666666,141.916021782445L121.86439999999999,135.73729334929416L122.33773333333333,136.58851158118213L122.81106666666666,145.85746594820358L123.28439999999999,137.1821056515957L123.75773333333333,138.36845480179204L124.23106666666666,131.10681733947314L124.70439999999999,128.9073430483853L125.17773333333332,108.20960628918859L125.65106666666667,96.1434327030793L126.1244,104.94196110776475L126.59773333333332,114.28695934690185L127.07106666666667,110.56013731266741L127.5444,115.98737458843823L128.01773333333333,119.63393218444327L128.49106666666668,112.2865061312567L128.9644,107.28266638806403L129.43773333333334,105.90747779586314L129.91106666666667,118.5137357994397L130.3844,114.67870138699459L130.85773333333333,124.70690864545503L131.33106666666666,135.5061934109633L131.80440000000002,139.437657480426L132.27773333333334,147.47098643892681L132.75106666666667,144.49156175919094L133.2244,146.96921386363744L133.69773333333333,138.14267963881076L134.17106666666666,133.0901987688822L134.64440000000002,131.10970606149044L135.11773333333335,142.2353358305404L135.59106666666668,138.43109746955264L136.0644,139.8573889250711L136.53773333333334,132.00058796344797L136.8596,124.05515929659792L137.33293333333333,141.98968810576295L137.80626666666666,141.86440430568746L138.2796,133.86958728146266L138.75293333333332,124.86894638480129L139.22626666666667,124.63461123997112L139.6996,138.2979710240113L140.17293333333333,141.48990226819186L140.64626666666666,145.25135545883262L141.1196,138.88973822422736L141.59293333333332,130.7761290885398L142.06626666666665,129.55159058712024L142.5396,138.30540168979584L143.01293333333334,138.18452484027483L143.48626666666667,135.75426344832937L143.9596,135.88844001017426L144.43293333333332,136.11415228644876L144.90626666666665,139.2972336102472L145.3796,141.36239982349693L145.8529333333333,131.15002724232582L146.32626666666667,123.13949032082884L146.7996,120.47653289513408L147.27293333333333,126.96938586583474L147.74626666666666,132.61189038698632L148.2196,124.10242330301038L148.69293333333331,116.5086619671616L149.16626666666667,119.73879556032395L149.6396,120.35072328035437L150.11293333333333,109.71249937734547L150.58626666666666,118.35919787267096L151.05960000000002,114.81337417386557L151.53293333333332,124.72300630221638L152.00626666666668,121.56910458549129L152.40859999999998,131.57396951049034L152.88193333333334,122.6188179534524L153.35526666666667,137.10532408213564L153.8286,148.90610722665048L154.30193333333332,153.03770687407086L154.77526666666668,153.72087560050713L155.24859999999998,132.12446484122202L155.72193333333334,131.63771134769462L156.19526666666667,117.09684790838048L156.6686,125.49816239909023L157.14193333333333,135.91677710548493L157.61526666666668,124.66695330709294L158.08859999999999,122.79274437196895L158.56193333333334,126.09921633040523L159.03526666666667,120.49339411735656L159.5086,121.43754235545686L159.98193333333333,121.13374809570152L160.45526666666666,136.28815820281557L160.9286,131.37602105702393L161.40193333333335,119.99601631512205L161.87526666666665,114.92668752087775L162.3486,110.46691106326347L162.82193333333333,109.17601835150172L163.29526666666666,113.5239274702367L163.7686,110.22564087890761L164.24193333333335,123.99285565082562L164.71526666666665,128.95376894417268L165.1886,142.89157706951534L165.66193333333334,132.92067237324258L166.13526666666667,128.3037397209635L166.6086,128.597721875006L167.08193333333335,130.9441504506895L167.55526666666665,138.28835583060078L168.0286,135.66739103527695L168.50193333333334,130.9409766533085L168.97526666666667,132.8814013322342L169.4486,132.52197081195342L169.92193333333336,137.78676531344922L170.39526666666666,136.51698207848546L170.86860000000001,136.12403926730912L171.34193333333332,139.31734405835365L171.81526666666667,138.78722262813713L172.2886,134.838628650485L172.76193333333333,140.6179836681161L173.23526666666666,136.95854583206923L173.70860000000002,143.57010999941397L174.18193333333332,141.71993492641866L174.65526666666668,133.55808613532088L175.1286,134.95541678293944L175.60193333333333,140.43709250638477L176.07526666666666,139.41609174613103L176.54860000000002,130.23773855708828L177.02193333333332,120.60414628735538L177.49526666666668,108.646256510805L177.9686,114.53128952869736L178.44193333333334,126.52451953856095L178.91526666666667,122.27971307396622L179.38860000000003,129.78575979690353L179.86193333333333,121.8961295194499L180.33526666666668,142.86499088377425L180.8086,131.3658717909571L181.2819333333333,124.50297504445491L181.75526666666667,131.97692874927236L182.22860000000003,131.82792614115502L182.70193333333333,138.36379336323864L183.17526666666666,148.51543627260992L183.6486,152.99973885484155L184.12193333333332,151.3849602803646L184.59526666666667,151.1365460280236L185.06859999999998,154.10332153174934L185.54193333333333,150.69333049176655L186.01526666666666,131.4220051657639L186.4886,128.85749472919005L186.96193333333332,135.934646031925L187.43526666666668,155.02761564124592L187.90859999999998,153.28608060794127L188.38193333333334,142.54559980763253L188.85526666666667,142.32174063817666L189.3286,144.52476348668057L189.80193333333332,146.97054565796148L190.27526666666668,158.5878487914421L190.74859999999998,166.8948431597607L191.22193333333334,157.2439165140774L191.69526666666667,145.11370861234187L192.1686,147.53004698839007L192.64193333333333,148.75926696916366L193.11526666666668,132.35354180208603L193.52706666666666,123.56756054324389L194.0004,135.3767338693495L194.4737333333333,149.62811958205685L194.94706666666667,128.7425402544286L195.4204,135.07668816509081L195.89373333333333,140.03973236412986L196.36706666666666,133.78761408909187L196.84040000000002,147.11102499286255L197.31373333333332,145.77835276841907L197.78706666666668,146.4167041070921L198.2604,132.34581711634507L198.73373333333333,125.85972838590655L199.20706666666666,108.6062597840349L199.6804,117.47997791164462L200.15373333333332,129.65073169833443L200.62706666666668,124.41358252684182L201.10039999999998,122.4664399205667L201.57373333333334,120.86591229331876L202.04706666666667,127.84910263242637L202.5204,140.24271307300225L202.99373333333332,124.28766785931325L203.46706666666668,127.6729470254637L203.94039999999998,131.66293619808016L204.41373333333334,131.00653606046856L204.88706666666667,127.6911023460109L205.3604,130.3499331310855L205.83373333333333,143.39760896371587L206.30706666666669,149.9290611472719L206.7804,135.12024809942946L207.25373333333334,128.4857946830049L207.72706666666667,132.88422193568314L208.2004,130.27088902063974L208.67373333333333,131.73831970528119L209.1470666666667,119.68736700587073L209.6204,121.56390511377037L210.09373333333335,123.80727029798625L210.56706666666668,125.205977660363L211.0404,122.879457854118L211.51373333333333,132.92035304586517L211.98706666666666,134.81180975102188L212.4604,129.30733648815226L212.93373333333335,134.29683944124798L213.40706666666665,143.94101693347807L213.8804,140.16955017126185L214.35373333333334,145.37130478923814L214.82706666666667,123.59922260898861L215.3004,137.6091138219445L215.77373333333335,138.29896456853638L216.24706666666665,137.13637531549108L216.7204,125.28564668889206L217.19373333333334,129.62376182580658L217.66706666666667,137.18308941431155L218.1404,146.00755172036799L218.61373333333336,149.74266729592867L219.08706666666666,145.7958820207205L219.56040000000002,142.23790398177889L220.03373333333334,141.4971101846284L220.50706666666667,149.905222803093L220.9804,138.1898076022175L221.45373333333336,129.35389713763655L221.92706666666666,131.95329911696973L222.40040000000002,121.67453016894235L222.87373333333332,125.37718362173246L223.34706666666665,130.34243668648335L223.8204,147.416416620049L224.2937333333333,144.87651842364457L224.76706666666666,140.99672766367792L225.2404,125.89566233618363L225.71373333333332,137.27580874440724L226.18706666666665,147.415005324053L226.6604,146.7081956412152L227.1337333333333,152.6411174097903L227.60706666666667,141.82379687872395L228.0804,138.44556905718355L228.55373333333333,130.40488352053978L229.02706666666666,136.6968188266397L229.5004,136.08669730173023L229.9737333333333,130.94675945224964L230.44706666666667,133.29465481217412L230.9204,135.1237753712071L231.39373333333333,143.3155197233401L231.86706666666666,149.73233540775436L232.34040000000002,143.3833614566873L232.81373333333332,136.92386634192897L233.28706666666668,133.9544634620605L233.7604,127.86233242296703L234.23373333333333,124.82817137096936L234.70706666666666,130.37129739789793L235.1804,133.15860849303292L235.4265333333333,158.32916742776706L235.89986666666667,163.3267613344835L236.3732,161.0821832141672L236.84653333333333,157.73270086911128L237.31986666666666,152.73024643146584L237.7932,162.375981582674L238.2665333333333,143.52897360768438L238.73986666666667,135.4057777589333L239.2132,137.2461385205169L239.68653333333333,141.52395410624365L240.15986666666666,134.45617470506502L240.63320000000002,129.22916744260027L241.10653333333332,133.88644737022395L241.57986666666667,149.16918624452268L242.05319999999998,150.03536528658975L242.52653333333333,144.64861042324304L242.99986666666666,142.83051491729964L243.4732,136.59085660187742L243.94653333333332,130.69382471383238L244.41986666666668,129.96863702607993L244.89319999999998,128.75491079683493L245.36653333333334,150.11665848936207L245.83986666666667,130.66606942061367L246.3132,135.56071446854816L246.78653333333332,133.2583225095567L247.25986666666668,142.6314158146189L247.73319999999998,142.52588991848074L248.20653333333334,151.1253544339699L248.67986666666667,149.28630763899523L249.1532,139.80895967140845L249.62653333333333,140.60272187730996L250.09986666666668,116.54105912772974L250.57319999999999,125.95525841110913L251.04653333333334,133.74830588456672L251.51986666666667,136.58535605816502L251.9932,136.2225847636539L252.46653333333333,127.70508614673571L252.9398666666667,122.89767512729101L253.4132,139.5533106899538L253.88653333333335,138.8141014754294L254.35986666666665,141.01444927014518L254.8332,155.46167307299052L255.30653333333333,142.779096462732L255.77986666666666,143.0592365037632L256.2532,155.37875574366785L256.72653333333335,153.0671719838612L257.19986666666665,144.3399060986496L257.6732,131.2965498953131L258.14653333333337,143.46080400773462L258.61986666666667,135.3706258382482L259.0932,135.2434061376081L259.5665333333333,148.79395383879114L260.0398666666667,151.15223926586083L260.5132,150.30219611222782L260.98653333333334,152.00669775083898L261.45986666666664,149.46568110763434L261.9332,154.05067306046243L262.40653333333336,156.2461371139969L262.87986666666666,151.23352417354116" style="fill: none;" fill="none"></path></g></g></g></g><g opacity="0.2"><g><g><g><path stroke="rgb(255, 112, 67)" stroke-width="2px" d="M25.0914,-21.442519261286776L25.564733333333333,16.815762226398192L26.03806666666667,-66.11374884385324L26.511400000000002,43.69853247129004L26.984733333333335,-5.672010935269839L27.931400000000004,-43.70138564476596L28.404733333333333,38.25207240764914L28.878066666666665,30.039568387545103L29.351399999999998,-22.449976774362398L29.82473333333333,63.19370533869818L30.298066666666667,61.959822067847625L30.7714,65.8500294318566L31.244733333333333,-46.16197028526889L31.718066666666665,-3.5211621064405847L32.1914,84.96550824091986L32.66473333333333,49.471181429349485L33.13806666666667,75.12663004948544L33.611399999999996,92.24299401503343L34.08473333333333,58.272307542654204L34.55806666666667,-68.72763442993161L35.0314,27.30692027165341L35.504733333333334,7.359907883864224L35.97806666666667,74.8544359940749L36.4514,74.41265113537129L36.924733333333336,69.84933640406683L37.39806666666667,69.35336083632251L37.8714,52.445174070505004L38.34473333333334,1.497909545898466L38.81806666666667,40.743212773249724L39.2914,85.17051887512207L39.76473333333334,1.3866880123432281L40.23806666666667,27.878697542043852L40.711400000000005,41.94445103865405L41.18473333333333,43.02937514965353L41.65806666666666,40.06442517500659L42.1314,44.32694882612964L42.60473333333333,99.35931139725906L43.078066666666665,100.37390184402466L43.551399999999994,56.42042167370137L44.02473333333333,66.19704583974986L44.498066666666666,-15.510562676649783L44.971399999999996,31.96529725881726L45.44473333333333,75.34110773526706L45.91806666666667,15.02714237800015L46.3914,80.65356005155124L46.864733333333334,69.2283957554744L47.33806666666666,33.698551177978544L47.8114,84.31045356163614L48.284733333333335,30.450405781085692L48.758066666666664,62.31330218681924L49.2314,17.971036324134275L49.70473333333333,65.28040673182562L50.178066666666666,50.158064988943266L50.6514,57.346658413226805L51.12473333333333,64.03264933366043L51.59806666666667,76.67031442202057L52.071400000000004,47.54444056290848L52.54473333333333,22.90826694781967L53.01806666666667,25.9068412780762L53.4914,20.623834756704497L53.964733333333335,27.11304158430835L54.43806666666667,69.35917164729193L54.9114,30.473094059870817L55.38473333333334,50.72556576362024L55.858066666666666,47.80364190615143L56.3314,44.898660806509184L56.80473333333334,56.99526757460376L57.27806666666667,7.675552441523649L57.751400000000004,60.45491996178262L58.22473333333334,29.263792478121275L58.69806666666666,42.3605442780715L59.171400000000006,59.766763246976424L59.64473333333333,60.46389733828033L60.118066666666664,63.63875469794641L60.5914,75.62169155707727L61.06473333333333,89.72560706505409L61.538066666666666,14.976705844585751L62.011399999999995,16.557899328378568L62.48473333333333,74.97274149381198L62.95806666666667,29.595792183509275L63.4314,51.909959206214324L63.90473333333333,113.21724678919865L64.37806666666667,89.20354813795824L64.71886666666667,98.53817525276772L65.1922,78.50450669802154L65.66553333333333,106.24876231413621L66.13886666666667,60.604956406813415L66.6122,117.35777605496921L67.08553333333333,18.96089817927438L67.55886666666667,49.620891424325805L68.0322,84.42559249584492L68.50553333333333,83.0724243750939L68.97886666666668,128.09914174446692L69.14453333333333,122.77710811908429L69.61786666666667,112.9095023228572L70.0912,36.41122055053714L70.56453333333333,122.12022531949556L71.03786666666666,66.69742848322943L71.5112,61.70512573535626L71.98453333333333,83.45884330456074L72.45786666666666,101.34091219535242L72.93119999999999,82.99319494687595L73.40453333333333,86.67173209557168L73.87786666666666,23.63941713479852L73.98673333333333,87.22894969353311L74.46006666666666,125.75952317164494L74.93339999999999,126.26441082587608L75.40673333333334,116.71690563055185L75.88006666666666,57.670627447275024L76.3534,121.55561362780057L76.82673333333334,78.99806653536285L77.30006666666667,48.015246831453794L77.7734,121.62150757129376L78.24673333333334,57.10430189279411L78.72006666666667,86.53155444218564L79.1934,108.58250478597787L79.66673333333334,127.31203801815326L80.14006666666667,128.0372468141409L80.6134,70.93461961012622L81.08673333333333,88.4007095190195L81.56006666666667,103.21018152970535L82.0334,90.69660010704628L82.50673333333333,112.17877652094914L82.98006666666667,71.91050940293533L83.4534,66.33692968808688L83.92673333333333,120.6424838579618L84.40006666666667,85.87963368342474L84.8734,121.626975609706L85.34673333333333,100.61855983734131L85.82006666666668,75.69504488431491L86.2934,125.10216701947725L86.76673333333333,90.15586823683519L87.24006666666666,143.09898310441235L87.71340000000001,120.38622056520902L88.18673333333334,154.0943106137789L88.66006666666667,115.60922795075636L89.13340000000001,65.26787104973428L89.60673333333334,118.44575247397789L90.08006666666667,115.01169377106886L90.55340000000001,32.12943634620083L91.02673333333334,75.68358648740329L91.50006666666667,91.5311370262733L91.97340000000001,118.61434760460487L92.44673333333334,126.0910658469567L92.92006666666667,100.0027118095985L93.3934,117.62946411279532L93.86673333333334,94.8050393324632L94.34006666666667,113.8447654063885L94.8134,69.92252650627725L95.28673333333334,96.95172592309805L95.76006666666667,85.81391928746152L96.23339999999999,105.22530874839197L96.70673333333335,85.91489028930664L97.18006666666666,87.52885935856747L97.65339999999999,101.36802387237549L98.12673333333333,103.77477689889761L98.60006666666666,136.6667091663067L99.07339999999999,108.03736584003155L99.54673333333332,105.9886632332435L100.02006666666666,96.0915137070876L100.4934,78.44617007328915L100.96673333333332,111.02333919818585L101.44006666666667,127.55137487558218L101.9134,120.6322333262517L102.38673333333332,146.93552207946777L102.86006666666667,79.24280614119311L103.3334,149.61673798927893L103.80673333333333,46.858928093543454L104.28006666666666,93.80492694561299L104.7534,162.82920001103327L105.22673333333333,98.9422877751864L105.70006666666666,102.1394743185777L106.1734,128.62335524192224L106.64673333333333,127.58242027576154L107.12006666666666,134.51821077786957L107.5934,135.1435095346891L108.06673333333333,93.24855811779317L108.54006666666666,85.87310468233551L109.0134,142.14669565054086L109.48673333333333,130.79051025097186L109.96006666666666,142.68703578068659L110.43339999999999,110.18155508774977L110.90673333333334,126.8400565294119L111.38006666666666,105.8839707007775L111.8534,158.90618441655084L112.32673333333334,127.97902444692758L112.80006666666667,139.4050864806542L112.87106666666668,131.75867949999295L113.34440000000001,86.59136009216309L113.81773333333334,159.67885905045728L114.29106666666667,90.88793248396654L114.76440000000001,104.39779050533589L115.23773333333334,147.75652764393732L115.71106666666667,147.73989501366248L116.18440000000001,102.47552200464102L116.65773333333334,98.53626551994911L117.13106666666667,142.60950389275183L117.60440000000001,91.29041275611291L118.07773333333334,140.23438387650708L118.55106666666666,96.7945891893827L119.02439999999999,183.45999468289887L119.49773333333334,138.81078415650586L119.97106666666666,177.7819999181307L120.44439999999999,144.68792977699866L120.91773333333333,123.84267374185416L121.39106666666666,145.95460495581995L121.86439999999999,120.53633862275343L122.33773333333333,138.68268515513492L122.81106666666666,168.661018041464L123.28439999999999,115.83891820907593L123.75773333333333,141.2871200121366L124.23106666666666,113.24168157577515L124.70439999999999,123.49617965404803L125.17773333333332,57.288876753587004L125.65106666666667,66.45814059330868L126.1244,126.58816766738892L126.59773333333332,137.2775951532217L127.07106666666667,101.39138137377226L127.5444,129.33950504889856L128.01773333333333,128.60522094139685L128.49106666666668,94.21031262324408L128.9644,94.97218176034781L129.43773333333334,102.52422835276677L129.91106666666667,149.52774770443256L130.3844,105.24372053146362L130.85773333333333,149.3783804820134L131.33106666666666,162.07467600015494L131.80440000000002,149.1098753122183L132.27773333333334,167.23464349599985L132.75106666666667,137.16155848136316L133.2244,153.0647524320162L133.69773333333333,116.42757294728206L134.17106666666666,120.66004687089186L134.64440000000002,126.23728282635028L135.11773333333335,169.60669488173264L135.59106666666668,129.0718812942505L136.0644,143.3663620215196L136.53773333333334,112.67122642810529L136.8596,104.50775520618146L137.33293333333333,186.1123524078956L137.80626666666666,141.5561801470243L138.2796,114.20067757826585L138.75293333333332,102.72550113384541L139.22626666666667,124.05809813279372L139.6996,171.9126727764423L140.17293333333333,149.34271581356342L140.64626666666666,154.50531123234674L141.1196,123.23883907611554L141.59293333333332,110.81496612842267L142.06626666666665,126.53897164418147L142.5396,159.84159440260666L143.01293333333334,137.88714269491342L143.48626666666667,129.7753158716055L143.9596,136.21854220903836L144.43293333333332,136.6694513467642L144.90626666666665,147.12827451412494L145.3796,146.4431374623225L145.8529333333333,106.02547047688411L146.32626666666667,103.43190640669603L146.7996,113.92510476479164L147.27293333333333,142.94315217091486L147.74626666666666,146.4936229632451L148.2196,103.16736760506264L148.69293333333331,97.82643252152664L149.16626666666667,127.68559481547429L149.6396,121.8561925154466L150.11293333333333,83.54025994814361L150.58626666666666,139.63187133348904L151.05960000000002,106.08991171763493L151.53293333333332,149.102758701031L152.00626666666668,113.80985157306378L152.40859999999998,156.18801436057456L152.88193333333334,100.58728592212384L153.35526666666667,172.7451367378235L153.8286,177.93848375173715L154.30193333333332,163.20229977827805L154.77526666666668,155.401612501878L155.24859999999998,78.99281068948599L155.72193333333334,130.44019669752856L156.19526666666667,81.32330498328577L156.6686,146.1671402637775L157.14193333333333,161.54873231741098L157.61526666666668,96.99005115949191L158.08859999999999,118.18180128244254L158.56193333333334,134.2338238129249L159.03526666666667,106.70190763473511L159.5086,123.7603430381188L159.98193333333333,120.3863511452308L160.45526666666666,173.57115331062903L160.9286,119.29114385751578L161.40193333333335,91.99884201930121L161.87526666666665,102.45508623123169L162.3486,99.49493507238536L162.82193333333333,106.00015427516057L163.29526666666666,124.2206865824186L163.7686,102.11117109885583L164.24193333333335,157.86306223502524L164.71526666666665,141.15864559320303L165.1886,177.1814787204449L165.66193333333334,108.39017673639151L166.13526666666667,116.94512686362633L166.6086,129.3209790083078L167.08193333333335,136.7168518946721L167.55526666666665,156.35662581370426L168.0286,129.21927349384015L168.50193333333334,119.31301601116473L168.97526666666667,137.65524889872623L169.4486,131.63769710980927L169.92193333333336,150.73925282404971L170.39526666666666,133.39305169765765L170.86860000000001,135.15731837199283L171.34193333333332,147.17353681417612L171.81526666666667,137.483013849992L172.2886,125.12426768816434L172.76193333333333,154.83639687758225L173.23526666666666,127.95556901051448L173.70860000000002,159.83593049416174L174.18193333333332,137.16812012745783L174.65526666666668,113.47824360774113L175.1286,138.39314027932974L175.60193333333333,153.92315285022443L176.07526666666666,136.90421790343063L176.54860000000002,107.65708417158861L177.02193333333332,96.903509250054L177.49526666666668,79.22736505361704L177.9686,129.00969255887543L178.44193333333334,156.03035530677207L178.91526666666667,111.83660789636465L179.38860000000003,148.2521930841299L179.86193333333333,102.48600105138925L180.33526666666668,194.45274323683518L180.8086,103.0756514622615L181.2819333333333,107.61882422520564L181.75526666666667,150.36440654901358L182.22860000000003,131.46134879038885L182.70193333333333,154.4433836570153L183.17526666666666,173.49058543718778L183.6486,164.03205420420718L184.12193333333332,147.41226973900427L184.59526666666667,150.52539539337158L185.06859999999998,161.40220521046564L185.54193333333333,142.30404457679163L186.01526666666666,84.01054389660176L186.4886,122.54826663090633L186.96193333333332,153.34590754142172L187.43526666666668,202.00028481850256L187.90859999999998,149.00154286164502L188.38193333333334,116.12178718126738L188.85526666666667,141.7710006053631L189.3286,149.94465706898615L189.80193333333332,152.98767757415771L190.27526666666668,187.16882639664868L190.74859999999998,187.33177394133347L191.22193333333334,133.50063331310565L191.69526666666667,115.27087879180908L192.1686,153.47474105541522L192.64193333333333,151.7834033232469L193.11526666666668,91.9920518581684L193.52706666666666,101.95222256733821L194.0004,164.4297519830557L194.4737333333333,184.6894872005169L194.94706666666667,77.35967900202826L195.4204,150.66000707332904L195.89373333333333,152.2498514835651L196.36706666666666,118.40610511486346L196.84040000000002,179.88938192220834L197.31373333333332,142.4997024169335L197.78706666666668,147.98718092991754L198.2604,97.72851382769072L198.73373333333333,109.90260351621188L199.20706666666666,66.15914498842682L199.6804,139.31116679998544L200.15373333333332,159.5933128136855L200.62706666666668,111.52910826756404L201.10039999999998,117.6760648580698L201.57373333333334,116.92828204081609L202.04706666666667,145.02920066393338L202.5204,170.7335678247305L202.99373333333332,85.03494416750397L203.46706666666668,136.0014366003183L203.94039999999998,141.47913793417123L204.41373333333334,129.39165544509888L204.88706666666667,119.53444708310641L205.3604,136.89120886876032L205.83373333333333,175.497600372021L206.30706666666669,165.9977895296537L206.7804,98.6874935076787L207.25373333333334,112.16366188342755L207.72706666666667,143.70526614555945L208.2004,123.84154748916626L208.67373333333333,135.34850384638858L209.1470666666667,90.0395214374249L209.6204,126.18057845189021L210.09373333333335,129.3264144017146L210.56706666666668,128.64708816088162L211.0404,117.15573611626259L211.51373333333333,157.62303983248196L211.98706666666666,139.46518593568067L212.4604,115.76518946427565L212.93373333333335,146.57205258882962L213.40706666666665,167.66769581574658L213.8804,130.89095893272986L214.35373333333334,158.16870109851544L214.82706666666667,70.0353802901048L215.3004,172.0763548337496L215.77373333333335,139.99614062676062L216.24706666666665,134.27616438498865L216.7204,96.13039390857404L217.19373333333334,140.2964257093576L217.66706666666667,155.7806046926058L218.1404,167.71756106156568L218.61373333333336,158.93182706832886L219.08706666666666,136.0859708419213L219.56040000000002,133.48453932542066L220.03373333333334,139.67460364561813L220.50706666666667,170.59092547343326L220.9804,109.3674539419321L221.45373333333336,107.61572294968825L221.92706666666666,138.34836765436026L222.40040000000002,96.38662455632137L222.87373333333332,134.48647983257587L223.34706666666665,142.55799007415771L223.8204,189.42195202754093L224.2937333333333,138.6278415459853L224.76706666666666,131.45163690126859L225.2404,88.74390646127554L225.71373333333332,165.27333156879132L226.18706666666665,172.3595339334928L226.6604,144.96929707893958L227.1337333333333,167.23733670894916L227.60706666666667,115.21094256180983L228.0804,130.1344272540166L228.55373333333333,110.62312775391798L229.02706666666666,152.17628596379205L229.5004,134.58567168162418L229.9737333333333,118.30144522740291L230.44706666666667,139.0709648499122L230.9204,139.6237916946411L231.39373333333333,163.46891153775726L231.86706666666666,165.51903420228223L232.34040000000002,127.76356741098257L232.81373333333332,121.03216728797325L233.28706666666668,126.64911589255699L233.7604,112.87442526450525L234.23373333333333,117.36350525342502L234.70706666666666,144.00853824615479L235.1804,140.0159724675692L235.4265333333333,220.2539681287912L235.89986666666667,175.62187990775473L236.3732,155.5600550358112L236.84653333333333,149.49227890601523L237.31986666666666,140.42316994300256L237.7932,186.106492629418L238.2665333333333,97.16142111558182L238.73986666666667,115.42102949435895L239.2132,141.77380807583148L239.68653333333333,152.04826857493472L240.15986666666666,117.06797001912044L240.63320000000002,116.36964438511775L241.10653333333332,145.34432290150568L241.57986666666667,186.76789676226102L242.05319999999998,152.1663455596337L242.52653333333333,131.39607510199914L242.99986666666666,138.35762251340424L243.4732,121.24000171514658L243.94653333333332,116.18590197196373L244.41986666666668,128.1845247562115L244.89319999999998,125.76889228820801L245.36653333333334,202.67099277789774L245.83986666666667,82.81358212691089L246.3132,147.60255747575025L246.78653333333332,127.59396028518677L247.25986666666668,165.69117131600012L247.73319999999998,142.26627430549036L248.20653333333334,172.28182249802808L248.67986666666667,144.76187071433435L249.1532,116.49271605564998L249.62653333333333,142.55554169874924L250.09986666666668,57.344373262845565L250.57319999999999,149.11614315326398L251.04653333333334,152.92082060300388L251.51986666666667,143.5650884921734L251.9932,135.33009206331693L252.46653333333333,106.75027121030368L252.9398666666667,111.07044594104474L253.4132,180.52963209152222L253.88653333333335,136.99549333865826L254.35986666666665,146.42776166475736L254.8332,191.00484305161694L255.30653333333333,111.5773249406081L255.77986666666666,143.74843916526208L256.2532,185.68733075948862L256.72653333333335,147.38019602115338L257.19986666666665,122.8690201319181L257.6732,99.2071856718797L258.14653333333337,173.3873945749723L258.61986666666667,115.46710791954628L259.0932,134.93041926163892L259.5665333333333,182.13111444619983L260.0398666666667,156.9541110258836L260.5132,148.21091347474317L260.98653333333334,156.20012565759512L261.45986666666664,143.21425261864294L261.9332,165.33070516586304L262.40653333333336,161.6474344913776L262.87986666666666,138.90145565913272" style="fill: none;" fill="none"></path></g></g></g></g></g></g><g transform="translate(46, 178)" clip-path="url(#clip_1)"><clipPath id="clip_1"><rect width="284" height="22"></rect></clipPath><g><g><line x1="0" y1="0" x2="0" y2="5" style="visibility: inherit;" fill="rgb(0, 0, 0)" stroke="rgb(204, 204, 204)" stroke-width="1px"></line><line x1="23.666666666666664" y1="0" x2="23.666666666666664" y2="5" style="visibility: inherit;" fill="rgb(0, 0, 0)" stroke="rgb(204, 204, 204)" stroke-width="1px"></line><line x1="47.33333333333333" y1="0" x2="47.33333333333333" y2="5" style="visibility: inherit;" fill="rgb(0, 0, 0)" stroke="rgb(204, 204, 204)" stroke-width="1px"></line><line x1="71" y1="0" x2="71" y2="5" style="visibility: inherit;" fill="rgb(0, 0, 0)" stroke="rgb(204, 204, 204)" stroke-width="1px"></line><line x1="94.66666666666666" y1="0" x2="94.66666666666666" y2="5" style="visibility: inherit;" fill="rgb(0, 0, 0)" stroke="rgb(204, 204, 204)" stroke-width="1px"></line><line x1="118.33333333333334" y1="0" x2="118.33333333333334" y2="5" style="visibility: inherit;" fill="rgb(0, 0, 0)" stroke="rgb(204, 204, 204)" stroke-width="1px"></line><line x1="142" y1="0" x2="142" y2="5" style="visibility: inherit;" fill="rgb(0, 0, 0)" stroke="rgb(204, 204, 204)" stroke-width="1px"></line><line x1="165.66666666666669" y1="0" x2="165.66666666666669" y2="5" style="visibility: inherit;" fill="rgb(0, 0, 0)" stroke="rgb(204, 204, 204)" stroke-width="1px"></line><line x1="189.33333333333331" y1="0" x2="189.33333333333331" y2="5" style="visibility: inherit;" fill="rgb(0, 0, 0)" stroke="rgb(204, 204, 204)" stroke-width="1px"></line><line x1="213" y1="0" x2="213" y2="5" style="visibility: inherit;" fill="rgb(0, 0, 0)" stroke="rgb(204, 204, 204)" stroke-width="1px"></line><line x1="236.66666666666669" y1="0" x2="236.66666666666669" y2="5" style="visibility: inherit;" fill="rgb(0, 0, 0)" stroke="rgb(204, 204, 204)" stroke-width="1px"></line><line x1="260.3333333333333" y1="0" x2="260.3333333333333" y2="5" style="visibility: inherit;" fill="rgb(0, 0, 0)" stroke="rgb(204, 204, 204)" stroke-width="1px"></line><line x1="284" y1="0" x2="284" y2="5" style="visibility: inherit;" fill="rgb(0, 0, 0)" stroke="rgb(204, 204, 204)" stroke-width="1px"></line></g><g transform="translate(0, 8)"><text x="0" y="0" dx="0em" dy="0.95em" style="text-anchor: middle; visibility: hidden; font-family: &quot;Helvetica Neue&quot;, sans-serif; font-size: 12px; font-weight: 200;" fill="rgb(50, 49, 63)" stroke="none" stroke-width="1px">-5k</text><text x="23.666666666666664" y="0" dx="0em" dy="0.95em" style="text-anchor: middle; visibility: inherit; font-family: &quot;Helvetica Neue&quot;, sans-serif; font-size: 12px; font-weight: 200;" fill="rgb(50, 49, 63)" stroke="none" stroke-width="1px">0</text><text x="47.33333333333333" y="0" dx="0em" dy="0.95em" style="text-anchor: middle; visibility: hidden; font-family: &quot;Helvetica Neue&quot;, sans-serif; font-size: 12px; font-weight: 200;" fill="rgb(50, 49, 63)" stroke="none" stroke-width="1px">5k</text><text x="71" y="0" dx="0em" dy="0.95em" style="text-anchor: middle; visibility: inherit; font-family: &quot;Helvetica Neue&quot;, sans-serif; font-size: 12px; font-weight: 200;" fill="rgb(50, 49, 63)" stroke="none" stroke-width="1px">10k</text><text x="94.66666666666666" y="0" dx="0em" dy="0.95em" style="text-anchor: middle; visibility: hidden; font-family: &quot;Helvetica Neue&quot;, sans-serif; font-size: 12px; font-weight: 200;" fill="rgb(50, 49, 63)" stroke="none" stroke-width="1px">15k</text><text x="118.33333333333334" y="0" dx="0em" dy="0.95em" style="text-anchor: middle; visibility: inherit; font-family: &quot;Helvetica Neue&quot;, sans-serif; font-size: 12px; font-weight: 200;" fill="rgb(50, 49, 63)" stroke="none" stroke-width="1px">20k</text><text x="142" y="0" dx="0em" dy="0.95em" style="text-anchor: middle; visibility: hidden; font-family: &quot;Helvetica Neue&quot;, sans-serif; font-size: 12px; font-weight: 200;" fill="rgb(50, 49, 63)" stroke="none" stroke-width="1px">25k</text><text x="165.66666666666669" y="0" dx="0em" dy="0.95em" style="text-anchor: middle; visibility: inherit; font-family: &quot;Helvetica Neue&quot;, sans-serif; font-size: 12px; font-weight: 200;" fill="rgb(50, 49, 63)" stroke="none" stroke-width="1px">30k</text><text x="189.33333333333331" y="0" dx="0em" dy="0.95em" style="text-anchor: middle; visibility: hidden; font-family: &quot;Helvetica Neue&quot;, sans-serif; font-size: 12px; font-weight: 200;" fill="rgb(50, 49, 63)" stroke="none" stroke-width="1px">35k</text><text x="213" y="0" dx="0em" dy="0.95em" style="text-anchor: middle; visibility: inherit; font-family: &quot;Helvetica Neue&quot;, sans-serif; font-size: 12px; font-weight: 200;" fill="rgb(50, 49, 63)" stroke="none" stroke-width="1px">40k</text><text x="236.66666666666669" y="0" dx="0em" dy="0.95em" style="text-anchor: middle; visibility: hidden; font-family: &quot;Helvetica Neue&quot;, sans-serif; font-size: 12px; font-weight: 200;" fill="rgb(50, 49, 63)" stroke="none" stroke-width="1px">45k</text><text x="260.3333333333333" y="0" dx="0em" dy="0.95em" style="text-anchor: middle; visibility: inherit; font-family: &quot;Helvetica Neue&quot;, sans-serif; font-size: 12px; font-weight: 200;" fill="rgb(50, 49, 63)" stroke="none" stroke-width="1px">50k</text><text x="284" y="0" dx="0em" dy="0.95em" style="text-anchor: middle; visibility: hidden; font-family: &quot;Helvetica Neue&quot;, sans-serif; font-size: 12px; font-weight: 200;" fill="rgb(50, 49, 63)" stroke="none" stroke-width="1px">55k</text></g><line x1="0" y1="0" x2="284" y2="0" fill="rgb(0, 0, 0)" stroke="rgb(204, 204, 204)" stroke-width="1px"></line></g></g></g></g></svg>